<svg xmlns="http://www.w3.org/2000/svg" viewBox="0 0 85.53 126.44"><defs><style>.cls-1{fill:#d9762d;}</style></defs><g id="Layer_2" data-name="Layer 2"><g id="Capa_1" data-name="Capa 1"><path class="cls-1" d="M39.7,115.8c0,.15.13.2.27.2.3,0,.42-.18.42-.31v-.23a1.39,1.39,0,0,1-.41.09C39.83,115.58,39.7,115.63,39.7,115.8Z"/><path class="cls-1" d="M42.28,115a.39.39,0,0,0-.39.39h.79A.39.39,0,0,0,42.28,115Z"/><path class="cls-1" d="M47.49,115c-.29,0-.41.23-.41.5s.09.53.39.53.41-.28.41-.54S47.78,115,47.49,115Z"/><path class="cls-1" d="M54.88,115a.38.38,0,0,0-.39.39h.79A.39.39,0,0,0,54.88,115Z"/><path class="cls-1" d="M45.22,115a.4.4,0,0,0-.4.39h.8A.4.4,0,0,0,45.22,115Z"/><path class="cls-1" d="M60.75,115a.4.4,0,0,0-.4.39h.8A.4.4,0,0,0,60.75,115Z"/><path class="cls-1" d="M49.22,115.8c0,.15.12.2.26.2.3,0,.43-.18.43-.31v-.23a1.39,1.39,0,0,1-.42.09C49.34,115.58,49.22,115.63,49.22,115.8Z"/><path class="cls-1" d="M51.82,115c-.31,0-.42.26-.42.53a.45.45,0,0,0,.43.51c.31,0,.43-.26.43-.52S52.13,115,51.82,115Z"/><path class="cls-1" d="M57.09,115c-.31,0-.42.26-.42.53a.45.45,0,0,0,.43.51c.31,0,.43-.26.43-.52S57.4,115,57.09,115Z"/><path class="cls-1" d="M74.52,105.6c-2.38-2.8-6.29-3.92-10-4.17-4.06-.29-8.3.4-12,.33-10.91-.2-20.57-5-31.31-3.05a11.77,11.77,0,0,0-2.28.6,12.1,12.1,0,0,0-5,3.16,11,11,0,0,0-3.1,8.42c.06,3.59.81,6.76,3.52,9.1a14.23,14.23,0,0,0,8,3.27,30.43,30.43,0,0,0,6.1.31,51.06,51.06,0,0,0,7.92-1.29c2.64-.58,4.62-1.06,7.23-1.78,4-1.1,7.77-2.39,11.69-1.21a3.12,3.12,0,0,1,2.09,4.37c-.39.86-2.53,2.78-3.67,2.73,3.17.14,6.68.15,9.06-1.94,1.25-1.1,2-2.65,3.25-3.76,2.45-2.19,6.3-2.29,8.63-4.6C77.37,113.5,76.89,108.4,74.52,105.6Zm-54.24,4a6.54,6.54,0,0,1,.07-.89l5.38,7.76A7.07,7.07,0,0,1,20.28,109.58Zm6.3,7L22,104.93a7.24,7.24,0,0,1,3.73-2.24l1.36,14Zm1.55,0-.54,0,1.35-14a7.2,7.2,0,0,1,3.73,2.24Zm.84-.15,5.39-7.76a8.67,8.67,0,0,1,.06.89A7.07,7.07,0,0,1,29,116.45Zm19.11-9.52h1.05v4.55h2v.81H48.08Zm-8.73,9.24H38.08v-1.91h.25V116h1Zm1.41,0a.34.34,0,0,1-.16,0c-.12,0-.19-.07-.19-.22a.63.63,0,0,1-.49.22c-.25,0-.46-.12-.46-.39s.23-.38.47-.43.47,0,.47-.2-.17-.23-.31-.23-.34.05-.35.26h-.23c0-.35.28-.47.59-.47s.52.06.52.39v.71c0,.11,0,.15.07.15h.07Zm-.64-3.82c-1.7,0-2.88-.85-2.88-2.61a2.59,2.59,0,0,1,2.87-2.81,3.42,3.42,0,0,1,1.18.21l-.07.89a2.22,2.22,0,0,0-1.13-.28,1.76,1.76,0,0,0-1.76,1.91,1.73,1.73,0,0,0,1.79,1.86,2.82,2.82,0,0,0,1.14-.22l.05.88A4.75,4.75,0,0,1,40.12,112.35Zm2.2,3.65a.33.33,0,0,0,.36-.27h.22a.56.56,0,0,1-.59.48c-.44,0-.65-.31-.66-.73a.67.67,0,0,1,.65-.73c.49,0,.64.46.63.8h-1A.4.4,0,0,0,42.32,116Zm.76-9.06h3.15v.83H44.15v1.33h1.91v.84H44.15v1.52h2.08v.83H43.08Zm1.23,9.23h-.23v-.94a.25.25,0,0,0-.28-.27.38.38,0,0,0-.41.43v.78h-.23v-1.38h.22V115h0a.48.48,0,0,1,.45-.26c.37,0,.48.21.48.51Zm.94-.17a.33.33,0,0,0,.36-.27h.23a.56.56,0,0,1-.6.48c-.44,0-.65-.31-.66-.73a.67.67,0,0,1,.65-.73c.49,0,.64.46.63.8h-1A.4.4,0,0,0,45.25,116Zm1.57-1c-.37,0-.51.21-.51.56v.61h-.22v-1.38h.21v.29h0a.52.52,0,0,1,.51-.33Zm1.29,1.06c0,.45-.21.68-.64.68-.26,0-.56-.11-.58-.41h.23c0,.17.21.23.36.23.3,0,.42-.22.42-.53v-.09h0a.47.47,0,0,1-.43.25.62.62,0,0,1-.62-.7.66.66,0,0,1,.64-.74.45.45,0,0,1,.41.23h0v-.19h.21Zm.58.11h-.22v-1.38h.22Zm-.1-1.57h-.17l.23-.39h.29Zm1.69,1.57a.35.35,0,0,1-.17,0c-.11,0-.19-.07-.19-.22a.6.6,0,0,1-.49.22c-.25,0-.46-.12-.46-.39s.24-.38.47-.43.47,0,.47-.2-.16-.23-.31-.23-.33.05-.34.26H49c0-.35.28-.47.59-.47s.52.06.52.39v.71c0,.11,0,.15.07.15h.07Zm2.2.54h-.23V116h0a.46.46,0,0,1-.44.22.65.65,0,0,1-.64-.73.64.64,0,0,1,.63-.73.54.54,0,0,1,.45.22h0v-.18h.23Zm1.5-.54h-.22V116h0a.49.49,0,0,1-.46.26c-.36,0-.47-.21-.47-.51v-.91h.23v.94a.25.25,0,0,0,.28.27.39.39,0,0,0,.41-.43v-.78H54Zm.94-.17a.33.33,0,0,0,.36-.27h.22a.56.56,0,0,1-.59.48c-.44,0-.65-.31-.67-.73a.68.68,0,0,1,.66-.73c.49,0,.64.46.62.8h-1A.4.4,0,0,0,54.92,116Zm-1-3.56a5.44,5.44,0,0,1-1.43-.21v-.94a3.52,3.52,0,0,0,1.53.43c.56,0,1-.31,1-.79s-.32-.62-1.12-1a3.38,3.38,0,0,1-1-.55,1.27,1.27,0,0,1-.45-1c0-.89.74-1.46,1.88-1.46a4.26,4.26,0,0,1,1.32.23v.92a2.13,2.13,0,0,0-1.35-.45c-.5,0-.83.25-.83.63s.39.58,1.07.87c1,.45,1.47.85,1.48,1.64C56,111.82,55.22,112.44,53.93,112.44Zm3.82,4.27h-.23V116h0a.46.46,0,0,1-.44.22.65.65,0,0,1-.64-.73.64.64,0,0,1,.63-.73.54.54,0,0,1,.45.22h0v-.18h.23Zm-.23-4.42v-5.35h1v5.35Zm1.73,3.88H59V116h0a.49.49,0,0,1-.46.26c-.36,0-.47-.21-.47-.51v-.91h.23v.94a.25.25,0,0,0,.28.27.39.39,0,0,0,.41-.43v-.78h.23Zm.58,0H59.6v-1.38h.23Zm0-1.63H59.6v-.28h.23Zm1,1.46a.33.33,0,0,0,.36-.27h.23a.56.56,0,0,1-.59.48c-.45,0-.66-.31-.67-.73a.67.67,0,0,1,.65-.73c.49,0,.64.46.63.8h-1A.4.4,0,0,0,60.78,116Zm1.57-1c-.37,0-.5.21-.5.56v.61h-.23v-1.38h.21v.29h0a.52.52,0,0,1,.51-.33Zm.72,1a.33.33,0,0,0,.36-.27h.22a.56.56,0,0,1-.59.48c-.44,0-.65-.31-.66-.73a.67.67,0,0,1,.65-.73c.49,0,.64.46.63.8h-1A.4.4,0,0,0,63.07,116Zm1.34.21c-.31,0-.57-.13-.59-.47h.23c0,.2.19.26.37.26s.34,0,.34-.2-.23-.21-.45-.26-.46-.13-.46-.39.28-.4.52-.4.55.1.57.44h-.23c0-.18-.17-.23-.32-.23s-.3,0-.3.17.25.19.46.24.45.13.45.4S64.69,116.21,64.41,116.21Zm-.53-3.92-.55-1.24h-2l-.55,1.24h-1l2.58-5.35h.06L65,112.29Z"/><path class="cls-1" d="M63,115a.39.39,0,0,0-.39.39h.79A.39.39,0,0,0,63,115Z"/><polygon class="cls-1" points="61.61 110.42 63.05 110.42 62.33 108.8 61.61 110.42"/><path class="cls-1" d="M84,79.45H1.53a1.53,1.53,0,0,1,0-3.06H84a1.53,1.53,0,0,1,0,3.06Z"/><path class="cls-1" d="M42.71,35.74A5.27,5.27,0,1,1,48,30.47,5.27,5.27,0,0,1,42.71,35.74Zm0-7.48a2.21,2.21,0,1,0,2.21,2.21A2.21,2.21,0,0,0,42.71,28.26Z"/><path class="cls-1" d="M22.24,11.54a1.52,1.52,0,0,1-1.08-.45,1.54,1.54,0,0,1,0-2.16A30.27,30.27,0,0,1,42.71,0a1.53,1.53,0,1,1,0,3.06,27.25,27.25,0,0,0-19.39,8A1.52,1.52,0,0,1,22.24,11.54Z"/><path class="cls-1" d="M70,41.6a1.45,1.45,0,0,1-.5-.08,1.53,1.53,0,0,1-.94-2,27.24,27.24,0,0,0-1.13-21,1.53,1.53,0,1,1,2.75-1.32,30.28,30.28,0,0,1,1.27,23.29A1.54,1.54,0,0,1,70,41.6Z"/><path class="cls-1" d="M31.66,58.75a1.76,1.76,0,0,1-.59-.11,30.29,30.29,0,0,1-16.5-16.49,1.51,1.51,0,0,1,.82-2,1.53,1.53,0,0,1,2,.82A27.23,27.23,0,0,0,32.24,55.81a1.53,1.53,0,0,1,.83,2A1.52,1.52,0,0,1,31.66,58.75Z"/><path class="cls-1" d="M27.6,16.35a1.52,1.52,0,0,1-1.08-.45,1.54,1.54,0,0,1,0-2.16,23.44,23.44,0,0,1,9.7-5.82,1.53,1.53,0,1,1,.89,2.92,20.37,20.37,0,0,0-8.43,5.06A1.51,1.51,0,0,1,27.6,16.35Z"/><path class="cls-1" d="M64.38,35.72l-.28,0a1.53,1.53,0,0,1-1.22-1.79,20.19,20.19,0,0,0-1.65-12.46A1.53,1.53,0,1,1,64,20.14a23.23,23.23,0,0,1,1.89,14.34A1.53,1.53,0,0,1,64.38,35.72Z"/><path class="cls-1" d="M34.68,51.84a1.76,1.76,0,0,1-.59-.11,23.53,23.53,0,0,1-9.54-7.29A1.53,1.53,0,1,1,27,42.56a20.39,20.39,0,0,0,8.3,6.34,1.54,1.54,0,0,1,.83,2A1.52,1.52,0,0,1,34.68,51.84Z"/><path class="cls-1" d="M40,29.41a1.51,1.51,0,0,1-1.5-1.25L33.86,2.48A1.55,1.55,0,0,1,35,.72,40,40,0,0,1,42.72,0h3.37a3.49,3.49,0,0,1,3.44,4.1L45.39,27.21a1.52,1.52,0,0,1-3-.54l4.13-23.1a.47.47,0,0,0-.09-.36.43.43,0,0,0-.34-.15H42.75a48.29,48.29,0,0,0-5.6.39l4.37,24.16a1.53,1.53,0,0,1-1.23,1.78A1.23,1.23,0,0,1,40,29.41Z"/><path class="cls-1" d="M65.55,48.72a3.52,3.52,0,0,1-2-.66l-19-13.75a1.53,1.53,0,1,1,1.79-2.48l19,13.75a.4.4,0,0,0,.36.07.41.41,0,0,0,.28-.23l1.46-3a51,51,0,0,0,2.07-5.21L45.8,30.64a1.53,1.53,0,1,1,.82-2.94l25.15,7a1.54,1.54,0,0,1,1.09,1.79,38.91,38.91,0,0,1-2.7,7.26l-1.46,3a3.48,3.48,0,0,1-2.29,1.86A3.12,3.12,0,0,1,65.55,48.72Z"/><path class="cls-1" d="M19.08,49.15a1.52,1.52,0,0,1-1.25-.65,37.92,37.92,0,0,1-3.49-6.91l-1.23-3.15a3.47,3.47,0,0,1,2.56-4.69l23-4.58a1.52,1.52,0,1,1,.6,3l-23,4.58A.46.46,0,0,0,16,37a.48.48,0,0,0,0,.37l1.22,3.12a50.28,50.28,0,0,0,2.41,5.06l20.9-12.89a1.53,1.53,0,1,1,1.61,2.6L19.88,48.92A1.48,1.48,0,0,1,19.08,49.15Z"/><path class="cls-1" d="M48.17,79.45H36.28a1.52,1.52,0,0,1-1.13-.5,1.5,1.5,0,0,1-.39-1.16l4-44.62a1.53,1.53,0,1,1,3,.27L38,76.39h8.54L43.26,43.17a1.53,1.53,0,1,1,3-.3l3.39,34.9A1.55,1.55,0,0,1,49.3,79,1.52,1.52,0,0,1,48.17,79.45Z"/></g></g></svg>