<svg xmlns="http://www.w3.org/2000/svg" viewBox="0 0 85.56 133.11"><defs><style>.cls-1{fill:#d9762d;}</style></defs><g id="Layer_2" data-name="Layer 2"><g id="Capa_1" data-name="Capa 1"><path class="cls-1" d="M38.65,122.46c0,.15.13.21.27.21.3,0,.43-.19.43-.32v-.23a1.13,1.13,0,0,1-.42.1C38.78,122.24,38.65,122.3,38.65,122.46Z"/><path class="cls-1" d="M41.24,121.62a.4.4,0,0,0-.4.39h.8A.4.4,0,0,0,41.24,121.62Z"/><path class="cls-1" d="M46.44,121.62c-.29,0-.41.24-.41.5s.09.53.39.53.42-.27.42-.53S46.73,121.62,46.44,121.62Z"/><path class="cls-1" d="M53.84,121.62a.39.39,0,0,0-.4.39h.8A.41.41,0,0,0,53.84,121.62Z"/><path class="cls-1" d="M44.17,121.62a.4.4,0,0,0-.4.39h.8A.39.39,0,0,0,44.17,121.62Z"/><path class="cls-1" d="M59.7,121.62a.4.4,0,0,0-.4.39h.8A.39.39,0,0,0,59.7,121.62Z"/><path class="cls-1" d="M48.17,122.46c0,.15.13.21.27.21.3,0,.42-.19.42-.32v-.23a1.12,1.12,0,0,1-.41.1C48.3,122.24,48.17,122.3,48.17,122.46Z"/><path class="cls-1" d="M50.77,121.62c-.31,0-.41.26-.41.54s.13.51.42.51.43-.26.43-.52S51.09,121.62,50.77,121.62Z"/><path class="cls-1" d="M56,121.62c-.31,0-.41.26-.41.54s.13.51.42.51.43-.26.43-.52S56.36,121.62,56,121.62Z"/><path class="cls-1" d="M73.47,112.26c-2.38-2.8-6.28-3.92-9.95-4.17-4.05-.28-8.3.4-12,.33-10.92-.19-20.58-5-31.32-3A12.65,12.65,0,0,0,18,106a12.19,12.19,0,0,0-5,3.17,13,13,0,0,0-2.58,4.24,12.67,12.67,0,0,0-.52,4.18c.06,3.58.81,6.75,3.53,9.1a14.27,14.27,0,0,0,8,3.27,31,31,0,0,0,6.09.31A52.08,52.08,0,0,0,35.44,129c2.64-.59,4.62-1.07,7.23-1.79,4-1.1,7.77-2.39,11.7-1.21a3.12,3.12,0,0,1,2.08,4.37c-.38.87-2.52,2.79-3.67,2.74,3.17.13,6.68.15,9.06-1.95,1.25-1.09,2-2.65,3.26-3.76,2.44-2.19,6.29-2.28,8.62-4.6C76.32,120.16,75.85,115.06,73.47,112.26Zm-54.23,4a6.54,6.54,0,0,1,.06-.89l5.38,7.77A7.07,7.07,0,0,1,19.24,116.24Zm6.29,7L21,111.6a7,7,0,0,1,3.72-2.24l1.36,13.94C25.89,123.29,25.71,123.29,25.53,123.27Zm1.55,0c-.18,0-.36,0-.54,0l1.35-13.94a7,7,0,0,1,3.73,2.24Zm.85-.15,5.38-7.77a6.54,6.54,0,0,1,.06.89A7.07,7.07,0,0,1,27.93,123.12ZM47,113.59h1v4.55h2V119H47Zm-8.73,9.25H37v-1.92h.26v1.7h1Zm1.42,0a.29.29,0,0,1-.17,0c-.12,0-.19-.06-.19-.21a.65.65,0,0,1-.49.21c-.25,0-.46-.11-.46-.39s.24-.38.47-.43.47,0,.47-.2-.17-.23-.31-.23-.34.06-.35.26h-.22c0-.34.27-.46.58-.46s.52,0,.52.38v.71c0,.11,0,.16.08.16h.07ZM39.07,119c-1.7,0-2.87-.84-2.88-2.61a2.6,2.6,0,0,1,2.87-2.81,3.78,3.78,0,0,1,1.19.21l-.08.89a2.21,2.21,0,0,0-1.13-.27,1.74,1.74,0,0,0-1.75,1.9,1.72,1.72,0,0,0,1.78,1.87,2.73,2.73,0,0,0,1.15-.23l0,.88A4.75,4.75,0,0,1,39.07,119Zm2.2,3.66a.33.33,0,0,0,.36-.27h.23a.56.56,0,0,1-.6.47c-.44,0-.65-.31-.66-.73a.66.66,0,0,1,.65-.72c.49,0,.64.46.63.79h-1A.41.41,0,0,0,41.27,122.67ZM42,113.6h3.15v.84H43.1v1.33H45v.83H43.1v1.52h2.08V119H42Zm1.23,9.24H43v-.94a.27.27,0,0,0-.29-.28.39.39,0,0,0-.41.43v.79h-.23v-1.39h.22v.22h0a.5.5,0,0,1,.46-.25c.36,0,.47.21.47.51Zm1-.17a.33.33,0,0,0,.35-.27h.23a.56.56,0,0,1-.59.47c-.45,0-.66-.31-.67-.73a.65.65,0,1,1,1.28.07h-1A.41.41,0,0,0,44.21,122.67Zm1.56-1c-.37,0-.5.21-.5.56v.62H45v-1.39h.21v.29h0a.5.5,0,0,1,.51-.32Zm1.29,1.06c0,.45-.2.68-.64.68-.26,0-.56-.1-.58-.41h.23c0,.17.21.23.36.23s.42-.22.42-.53v-.09h0a.45.45,0,0,1-.43.25.63.63,0,0,1-.62-.7.65.65,0,0,1,.64-.73.47.47,0,0,1,.42.23h0v-.2h.21Zm.59.12h-.23v-1.39h.23Zm-.11-1.58h-.17l.23-.38h.29Zm1.69,1.57a.25.25,0,0,1-.16,0,.18.18,0,0,1-.2-.21.61.61,0,0,1-.48.21c-.26,0-.46-.11-.46-.39s.23-.38.47-.43.46,0,.46-.2-.16-.23-.31-.23-.33.06-.34.26H48c0-.34.28-.46.59-.46s.52,0,.52.38v.71c0,.11,0,.16.07.16h.07Zm2.2.54H51.2v-.72h0a.49.49,0,0,1-.45.22.66.66,0,0,1-.64-.73.64.64,0,0,1,.64-.72.53.53,0,0,1,.45.22h0v-.19h.23Zm1.5-.53h-.22v-.22h0a.48.48,0,0,1-.45.25c-.37,0-.48-.21-.48-.51v-.91H52v.94a.26.26,0,0,0,.28.28.39.39,0,0,0,.41-.44v-.78h.23Zm.94-.17a.33.33,0,0,0,.36-.27h.23a.58.58,0,0,1-.6.47c-.44,0-.65-.31-.66-.73a.66.66,0,0,1,.65-.72c.49,0,.64.46.63.79h-1A.41.41,0,0,0,53.87,122.67Zm-1-3.57a6,6,0,0,1-1.44-.2v-1a3.59,3.59,0,0,0,1.53.44c.57,0,1-.32,1-.79s-.32-.63-1.12-1a3.29,3.29,0,0,1-1-.55,1.31,1.31,0,0,1-.45-1c0-.89.74-1.45,1.88-1.45a4.32,4.32,0,0,1,1.33.23v.91a2.16,2.16,0,0,0-1.36-.45c-.5,0-.83.26-.83.63s.39.58,1.07.87c1,.46,1.47.85,1.48,1.65C55,118.49,54.17,119.1,52.89,119.1Zm3.81,4.27h-.23v-.72h0a.49.49,0,0,1-.45.22.66.66,0,0,1-.64-.73.64.64,0,0,1,.64-.72.53.53,0,0,1,.45.22h0v-.19h.23ZM56.47,119V113.6h1.05V119Zm1.73,3.89H58v-.22h0a.48.48,0,0,1-.45.25c-.37,0-.48-.21-.48-.51v-.91h.23v.94a.26.26,0,0,0,.28.28.39.39,0,0,0,.41-.44v-.78h.23Zm.58,0h-.22v-1.39h.22Zm0-1.64h-.22v-.28h.22Zm1,1.47a.34.34,0,0,0,.36-.27h.22a.56.56,0,0,1-.59.47c-.44,0-.65-.31-.67-.73a.65.65,0,1,1,1.28.07h-1A.42.42,0,0,0,59.74,122.67Zm1.56-1c-.37,0-.5.21-.5.56v.62h-.23v-1.39h.22v.29h0a.5.5,0,0,1,.51-.32Zm.72,1a.33.33,0,0,0,.36-.27h.23a.56.56,0,0,1-.6.47c-.44,0-.65-.31-.66-.73a.66.66,0,0,1,.65-.72c.49,0,.64.46.63.79h-1A.41.41,0,0,0,62,122.67Zm1.34.2c-.31,0-.57-.13-.58-.47H63c0,.2.19.27.38.27s.33,0,.33-.21-.22-.2-.45-.26-.45-.12-.45-.39.27-.39.51-.39.55.09.57.43h-.23c0-.17-.17-.23-.32-.23s-.29,0-.29.18.24.19.45.24.45.12.45.39S63.65,122.87,63.36,122.87ZM62.84,119l-.55-1.24h-2L59.73,119h-1l2.59-5.36h0L64,119Z"/><path class="cls-1" d="M62,121.62a.4.4,0,0,0-.4.39h.8A.4.4,0,0,0,62,121.62Z"/><polygon class="cls-1" points="60.56 117.08 62 117.08 61.28 115.46 60.56 117.08"/><path class="cls-1" d="M17.37,61.74H9.87a1.5,1.5,0,0,1-1.36-.84,10.59,10.59,0,0,1,0-8.87,1.53,1.53,0,0,1,1.55-.83l15,1.88a1.49,1.49,0,0,1,1.1.7,1.53,1.53,0,0,1,.16,1.3C26.23,55.35,24,61.74,17.37,61.74Zm-6.44-3.05h6.44a6.12,6.12,0,0,0,5.14-2.85L10.85,54.38A7.56,7.56,0,0,0,10.93,58.69Z"/><path class="cls-1" d="M18.41,86.11H5.29a3.4,3.4,0,0,1-3.4-3.4V65.84a1.53,1.53,0,1,1,3.05,0V82.71a.35.35,0,0,0,.35.35H18.41a.35.35,0,0,0,.35-.35v-7.5a1.53,1.53,0,1,1,3.06,0v7.5A3.41,3.41,0,0,1,18.41,86.11Z"/><path class="cls-1" d="M7.17,46.75a1.62,1.62,0,0,1-.49-.08L3.3,45.54A4.8,4.8,0,0,1,0,41V37.49a3.17,3.17,0,0,1,3.17-3.17h9.61a1.53,1.53,0,0,1,0,3.06H3.18a.11.11,0,0,0-.11.11V41a1.73,1.73,0,0,0,1.2,1.66l3.38,1.13a1.53,1.53,0,0,1-.48,3Z"/><path class="cls-1" d="M77.64,76.74H7.92a2.86,2.86,0,0,1-.53,0,5.29,5.29,0,0,1-4.57-3.85,26.77,26.77,0,0,1-.94-6.67c-.2-.43-.4-.86-.56-1.3-2.46-6.65,0-13,2.57-17.24a31,31,0,0,1,3.89-5.19l9.06-18.13a9,9,0,0,1,3.67-3.85A1.53,1.53,0,0,1,22,23.14a6,6,0,0,0-2.42,2.55L10.41,44a1.41,1.41,0,0,1-.29.4,28,28,0,0,0-3.61,4.8c-2.19,3.62-4.36,9.09-2.32,14.6.15.42.36.86.58,1.32a1.83,1.83,0,0,1,.16.69A23.8,23.8,0,0,0,5.76,72a2.26,2.26,0,0,0,2,1.63l.15,0H77.64s0,0,0,0l.23,0a2.27,2.27,0,0,0,2-1.65,24,24,0,0,0,.82-6.18,1.47,1.47,0,0,1,.15-.65c.21-.45.43-.92.59-1.36,2-5.51-.13-11-2.31-14.6a28.3,28.3,0,0,0-3.62-4.8,1.6,1.6,0,0,1-.28-.4L66,25.69a6,6,0,0,0-2.43-2.55,1.53,1.53,0,0,1,1.5-2.67,9,9,0,0,1,3.66,3.85l9.06,18.13a30.9,30.9,0,0,1,3.9,5.19c2.53,4.19,5,10.59,2.56,17.24-.17.45-.36.88-.56,1.3a26.94,26.94,0,0,1-.93,6.65,5.31,5.31,0,0,1-4.58,3.87A2.86,2.86,0,0,1,77.64,76.74ZM8,73.7H8Zm0,0Zm43.51-6.62a1.53,1.53,0,0,1-1-2.69,2,2,0,0,0,.64-1,.5.5,0,0,1,0-.13L53.29,58h-21l2.11,5.27a.5.5,0,0,1,0,.13,2.12,2.12,0,0,0,.64,1,1.53,1.53,0,0,1-2,2.33,5,5,0,0,1-1.57-2.4L28.59,57a1.55,1.55,0,0,1,.15-1.43A1.53,1.53,0,0,1,30,54.93H55.56A1.53,1.53,0,0,1,57,57L54,64.32a5.17,5.17,0,0,1-1.57,2.4A1.55,1.55,0,0,1,51.48,67.08Zm24.21-5.33H70.91a1.53,1.53,0,0,1,0-3.06h3.72a7.55,7.55,0,0,0,.08-4.31L63.06,55.83a7.38,7.38,0,0,0,1.46,1.59,1.53,1.53,0,0,1-1.91,2.39,11.19,11.19,0,0,1-3.36-4.75,1.53,1.53,0,0,1,1.26-2l15-1.87a1.54,1.54,0,0,1,1.56.83,10.65,10.65,0,0,1,0,8.87A1.53,1.53,0,0,1,75.69,61.75Z"/><path class="cls-1" d="M70.91,61.75H68.18a8.72,8.72,0,0,1-5.58-2,1.53,1.53,0,1,1,1.93-2.37,5.62,5.62,0,0,0,3.65,1.26h2.73a1.53,1.53,0,0,1,0,3.06Z"/><path class="cls-1" d="M80.27,86.11H67.15a3.4,3.4,0,0,1-3.4-3.4v-7.5a1.53,1.53,0,1,1,3,0v7.5a.35.35,0,0,0,.35.35H80.27a.35.35,0,0,0,.35-.35V65.84a1.53,1.53,0,0,1,3.06,0V82.71A3.41,3.41,0,0,1,80.27,86.11Z"/><path class="cls-1" d="M78.4,46.75a1.53,1.53,0,0,1-.48-3l3.37-1.13A1.74,1.74,0,0,0,82.49,41V37.49a.11.11,0,0,0-.11-.11H72.77a1.53,1.53,0,0,1,0-3.06h9.61a3.17,3.17,0,0,1,3.17,3.17V41a4.8,4.8,0,0,1-3.29,4.56l-3.38,1.13A1.61,1.61,0,0,1,78.4,46.75Z"/><path class="cls-1" d="M76.52,44.87H9a1.53,1.53,0,1,1,0-3H76.52a1.53,1.53,0,1,1,0,3Z"/><path class="cls-1" d="M49,68.07H36.58a5.17,5.17,0,0,1-3.53-1.39,1.53,1.53,0,1,1,2.07-2.25,2.13,2.13,0,0,0,1.46.58H49a2.11,2.11,0,0,0,1.46-.58,1.53,1.53,0,0,1,2.07,2.25A5.17,5.17,0,0,1,49,68.07Z"/><path class="cls-1" d="M42.78,37.27A18.64,18.64,0,1,1,61.42,18.63,18.66,18.66,0,0,1,42.78,37.27Zm0-34.21A15.58,15.58,0,1,0,58.36,18.63,15.59,15.59,0,0,0,42.78,3.06Z"/><path class="cls-1" d="M84,86.11H1.53a1.53,1.53,0,1,1,0-3H84a1.53,1.53,0,1,1,0,3Z"/><path class="cls-1" d="M40.26,31.51a1.44,1.44,0,0,1-.67-.16,1.52,1.52,0,0,1-.83-1.66l1.33-7h-7A1.53,1.53,0,0,1,32,20.15L44.16,6.28A1.5,1.5,0,0,1,46,5.92a1.52,1.52,0,0,1,.83,1.66l-1.33,7h7a1.53,1.53,0,0,1,1.14,2.54L41.41,31A1.53,1.53,0,0,1,40.26,31.51ZM36.49,19.63h5.45a1.53,1.53,0,0,1,1.18.55,1.51,1.51,0,0,1,.32,1.26l-.63,3.32,6.26-7.12H43.62a1.53,1.53,0,0,1-1.5-1.81l.63-3.33Z"/></g></g></svg>