<svg xmlns="http://www.w3.org/2000/svg" viewBox="0 0 92.04 133.29"><defs><style>.cls-1{fill:#d9762d;}</style></defs><g id="Layer_2" data-name="Layer 2"><g id="Capa_1" data-name="Capa 1"><path class="cls-1" d="M42.44,122.65c0,.15.13.2.27.2.3,0,.42-.19.42-.31v-.24a1.12,1.12,0,0,1-.41.1C42.57,122.42,42.44,122.48,42.44,122.65Z"/><path class="cls-1" d="M45,121.8a.4.4,0,0,0-.4.39h.8A.4.4,0,0,0,45,121.8Z"/><path class="cls-1" d="M50.23,121.8c-.3,0-.41.24-.41.51s.09.52.39.52.41-.27.41-.53S50.51,121.8,50.23,121.8Z"/><path class="cls-1" d="M57.62,121.8a.4.4,0,0,0-.4.39H58A.4.4,0,0,0,57.62,121.8Z"/><path class="cls-1" d="M48,121.8a.39.39,0,0,0-.39.39h.79A.4.4,0,0,0,48,121.8Z"/><path class="cls-1" d="M63.49,121.8a.39.39,0,0,0-.4.39h.8A.41.41,0,0,0,63.49,121.8Z"/><path class="cls-1" d="M52,122.65c0,.15.13.2.27.2.3,0,.42-.19.42-.31v-.24c-.08.07-.26.07-.41.1S52,122.48,52,122.65Z"/><path class="cls-1" d="M54.56,121.8c-.32,0-.42.27-.42.54s.13.51.43.51.42-.26.42-.52S54.87,121.8,54.56,121.8Z"/><path class="cls-1" d="M59.83,121.8c-.32,0-.42.27-.42.54s.13.51.43.51.42-.26.42-.52S60.14,121.8,59.83,121.8Z"/><path class="cls-1" d="M77.25,112.44c-2.38-2.8-6.28-3.91-9.94-4.17-4.06-.28-8.31.4-12,.34-10.91-.2-20.57-5-31.32-3.06a12.65,12.65,0,0,0-2.27.6,12.26,12.26,0,0,0-5,3.17,12.86,12.86,0,0,0-2.57,4.24,12.7,12.7,0,0,0-.52,4.18c.06,3.59.81,6.75,3.52,9.1a14.27,14.27,0,0,0,8,3.27,31.15,31.15,0,0,0,6.1.31,52,52,0,0,0,7.91-1.29c2.64-.59,4.63-1.07,7.24-1.79,4-1.09,7.77-2.39,11.69-1.2a3.11,3.11,0,0,1,2.08,4.36c-.38.87-2.52,2.79-3.66,2.74,3.16.13,6.68.15,9.06-1.94,1.24-1.1,2-2.66,3.25-3.77,2.44-2.19,6.3-2.28,8.62-4.6C80.11,120.34,79.63,115.24,77.25,112.44Zm-54.23,4a5.29,5.29,0,0,1,.07-.9l5.37,7.77A7.07,7.07,0,0,1,23,116.43Zm6.29,7-4.54-11.67a7.14,7.14,0,0,1,3.73-2.24l1.35,13.94Zm1.56,0-.54,0,1.35-13.94a7.18,7.18,0,0,1,3.73,2.24Zm.84-.15,5.38-7.77a6.58,6.58,0,0,1,.06.9A7.07,7.07,0,0,1,31.71,123.3Zm19.11-9.53h1v4.55h2v.82H50.82ZM42.09,123H40.82V121.1h.25v1.7h1Zm1.41,0a.25.25,0,0,1-.16,0,.18.18,0,0,1-.2-.21.62.62,0,0,1-.49.21c-.25,0-.45-.11-.45-.39s.23-.38.47-.42.46,0,.46-.21-.16-.23-.31-.23-.33.06-.34.26h-.23c0-.34.28-.46.59-.46s.52.06.52.38v.71c0,.11,0,.16.07.16h.07Zm-.64-3.82c-1.7,0-2.88-.84-2.89-2.61a2.61,2.61,0,0,1,2.87-2.81A3.46,3.46,0,0,1,44,114l-.07.89a2.14,2.14,0,0,0-1.14-.28,1.75,1.75,0,0,0-1.75,1.9,1.73,1.73,0,0,0,1.78,1.87,2.87,2.87,0,0,0,1.15-.22l0,.87A4.82,4.82,0,0,1,42.86,119.19Zm2.2,3.66a.34.34,0,0,0,.36-.27h.22a.55.55,0,0,1-.59.47c-.44,0-.65-.3-.67-.73a.65.65,0,1,1,1.28.07h-1A.41.41,0,0,0,45.06,122.85Zm.75-9.07H49v.84H46.88V116h1.91v.84H46.88v1.52H49v.83H45.81ZM47.05,123h-.23v-.94a.26.26,0,0,0-.28-.28.39.39,0,0,0-.41.44V123H45.9v-1.39h.21v.22h0a.48.48,0,0,1,.45-.25c.36,0,.48.21.48.51Zm.94-.17a.33.33,0,0,0,.36-.27h.22a.55.55,0,0,1-.59.47c-.44,0-.65-.3-.66-.73a.67.67,0,0,1,.65-.72c.49,0,.64.46.63.79h-1A.41.41,0,0,0,48,122.85Zm1.56-1c-.36,0-.5.21-.5.56V123h-.23v-1.39H49v.29h0a.51.51,0,0,1,.51-.32Zm1.3,1.06c0,.45-.21.68-.65.68-.26,0-.56-.1-.57-.4h.23c0,.16.21.22.36.22s.41-.21.41-.53v-.09h0a.48.48,0,0,1-.44.26.63.63,0,0,1-.62-.71.66.66,0,0,1,.65-.73.45.45,0,0,1,.41.23h0v-.2h.22Zm.58.12H51.2v-1.39h.23Zm-.11-1.58h-.17l.23-.38h.3ZM53,123a.25.25,0,0,1-.16,0c-.12,0-.19-.06-.19-.21a.65.65,0,0,1-.49.21c-.25,0-.46-.11-.46-.39s.23-.38.47-.42.47,0,.47-.21-.17-.23-.31-.23-.34.06-.35.26h-.23c0-.34.28-.46.59-.46s.52.06.52.38v.71c0,.11,0,.16.08.16H53Zm2.2.54H55v-.72h0a.47.47,0,0,1-.44.22.65.65,0,0,1-.64-.73.64.64,0,0,1,.63-.72.52.52,0,0,1,.45.22h0v-.19h.23Zm1.5-.53H56.5v-.22h0a.47.47,0,0,1-.45.25c-.36,0-.48-.21-.48-.51v-.91h.23v.94a.26.26,0,0,0,.28.28.38.38,0,0,0,.41-.43v-.79h.23Zm.94-.17a.33.33,0,0,0,.36-.27h.23a.55.55,0,0,1-.59.47c-.45,0-.66-.3-.67-.73a.67.67,0,0,1,.65-.72c.49,0,.64.46.63.79h-1A.41.41,0,0,0,57.65,122.85Zm-1-3.57a5.42,5.42,0,0,1-1.43-.2v-1a3.55,3.55,0,0,0,1.53.44c.56,0,1-.32,1-.79s-.32-.63-1.11-1a3.58,3.58,0,0,1-1-.56,1.26,1.26,0,0,1-.44-1c0-.9.74-1.46,1.88-1.46a4.26,4.26,0,0,1,1.32.23V115a2.1,2.1,0,0,0-1.35-.46c-.5,0-.83.26-.83.64s.39.57,1.06.87c1,.45,1.47.84,1.48,1.64C58.75,118.67,58,119.28,56.67,119.28Zm3.81,4.27h-.23v-.72h0a.47.47,0,0,1-.44.22.65.65,0,0,1-.64-.73.64.64,0,0,1,.63-.72.52.52,0,0,1,.45.22h0v-.19h.23Zm-.22-4.41v-5.36h1v5.36ZM62,123h-.21v-.22h0a.47.47,0,0,1-.45.25c-.36,0-.48-.21-.48-.51v-.91h.23v.94a.26.26,0,0,0,.28.28.38.38,0,0,0,.41-.43v-.79H62Zm.59,0h-.23v-1.39h.23Zm0-1.64h-.23v-.28h.23Zm1,1.47a.33.33,0,0,0,.36-.27h.23a.57.57,0,0,1-.6.47c-.44,0-.65-.3-.66-.73a.67.67,0,0,1,.65-.72c.49,0,.64.46.63.79h-1A.41.41,0,0,0,63.52,122.85Zm1.56-1c-.36,0-.5.21-.5.56V123h-.23v-1.39h.22v.29h0a.51.51,0,0,1,.51-.32Zm.73,1a.34.34,0,0,0,.36-.27h.22a.55.55,0,0,1-.59.47c-.44,0-.65-.3-.67-.73a.65.65,0,1,1,1.28.07h-1A.41.41,0,0,0,65.81,122.85Zm1.34.2c-.31,0-.58-.12-.59-.47h.23c0,.21.18.27.37.27s.34,0,.34-.21-.23-.2-.46-.25-.45-.13-.45-.4.28-.39.52-.39.55.1.57.43h-.23c0-.17-.17-.23-.32-.23s-.3,0-.3.18.24.19.45.24.46.13.46.39S67.43,123.05,67.15,123.05Zm-.53-3.91-.55-1.24h-2l-.55,1.24h-1l2.58-5.36h.05l2.59,5.36Z"/><path class="cls-1" d="M65.77,121.8a.4.4,0,0,0-.4.39h.8A.4.4,0,0,0,65.77,121.8Z"/><polygon class="cls-1" points="64.34 117.27 65.78 117.27 65.06 115.64 64.34 117.27"/><path class="cls-1" d="M46,14.7A1.7,1.7,0,0,1,44.31,13V10.54a1.71,1.71,0,1,1,3.42,0V13A1.71,1.71,0,0,1,46,14.7Z"/><path class="cls-1" d="M53.84,17.94a1.67,1.67,0,0,1-1.21-.5,1.71,1.71,0,0,1,0-2.42l1.73-1.73a1.71,1.71,0,0,1,2.42,2.41L55,17.44A1.66,1.66,0,0,1,53.84,17.94Z"/><path class="cls-1" d="M59.53,25.76H57.07a1.71,1.71,0,0,1,0-3.42h2.46a1.71,1.71,0,1,1,0,3.42Z"/><path class="cls-1" d="M55.57,35.31a1.69,1.69,0,0,1-1.21-.5l-1.73-1.74A1.7,1.7,0,0,1,55,30.66l1.74,1.73a1.71,1.71,0,0,1,0,2.42A1.67,1.67,0,0,1,55.57,35.31Z"/><path class="cls-1" d="M46,39.27a1.7,1.7,0,0,1-1.71-1.71V35.1a1.71,1.71,0,1,1,3.42,0v2.46A1.71,1.71,0,0,1,46,39.27Z"/><path class="cls-1" d="M36.46,35.31a1.7,1.7,0,0,1-1.21-.5,1.73,1.73,0,0,1,0-2.42L37,30.66a1.71,1.71,0,1,1,2.42,2.41l-1.74,1.74A1.67,1.67,0,0,1,36.46,35.31Z"/><path class="cls-1" d="M35,25.76H32.51a1.71,1.71,0,1,1,0-3.42H35a1.71,1.71,0,0,1,0,3.42Z"/><path class="cls-1" d="M38.2,17.94a1.69,1.69,0,0,1-1.21-.5L35.25,15.7a1.71,1.71,0,0,1,2.42-2.41L39.41,15a1.71,1.71,0,0,1,0,2.42A1.67,1.67,0,0,1,38.2,17.94Z"/><path class="cls-1" d="M46,31.9a7.85,7.85,0,1,1,7.85-7.85A7.87,7.87,0,0,1,46,31.9Zm0-12.28a4.43,4.43,0,1,0,4.43,4.43A4.43,4.43,0,0,0,46,19.62Z"/><path class="cls-1" d="M46,48.43a24.16,24.16,0,1,1,2.44-.12h0C47.67,48.39,46.85,48.43,46,48.43Zm2.27-1.82h0ZM46,3.42c-.7,0-1.4,0-2.1.1a21,21,0,1,0,2.1-.1Z"/><path class="cls-1" d="M20.52,83.22a1.54,1.54,0,0,1-.66-.14A1.71,1.71,0,0,1,19,80.84L29.21,56.66A1.71,1.71,0,1,1,32.36,58L22.1,82.18A1.72,1.72,0,0,1,20.52,83.22Z"/><path class="cls-1" d="M71.51,83.22a1.71,1.71,0,0,1-1.53-1L58,58.08a1.71,1.71,0,1,1,3.06-1.51L73,80.75a1.71,1.71,0,0,1-1.53,2.47Z"/><path class="cls-1" d="M46,83.22a1.71,1.71,0,0,1-1.71-1.71V57.38a1.71,1.71,0,1,1,3.42,0V81.51A1.72,1.72,0,0,1,46,83.22Z"/><path class="cls-1" d="M90.33,84.07H1.71A1.7,1.7,0,0,1,.24,81.49l15.39-25.9a1.73,1.73,0,0,1,1.47-.83H73.22a1.71,1.71,0,0,1,1.43.77l17.1,25.89a1.71,1.71,0,0,1-1.42,2.65ZM4.72,80.65H87.15L72.3,58.18H18.08Z"/><path class="cls-1" d="M90.33,91.16H1.71A1.72,1.72,0,0,1,0,89.45V82.36a1.71,1.71,0,0,1,3.42,0v5.38H88.61V82.36a1.72,1.72,0,0,1,3.43,0v7.09A1.72,1.72,0,0,1,90.33,91.16Z"/><path class="cls-1" d="M77.1,65.29H14a1.72,1.72,0,0,1,0-3.43H77.1a1.72,1.72,0,0,1,0,3.43Z"/><path class="cls-1" d="M83.28,73.83H8.75a1.72,1.72,0,0,1,0-3.43H83.28a1.72,1.72,0,0,1,0,3.43Z"/></g></g></svg>