<svg xmlns="http://www.w3.org/2000/svg" viewBox="0 0 85.56 134.83"><defs><style>.cls-1{fill:#d9762d;}</style></defs><g id="Layer_2" data-name="Layer 2"><g id="Capa_1" data-name="Capa 1"><path class="cls-1" d="M37.61,124.18c0,.15.13.21.27.21.3,0,.42-.19.42-.32v-.23a1.13,1.13,0,0,1-.41.09C37.74,124,37.61,124,37.61,124.18Z"/><path class="cls-1" d="M40.19,123.34a.39.39,0,0,0-.39.39h.79A.39.39,0,0,0,40.19,123.34Z"/><path class="cls-1" d="M45.4,123.34c-.29,0-.41.24-.41.5s.09.53.39.53.41-.28.41-.54S45.69,123.34,45.4,123.34Z"/><path class="cls-1" d="M52.79,123.34a.38.38,0,0,0-.39.39h.79A.39.39,0,0,0,52.79,123.34Z"/><path class="cls-1" d="M43.13,123.34a.4.4,0,0,0-.4.39h.8A.4.4,0,0,0,43.13,123.34Z"/><path class="cls-1" d="M58.66,123.34a.4.4,0,0,0-.4.39h.8A.4.4,0,0,0,58.66,123.34Z"/><path class="cls-1" d="M47.13,124.18c0,.15.12.21.26.21.3,0,.43-.19.43-.32v-.23a1.14,1.14,0,0,1-.42.09C47.25,124,47.13,124,47.13,124.18Z"/><path class="cls-1" d="M49.73,123.34c-.31,0-.42.26-.42.53a.46.46,0,0,0,.43.52c.31,0,.43-.27.43-.53S50,123.34,49.73,123.34Z"/><path class="cls-1" d="M55,123.34c-.31,0-.42.26-.42.53a.46.46,0,0,0,.43.52c.31,0,.43-.27.43-.53S55.31,123.34,55,123.34Z"/><path class="cls-1" d="M72.43,114c-2.38-2.8-6.29-3.92-10-4.17-4.06-.28-8.3.4-12,.33-10.91-.19-20.57-5-31.31-3a11.77,11.77,0,0,0-2.28.6,12.3,12.3,0,0,0-5,3.16,12.91,12.91,0,0,0-2.57,4.25,12.67,12.67,0,0,0-.52,4.18c.06,3.58.81,6.75,3.52,9.09a14.16,14.16,0,0,0,8,3.27,30.43,30.43,0,0,0,6.1.31,50.75,50.75,0,0,0,7.91-1.29c2.65-.58,4.63-1.06,7.24-1.78,4-1.1,7.77-2.39,11.69-1.21A3.12,3.12,0,0,1,55.41,132c-.39.86-2.53,2.78-3.67,2.74,3.17.13,6.68.15,9.06-1.95,1.25-1.1,2-2.65,3.25-3.76,2.45-2.19,6.3-2.29,8.63-4.6C75.28,121.88,74.8,116.78,72.43,114Zm-54.24,4a6.54,6.54,0,0,1,.07-.89l5.38,7.77A7.08,7.08,0,0,1,18.19,118Zm6.3,7-4.55-11.67a7.12,7.12,0,0,1,3.73-2.23L25,125ZM26,125l-.54,0,1.35-13.94a7.12,7.12,0,0,1,3.73,2.23Zm.84-.14,5.39-7.77a8.67,8.67,0,0,1,.06.89A7.08,7.08,0,0,1,26.88,124.84ZM46,115.31h1v4.55h2v.82H46Zm-8.73,9.25H36v-1.92h.25v1.7h1Zm1.41,0a.34.34,0,0,1-.16,0c-.12,0-.19-.07-.19-.22a.63.63,0,0,1-.49.22c-.25,0-.46-.12-.46-.39s.23-.38.47-.43.47,0,.47-.2-.17-.23-.31-.23-.34.06-.35.26h-.23c0-.34.28-.46.59-.46s.52,0,.52.38v.71c0,.11,0,.16.07.16l.07,0ZM38,120.73c-1.7,0-2.88-.84-2.89-2.61A2.61,2.61,0,0,1,38,115.31a3.68,3.68,0,0,1,1.18.21l-.07.89a2.22,2.22,0,0,0-1.13-.28A1.76,1.76,0,0,0,36.24,118,1.72,1.72,0,0,0,38,119.9a2.82,2.82,0,0,0,1.14-.22l0,.88A4.75,4.75,0,0,1,38,120.73Zm2.2,3.66a.34.34,0,0,0,.36-.28h.22a.56.56,0,0,1-.59.48c-.44,0-.65-.31-.66-.73a.66.66,0,0,1,.65-.72c.49,0,.64.45.63.79h-1A.41.41,0,0,0,40.23,124.39Zm.75-9.07h3.16v.84H42.06v1.32H44v.84H42.06v1.52h2.08v.84H41Zm1.24,9.24H42v-.94a.26.26,0,0,0-.28-.28.38.38,0,0,0-.41.43v.79h-.23v-1.39h.22v.22h0a.48.48,0,0,1,.45-.25c.37,0,.48.2.48.5Zm.94-.17a.34.34,0,0,0,.36-.28h.23a.56.56,0,0,1-.6.48c-.44,0-.65-.31-.66-.73a.66.66,0,0,1,.65-.72c.49,0,.64.45.63.79h-1A.41.41,0,0,0,43.16,124.39Zm1.57-1c-.37,0-.51.21-.51.56v.62H44v-1.39h.21v.29h0a.5.5,0,0,1,.51-.32ZM46,124.44c0,.45-.21.68-.64.68-.26,0-.57-.11-.58-.41H45c0,.17.21.23.36.23s.42-.22.42-.53v-.09h0a.47.47,0,0,1-.43.25.62.62,0,0,1-.62-.7.65.65,0,0,1,.64-.73.44.44,0,0,1,.41.23h0v-.2H46Zm.58.12h-.22v-1.39h.22ZM46.5,123h-.17l.23-.39h.29Zm1.69,1.57a.35.35,0,0,1-.17,0c-.11,0-.19-.07-.19-.22a.61.61,0,0,1-.49.22c-.25,0-.46-.12-.46-.39s.24-.38.47-.43.47,0,.47-.2-.16-.23-.31-.23-.33.06-.34.26h-.23c0-.34.28-.46.59-.46s.52,0,.52.38v.71c0,.11,0,.16.07.16l.07,0Zm2.2.54h-.23v-.72h0a.46.46,0,0,1-.44.22.65.65,0,0,1-.64-.73.64.64,0,0,1,.63-.72.53.53,0,0,1,.45.21h0v-.18h.23Zm1.5-.53h-.22v-.22h0a.5.5,0,0,1-.46.25c-.36,0-.47-.21-.47-.51v-.91H51v.94a.27.27,0,0,0,.29.28.4.4,0,0,0,.41-.44v-.78h.23Zm.94-.17a.34.34,0,0,0,.36-.28h.22a.56.56,0,0,1-.59.48c-.44,0-.65-.31-.67-.73a.67.67,0,0,1,.66-.72c.49,0,.64.45.62.79h-1A.41.41,0,0,0,52.83,124.39Zm-1-3.57a5.44,5.44,0,0,1-1.43-.21v-.94a3.52,3.52,0,0,0,1.53.43c.56,0,1-.31,1-.79s-.32-.62-1.12-1a3.39,3.39,0,0,1-1-.55,1.3,1.3,0,0,1-.44-1c0-.89.74-1.46,1.88-1.46a4,4,0,0,1,1.32.24v.91A2.13,2.13,0,0,0,52.2,116c-.5,0-.83.25-.83.63s.39.58,1.07.87c1,.45,1.47.85,1.47,1.64C53.93,120.21,53.13,120.82,51.84,120.82Zm3.82,4.27h-.23v-.72h0a.46.46,0,0,1-.44.22.65.65,0,0,1-.64-.73.64.64,0,0,1,.63-.72.53.53,0,0,1,.45.21h0v-.18h.23Zm-.23-4.42v-5.35h1v5.35Zm1.73,3.89h-.22v-.22h0a.5.5,0,0,1-.46.25c-.36,0-.47-.21-.47-.51v-.91h.23v.94a.26.26,0,0,0,.28.28.4.4,0,0,0,.41-.44v-.78h.23Zm.58,0h-.23v-1.39h.23Zm0-1.64h-.23v-.28h.23Zm.95,1.47a.34.34,0,0,0,.36-.28h.23a.56.56,0,0,1-.59.48c-.45,0-.66-.31-.67-.73a.66.66,0,0,1,.65-.72c.49,0,.64.45.63.79h-1A.41.41,0,0,0,58.69,124.39Zm1.57-1c-.37,0-.5.21-.5.56v.62h-.23v-1.39h.21v.29h0a.5.5,0,0,1,.51-.32Zm.72,1a.34.34,0,0,0,.36-.28h.22a.56.56,0,0,1-.59.48c-.44,0-.65-.31-.66-.73a.66.66,0,0,1,.65-.72c.49,0,.64.45.63.79h-1A.41.41,0,0,0,61,124.39Zm1.34.2c-.31,0-.57-.13-.59-.47H62c0,.2.19.27.37.27s.34,0,.34-.21-.23-.21-.45-.26-.46-.12-.46-.39.28-.39.52-.39.55.09.57.43h-.23c0-.18-.17-.23-.32-.23s-.3,0-.3.17.25.19.46.25.45.12.45.39S62.6,124.59,62.32,124.59Zm-.53-3.92-.55-1.24h-2l-.55,1.24h-1l2.58-5.35h.06l2.58,5.35Z"/><path class="cls-1" d="M60.94,123.34a.39.39,0,0,0-.39.39h.79A.39.39,0,0,0,60.94,123.34Z"/><polygon class="cls-1" points="59.52 118.8 60.96 118.8 60.23 117.18 59.52 118.8"/><path class="cls-1" d="M84,85.56H1.53a1.53,1.53,0,1,1,0-3H84a1.53,1.53,0,1,1,0,3Z"/><path class="cls-1" d="M18.87,85.56a1.63,1.63,0,0,1-.52-.09,1.52,1.52,0,0,1-.91-2L31,46.11V15a1.53,1.53,0,0,1,.2-.75l7-12.32A3.75,3.75,0,0,1,41.4,0h1.39a1.53,1.53,0,0,1,0,3.06H41.4a.68.68,0,0,0-.61.36L34,15.38v31a1.48,1.48,0,0,1-.09.51L20.31,84.55A1.52,1.52,0,0,1,18.87,85.56Z"/><path class="cls-1" d="M66.66,85.56a1.53,1.53,0,0,1-1.44-1L51.62,46.89a1.48,1.48,0,0,1-.09-.51v-31l-6.78-12a.71.71,0,0,0-.62-.36H42.75a1.53,1.53,0,0,1,0-3.06h1.38a3.78,3.78,0,0,1,3.28,1.91l7,12.32a1.53,1.53,0,0,1,.2.75V46.11L68.1,83.52a1.53,1.53,0,0,1-.92,2A1.58,1.58,0,0,1,66.66,85.56Z"/><path class="cls-1" d="M70.89,25.33H16a1.53,1.53,0,0,1-.72-2.87l16.44-8.83a1.55,1.55,0,0,1,.73-.18H53.06a1.65,1.65,0,0,1,.68.16l17.83,8.82a1.53,1.53,0,0,1-.68,2.9ZM22.11,22.27H64.36L52.7,16.51H32.86Z"/><path class="cls-1" d="M70.89,47.77H16a1.53,1.53,0,0,1-.78-2.84l25-14.83-8.53-5a1.53,1.53,0,1,1,1.54-2.64l10,5.84,9.83-5.83a1.53,1.53,0,1,1,1.56,2.63l-8.37,5L71.67,44.93a1.53,1.53,0,0,1-.78,2.84ZM21.6,44.72H65.25l-22-12.85Z"/><path class="cls-1" d="M22,76.9a1.53,1.53,0,0,1-1-2.65L52,45.26a1.53,1.53,0,0,1,2.09,2.23L23,76.49A1.52,1.52,0,0,1,22,76.9Z"/><path class="cls-1" d="M63.53,76.9a1.54,1.54,0,0,1-1-.41l-31.06-29a1.53,1.53,0,0,1,2.09-2.23l31,29a1.53,1.53,0,0,1,.08,2.16A1.5,1.5,0,0,1,63.53,76.9Z"/><path class="cls-1" d="M66.66,32.5A1.54,1.54,0,0,1,65.13,31V28.24a1.53,1.53,0,0,1,3.06,0V31A1.54,1.54,0,0,1,66.66,32.5Z"/><path class="cls-1" d="M18.91,32.5A1.54,1.54,0,0,1,17.38,31V28.24a1.53,1.53,0,0,1,3.06,0V31A1.54,1.54,0,0,1,18.91,32.5Z"/><path class="cls-1" d="M71.34,56.12a1.53,1.53,0,0,1-1.53-1.53V51.86a1.53,1.53,0,0,1,3.06,0v2.73A1.53,1.53,0,0,1,71.34,56.12Z"/><path class="cls-1" d="M14.16,56.12a1.52,1.52,0,0,1-1.53-1.53V51.86a1.53,1.53,0,1,1,3,0v2.73A1.52,1.52,0,0,1,14.16,56.12Z"/></g></g></svg>