<svg xmlns="http://www.w3.org/2000/svg" viewBox="0 0 85.75 133.44"><defs><style>.cls-1{fill:#d9762d;}</style></defs><g id="Layer_2" data-name="Layer 2"><g id="Capa_1" data-name="Capa 1"><path class="cls-1" d="M36.08,122.8c0,.15.13.2.27.2.3,0,.42-.19.42-.31v-.24a1.12,1.12,0,0,1-.41.1C36.21,122.57,36.08,122.63,36.08,122.8Z"/><path class="cls-1" d="M38.66,122a.39.39,0,0,0-.39.39h.79A.4.4,0,0,0,38.66,122Z"/><path class="cls-1" d="M43.87,122c-.29,0-.41.24-.41.51s.09.53.39.53.41-.28.41-.54S44.16,122,43.87,122Z"/><path class="cls-1" d="M51.26,122a.38.38,0,0,0-.39.39h.79A.4.4,0,0,0,51.26,122Z"/><path class="cls-1" d="M41.6,122a.4.4,0,0,0-.4.39H42A.41.41,0,0,0,41.6,122Z"/><path class="cls-1" d="M57.13,122a.4.4,0,0,0-.4.39h.8A.41.41,0,0,0,57.13,122Z"/><path class="cls-1" d="M45.6,122.8c0,.15.12.2.26.2.3,0,.43-.19.43-.31v-.24a1.13,1.13,0,0,1-.42.1C45.72,122.57,45.6,122.63,45.6,122.8Z"/><path class="cls-1" d="M48.2,122c-.31,0-.42.27-.42.54a.45.45,0,0,0,.43.51c.31,0,.43-.26.43-.52S48.51,122,48.2,122Z"/><path class="cls-1" d="M53.47,122c-.31,0-.42.27-.42.54a.45.45,0,0,0,.43.51c.31,0,.43-.26.43-.52S53.78,122,53.47,122Z"/><path class="cls-1" d="M70.9,112.59c-2.38-2.8-6.29-3.91-10-4.17-4.06-.28-8.3.4-12,.34-10.91-.2-20.57-5-31.31-3.06a12,12,0,0,0-2.28.61,12.1,12.1,0,0,0-5,3.16,12.7,12.7,0,0,0-2.58,4.24,12.7,12.7,0,0,0-.52,4.18c.06,3.59.81,6.75,3.52,9.1a14.23,14.23,0,0,0,8,3.27,31.19,31.19,0,0,0,6.1.31,52.29,52.29,0,0,0,7.92-1.29c2.64-.59,4.62-1.07,7.23-1.78,4-1.1,7.77-2.39,11.69-1.21a3.12,3.12,0,0,1,2.09,4.37c-.39.86-2.53,2.78-3.67,2.73,3.17.13,6.68.15,9.06-1.94,1.25-1.1,2-2.66,3.25-3.77,2.45-2.19,6.3-2.28,8.63-4.6C73.75,120.49,73.27,115.39,70.9,112.59Zm-54.24,4a6.69,6.69,0,0,1,.07-.9l5.38,7.77A7.07,7.07,0,0,1,16.66,116.58Zm6.3,7-4.55-11.67a7.18,7.18,0,0,1,3.73-2.24l1.36,13.94C23.32,123.62,23.13,123.62,23,123.6Zm1.55,0c-.18,0-.36,0-.54,0l1.35-13.94a7.14,7.14,0,0,1,3.73,2.24Zm.84-.15,5.39-7.77a8.87,8.87,0,0,1,.06.9A7.07,7.07,0,0,1,25.35,123.45Zm19.11-9.53h1v4.55h2v.82H44.46Zm-8.73,9.25H34.46v-1.92h.25V123h1Zm1.41,0a.35.35,0,0,1-.16,0c-.12,0-.19-.06-.19-.21a.62.62,0,0,1-.49.21c-.25,0-.46-.11-.46-.39s.23-.38.47-.42.47,0,.47-.21-.17-.23-.31-.23-.34.06-.35.27h-.23c0-.35.28-.47.59-.47s.52.06.52.38v.72c0,.1,0,.15.07.15h.07Zm-.64-3.82c-1.7,0-2.88-.85-2.88-2.62a2.6,2.6,0,0,1,2.87-2.81,3.45,3.45,0,0,1,1.18.22l-.07.89a2.13,2.13,0,0,0-1.13-.28,1.75,1.75,0,0,0-1.76,1.9,1.73,1.73,0,0,0,1.79,1.87,2.82,2.82,0,0,0,1.14-.22l0,.88A5.89,5.89,0,0,1,36.5,119.35ZM38.7,123a.33.33,0,0,0,.36-.27h.22a.55.55,0,0,1-.59.47c-.44,0-.65-.3-.66-.73a.67.67,0,0,1,.65-.72c.49,0,.64.46.63.8h-1A.4.4,0,0,0,38.7,123Zm.76-9.07h3.15v.84H40.53v1.33h1.91v.84H40.53v1.52h2.08v.83H39.46Zm1.23,9.24h-.23v-.94a.26.26,0,0,0-.28-.28.39.39,0,0,0-.41.44v.78h-.23v-1.39h.22V122h0a.48.48,0,0,1,.45-.25c.37,0,.48.21.48.51Zm.94-.17a.33.33,0,0,0,.36-.27h.23a.55.55,0,0,1-.6.47c-.44,0-.65-.3-.66-.73a.67.67,0,0,1,.65-.72c.49,0,.64.46.63.8h-1A.4.4,0,0,0,41.63,123Zm1.57-1c-.37,0-.5.21-.5.56v.62h-.23v-1.39h.21v.3h0a.5.5,0,0,1,.51-.33Zm1.29,1.06c0,.45-.21.68-.64.68-.26,0-.56-.1-.58-.4h.23c0,.16.21.22.36.22s.42-.21.42-.52v-.1h0a.46.46,0,0,1-.43.26.63.63,0,0,1-.62-.71.66.66,0,0,1,.64-.73.45.45,0,0,1,.41.23h0v-.2h.21Zm.58.12h-.22v-1.39h.22Zm-.1-1.58H44.8l.23-.38h.29Zm1.69,1.58a.37.37,0,0,1-.17,0c-.11,0-.19-.06-.19-.21a.59.59,0,0,1-.49.21c-.25,0-.46-.11-.46-.39s.24-.38.47-.42.47,0,.47-.21S46.13,122,46,122s-.33.06-.34.27h-.23c0-.35.28-.47.59-.47s.52.06.52.38v.72c0,.1,0,.15.07.15h.07Zm2.2.53h-.23V123h0a.45.45,0,0,1-.44.22.65.65,0,0,1-.64-.73.64.64,0,0,1,.63-.72.51.51,0,0,1,.45.22h0v-.19h.23Zm1.5-.53h-.22V123h0a.5.5,0,0,1-.45.25c-.37,0-.48-.21-.48-.5v-.92h.23v.94a.26.26,0,0,0,.28.28.39.39,0,0,0,.41-.43v-.79h.23Zm.94-.17a.33.33,0,0,0,.36-.27h.22a.55.55,0,0,1-.59.47c-.44,0-.65-.3-.67-.73a.67.67,0,0,1,.66-.72c.49,0,.64.46.62.8h-1A.4.4,0,0,0,51.3,123Zm-1-3.57a5.42,5.42,0,0,1-1.43-.2v-1a3.55,3.55,0,0,0,1.53.44c.56,0,1-.32,1-.79s-.32-.63-1.12-1a3.34,3.34,0,0,1-1-.56,1.25,1.25,0,0,1-.45-1c0-.9.74-1.46,1.88-1.46a4.26,4.26,0,0,1,1.32.23v.92a2.14,2.14,0,0,0-1.35-.46c-.5,0-.83.26-.83.64s.39.58,1.07.87c1,.45,1.47.84,1.48,1.64C52.4,118.82,51.6,119.43,50.31,119.43Zm3.82,4.27H53.9V123h0a.45.45,0,0,1-.44.22.65.65,0,0,1-.64-.73.64.64,0,0,1,.63-.72.51.51,0,0,1,.45.22h0v-.19h.23Zm-.23-4.41v-5.36H55v5.36Zm1.73,3.88h-.22V123h0a.5.5,0,0,1-.45.25c-.37,0-.48-.21-.48-.5v-.92h.23v.94A.26.26,0,0,0,55,123a.39.39,0,0,0,.41-.43v-.79h.23Zm.58,0H56v-1.39h.23Zm0-1.64H56v-.28h.23Zm.95,1.47a.33.33,0,0,0,.36-.27h.23a.55.55,0,0,1-.59.47c-.45,0-.66-.3-.67-.73a.67.67,0,0,1,.65-.72c.49,0,.64.46.63.8h-1A.4.4,0,0,0,57.16,123Zm1.57-1c-.37,0-.5.21-.5.56v.62H58v-1.39h.21v.3h0a.5.5,0,0,1,.51-.33Zm.72,1a.33.33,0,0,0,.36-.27H60a.55.55,0,0,1-.59.47c-.44,0-.65-.3-.66-.73a.67.67,0,0,1,.65-.72c.49,0,.64.46.63.8H59A.4.4,0,0,0,59.45,123Zm1.34.2c-.31,0-.57-.12-.59-.47h.23c0,.21.19.27.37.27s.34,0,.34-.2-.23-.21-.45-.26-.46-.13-.46-.39.28-.4.52-.4.55.1.57.44h-.23c0-.18-.17-.24-.32-.24s-.3,0-.3.18.25.19.46.24.45.13.45.4S61.07,123.2,60.79,123.2Zm-.53-3.91-.55-1.24h-2l-.55,1.24h-1l2.58-5.36h.06l2.58,5.36Z"/><path class="cls-1" d="M59.41,122a.39.39,0,0,0-.39.39h.79A.4.4,0,0,0,59.41,122Z"/><polygon class="cls-1" points="57.99 117.42 59.43 117.42 58.7 115.8 57.99 117.42"/><path class="cls-1" d="M73.88,78.29a10.35,10.35,0,0,1-5.95-1.74,8,8,0,0,0-8.79,0,11,11,0,0,1-11.89,0,8,8,0,0,0-8.78,0,10.25,10.25,0,0,1-5.94,1.75,10.29,10.29,0,0,1-6-1.75,7.34,7.34,0,0,0-4.39-1.31,7.33,7.33,0,0,0-4.38,1.31,10.29,10.29,0,0,1-5.95,1.75,10.25,10.25,0,0,1-5.94-1.75,7.39,7.39,0,0,0-4.39-1.31,1.53,1.53,0,0,1,0-3.06,10.25,10.25,0,0,1,5.94,1.75,7.36,7.36,0,0,0,4.39,1.31,7.34,7.34,0,0,0,4.39-1.31,10.25,10.25,0,0,1,5.94-1.75,10.26,10.26,0,0,1,5.95,1.75,7.34,7.34,0,0,0,4.39,1.31,7.39,7.39,0,0,0,4.39-1.31,11,11,0,0,1,11.89,0,8,8,0,0,0,8.77,0,11,11,0,0,1,11.9,0,8,8,0,0,0,8.79,0,10.4,10.4,0,0,1,6-1.74,1.53,1.53,0,0,1,0,3.06,7.3,7.3,0,0,0-4.39,1.32A10.37,10.37,0,0,1,73.88,78.29Z"/><path class="cls-1" d="M73.88,86.93a10.35,10.35,0,0,1-5.95-1.74,8,8,0,0,0-8.79,0,11,11,0,0,1-11.89,0,8,8,0,0,0-8.78,0,10.33,10.33,0,0,1-5.94,1.74,10.37,10.37,0,0,1-6-1.74,7.27,7.27,0,0,0-4.39-1.32,7.33,7.33,0,0,0-4.38,1.31,10.29,10.29,0,0,1-5.95,1.75,10.33,10.33,0,0,1-5.94-1.74,7.32,7.32,0,0,0-4.39-1.32,1.53,1.53,0,0,1,0-3.06,10.33,10.33,0,0,1,5.94,1.74,7.3,7.3,0,0,0,4.39,1.32,7.27,7.27,0,0,0,4.39-1.32,10.33,10.33,0,0,1,5.94-1.74,10.35,10.35,0,0,1,5.95,1.74,7.27,7.27,0,0,0,4.39,1.32,7.32,7.32,0,0,0,4.39-1.32,11,11,0,0,1,11.89,0,8,8,0,0,0,8.77,0,11,11,0,0,1,11.9,0,8,8,0,0,0,8.79,0,10.4,10.4,0,0,1,6-1.74,1.53,1.53,0,0,1,0,3.06,7.3,7.3,0,0,0-4.39,1.32A10.37,10.37,0,0,1,73.88,86.93Z"/><path class="cls-1" d="M84.22,70.26a1.54,1.54,0,0,1-1.52-1.39L76.61,3.06H71.83V67.4a1.53,1.53,0,0,1-3.06,0V1.53A1.53,1.53,0,0,1,70.3,0H78a1.52,1.52,0,0,1,1.52,1.39l6.23,67.2a1.53,1.53,0,0,1-1.38,1.66Z"/><path class="cls-1" d="M1.53,70.26H1.39A1.53,1.53,0,0,1,0,68.59L6.23,1.39A1.52,1.52,0,0,1,7.75,0h7.7A1.52,1.52,0,0,1,17,1.53V67.4a1.53,1.53,0,1,1-3.05,0V3.06H9.15L3.05,68.87A1.53,1.53,0,0,1,1.53,70.26Z"/><path class="cls-1" d="M35.33,9.24H15.45a1.53,1.53,0,0,1,0-3H35.33a1.53,1.53,0,0,1,0,3.05Z"/><path class="cls-1" d="M37.47,49.48H24A1.52,1.52,0,0,1,22.49,48V37.75a8.26,8.26,0,1,1,16.51,0V48A1.52,1.52,0,0,1,37.47,49.48Zm-11.93-3h10.4V37.75a5.2,5.2,0,0,0-10.4,0Z"/><path class="cls-1" d="M22.49,68.47h-.13A1.52,1.52,0,0,1,21,66.82l1.53-19a1.53,1.53,0,0,1,3.05.25L24,67.06A1.53,1.53,0,0,1,22.49,68.47Z"/><path class="cls-1" d="M39,68.47a1.53,1.53,0,0,1-1.52-1.41L36,48.08a1.53,1.53,0,1,1,3-.25l1.52,19a1.52,1.52,0,0,1-1.4,1.64Z"/><path class="cls-1" d="M61.74,49.48H48.28A1.53,1.53,0,0,1,46.75,48V37.75a8.26,8.26,0,0,1,16.52,0V48A1.53,1.53,0,0,1,61.74,49.48Zm-11.93-3h10.4V37.75a5.2,5.2,0,0,0-10.4,0Z"/><path class="cls-1" d="M46.75,68.47h-.12a1.52,1.52,0,0,1-1.4-1.64l1.53-19a1.53,1.53,0,1,1,3,.25l-1.52,19A1.54,1.54,0,0,1,46.75,68.47Z"/><path class="cls-1" d="M63.26,68.47a1.54,1.54,0,0,1-1.52-1.41l-1.52-19a1.53,1.53,0,1,1,3-.25l1.53,19a1.52,1.52,0,0,1-1.4,1.64Z"/><path class="cls-1" d="M70.3,9.24H51.54a1.53,1.53,0,1,1,0-3H70.3a1.53,1.53,0,1,1,0,3.05Z"/><path class="cls-1" d="M40.35,28.61a1.5,1.5,0,0,1-.67-.16,1.55,1.55,0,0,1-.83-1.66l1.34-7h-7a1.53,1.53,0,0,1-1.15-2.53L44.25,3.38A1.53,1.53,0,0,1,46.9,4.67l-1.34,7h7a1.53,1.53,0,0,1,1.15,2.54L41.5,28.09A1.55,1.55,0,0,1,40.35,28.61ZM36.59,16.73H42a1.52,1.52,0,0,1,1.17.55,1.55,1.55,0,0,1,.33,1.26l-.64,3.32,6.26-7.12H43.72a1.52,1.52,0,0,1-1.5-1.81l.63-3.33Z"/></g></g></svg>