<svg xmlns="http://www.w3.org/2000/svg" viewBox="0 0 566.93 198.43"><defs><style>.cls-1{fill:#003790;}.cls-2{fill:#df013a;}.cls-3{fill:none;}</style></defs><g id="Layer_2" data-name="Layer 2"><g id="center"><rect class="cls-1" x="484.59" y="74.53" width="18.69" height="50.47"/><polygon class="cls-1" points="454.27 125 434.84 106.53 434.84 125 416.13 125 416.13 74.53 434.84 74.53 434.84 92.45 455.73 74.53 480.22 74.53 451.45 99.11 479.35 125 454.27 125"/><path class="cls-1" d="M380.67,126.94c-25.72,0-28.81-10.74-28.89-18.82,0-4.49-.1-12.78-.1-15.29V74.52h17.9v29.16c0,7.42,3.42,10.73,11.09,10.73s11.1-3.31,11.1-10.73V74.52h17.9V92.83c0,2.47-.06,10.76-.1,15.29C409.48,116.2,406.4,126.94,380.67,126.94Z"/><polygon class="cls-1" points="286.69 125 286.69 114.56 316.29 86.91 287.68 86.91 287.68 74.53 345.43 74.53 345.43 84.98 315.43 112.57 345.33 112.57 345.33 125 286.69 125"/><path class="cls-1" d="M252.43,126.94c-25.73,0-28.81-10.74-28.9-18.82,0-4.47-.09-12.76-.09-15.29V74.52h17.89v29.16c0,7.42,3.43,10.73,11.1,10.73s11.09-3.31,11.09-10.73V74.52h17.9V92.83c0,2.53-.05,10.82-.1,15.29C281.24,116.2,278.16,126.94,252.43,126.94Z"/><path class="cls-1" d="M189,126.23c-26.77,0-31.45-8.2-32.34-17.15h22.64c2.05,6,8.1,6,10.1,6,2.42,0,8-.41,8-4.3,0-3.4-3.8-3.77-9.54-4.32l-2.36-.23c-18.42-1.94-27.77-5-27.77-16.51,0-5,2.75-16.65,28.2-16.65h.23c19.47,0,30.71,6.13,30.91,16.69H196.27c-1.41-5-7-5.76-10.17-5.76-1.24,0-5.44.15-7.26,2.1a3.12,3.12,0,0,0-.86,2.42c.17,2.75,5.39,3.35,12,4.1,1.36.15,2.78.31,4.22.5,16.55,2.12,24.6,7.52,24.6,16.52,0,3.88-2.12,16.54-29.4,16.62Z"/><path id="refine_final" data-name="refine final" class="cls-2" d="M83.87,75.09l18.5,12.44c3.83,2.58,7.76,5.09,14.52,5.09,10.53,0,19.91-7.65,19.91-7.65L93.34,55.76S88.6,61,73.71,70.25C58.08,80,49.89,82.82,49.89,82.82L106,120.54,102.29,123l-18-12.09c-3.82-2.57-7.76-5.09-14.52-5.09-10.53,0-19.89,7.67-19.89,7.67l43.47,29.21s4.74-5.22,19.62-14.49c15.63-9.74,23.83-12.57,23.83-12.57L80.18,77.51Z"/><line class="cls-3" x1="283.46" x2="283.46" y2="198.43"/><line class="cls-3" y1="99.21" x2="566.93" y2="99.21"/></g></g></svg>