<svg xmlns="http://www.w3.org/2000/svg" viewBox="0 0 128.82 128.82"><defs><style>.cls-1{fill:#105fac;}.cls-2{fill:#fff;fill-rule:evenodd;}</style></defs><g id="Layer_2" data-name="Layer 2"><g id="Layer_1-2" data-name="Layer 1"><rect class="cls-1" width="128.82" height="128.82"/><path class="cls-2" d="M51.3,48.16l-6.5-2.94V37.38l15,6.86,4-1.84a.83.83,0,0,0,.49-.61c0-.25-.25-.49-.49-.74L50.32,34.93,62.2,29.41a2.14,2.14,0,0,1,2,0l18,8.21c.86.37,1.84.86,1.84,2s-1,1.6-1.84,2L68,48l14.22,6.49c.86.37,1.84.86,1.84,2s-1,1.59-1.84,2l-18,8.21a2.14,2.14,0,0,1-2,0l-12-5.4,13.49-6.12a.85.85,0,0,0,.49-.74.83.83,0,0,0-.49-.61l-4-1.84L44.8,58.82V51.1Z"/><path class="cls-2" d="M7.47,100.78V83.44H22.58c3.1,0,8.13.43,8.13,4.52,0,2.06-1.75,3.48-3.8,4,2.53.79,3.8,2.21,3.8,4.15,0,4.24-4.79,4.66-8.13,4.68ZM13,93.5l1.61-2.68a2.11,2.11,0,0,1,1.79-1h6.16c1.1,0,2-.51,2-1.37s-.9-1.38-2-1.38H13V93.5Zm0,0v7.28l1.61-2.68a2.16,2.16,0,0,1,1.79-1h6.1a2,2,0,0,0,2.06-1.82,1.92,1.92,0,0,0-2.06-1.81ZM44.1,87.61l-7.49,13.17H30.12L40.54,83.44h7.11l10.44,17.34H51.58L49.81,97.7H40.17L41.78,95a2.13,2.13,0,0,1,1.8-1h4.17L44.1,87.61Zm45.35,0-7.51,13.17H75.43L85.87,83.44H93l10.44,17.34H96.93L95.15,97.7H85.51L87.1,95a2.17,2.17,0,0,1,1.8-1h4.2l-3.65-6.44ZM68.17,97.13c1.26,0,2.28-.62,2.28-1.87V83.44H76V95.77c0,3.75-2.45,5-5.63,5H61.15a2.22,2.22,0,0,1-1.81-1l-1.58-2.66Zm45.34,0c1.24,0,2.28-.62,2.28-1.87V83.44h5.56V95.77c0,3.75-2.45,5-5.65,5h-9.2a2.26,2.26,0,0,1-1.83-1l-1.61-2.66Z"/></g></g></svg>