<svg xmlns="http://www.w3.org/2000/svg" viewBox="0 0 508.24 218.46"><defs><style>.cls-1{fill:#fff;}.cls-2{fill:#d9762d;}</style></defs><g id="Layer_2" data-name="Layer 2"><g id="Capa_1" data-name="Capa 1"><path class="cls-1" d="M492.71,57c-18.42-21.7-48.66-30.34-77-32.31-31.44-2.18-64.32,3.1-92.78,2.59C238.31,25.71,163.5-11.46,80.27,3.57A93,93,0,0,0,62.65,8.24C46.4,14.63,36.06,20.13,24,32.75,18,39,7.73,53.62,4.07,65.63.34,77.85-.14,87.5,0,98c.45,27.79,6.27,52.31,27.3,70.48,19,16.4,39.61,22.56,62.2,25.35,18.07,2.22,23.45,3,47.22,2.39,16.62-.4,45.1-6.4,61.33-10,20.47-4.53,35.83-8.25,56-13.82,30.91-8.51,60.2-18.52,90.58-9.36,15.94,4.8,22.27,20.08,16.15,33.83-3,6.7-19.55,21.57-28.4,21.2,24.53,1,51.74,1.16,70.17-15.06,9.67-8.5,15.62-20.57,25.21-29.15,18.94-17,48.79-17.71,66.82-35.64C514.84,118.15,511.14,78.64,492.71,57Z"/><path class="cls-2" d="M139.63,34.46l-10.47,108c1.39-.07,2.78-.11,4.19-.25l35.17-90.41A55.14,55.14,0,0,0,139.63,34.46Z"/><path class="cls-2" d="M226.22,102.85c-8.66,0-13.81-6.19-13.81-14.45S217.59,73.67,226,73.64a17.15,17.15,0,0,1,8.8,2.16l.55-6.89a27.7,27.7,0,0,0-9.19-1.66c-13.78,0-22.26,7.87-22.25,21.76.08,13.7,9.19,20.27,22.36,20.25a39.43,39.43,0,0,0,9.2-1.31l-.35-6.81C233.2,102.16,229.41,102.85,226.22,102.85Z"/><path class="cls-2" d="M139.89,141.07a54.74,54.74,0,0,0,42.17-53.26,56.52,56.52,0,0,0-.47-6.93Z"/><path class="cls-2" d="M86.13,51.81l35.19,90.41c1.37.14,2.78.18,4.18.25L115,34.46A55.11,55.11,0,0,0,86.13,51.81Z"/><path class="cls-2" d="M72.57,87.81a54.75,54.75,0,0,0,42.17,53.26L73.07,80.88A51.15,51.15,0,0,0,72.57,87.81Z"/><rect class="cls-2" x="361.06" y="67.32" width="8.09" height="41.48"/><path class="cls-2" d="M399,67.32h-.41l-20,41.51h7.72l4.26-9.62h15.55l4.27,9.62H419Zm-6.27,27,5.56-12.56,5.6,12.56Z"/><polygon class="cls-2" points="249.13 108.84 273.58 108.84 273.58 102.38 257.44 102.38 257.44 90.6 272.25 90.6 272.25 84.1 257.44 84.1 257.44 73.82 273.58 73.82 273.58 67.33 249.13 67.33 249.13 108.84"/><path class="cls-2" d="M337.85,84.48c-5.25-2.26-8.21-3.31-8.25-6.74,0-2.94,2.54-4.92,6.43-4.92a16.63,16.63,0,0,1,10.47,3.52V69.25a32.5,32.5,0,0,0-10.24-1.8c-8.85,0-14.67,4.36-14.57,11.3a9.83,9.83,0,0,0,3.44,7.7c1.55,1.41,3.39,2.39,7.8,4.3,6.17,2.68,8.63,4.29,8.64,7.54,0,3.68-3.2,6.12-7.57,6.12-3.53,0-7.75-1.29-11.84-3.37v7.32a43.49,43.49,0,0,0,11.1,1.58c10,0,16.14-4.74,16.05-12.73C349.25,91.05,345.86,88,337.85,84.48Z"/><polygon class="cls-2" points="296.02 67.25 287.92 67.25 287.92 108.84 311.82 108.84 311.82 102.5 296.02 102.5 296.02 67.25"/><path class="cls-2" d="M210.43,124h2v13.19h7.86v1.66h-9.84Z"/><path class="cls-2" d="M231.23,138.85a2.39,2.39,0,0,1-1.27.29c-.92,0-1.5-.5-1.5-1.66a4.78,4.78,0,0,1-3.78,1.66c-2,0-3.56-.87-3.56-3,0-2.44,1.81-3,3.64-3.31s3.62-.25,3.62-1.58c0-1.54-1.27-1.79-2.39-1.79-1.5,0-2.6.46-2.69,2h-1.76c.1-2.66,2.16-3.6,4.55-3.6,1.93,0,4,.44,4,3v5.54c0,.83,0,1.2.56,1.2a1.6,1.6,0,0,0,.55-.1Zm-2.87-5.51c-.69.5-2,.52-3.21.73S223,134.69,223,136s1,1.58,2.08,1.58c2.33,0,3.29-1.45,3.29-2.43Z"/><path class="cls-2" d="M247.81,135.48a4.33,4.33,0,0,1-4.59,3.66c-3.43,0-5.05-2.37-5.16-5.65s2.12-5.6,5.06-5.6c3.8,0,5,3.56,4.86,6.16h-8a3.17,3.17,0,0,0,3.35,3.53,2.59,2.59,0,0,0,2.79-2.1Zm-1.7-3a3.09,3.09,0,0,0-6.18,0Z"/><path class="cls-2" d="M249.81,128.14h1.66v1.71h0a3.76,3.76,0,0,1,3.5-2c2.82,0,3.7,1.62,3.7,3.93v7.07h-1.77v-7.28a2,2,0,0,0-2.18-2.16c-2.15,0-3.19,1.44-3.19,3.37v6.07h-1.76Z"/><path class="cls-2" d="M270.54,135.48a4.34,4.34,0,0,1-4.6,3.66c-3.43,0-5.05-2.37-5.16-5.65s2.12-5.6,5.06-5.6c3.8,0,5,3.56,4.86,6.16h-8.05a3.17,3.17,0,0,0,3.35,3.53,2.59,2.59,0,0,0,2.79-2.1Zm-1.71-3a3.09,3.09,0,0,0-6.18,0Z"/><path class="cls-2" d="M272.47,128.14h1.66v2.27h0a3.91,3.91,0,0,1,3.95-2.52v1.87c-2.85,0-3.89,1.63-3.89,4.35v4.78h-1.76Z"/><path class="cls-2" d="M288.14,138c0,3.49-1.6,5.28-5,5.28-2,0-4.34-.81-4.45-3.16h1.77c.08,1.29,1.62,1.74,2.79,1.74,2.3,0,3.22-1.66,3.22-4.07v-.71h0a3.59,3.59,0,0,1-3.35,2c-3.2,0-4.8-2.52-4.8-5.45,0-2.54,1.24-5.68,5-5.68a3.51,3.51,0,0,1,3.2,1.79h0v-1.54h1.66Zm-1.74-4.68c0-1.89-.84-3.85-3.06-3.85s-3.18,1.85-3.18,3.91.71,4.1,3,4.1S286.4,135.31,286.4,133.3Z"/><path class="cls-2" d="M292.3,123.69h2.27l-2.73,3h-1.33Zm-1.39,15.2V128.14h1.76v10.75Z"/><path class="cls-2" d="M304.94,138.85a2.36,2.36,0,0,1-1.27.29c-.91,0-1.5-.5-1.5-1.66a4.76,4.76,0,0,1-3.78,1.66c-1.95,0-3.56-.87-3.56-3,0-2.44,1.81-3,3.64-3.31s3.62-.25,3.62-1.58c0-1.54-1.27-1.79-2.39-1.79-1.5,0-2.6.46-2.68,2h-1.77c.1-2.66,2.16-3.6,4.55-3.6,1.94,0,4,.44,4,3v5.54c0,.83,0,1.2.56,1.2a1.59,1.59,0,0,0,.54-.1Zm-2.87-5.51c-.69.5-2,.52-3.2.73s-2.16.62-2.16,1.93,1,1.58,2.07,1.58c2.33,0,3.29-1.45,3.29-2.43Z"/><path class="cls-2" d="M322,143H320.2v-5.57h0a3.64,3.64,0,0,1-3.44,1.7c-3.3,0-4.94-2.62-4.94-5.65s1.62-5.6,4.9-5.6a4.12,4.12,0,0,1,3.48,1.69h0v-1.44H322Zm-5-5.43c2.37,0,3.29-2,3.29-4.05s-1-4.08-3.39-4.08-3.22,2.06-3.22,4.16S314.69,137.58,317,137.58Z"/><path class="cls-2" d="M333.59,138.89h-1.67v-1.7h0a3.73,3.73,0,0,1-3.49,1.95c-2.83,0-3.7-1.62-3.7-3.93v-7.07h1.76v7.28a2,2,0,0,0,2.19,2.16c2.14,0,3.18-1.43,3.18-3.37v-6.07h1.77Z"/><path class="cls-2" d="M345.41,135.48a4.33,4.33,0,0,1-4.59,3.66c-3.43,0-5.05-2.37-5.16-5.65s2.12-5.6,5-5.6c3.81,0,5,3.56,4.87,6.16h-8.05a3.17,3.17,0,0,0,3.35,3.53,2.59,2.59,0,0,0,2.79-2.1Zm-1.7-3a3.09,3.09,0,0,0-6.18,0Z"/><path class="cls-2" d="M362.79,143H361v-5.57h0a3.62,3.62,0,0,1-3.43,1.7c-3.3,0-4.95-2.62-4.95-5.65s1.63-5.6,4.91-5.6a4.12,4.12,0,0,1,3.47,1.69h0v-1.44h1.76Zm-5-5.43c2.37,0,3.29-2,3.29-4.05s-1-4.08-3.39-4.08-3.22,2.06-3.22,4.16S355.51,137.58,357.8,137.58Z"/><path class="cls-2" d="M374.41,138.89h-1.66v-1.7h0a3.75,3.75,0,0,1-3.5,1.95c-2.82,0-3.7-1.62-3.7-3.93v-7.07h1.77v7.28a2,2,0,0,0,2.18,2.16c2.15,0,3.19-1.43,3.19-3.37v-6.07h1.76Z"/><path class="cls-2" d="M378.94,126.21h-1.76V124h1.76Zm-1.76,1.93h1.76v10.75h-1.76Z"/><path class="cls-2" d="M390.86,135.48a4.34,4.34,0,0,1-4.6,3.66c-3.43,0-5.05-2.37-5.16-5.65s2.13-5.6,5.06-5.6c3.8,0,5,3.56,4.86,6.16h-8a3.15,3.15,0,0,0,3.34,3.53,2.59,2.59,0,0,0,2.79-2.1Zm-1.71-3a3.09,3.09,0,0,0-3.1-3,3.05,3.05,0,0,0-3.07,3Z"/><path class="cls-2" d="M392.79,128.14h1.66v2.27h0a3.91,3.91,0,0,1,3.95-2.52v1.87c-2.85,0-3.89,1.63-3.89,4.35v4.78h-1.76Z"/><path class="cls-2" d="M408.57,135.48a4.34,4.34,0,0,1-4.6,3.66c-3.43,0-5.05-2.37-5.15-5.65s2.12-5.6,5.05-5.6c3.8,0,5,3.56,4.86,6.16h-8a3.16,3.16,0,0,0,3.34,3.53,2.59,2.59,0,0,0,2.79-2.1Zm-1.71-3a3.09,3.09,0,0,0-3.1-3,3.05,3.05,0,0,0-3.07,3Z"/><path class="cls-2" d="M411.64,135.5c.06,1.58,1.44,2.08,2.89,2.08,1.1,0,2.6-.25,2.6-1.6s-1.75-1.6-3.51-2-3.52-1-3.52-3,2.15-3.06,4-3.06c2.37,0,4.26.75,4.4,3.37h-1.76c-.13-1.37-1.33-1.81-2.5-1.81s-2.29.29-2.29,1.37c0,1.27,1.88,1.48,3.52,1.87s3.51,1,3.51,3.06c0,2.56-2.39,3.39-4.57,3.39-2.41,0-4.45-1-4.56-3.64Z"/></g></g></svg>