<svg xmlns="http://www.w3.org/2000/svg" viewBox="0 0 936.56 835.91"><defs><style>.cls-1,.cls-4{fill:#d9772d;}.cls-1,.cls-2,.cls-3{stroke:#d9772d;stroke-miterlimit:10;}.cls-2{fill:#fff;}.cls-3{fill:none;stroke-width:3.35px;}</style></defs><g id="Layer_2" data-name="Layer 2"><g id="Capa_1" data-name="Capa 1"><path class="cls-1" d="M771.91,559.88c-.68,0-1.37-.13-2.26-.22,1.2-7.66-5.28-3.58-8.4-5.66.56-1.46,1.06-3,1.73-4.5,1.81-4,.95-5.39-3.56-5.48-2.28,0-4.55,0-7.34,0,.74-1.43,1-1.94,1.26-2.42,2.48-4.28,2.11-5.21-2.62-6.29-2.18-.5-4.39-.93-7.14-1.5a50.91,50.91,0,0,1,3.07-4.85c2-2.47,1.16-4.12-1.31-5.38a19,19,0,0,0-3.18-1.18Q724,517.23,705.8,512.1q-17.31-4.86-34.62-9.69a6.16,6.16,0,0,1,4-1.15q30,.24,60,.52a20,20,0,0,0,4.24,0,20.81,20.81,0,0,0,4-1.66c-1-1.09-1.93-2.18-2.91-3.26-.09-.09-.26-.1-.39-.16l-38.19-19.56c-6.49-3.32-13-6.61-20.58-10.46,2.69-.69,4.12-1.11,5.56-1.42,13.29-2.84,26.58-5.64,39.85-8.54.93-.21,1.7-1.13,2.54-1.71a14.59,14.59,0,0,0-2.07-2.4,9.26,9.26,0,0,0-2.69-1.22c-18.76-6.38-37.51-12.81-56.33-19a13.9,13.9,0,0,0-7.1.07c-7.16,1.66-14.26,3.59-21.35,5.53-4.62,1.27-9.22,2.59-14,4a1.34,1.34,0,0,1-.59.24l-.43.07a3.15,3.15,0,0,1-.59.23,65.84,65.84,0,0,0-7.73,2.65c-2.51,1-5.07,1.67-7.65,2.42-3.7,1.07-4.68,1.4-7.46,2.14-1.15.3-2.29.66-3.79,1.08a32.9,32.9,0,0,0-3.84,1.16L579,457.2l-.2-.12-.82.31-.55.25A26.41,26.41,0,0,1,574,459a1,1,0,0,1-.23.18c-4,2.14-8.06,4.16-12.17,6.19.52-6.56,2.49-12.85,3.6-19.29a36.65,36.65,0,0,1,1.09-3.74c1.2.05,2.26.07,3.32.14A22.33,22.33,0,0,0,580,440.81c3.19-1.35,3.94-4.53,1.79-7.2-1.25-1.55-2.91-1.46-4.57-1.21a15.31,15.31,0,0,0-8.32,3.45l-.45-.41,5.46-12.38c.92.1,1.49.17,2.07.22,2.43.24,4.86.57,7.3.7a9.46,9.46,0,0,0,7.31-2.48,3.36,3.36,0,0,0,1-2,4.92,4.92,0,0,0-5.76-5.37c-2.65.42-5.22,1.26-8.15,2,2.62-5.07,5.95-9.58,9.07-14.41a18.94,18.94,0,0,0,11.53,1.11,16.51,16.51,0,0,0,5.43-2c2-1.29,1.8-4.05-.14-5.42-2.19-1.54-4.46-2.4-7.15-1.21a33.08,33.08,0,0,1-3.93,1.21,63.75,63.75,0,0,1,6.08-7.37c3.37-3.67,3.38-3.67,7.93-2a5.77,5.77,0,0,1,.81.34c4.86,2.6,9.65,1.51,14.37-.38a4.12,4.12,0,0,0,1.4-7c-2.05-1.86-4.4-3.22-7.41-2.69-1.51.27-3.05.37-4.58.55l-.27-.48,10.68-9.59c1.56.37,2.89.72,4.23,1a35.75,35.75,0,0,0,5.76,1,13.71,13.71,0,0,0,8.41-2.14c1.9-1.28,2.33-3.18,1.2-4.8a7.08,7.08,0,0,0-6.47-2.33c-2.4.6-4.81,1.17-7.82,1.9L638.14,348a44.77,44.77,0,0,0,4.93.18c4.13-.25,8.22-.74,11.72-3.25,1.15-.82,2.18-1.78,1.91-3.36a3.79,3.79,0,0,0-2.84-3.39,7.81,7.81,0,0,0-6.52.63c-1.36.84-2.77,1.59-4.72,2.69a11.83,11.83,0,0,1,.61-2,67.36,67.36,0,0,0,5.82-12.83,20.68,20.68,0,0,1,2.73-5.2c2.25-3.11,3.13-6.74,4.18-10.28a5.64,5.64,0,0,0-2.68-6.33,4.66,4.66,0,0,0-5.93.9,10.15,10.15,0,0,0-2.35,4.54,21.29,21.29,0,0,0-.3,5.87,10.94,10.94,0,0,0,.86,4.56c2.23,4.11.18,7.4-1.27,10.93-.47-.17-.63-.18-.65-.24a5.28,5.28,0,0,1-.2-1.11,16.67,16.67,0,0,0-2.37-8.07c-1.17-2.17-4.79-3.17-6.68-2.35-1.65.72-3,3.6-2.38,5.85.89,3.4,1.86,6.82,4.66,9.3,1.3,1.15,2.57,2.33,4,3.6a47.51,47.51,0,0,1-8.57,11.63c-.28-1.63-.59-2.94-.71-4.27-.31-3.29-2.45-5.27-4.93-6.95-1.89-1.28-4.4-.5-4.76,1.5-.8,4.53-.46,8.82,3.29,12.17.94.84,1.79,1.77,2.73,2.7-3.43,3.81-6.41,7.74-10.62,10.85-.23-1.62-.32-2.9-.59-4.13-.51-2.27-.5-4.76-2.16-6.62-2.09-2.34-3.94-2.64-6.11-.88a5.75,5.75,0,0,0-1.44,6.42c1.38,3.46,2.6,7,6,9.4l-14,13.16c.06-1.45.08-2.19.13-2.93a52.6,52.6,0,0,0,.42-6.13,6.13,6.13,0,0,0-5.25-5.21c-1.88-.05-4.08,2.23-4.42,4.82a14.19,14.19,0,0,0,1.92,9.05,43.35,43.35,0,0,1,2.41,4.38,2.4,2.4,0,0,1-.3,2.06c-3.51,4.33-7.12,8.6-10.7,12.87a9.18,9.18,0,0,1-1.22,1c.09-2,.15-3.54.22-5.06a8.54,8.54,0,0,0-3.54-7.37,6.23,6.23,0,0,0-6.4-.47,4.6,4.6,0,0,0-1.82,5.66,28.09,28.09,0,0,0,3.67,6.6,52.88,52.88,0,0,0,5,5.19l-8.29,15.32c-.16-1.26-.23-2-.35-2.72a8.41,8.41,0,0,0-4.74-6.57c-2.52-1.35-4.15-.15-5.91.88-1.54.9-2,3.58-1.39,5.56a16.75,16.75,0,0,0,7.3,8.85c.63.41,1.24.86,1.78,1.24l-5,14.43a11,11,0,0,1-.58-1.53c-.46-2.58-2.07-4.43-3.89-6.09a5.27,5.27,0,0,0-6.78-.36c-1.85,1.33-2.21,3-1.13,5.48a5,5,0,0,0,1,1.42,18.8,18.8,0,0,0,8.16,5c.5.15,1,.32,1.52.51l.06.07,0,0,.66.23c-.56,2.49-1.18,4.74-1.56,7-.56,3.37-1,6.76-1.41,10.14l-3.47,1.71a1.71,1.71,0,0,1-.59.29l-.18.09h0a7.54,7.54,0,0,1-1.42.64c-.34.2-.68.41-1,.59l-1.35.86-.43.26a17.78,17.78,0,0,1-2,1.17l-1.17.64-.71.48c-6.64,4.14-13.05,8.63-19.55,13a1.81,1.81,0,0,1-.57.45l-1.37,1.13-.44.36c-.68.56-1.36,1.1-2,1.67-1,.84-2,1.65-3,2.47l-.31.26c-.33.27-.66.53-1,.81-.78.66-1.56,1.34-2.38,1.95h0c-.34.3-.67.61-1,.91h0s0,0,0,0a127,127,0,0,0-25.7,31c-.5,1-1,2-1.58,2.91a1.83,1.83,0,0,1-.38.44l-.12.19c-.38.92-.74,1.86-1.12,2.84a44.54,44.54,0,0,1-2.23,4.93c-.11.32-.21.63-.31,1a63.48,63.48,0,0,1-2.47,7.08,1.81,1.81,0,0,1-.27.69c-.08.21-.17.42-.25.64,0-.1,0-.2,0-.3a1.78,1.78,0,0,1-1.76.44,3.87,3.87,0,0,1-1.92-1.32l-.12-.09h0c-.14-.11-.26-.24-.39-.36l0,.53c-2.89-4.54-5.42-8.86-8.32-12.91A66.89,66.89,0,0,0,459,524.23a14.53,14.53,0,0,1-2.73-3.44c-.85-.88-1.67-1.77-2.53-2.64l-1.36-1.26c-.77-.57-1.51-1.15-2.22-1.76a.91.91,0,0,1-.39-.15c-.38-.32-.76-.62-1.15-.92,1-3.7,2-7.38,2.85-11.12.68-3.19,1.05-6.44,1.53-9.67.54-3.64,1.19-4.23,5-5.1s7.77-1.85,11.61-2.93a13.56,13.56,0,0,0,8-5.79c2-3,1.75-5.93,0-8.9a4.21,4.21,0,0,0-3.85-2.08c-6.32-.2-11.23,2.7-15.39,7.09-1.73,1.84-3.19,3.92-5.09,6.29-.36-2.7-.36-5.06-1-7.22-1.17-3.86.15-6.29,3.1-8.9a80.65,80.65,0,0,0,14.43-17.49c3.16-5,4.18-10.42,1.61-16.09a6.17,6.17,0,0,0-6.29-3.42c-4.36.79-7.8,2.89-9.74,7.11a35.94,35.94,0,0,0-3.26,12.09c-.23,2.73-1,5.42-1.47,8.14a23.72,23.72,0,0,1-1.3,5.42c-1.25-3.63-2.3-7.35-3.8-10.87s-3.46-6.94-5.13-10.22c1.76-3.92,3.44-7.85,5.26-11.72a56.14,56.14,0,0,0,4.53-16.51c.57-4.15.57-8.41-1.71-12.25a11.77,11.77,0,0,0-1.64-2.2c-3.38-3.5-8.67-2.8-10.59,1.7a30.35,30.35,0,0,0-2.29,9.17c-.67,8,.37,15.93,2.09,23.76a24.32,24.32,0,0,1,.25,2.48l-13.53-12.37a29.13,29.13,0,0,1,.52-3,97.63,97.63,0,0,0,3.12-27.37c-.1-4.87-1.13-9.56-4.18-13.58-1.69-2.23-3.6-3.85-6.71-3.14-3.31.75-5,2.93-5.74,6.07a9.6,9.6,0,0,0-.14,2.15,61.71,61.71,0,0,0,2.28,17c.83,2.95,1.4,6,2.17,8.94.46,1.77,1.07,3.51,1.6,5.26.25.84.48,1.69.76,2.67-5-2.85-9.75-5.55-14.49-8.3-2.74-1.58-2.73-1.61-2.09-4.85,1.82-9.35,1.58-18.75.34-28.12a24.28,24.28,0,0,0-2.42-7.23,5.92,5.92,0,0,0-7.18-3.26,5.4,5.4,0,0,0-3.73,4.12c-.84,3-.41,5.89.17,8.82,1.16,5.92,2.32,11.84,3.61,17.73.52,2.38,1.37,4.68,2.08,7l-.42.58c-4.45-2.46-9-4.83-13.34-7.43-2-1.2-2.88-2.84-2.12-5.6a84.57,84.57,0,0,0,2.71-24.34,20.42,20.42,0,0,0-3.18-11.39c-1.18-1.73-2.64-2.91-4.86-2.49s-4.39,1.51-4.91,4a19.25,19.25,0,0,0-.47,6.08c.83,6.8,1.84,13.57,3,20.32.35,2.07,1.33,4,1.74,6.23-3.41-2.64-6.73-5.16-8.17-9.6-1.67-5.15-3.82-10.15-5.77-15.2a10.91,10.91,0,0,1-.82-1.64c-1-5-3.68-9.18-6.51-13.13a60,60,0,0,0-8.92-9.26,9.09,9.09,0,0,0-6.29-2.08,7.07,7.07,0,0,0-7,8.39c1.28,8.42,5.31,15.43,11.19,21.38,4.32,4.36,8.79,8.61,13.51,12.53,2.56,2.12,5.64,3.63,8.54,5.36h0c.27.15.53.31.79.47a37.28,37.28,0,0,1,3.79,2.53c2.45,2,4.83,4.1,7.22,6.17.42.37.78.83,1.57,1.68a65.16,65.16,0,0,1-7.16-1.07,34.11,34.11,0,0,0-11-.66c-4.06.25-7.85,1.4-10.43,5-1.46,2-1.47,3.85.17,5.82a10.9,10.9,0,0,0,7.49,3.8,45.56,45.56,0,0,0,14.68-.69c5.9-1.27,11.82-2.44,17.7-3.77a6.48,6.48,0,0,1,4.95.87c3.44,2,7,3.76,10.43,6.17-1.23,0-2.46,0-3.69,0A61.56,61.56,0,0,0,380,413.78a16.39,16.39,0,0,0-8.53,5.75c-1.77,2.08-1.61,3.66.31,5.67a9.38,9.38,0,0,0,6.31,2.79c3.77.32,7.33-.69,10.87-1.7,6.11-1.73,12.17-3.63,18.27-5.38a36.22,36.22,0,0,1,5.09-.94,2.55,2.55,0,0,1,1.73.33c3.51,2.64,7,5.36,10.44,8.07a5.77,5.77,0,0,1,.81,1.08c-3.93-1.09-7.59-2.28-11.35-3.11-6.55-1.46-13.09-1.28-19.21,1.69a23.19,23.19,0,0,0-5.94,4.75c-1.46,1.47-.92,4,.9,5.4a12.49,12.49,0,0,0,7.43,2.54c6.68.23,13.27-.68,19.9-1.34,5.07-.51,10.19-.76,15.29-.92a4.32,4.32,0,0,1,3.21,1.33c3.33,4.75,6.29,9.73,7.93,15.76-3.34-1.73-6.35-3.37-9.42-4.88a67.23,67.23,0,0,0-21-6.58,14,14,0,0,0-8.36,1.51c-3.29,1.71-4.73,5.34-1.09,8.39a19.83,19.83,0,0,0,10.57,4.54c4.07.49,8.17.61,12.26.89,5.93.41,11.83.9,17.31,3.59,1.93.94,3.34,2,3.63,4.41.53,4.23,1.39,8.42,2.21,13.21-2.48-2.13-4.4-3.76-6.29-5.42a59.61,59.61,0,0,0-17.72-10.32,36.55,36.55,0,0,0-8.34-1.86c-2.77-.38-4.89,1.33-6.77,3.07a3.08,3.08,0,0,0-.49,2.56,8.91,8.91,0,0,0,3.6,5.56,35.63,35.63,0,0,0,10.22,4.87c5.44,1.4,10.81,3.09,16.21,4.65,2.46.7,4.92,1.41,7.39,2.07a2.67,2.67,0,0,1,2.28,3.13c-.39,3.33-.68,6.68-1.29,10-.8,4.3-1.79,8.55-2.75,12.81C434,503.05,421.05,496.86,407.89,491c-.28-.13-.55-.26-.81-.4-2.05-.9-4.08-1.87-6.12-2.79l-1.5-.51c-2.37-.79-4.77-1.49-7.08-2.44-14-3.48-28-7-42-10.34l-1.51-.21c-.21,0-.43,0-.64,0a2,2,0,0,1-.62-.14q-8.61-1.2-17.23-2.46l-5.87-.87c-2.89-.35-5.79-.73-8.67-1.13l-.23,0c-4.48-.49-9-.94-13.43-1.6a.36.36,0,0,1,0,.1c-6.34-.59-12-1.1-17.59-1.65s-11-1.13-16,2.41c-9.11,6.5-18.5,12.64-27.32,19.52-9.83,7.67-19.17,16-28.63,24.1-.94.81-1.29,2.3-1.92,3.47a13.75,13.75,0,0,0,3.7,1.19,88.65,88.65,0,0,0,9.36-.17c29.74-2,59.5-2.85,89.29-1.23a20.42,20.42,0,0,1,2.75.51,39.33,39.33,0,0,1-7.72,1.46c-18.36,2.66-36.72,5.3-55.07,8.07-10.08,1.52-20.14,3.23-30.19,5-4.4.76-4.9,1.82-3.31,6l.52,1.37c-1.59,1.64-3.77,2.86-4,4.41-.3,1.8,1.06,3.89,1.85,6.27-4.12.48-8.48.69-6.3,6.21-1.68.9-3.93,1.38-4.2,2.39-.9,3.43-1.24,6.9-5.5,8-.39.1-.39,1.81-.48,2.78-.12,1.23-.14,2.46-.17,3.08-2.33,1.14-4.71,1.57-5.83,3-2.3,2.92-.75,6.44,3.16,7.8a154.59,154.59,0,0,0,44.15,8.12c33.9,1.54,67.34-3,100.74-8,15.25-2.29,30.44-5.7,46-4.48,16.11,1.27,32.21,2.62,48.28,4.28,4,.41,8.36,1.33,11.63,3.45,20,13,40.22,11.87,61,2.27a71,71,0,0,1,18-5.89c26.57-4.36,53.16-2.49,79.65,1.1,31.49,4.28,63,8.37,94.88,7.16a278.73,278.73,0,0,0,67.4-10.66,7.1,7.1,0,0,0,3.93-4.17c1-3.08.83-6.56,1.79-9.68C777.72,560.29,777.55,559.83,771.91,559.88ZM647.35,308.74c.29-1.09,1.78-2,2.93-2.66a2.67,2.67,0,0,1,2.36.54,4.19,4.19,0,0,1,1.37,4.27c-.81,2.72-1.79,5.39-2.86,8a12.15,12.15,0,0,1-1.46,2.33c.07-.85.15-1.77.22-2.69s.12-1.76.17-2.58.07-1.58.08-2.23c0-1.31,0-2.18,0-2.18l-.35,2.15c-.11.65-.23,1.4-.42,2.19s-.36,1.64-.55,2.48c-.24,1-.48,2-.69,2.9C645.8,317,646.23,312.85,647.35,308.74Zm-7.17,24.95-1-2.08-.85-2.16c-.14-.34-.28-.68-.39-1l-.25-.95-.52-1.94s.07.8.19,2c0,.3.06.63.09,1s.14.7.22,1.07c.16.75.33,1.56.51,2.36s.47,1.56.69,2.29c.07.24.15.47.22.69-3.13-2.74-4.57-6.32-5.27-10.25a4.54,4.54,0,0,1,1.18-3.1c.64-.77,3.08,0,4,.93,2.31,2.4,3.29,8.74,2,12.61A14.63,14.63,0,0,1,640.18,333.69Zm8.87,6.15a2.53,2.53,0,0,1,.55-.18c2.06-.55,4.44.16,5,1.46s-.34,2.47-2.85,3.49a22.45,22.45,0,0,1-10.4,1.72l.79-.31c.72-.27,1.41-.64,2.13-1,1.41-.71,2.79-1.42,3.85-1.88.53-.25,1-.39,1.32-.52l.51-.18-.53.1c-.34.07-.82.12-1.39.28-1.16.28-2.66.76-4.15,1.21-.74.2-1.48.44-2.18.57-.34.07-.68.15-1,.2l-.58.07Zm-21.45,9.83c-.32-.67-.69-1.33-.94-2a16.11,16.11,0,0,1-.69-1.79,11.5,11.5,0,0,1-.36-1.32l-.13-.51,0,.52a10.57,10.57,0,0,0,.13,1.37,17.13,17.13,0,0,0,.37,1.94c.14.71.39,1.44.6,2.18s.49,1.46.75,2.13c.07.16.13.31.19.47a11.19,11.19,0,0,1-4.3-10.63c.26-1.95,1.17-2.33,2.79-1.25,3.27,2.19,4.78,7.59,3.3,11.85-.21-.33-.44-.69-.66-1.08C628.31,351,628,350.32,627.6,349.67Zm4.53,14.4-.83-.05c-.29,0-.61,0-.94,0h-2.05c-1,.06-1.95.1-2.8.16,3.6-1.46,7.09-3.29,11.31-2.69a3.63,3.63,0,0,1,3.08,2c-.16,1.78-1.6,2.27-3,2.72a16.56,16.56,0,0,1-9.83.3l-1.91-.56c.93-.27,2.09-.55,3.26-.85l2-.4c.31-.05.61-.13.91-.17l.83-.11,1.71-.23ZM611.4,366.6a57.35,57.35,0,0,1-3-7.24,2.71,2.71,0,0,1,.29-2.19,4.32,4.32,0,0,1,2.37-1.86c.62-.09,1.75.94,2.06,1.72,1.32,3.25,2.3,6.59,1.7,10.42l-1.11-2.27-2.93-5,2,5.48c.31,1.09.61,2.17.86,3.09A7.71,7.71,0,0,1,611.4,366.6ZM617.28,378a5.75,5.75,0,0,1,4.74,2.49c1.14,1.45.93,2.71-.79,3.53a16,16,0,0,1-11.09,1.33,37.39,37.39,0,0,1-4.62-1.69h.05l1-.31c.36-.12.77-.19,1.17-.29.81-.21,1.71-.34,2.61-.49,1.8-.26,3.63-.47,5-.65l2.27-.33h-2.3c-1.37,0-3.2-.08-5.05-.08-.93,0-1.87,0-2.74.11-.44,0-.87.05-1.28.12l-.78.12A21.23,21.23,0,0,1,617.28,378Zm-26-1.12c-.43-2.43.28-4.68,2.78-5.89,2.71.69,3.53,2.71,3.43,5.14a35.34,35.34,0,0,1-.93,7.29c-.26-.65-.55-1.34-.83-2s-.55-1.37-.74-2a13.52,13.52,0,0,1-.51-1.79,8.93,8.93,0,0,1-.21-1.32c0-.32-.06-.5-.06-.5s0,.18,0,.5a9.15,9.15,0,0,0,0,1.35,14.15,14.15,0,0,0,.18,1.92c.08.7.25,1.43.38,2.17.31,1.45.63,2.89.78,3.95,0,.18.05.34.07.49A20.62,20.62,0,0,1,591.32,376.9Zm2.13,21.65-3.34.05c2.7-1.11,5.4-2.21,8.16-3.16,1.5-.52,2.89.2,4.09,1.11a1.64,1.64,0,0,1,.26,2.73,2.93,2.93,0,0,1-1.19.82c-3.76,1.21-7.56,2-11.47.72a3.4,3.4,0,0,1-.64-.31l4.29-.9,5.36-1.4Zm-15.21,2.88-1.66-3.77c-.47-1-.8-1.7-.8-1.7s.21.72.49,1.81.61,2.56,1,4c.21.73.38,1.47.62,2.15a7.19,7.19,0,0,0,.24.7,18.3,18.3,0,0,1-6-8.86,3.26,3.26,0,0,1,1.31-3.88c1.42-.83,2.87-.64,4.26.78a7.63,7.63,0,0,1,1.82,2.64c1,2.9.55,5.82.32,9.08-.19-.31-.39-.65-.58-1C578.86,402.78,578.56,402.1,578.24,401.43Zm8.6,14.68a2.76,2.76,0,0,1,2.85,2.39c.4,1.58-.82,2.24-1.78,2.61a23.55,23.55,0,0,1-4.83,1,15.8,15.8,0,0,1-5.55-.66l2.68-.87,1.95-.53a14.14,14.14,0,0,1,1.74-.4l1.71-.34h-1.74a16.63,16.63,0,0,0-1.8.07l-2.07.16c-1.23.15-2.46.29-3.45.43A14.52,14.52,0,0,1,586.84,416.11ZM578.52,434c1.23.09,2.16.45,2.39,1.68s.14,2.75-1.35,3.2a47.68,47.68,0,0,1-7.34,1.72,12.38,12.38,0,0,1-3.14-.12l2.24-1.45a18,18,0,0,1,1.66-.89,6.73,6.73,0,0,1,.8-.35l.74-.25a9.24,9.24,0,0,1,1.16-.25l.45-.09h-.46a8,8,0,0,0-1.19,0l-.82.1a6.3,6.3,0,0,0-.9.19,18.51,18.51,0,0,0-1.9.57L568,439.19C570.66,435.92,575.16,433.77,578.52,434ZM560.16,420.3a3.62,3.62,0,0,1,1.17-4.21,4,4,0,0,1,4.68.31A7.05,7.05,0,0,1,568.4,421a16.81,16.81,0,0,1,0,5.39l-1.21-2.08-1.13-1.67a7.45,7.45,0,0,0-.54-.74l-.52-.62L563.9,420l.81,1.47c.13.22.26.46.4.71a8.83,8.83,0,0,1,.37.82l.75,1.78c.42,1.27.87,2.5,1.13,3.47l.12.39C563.78,426.58,561.23,424.1,560.16,420.3ZM558.44,445c-.88-.81-1.8-1.6-2.42-2.28L555,441.63l.8,1.3c.45.79,1.18,1.77,1.89,2.79l1,1.35a18.31,18.31,0,0,1-5.81-3.75,5,5,0,0,1-1.14-1.68,2.76,2.76,0,0,1,.65-3.45,3.64,3.64,0,0,1,3,0,8.72,8.72,0,0,1,2.9,2.35c1.43,1.69,1.87,3.75,2.29,6.22C559.91,446.25,559.17,445.64,558.44,445Zm-93.26,28a25.51,25.51,0,0,1,6-2.08,3.8,3.8,0,0,1,4.74,1.72,4.78,4.78,0,0,1-.49,5.71,12,12,0,0,1-6.88,4.86c-4.09,1-8.17,2-12.65,3.15,4.46-2.92,8.57-6.22,12.94-9.17-4.84,2.57-9.48,5.56-14.31,8C457.2,480,460.42,475.82,465.18,473Zm-3.92-28.83c-2.38,5.53-5.89,10.38-8.67,15.66.4-2.4.77-4.7,1.09-7,.68-4.85,1.16-9.7,2.88-14.35,1.29-3.48,3.37-6,7-7.11,3.38-1,5.85.52,6.6,3.91s.59,6.47-1.31,9.43c-1.05,1.63-1.78,3.48-3,5-3.6,4.57-7.34,9.05-11.09,13.51a22.82,22.82,0,0,1-2.84,2.5C454.11,458.27,458.78,451.54,461.26,444.18ZM361,383c-6.6-9.33-15.76-16.64-19.92-27.5,3.25,10.26,11.27,18,17.17,26.8-3.37-1.8-6.08-4.44-8.94-6.91-6.26-5.43-12.44-10.9-16.16-18.58-1.56-3.24-3.24-6.37-3.54-10-.35-4.16,2-6.54,6.1-5.76a11.12,11.12,0,0,1,4.38,2c4.53,3.35,7.71,7.89,10.36,12.78,1.39,2.58,2.34,5.4,3.5,8.11,1.68,3.94,3.5,7.84,5,11.84a74,74,0,0,1,2,7.25Zm12.08,2.3c0,.75-.09,1.5-.12,2.26-.05-.11-.09-.23-.14-.34-2.51-6.89-3.29-14.11-3.88-21.35a59.2,59.2,0,0,1-.29-7c.08-1.63.59-3.28,2.62-3.7,1.57-.33,3,.21,3.75,2.44,1.14,3.24,2.31,6.65,2.41,10a93.67,93.67,0,0,1-1.12,14,29.42,29.42,0,0,1-1.6,7.46c-.22-3.73.06-7.6-.46-11.29-.54-5-1.48-9.88-1.08-14.89C372.09,370.37,373.81,377.85,373.05,385.31Zm7.52,18.63c-5.48,1.25-10.93,2.65-16.46,3.62a40.42,40.42,0,0,1-9.46.4,13.41,13.41,0,0,1-5.46-1.81c-3-1.68-3.23-4.65-.23-6.2a21.55,21.55,0,0,1,8.4-2.43,55.37,55.37,0,0,1,10.94.92,46.5,46.5,0,0,1,12,3.24c-7.91.67-15.67,2.19-23.64,1.69,8.44,1.17,17.08,0,25.54.06A15.28,15.28,0,0,1,380.57,403.94Zm17.83-5.68a45.85,45.85,0,0,1-1.2,6.18l-.32,0c-.6-4-.74-8.07-1.29-12.12-.64-4.59-1.62-9.2-.93-13.85-1.44,6.91.42,13.94.06,20.92,0,.71,0,1.41.08,2.12a48.68,48.68,0,0,1-3.21-11.34c-.87-5.43-1.95-10.84-2.85-16.27a6.21,6.21,0,0,1,1-5,2.41,2.41,0,0,1,3.41-.87c2.74,1.29,3.67,3.74,4.28,6.35C399.29,382.32,398.87,390.3,398.4,398.26Zm5.67,20.83c-4.85,1.57-9.62,3.42-14.51,4.86a50.69,50.69,0,0,1-9.89,1.91c-2.76.24-5.47-.5-6.88-3.42,1.84-4,5.25-5.92,9.1-6.83a47.46,47.46,0,0,1,20.34-.32c1.12.23,2.22.5,3.33.79-1.17.06-2.35.15-3.52.27-8.05.63-15.32,4.7-23.33,5.39,5.33,0,10.49-1.82,15.65-2.88a59.49,59.49,0,0,1,14.78-.95A50.44,50.44,0,0,0,404.07,419.09Zm15.06-1.88c-2.93-6.34-4.31-13.16-5.8-19.93-.76-3.48-1.12-7-1.59-10.58a10.79,10.79,0,0,1,.71-6.32c1.57-3.23,5.09-3.79,7.53-1.16a12.5,12.5,0,0,1,1.68,2.55c2.91,5.34,2.93,11.15,2.59,17-.16,2.64-.58,5.27-.94,7.9-.52,3.8-.89,7.64-2.32,11.45-.53-10-2.91-19.84-2.21-29.93C417.5,397.77,419.11,407.56,419.13,417.21Zm8.08,18.84c-8.84.85-17.66,1.9-26.52,2.54a22.18,22.18,0,0,1-8-1.22c-2.47-.79-2.69-2.67-.86-4.5a15.82,15.82,0,0,1,3.15-2.44c5.43-3.14,11.45-3.31,17.29-2.22,5.38,1,10.57,3.09,15.78,4.85a6.08,6.08,0,0,1,1.06.51c-9.42-2.28-19.41.56-29-.15,10,1.41,21-1.25,30.55,2.61A31.73,31.73,0,0,0,427.21,436.05Zm11.38-2.58a77.65,77.65,0,0,1-2.43-24,32.84,32.84,0,0,1,2.21-9.18c1.06-2.75,3.64-3.18,6.11-1.5s3.39,4.3,3.51,7.17c.18,4.42.08,8.83-1.38,13.08-1.18,3.49-2.23,7-3.56,10.45a23.39,23.39,0,0,1-2.37,5c1.7-8.2,1-16.62,1.47-24.94-1.11,8.34-.93,17.14-3.37,25.21A7.22,7.22,0,0,0,438.59,433.47Zm5.27,26.92c-.58-.17-1.18-.33-1.74-.55-4.93-1.89-10.13-2.29-15.3-2.76-3-.28-6.11.14-9.12-.19a38.46,38.46,0,0,1-8.33-1.93,13.43,13.43,0,0,1-4.51-3c-1.3-1.25-1.19-2.68.29-3.65a10.54,10.54,0,0,1,4.47-1.73,21.64,21.64,0,0,1,9.1.86c3.76,1.23,7.71,1.81,11.19,4,2.4,1.51,5.28,2.22,7.8,3.56a34,34,0,0,1,3.58,2.12c-.68-.22-1.38-.41-2.07-.62a161.13,161.13,0,0,0-23.41-4.68,159.29,159.29,0,0,1,23,6.15,22.85,22.85,0,0,1,5.26,2.37C444,460.37,443.9,460.4,443.86,460.39Zm1.77,22.55c-7.17-2-14.39-3.85-21.49-6.07a55.35,55.35,0,0,1-8.86-4.08c-1.85-1-3.08-3.49-2.72-4.78s2.5-2.79,4.8-2.57a29.34,29.34,0,0,1,8.05,1.59,63.19,63.19,0,0,1,19.51,12.47,11.44,11.44,0,0,1,1.17,1.3c-1.9-.79-3.93-1.34-5.8-2-5.86-2-11.21-5.28-17.06-7.39,6.76,3.06,13,7.52,20.08,10a22.84,22.84,0,0,1,3.67,1.83C446.38,483.12,446,483,445.63,482.94Zm316.7,76.3a3.4,3.4,0,0,1,2.69,1,17.22,17.22,0,0,1-3.36,1.23c-30.56,4.64-61.09,8.61-92.2,5.66-28.91-2.74-57.9-4.95-86.9-6.07-15.74-.6-31.76-.5-47.33,3.39a18.43,18.43,0,0,1-2.48.24c-.07-.32-.15-.65-.23-1,6.48-1.66,12.89-3.69,19.45-4.9A291.15,291.15,0,0,1,636.24,556C678.21,560.46,720.23,561.1,762.33,559.24Zm-4.15-10.85c-1,7.17-1,7.11-7.67,7.19-19.7.24-39.43,1.27-59.1.59-20.07-.71-40.08-3.29-60.14-4.67-19.23-1.32-38.44-1.73-57.73.27a257.2,257.2,0,0,0-40.74,8c-4.74,1.28-9.32,3.16-14.33,4.12,3.61-1.87,7.17-3.85,10.85-5.57,15.07-7,30.62-13.12,47.14-14.94,15.57-1.71,31.43-2.7,47-1.8,37.33,2.15,74.51,6.83,112,6.82Zm-69.12-37.17c16.18,5.52,32.85,9.59,49.3,14.34,1.3.37,2.57.86,3.83,1.29-2.13,6.83-2.43,7.06-8.52,6.18-24.1-3.51-48.18-7.14-72.3-10.5-25.39-3.55-50.81-4.71-76.12.62-29.83,6.28-56.07,20.07-79.89,38.79-2,1.56-3.76,3.42-5.64,5.15l-1-.83c6.13-6.13,11.88-12.7,18.47-18.28,21.91-18.55,47.67-29.67,74.93-37.71C624.56,500.71,656.74,500.19,689.06,511.22Zm36.11-17.92c2,1,3.83,2.29,6.73,4-2.25.1-3.43.19-4.6.19-24.54,0-49.09-.33-73.61.16-49,1-94.34,13.62-133.8,43.54-8.58,6.51-15.52,15.21-23.16,22.94a49.56,49.56,0,0,0-3.33,4.15l-1.43-1a103.32,103.32,0,0,1,5-9.08c10.57-15.58,25.14-26.84,40.8-36.72,31.6-19.94,65.71-34.24,101.62-44.35,9.81-2.76,19.63-5.47,29.41-8.31a12.46,12.46,0,0,1,9.75.91C694,477.76,709.62,485.46,725.17,493.3ZM482.33,562a77,77,0,0,1,13.11-38.11c13.09-19.71,31.09-34,51.08-46a259.77,259.77,0,0,1,45-21.09,4.4,4.4,0,0,1,.5-.21c1.56-.55,3.13-1.09,4.67-1.69,3.08-.95,4.14-1.48,6.35-2.1,2-.56,4-1.32,6-1.91l0,0q10.54-3.3,21.24-6.19,15.75-4.31,31.58-8.36a11.11,11.11,0,0,1,5.77-.15c16.56,5.34,33.06,10.87,49.57,16.37a32.32,32.32,0,0,1,3.28,1.68c-6.17,1.26-11.28,2.17-16.31,3.35-24,5.64-48.24,10.18-71.74,17.29-36,10.9-70.5,25.69-101.94,46.79-11.7,7.85-22.69,16.62-31.54,27.67a110.75,110.75,0,0,0-9.42,14.59c-1.25,2.19-2.2,3.82-5,3.22C481.36,566.46,482.21,563.89,482.33,562Zm-235.85-50.1c-8.91-.05-17.83,0-26.73,0a6.24,6.24,0,0,1,1.24-1.53c16.54-12.66,32.95-25.5,49.82-37.7,3.06-2.21,8.14-2.74,12.12-2.35,19.74,1.91,39.44,4.26,59.12,6.71a231,231,0,0,1,64.19,17.21c18.52,8.09,36.46,17.12,50.28,32.54,9.09,10.14,16.7,21.11,20,34.57a29.09,29.09,0,0,1,.64,2.88,17.76,17.76,0,0,1-.14,2.66c-.88-.52-1.36-.64-1.52-.93-8.77-15.76-23.75-24-39-31.72C415.69,523.69,393.37,518.44,370,517c-15-.94-29.87-3.78-44.85-4.28C299,511.81,272.71,512.08,246.48,511.91Zm-23.1,22.7,11.86-1.85c21.69-3.41,43.32-7.27,65.09-10.11,27.06-3.53,54.2-4.37,81.43-.79,24.72,3.25,47.75,11.07,68.61,24.53,7,4.52,12.72,11.13,18.9,16.92,1.1,1,1.55,2.75,2.31,4.16l-1,.78a7.63,7.63,0,0,1-1.63-1.1c-13-15.12-30.43-23.35-48.51-30.34-16.56-6.41-33.81-8.65-51.61-8.9-32.06-.45-63.58,3.71-95.18,8.29-15.11,2.18-30.52,2.32-45.81,3.08-1.59.08-3.29-1.94-4.94-3C223.07,535.74,223.22,535.18,223.38,534.61Zm7.34,8.94c21-.39,41.75-3.3,62.52-6.29,32.72-4.7,65.66-8.66,98.66-3.82,26.53,3.89,50.54,14.35,70.83,32.41A4.66,4.66,0,0,1,464.4,569a15.31,15.31,0,0,1-1.91-1.25c-20.59-17.84-45-25.83-71.7-28.69-29.73-3.17-58.75,2.12-88,5.32-20.26,2.21-40.67,3-61,4.34-4.95.32-9.93.09-14.88.39-3.37.19-5.54-.65-5.66-5.13C224.55,543.84,227.63,543.6,230.72,543.55Zm-10.81,9.51q8.94-.15,17.87,0c26.32.33,52.33-3,78.34-6.45,24-3.17,48.07-6.34,72.43-3.94,21.57,2.13,42,7.59,60.47,19.41,1.15.73,2.22,1.57,3.33,2.36l-.22.35c-5.53-2-10.95-4.36-16.59-6-22.47-6.42-45.59-7.52-68.71-6.87-23.93.69-47.85,2.31-71.74,4a505.76,505.76,0,0,1-74,0c-1.51-.11-3-.37-4.52-.56l-.24-1.34A14.14,14.14,0,0,1,219.91,553.06Zm191.65,21.65a214.17,214.17,0,0,0-57.6,1.44c-34,5.44-68,11-102.67,9.92-16.45-.53-32.82-2-48.6-7.22a8,8,0,0,1-3.81-2.35,10.44,10.44,0,0,1,2.74,0C224,582.74,247,583.35,270,583.39c25.17.05,50-3.41,74.65-8.31a201.3,201.3,0,0,1,66-2.32c10,1.32,19.9,2.74,29.84,4.14a15.2,15.2,0,0,1,2.61,1C432,576.8,421.77,575.83,411.56,574.71Zm19.14-3.22c-26.88-4.36-53.78-5.58-80.82-1.16-18.57,3-37.14,6.55-55.85,8.1-16,1.32-32.3.66-48.41-.07-11.84-.54-23.6-2.78-35.42-3.87-4.36-.41-5.35-2.27-4.11-6.89,5.45.59,10.75,1.41,16.08,1.68,17.12.86,34.27,2.42,51.36,2,19.1-.47,38.14-2.92,57.22-4.32s37.9-3.65,56.83-3.45c20.09.22,40,4,59.29,9.92a4.6,4.6,0,0,1,2.36,1.7C443.06,573.9,436.91,572.5,430.7,571.49Zm8.8-4.19c-29.14-7.52-58.67-9-88.6-6.33-29.64,2.6-59.33,5-89,6.2-15.93.61-32-1.63-48-2.57-2.76-.16-3.87-1.37-2.74-4.44h9.15c21.55.11,43.11.85,64.63.15,21.8-.71,43.54-3.17,65.34-4.27,23.1-1.15,46.3-1.4,69.11,3,10.33,2,20.27,6,30.31,9.3,2,.67,3.74,2.27,5.59,3.44l-.33.59C449.81,570.65,444.74,568.65,439.5,567.3Zm12.21,14c10.63-11,43.08-16.06,57.24,1.66C493.16,594.07,464.81,593.15,451.71,581.32Zm50.82-11.62c2.34-2.17,4.52-4.56,7-6.49,36.18-27.77,76.87-42.34,122.65-39.23,23.11,1.57,46,5.82,69.06,8.84q21.26,2.8,42.53,5.57c1.81.24,3.62.56,5.59.87-.56,3.37-2,4.86-5.58,4.9a766.24,766.24,0,0,1-88.28-4.45c-26.31-2.75-52.94-5.08-79.29-.38C549.65,544.08,524.71,553.4,502.53,569.7Zm252.36,9.19c-36.37,8.18-73,8.72-109.88,4.15-25.44-3.15-50.94-5.85-76.49-7.84-18-1.41-35.87,1-53.76,4.39,1.81-.68,3.59-1.43,5.43-2a43.84,43.84,0,0,1,5.7-1.59,196.08,196.08,0,0,1,56.71-2c19,2,38,4.34,57,6.35,21,2.22,42,4.29,63.2,3.29,22.14-1,44-3.92,65.38-9.94a10.47,10.47,0,0,1,1.59-.2c.13.45.26.9.38,1.35C765.07,576.16,760,577.74,754.89,578.89Zm12.45-9.4c-29.3,8.11-59.17,12.27-89.54,10.07-24-1.74-47.92-4.79-71.84-7.55-20.61-2.38-41.24-4.26-62-2.26-9.52.92-18.92,3.07-28.65,4,6.47-1.85,12.85-4.21,19.43-5.45,27.17-5.12,54.49-3.68,81.83-1.41,18.09,1.5,36.25,2.19,54.3,4,29.52,3,58.57-.76,87.63-5,4-.58,8.1-1,12.14-1.49l1,1.54C770.24,567.2,769,569,767.34,569.49Z"/><path class="cls-2" d="M466.49,478.8l0,0Z"/><path class="cls-2" d="M466.56,478.75l.15-.1Z"/><path class="cls-2" d="M466.71,478.65l.08,0Z"/><path class="cls-2" d="M466.86,478.55l.18-.12Z"/><path class="cls-2" d="M467.22,478.3l.5-.33Z"/><path class="cls-2" d="M467.84,477.88l.34-.22Z"/><path class="cls-1" d="M454.86,388.71c7.67,1,15.36,2,23,3.16a8.37,8.37,0,0,1,4.37,2.25c7,7.08,13.78,14.31,20.67,21.47,3.87,4,7.78,8,11.85,12.2,4.44-5.24,8.59-10,12.59-14.94,1.38-1.69,2.36-2,4.18-.49,3.36,2.79,7,5.28,10.91,8.23l34.42-125.26-.73-.38L450.74,388C452.65,388.32,453.75,388.56,454.86,388.71Zm54.46,29.2-26-27.24L549,325.59l.46.4c-1.94,2.35-3.86,4.71-5.82,7q-21.54,25.56-43.15,51.05a4.85,4.85,0,0,0-.86,5.61c3.55,9.24,6.94,18.54,10.4,27.82Zm5.86,4.71c-3.86-10.41-7.5-20.19-11.13-30l.65-.53,22.12,16.72Zm55.35-115.69c-9.89,36-19.78,72-29.83,108.59L502.48,386.6l67.39-80Zm-15.76,7.63.5.6-19.6,19.36q-26.61,26.33-53.27,52.58a6.28,6.28,0,0,1-4.46,1.53c-6.18-.61-12.33-1.57-19.57-2.55C491.06,361.83,522.92,338.2,554.77,314.56Z"/><path class="cls-2" d="M463,249.39c.33.23.68.68,1,.67,2-.11,3,1.17,4.1,2.51a40.38,40.38,0,0,1,7.51,16.21c-2.2-1.72-4.38-3.46-6.6-5.15-7-5.32-14.4-9.63-23.16-11.24a31,31,0,0,0-12.37.1c-1.71.39-3.33,1-3.92,3l.39,1.74,4.69,4.4a4.9,4.9,0,0,0,1,5.43,20.8,20.8,0,0,0,4.68,3.59,3.49,3.49,0,0,1,1.94,3.17c.3,5.35,3.62,8.06,8.89,7.39,1.1-.14,2.2-.31,3.53-.49-.63.71-1.11,1.25-1.57,1.8-2.16,2.61-4.16,5.31-5.1,8.63s-.46,4.78,2.29,6.73c-.26,2.83.14,3.35,3.41,4.51.3,3.48.31,3.46,4,3.93.41,0,.83.57,1.11,1a2.67,2.67,0,0,0,3.57,1.18,1.78,1.78,0,0,1,1.38.14c2,1.36,2.68,1.33,4.32-.37,3.6,1,5.52.4,7.05-3.13,1.73-4,3-8.26,4.39-12.42.44-1.28.71-2.62,1.1-4.11a35,35,0,0,0,1.57,3.46,1.71,1.71,0,0,0,1.34.81,1.72,1.72,0,0,0,.91-1.28,38,38,0,0,0,0-3.81l1.48,1.76c3.28,3.9,6.41,7.95,10.56,11,3,2.22,4.82,2.1,7.65-.29,2.1.86,2.79.58,4-1.36a2.2,2.2,0,0,1,1.42-.84c1.28-.18,2.33-.75,2.39-2,0-1.47.86-2,2-2.56,1.69-.86,2-1.85,1.18-3.52-.17-.35-.32-.71-.47-1,2.55-2.38,2.64-2.81,1.25-5.67,1.53-2.38,1.56-3.83-.13-6.1a11.58,11.58,0,0,0-2.81-2.82c-2.61-1.73-5.35-3.25-7.93-4.79,1-.31,2.29-.67,3.55-1.07,3.86-1.2,6.16-4.6,4.86-8.37-1.07-3.12-.42-5.32,1.37-7.85,2.31-3.26,2-5.67-.3-8.76,1.59-2,1.83-2.57,2.57-5.88l-.33-1.45c-2.24-2.16-4.72-1.17-7.09-.4-8.82,2.87-15.28,8.83-20.28,16.36-2.91,4.41-5.22,9.22-7.79,13.85-.33.59-.62,1.2-.93,1.8h-.41a89,89,0,0,1-.56-8.91,90.53,90.53,0,0,1,1.13-9.68,3.78,3.78,0,0,1,2.3-3.21c.36-.15.49-.82.73-1.25-.5,0-1.26-.23-1.47,0a10.7,10.7,0,0,0-2.11,3.11c-1.61,4.48-1.81,9.18-1.71,13.9,0,2,.2,3.94.31,5.82l-1.37.31c-1.86-3.81-3.6-7.72-5.67-11.46a31.68,31.68,0,0,0-4.41-5.91,9,9,0,0,0-3.29-1.76C463.89,248.59,463.4,249.14,463,249.39ZM484.26,277c-.05-.2-.09-.4-.14-.6a7.09,7.09,0,0,1,1.35-1c3-1.38,6-2.79,9.08-4,.79-.31,2.26-.36,2.68.11.81.94-.14,1.93-.88,2.64-2.37,2.28-5.44,2.67-8.51,3A30.61,30.61,0,0,1,484.26,277Zm1,2.92c0-.23,0-.46,0-.69,2-.29,3.93-.6,5.9-.85.88-.11,1.78,0,2.66-.12,3.74-.34,6,1.78,7.75,4.68a2.81,2.81,0,0,1,.15,2.3c-.15.34-1.4.36-2.09.22a18.07,18.07,0,0,1-2.77-1q-4.56-1.74-9.11-3.5C487,280.65,486.13,280.29,485.29,279.94Zm14.26,20.39c-.21-.07-.47-.08-.62-.22-4.37-4.13-9-8.07-11.88-13.49a16.15,16.15,0,0,1-.83-2.31c4.16,4.51,8.26,8.92,12.31,13.38a13.71,13.71,0,0,1,1.41,2.34Zm3.94-1.85a8.33,8.33,0,0,1-2.12-.66,11,11,0,0,1-1.79-1.76q-3.52-3.68-7-7.36c-1.47-1.54-2.93-3.08-4.35-4.65a7.74,7.74,0,0,1-.81-1.33c.11-.15.21-.31.32-.47,3.7,1.68,7.45,3.26,11.07,5.09a5.59,5.59,0,0,1,3,4.14c.32,1.66,1.33,3.18,1.85,4.82A5.87,5.87,0,0,1,503.49,298.48Zm4.06-1.9c-.61-.09-1.43,0-1.81-.3a8.57,8.57,0,0,1-2.71-5.92l.35-.18c1.39,1.51,2.83,3,4.11,4.57C507.79,295.13,507.54,296,507.55,296.58Zm3.32-4.75c-.59.93-1.31,2-2.58,1.35a7.67,7.67,0,0,1-4-4.87,5.18,5.18,0,0,1,.28-1.81c2.09,1.23,3.84,2.25,5.57,3.29C510.91,290.26,511.48,290.88,510.87,291.83Zm2.58-5C513,288,512.08,288.1,511,288a8.26,8.26,0,0,1-5.93-3.55c-.71-1-.36-1.75.83-2,2.31.1,4.7.14,6.66,1.8A2.19,2.19,0,0,1,513.45,286.84Zm.32-8.23c-.29.47-.47,1.17-.89,1.39a10.75,10.75,0,0,1-3.29,1.23,16.67,16.67,0,0,1-9.21-1.62c4-.54,7.95-1.1,11.86-1.56C512.72,278,513.26,278.41,513.77,278.61ZM508.11,273a5.5,5.5,0,0,1,1,.59c1.4,1.07,1.34,2.31-.31,2.89a19.24,19.24,0,0,1-11.39.3c-.21-.05-.37-.28-.55-.43C499.76,273,504.87,271.48,508.11,273Zm2.22-10a10.25,10.25,0,0,1-8.27,4.86,31.57,31.57,0,0,0-12.81,3.84,39.66,39.66,0,0,1-4.26,1.75c-.18-.23-.37-.45-.55-.67.35-.36.71-.7,1-1.07,5.75-6.52,12.51-11.32,21.32-12.7a8.29,8.29,0,0,1,1.32-.1C511,259,511.84,260.56,510.33,263Zm2.31-14.13a10.47,10.47,0,0,1-2,3.91c-2.82,3.35-6.81,4.69-10.77,6l-.48-.58c2.72-3.18,5.38-6.42,8.19-9.52a7.22,7.22,0,0,1,2.87-1.75C512.09,246.35,513.09,247.2,512.64,248.88Zm-4.39-9.44a5.93,5.93,0,0,1,2.49-1.43c1.68-.44,2.84.89,2,2.42a29.32,29.32,0,0,1-3.93,4.87,13,13,0,0,1-2.44,1.67C506.1,244.05,506.17,241.45,508.25,239.44Zm-25.54,29c3-7.4,6.83-14.32,12.34-20.15a24,24,0,0,1,5.57-4.07c1.89-1.09,3.32,0,3.17,2.2a12.19,12.19,0,0,1-3.72,7.58c-3.56,3.78-7.31,7.37-10.93,11.1-1.89,1.94-3.65,4-5.5,6a13.81,13.81,0,0,1-1.29,1.12l-.5-.29A25.33,25.33,0,0,1,482.71,268.41Zm-48.24-12.88c.52-1.05,2.43-1.39,4.17-.71,2.73,1.05,4,3.32,4.9,5.87l-.25.5c-2.21-.75-4.48-1.37-6.63-2.28C434.79,258.12,434,256.57,434.47,255.53Zm6.94,12.12a9.32,9.32,0,0,1-2.83-2.55c-.9-1.18-.38-2.21,1.08-2.45a6.25,6.25,0,0,1,2.2,0c4.71.92,8.65,3.47,12.61,6.06C450,269.37,445.55,269.93,441.41,267.65Zm5.88,9.78a6.22,6.22,0,0,1-1.68-1.42,1.78,1.78,0,0,1,.47-2.9,8.85,8.85,0,0,1,2.39-1.12c8.08-2.33,15.85-1.12,23.45,2.06.81.35,1.58.82,2.36,1.23l-.1.54a31.58,31.58,0,0,1-3.87.26,33.55,33.55,0,0,0-14.12,2A10.11,10.11,0,0,1,447.29,277.43Zm27,.41a14.58,14.58,0,0,1,1.84.27l.21.65a17.77,17.77,0,0,1-3.16,1.55,43.53,43.53,0,0,1-6.93,1.36,7,7,0,0,1-3.3-1.06,1.75,1.75,0,0,1-.72-1.42c0-.35.7-.83,1.15-.91a22.11,22.11,0,0,1,3.8-.43C469.57,277.78,471.94,277.81,474.31,277.84Zm-21.49,7.68a5.47,5.47,0,0,1,4.53-2.72c2.38,0,4.76.19,7.14.3,0,.18.07.37.11.56-1.3,1.74-3.26,2.61-5.15,3.46a19.1,19.1,0,0,1-4.8,1.43,6.68,6.68,0,0,1-2.55-.61A8.42,8.42,0,0,1,452.82,285.52Zm-.94,8.12a5.59,5.59,0,0,1-1.61-1,5.71,5.71,0,0,1,1.37-1.16c1.1-.42,2.29-.61,3.41-1,2.56-.85,5.11-1.75,8-2.73-2.59,2.91-5.3,5.11-8.94,5.85A5.06,5.06,0,0,1,451.88,293.64Zm4,6.85a2,2,0,0,1-2.3-2.71c.56-1.89,2.05-3,3.63-3.94.93-.56,2-1.68,3.05-.78s.15,2.24-.29,3.28A7.66,7.66,0,0,1,455.88,300.49Zm5.89,2.65c-.54,1.28-1.76,1.31-3.14.42-1.22-.78-.77-1.61-.16-2.49q1.63-2.37,3.25-4.76l.56-.18c.29.69.91,1.44.81,2.07A21.59,21.59,0,0,1,461.77,303.14Zm3.16,2.41c-.18.4-.9.55-1.37.81-.28-.52-.87-1.11-.77-1.53.5-2,1.18-4,1.79-6l.45.07A8.41,8.41,0,0,1,464.93,305.55Zm5.52-2.79a8.21,8.21,0,0,1-1.07,2.58c-.26.44-1,1-1.29.93a2.29,2.29,0,0,1-1.12-1.34,8.73,8.73,0,0,1-.22-2.06,21.77,21.77,0,0,1-.34-4.53,14.89,14.89,0,0,1,1.42-4.57,13.37,13.37,0,0,1,2.4-3.18c1.76-1.86,3.63-3.61,5.45-5.41l.52.26a72.39,72.39,0,0,1-2.25,7A51.8,51.8,0,0,0,470.45,302.76Zm7.15-16.29c1,3-2.86,17.74-5.63,20.11a15.11,15.11,0,0,1,.08-2.44A50.37,50.37,0,0,1,475.54,293,46.3,46.3,0,0,0,477.6,286.47Zm-.92-4.52c-1,1-2,1.94-3,2.95-2.14,2.25-4.25,4.53-6.38,6.78a17.75,17.75,0,0,1-1.7,1.66c-1.22,1-2.43.57-2.46-1-.06-2.91.57-5.89,3.28-7.32,2.92-1.56,6.22-2.42,9.36-3.56a1.68,1.68,0,0,1,.69.07ZM476,273.6a8.73,8.73,0,0,1-1.25-.29c-6.84-2.6-13.7-5.14-20.5-7.85a30.74,30.74,0,0,1-6.08-3.34,9.44,9.44,0,0,1-2.61-3.15c-.93-1.62-.09-3.13,1.78-3a21.27,21.27,0,0,1,6.36,1.14,44.92,44.92,0,0,1,8.47,4.22c3.88,2.56,7.54,5.45,11.18,8.33a24.17,24.17,0,0,1,3,3.48C476.29,273.28,476.16,273.44,476,273.6Z"/><path class="cls-1" d="M438.73,336.79a9.24,9.24,0,0,1-1.92-4.58c-.28-1.48-.41-3-.6-4.47l-.18-1.22h-.12c-.08.78-.14,1.57-.24,2.35a26.9,26.9,0,0,1-1.16,5.68,6.17,6.17,0,0,1-3.78,4,31,31,0,0,1-3.33,1c-.72.18-1.46.29-2.2.43v.1l.43.07a21.53,21.53,0,0,1,5.12,1.31,6.05,6.05,0,0,1,3.58,3.51,16.66,16.66,0,0,1,.85,3c.34,2,.57,4.1.83,6,.08-.76.2-1.66.27-2.57a22.92,22.92,0,0,1,1.26-6.23,6.26,6.26,0,0,1,3-3.38,14.78,14.78,0,0,1,4.15-1.32l2.12-.39a.41.41,0,0,0-.27-.16c-1.3-.28-2.61-.52-3.9-.84A7.35,7.35,0,0,1,438.73,336.79Z"/><path class="cls-1" d="M474.78,167.93a14.85,14.85,0,0,1,3.64.92,4.29,4.29,0,0,1,2.53,2.49,12.2,12.2,0,0,1,.61,2.12c.24,1.45.41,2.91.59,4.26.06-.53.14-1.18.19-1.82a15.93,15.93,0,0,1,.89-4.42,4.46,4.46,0,0,1,2.11-2.39,10.58,10.58,0,0,1,3-.94l1.51-.28a.34.34,0,0,0-.2-.11c-.92-.2-1.85-.37-2.77-.6a5.2,5.2,0,0,1-2.76-1.57,6.62,6.62,0,0,1-1.36-3.25c-.2-1.05-.28-2.11-.42-3.17,0-.29-.09-.58-.13-.87h-.09c-.05.55-.09,1.11-.16,1.66a19.74,19.74,0,0,1-.82,4,4.44,4.44,0,0,1-2.69,2.82,22.88,22.88,0,0,1-2.36.68c-.51.13-1,.2-1.56.3v.07Z"/><path class="cls-2" d="M286.77,426.52c5.9,1.24,8.6,4.12,9.62,10.26.27,1.61.51,3.22.78,5l1.34,8.82.82-6.16c.08-.59.13-1.05.16-1.37a.45.45,0,0,0,0-.11l.07-.41c.24-1.81.49-3.19.78-4.79l.28-1.56c.91-5.13,3.36-8,7.72-8.94,1.26-.28,2.51-.58,3.77-.89l6.1-1.45-4.46-.7c-1.4-.22-7.39-1.69-9.74-3.63-2.57-2.12-3.24-5.19-3.76-8.42-.14-.86-.26-1.54-.4-2.34s-.32-1.78-.56-3.19l-.89-5.39-1,6.47c-.41,2.6-.76,4.84-1.27,7.15a9.67,9.67,0,0,1-7,7.79c-1.28.38-2.64.67-3.95,1-.63.13-1.25.26-1.87.41l-3.64.84,3.64.89C284.64,426.07,285.61,426.28,286.77,426.52Zm2.86-2.18a11.48,11.48,0,0,0,8.21-9.11c.23-1,.43-2.06.61-3.1,0,.1,0,.2.05.3.55,3.43,1.34,7,4.39,9.51,1.65,1.37,4.57,2.44,6.94,3.13l-1.87.43c-5.07,1.13-8,4.52-9.08,10.37l-.28,1.55c-.05.31-.11.6-.16.89-.09-.61-.19-1.22-.29-1.83-1.12-6.65-4.28-10.15-10.56-11.6Q288.61,424.64,289.63,424.34Z"/><path class="cls-2" d="M546.72,229.09l-4.08.95,4.07,1c1.53.37,2.61.6,3.91.87,6.62,1.4,9.65,4.63,10.8,11.52.31,1.81.58,3.62.87,5.59l1.52,9.9.92-6.91c.08-.66.14-1.18.17-1.55,0,0,0-.08,0-.12l.07-.46c.28-2,.56-3.58.88-5.37l.32-1.75c1-5.76,3.77-8.95,8.66-10,1.41-.31,2.81-.65,4.23-1l6.85-1.63-5-.79c-1.57-.25-8.29-1.9-10.93-4.08-2.88-2.38-3.64-5.83-4.23-9.45-.15-1-.29-1.73-.45-2.62s-.35-2-.62-3.59l-1-6-1.16,7.26c-.47,2.92-.86,5.43-1.43,8a10.86,10.86,0,0,1-7.84,8.73c-1.45.44-3,.76-4.45,1.08Zm7.11.38a12.91,12.91,0,0,0,9.22-10.23c.26-1.17.48-2.31.68-3.48l.06.34c.62,3.85,1.51,7.85,4.93,10.67,1.86,1.54,5.12,2.74,7.79,3.52-.7.16-1.4.33-2.1.48-5.69,1.27-9,5.07-10.19,11.64l-.31,1.74c-.07.34-.13.67-.18,1-.11-.69-.22-1.37-.34-2.05-1.24-7.48-4.8-11.4-11.85-13C552.31,229.89,553.08,229.69,553.83,229.47Z"/><path class="cls-1" d="M264.38,359.54,282.67,332h-8.18l8-21.23-.1-.06-18.35,27.55h8.34l-8.15,21.22Z"/><path class="cls-1" d="M620,310.56l.17.09,25.11-37.8H634.08l11-29.14-.15-.08-25.17,37.82h11.44C627.45,291.23,623.74,300.9,620,310.56Z"/><path class="cls-1" d="M669.89,353.34a15.55,15.55,0,0,0,.52,8.89,3.43,3.43,0,0,1-.95-.3,2.21,2.21,0,0,0-2.43,0c-1.35.66-2.29,2.91-1.69,6a8.43,8.43,0,0,0,1.18,3,29.26,29.26,0,0,0,2.45,2.95c-.12.3-.26.74-.44,1.13a14,14,0,0,0-.84,5.91c.07,2.4.89,4.12,2.11,4.75s2,.09,2.81-1.35c.41-.73.84-1.44,1.27-2.18.38,1.19.7,2.2,1,3.21.57,1.71,2,2.81,3,2.34,1.33-.65,2-2.15,2-4.77,0-1.32,0-2.65,0-4a15.26,15.26,0,0,0,2.3.72c2.81.46,4.28-3.74,3.78-8a6.18,6.18,0,0,0-2.26-4.51,28.23,28.23,0,0,0-2.72-1.62l-.21-.43c.18-.15.42-.2.54-.45a19.09,19.09,0,0,0,2-6c.5-3.43-.65-6.85-2.37-6.65-1.5.19-2.8,1.33-3.67,3.84-.16.46-.35.87-.57,1.39-.83-4-.79-4.12-2.35-6.13C672.25,348.36,670.65,349.91,669.89,353.34Zm-3.71,14.32c-.49-1.75.11-3.77,1.21-4.21,1.71-.69,3.23.39,4.68,2,.16.19.32.42.48.63a18.16,18.16,0,0,0-.54,4c0,.41,0,.83,0,1.24l-.58.08a9.28,9.28,0,0,1-2.34.22C667.75,371.42,666.8,369.89,666.18,367.66Zm7.84,10a12,12,0,0,1-2.07,5.54c-.76,1.27-1.67,1.33-2.51.4a6.07,6.07,0,0,1-.85-4.13c.31-3.73,1-5.14,2.93-6a1.57,1.57,0,0,0,.71-.5c.35,1.91,1.08,3.59,2,4.23A1,1,0,0,0,674,377.65Zm5,6.07c-.39,2.42-1.6,3.28-2.67,1.81a6.77,6.77,0,0,1-1.32-4c0-1.19,0-2.39-.05-3.58a2.29,2.29,0,0,0-.11-.52,1.22,1.22,0,0,0,.33,0,4.07,4.07,0,0,0,2.74-1.75c.25,1,.56,1.88.81,2.85A12.35,12.35,0,0,1,679,383.72Zm4.59-15.11c1.27,1.16,2.19,4,1.35,6.88-.55,1.89-1.42,2.63-2.44,2.43a3.92,3.92,0,0,1-3.56-3.19,2.57,2.57,0,0,0-.17-.43,10.24,10.24,0,0,0,.92-4.19,22.91,22.91,0,0,0-.14-2.94,2.36,2.36,0,0,0,.75,0A4.87,4.87,0,0,1,683.56,368.61Zm-3.85-14.45a1.94,1.94,0,0,1,1.57-.46c.87.16,1.32,1.37,1.21,3.24a12.81,12.81,0,0,1-2.55,7.65,3.94,3.94,0,0,0-.7.89c-.4-1.71-1.09-2.93-2.07-3.37a4.32,4.32,0,0,0,.1-.9C677.34,358,678.11,355.47,679.71,354.16Zm-5.91-1.92a7.9,7.9,0,0,1,1.86,4.42c.19,1.52.32,3.06.46,4.6,0,.27,0,.54.1.77a3.76,3.76,0,0,0-3.13,2.52,12.2,12.2,0,0,1-1.89-3.32,13.83,13.83,0,0,1-.29-7.82C671.46,351.65,672.77,351.1,673.8,352.24Z"/><path class="cls-1" d="M404.93,201.83a3.41,3.41,0,0,0,1.37,1c1.52.52,3.08.92,4.69,1.39a13.59,13.59,0,0,0-1.24,2.47,10.11,10.11,0,0,0,4.36,11.57,15.59,15.59,0,0,0,8.71,2.28,6.1,6.1,0,0,0,4.55-2.1,17.13,17.13,0,0,0,3.78-7c.3.58.44.85.57,1.13a8.35,8.35,0,0,0,8.66,5c4.92-.65,8.52-3,10.33-7.94,1.39-3.77.47-6.75-2-9.41-.33-.34-.61-.73-1-1.23l.88-.11c5.1-.69,6.56-3.07,6.71-7.25a20.38,20.38,0,0,0-2.42-9.93,7.69,7.69,0,0,0-10.66-3.41c-1.44.78-2.83,1.67-4.35,2.58l-.08,0c0-.3.06-.54.1-.76.32-1.48.73-2.95.93-4.45a6.84,6.84,0,0,0-3.13-7.2,12.08,12.08,0,0,0-6.78-1.91,15.61,15.61,0,0,0-11,4.23,8.25,8.25,0,0,0-2.89,5.05,12.77,12.77,0,0,0,1.28,7.33,8.38,8.38,0,0,1,.4.9,5.93,5.93,0,0,0-.4.62,21.63,21.63,0,0,0-3.31-.76,16.23,16.23,0,0,0-4.92,0,6.92,6.92,0,0,0-4.62,4.06,13.66,13.66,0,0,0-1.15,7.29A11.17,11.17,0,0,0,404.93,201.83ZM426,217.61a5.1,5.1,0,0,1-4.4,1.31c-1.3-.14-2.57-.59-3.87-.79-3.51-.54-7.58-5-6.65-9.64a7.55,7.55,0,0,1,1.79-3.44,20.23,20.23,0,0,1,2.55-2.43l.27.27a3.59,3.59,0,0,0,2.78.85,9.89,9.89,0,0,0,4.36-1.56c-.1.36-.14.53-.19.7a4.84,4.84,0,0,0,1.79,5.51,7.09,7.09,0,0,0,5,1.41A10.84,10.84,0,0,1,426,217.61Zm23.71-11A10.33,10.33,0,0,1,439.31,216a6.58,6.58,0,0,1-5.51-3.36,28.78,28.78,0,0,1-1.76-3.72,4.82,4.82,0,0,0,2.67-4.79c0-.27,0-.55.05-.92l.42.29c2.47,1.68,4,1.23,5.71-.52a11.16,11.16,0,0,0,2.47-4.15,11.71,11.71,0,0,1,3.49,2C448.6,202.33,449.87,204.07,449.69,206.63Zm-5.95-27.37c3.31-1.12,6.36.15,7.65,3.38a41,41,0,0,1,2,6.81,9,9,0,0,1-.88,5.6,3.53,3.53,0,0,1-2.45,1.85,11.39,11.39,0,0,1-6.3.33,4.4,4.4,0,0,0-3.35-5.07c-.95-.23-1.91-.39-2.94-.59.16-.14.26-.24.38-.33.71-.51,1.46-1,2.13-1.55a4,4,0,0,0,1.44-4.32,7,7,0,0,0-2.08-3.35A11.07,11.07,0,0,1,443.74,179.26Zm-24.85-7.59a13.28,13.28,0,0,1,8.59-3.6,11.49,11.49,0,0,1,5.82.89c3.1,1.43,4.34,3.3,3.76,7.2-.2,1.31-.45,2.61-.77,3.89a8.22,8.22,0,0,0-3.42-.59,4.81,4.81,0,0,0-3.21,1,7.39,7.39,0,0,0-2.29,3.66c-.08.31-.21.61-.35,1a18.84,18.84,0,0,0-1.38-2,9.3,9.3,0,0,0-2.11-1.91,4,4,0,0,0-3.57-.05,6.78,6.78,0,0,0-2.14,1.4,14.33,14.33,0,0,1-1.37-5.17A7.08,7.08,0,0,1,418.89,171.67Zm-12.63,14.9a6.7,6.7,0,0,1,4.53-1.63,14.43,14.43,0,0,1,4.77,1,6.59,6.59,0,0,0-.34,1.9,2.14,2.14,0,0,0,.2,1c.46.81,1,1.59,1.49,2.42a7.66,7.66,0,0,0-1.5.58,5.87,5.87,0,0,0-2.61,6.68,7.46,7.46,0,0,0,1.25,2.58l-.79.44a6.29,6.29,0,0,1-8.16-2.08C402.86,196.26,403.33,188.89,406.26,186.57Z"/><path class="cls-1" d="M366.41,311.4c16.26,4.24,37.24-.72,45.7-10.14-29.7,9.67-53.82-4.42-64.93-22.31-11.67-18.81-13.22-46.22,9.3-69.5-20.75,9.32-33.17,31.32-31.18,54.14S343.83,305.5,366.41,311.4Z"/><path class="cls-1" d="M588.19,160.75a36.14,36.14,0,0,1,8.55,2.17,10.13,10.13,0,0,1,6,5.87,26.51,26.51,0,0,1,1.42,5c.58,3.4,1,6.83,1.4,10,.13-1.26.32-2.77.45-4.29a38.06,38.06,0,0,1,2.09-10.39,10.5,10.5,0,0,1,5-5.64,24.25,24.25,0,0,1,6.93-2.2c1.18-.24,2.37-.44,3.55-.66a.77.77,0,0,0-.46-.27c-2.17-.46-4.36-.86-6.51-1.4a12.23,12.23,0,0,1-6.49-3.7c-1.92-2.19-2.68-4.89-3.21-7.65-.46-2.46-.67-5-1-7.45-.09-.68-.2-1.36-.3-2h-.2c-.13,1.31-.23,2.61-.39,3.92a46,46,0,0,1-1.93,9.48,10.39,10.39,0,0,1-6.31,6.62,52.78,52.78,0,0,1-5.56,1.6c-1.2.31-2.45.48-3.67.71v.17Z"/><path class="cls-1" d="M628.25,435.56c-2.32-2.65-3.25-5.93-3.88-9.27-.56-3-.82-6-1.22-9-.11-.82-.24-1.65-.36-2.47h-.24c-.16,1.58-.28,3.17-.48,4.75A55,55,0,0,1,619.73,431a12.58,12.58,0,0,1-7.64,8,61.85,61.85,0,0,1-6.74,1.93c-1.46.37-3,.58-4.45.86v.21c.29.05.57.11.86.15a43.76,43.76,0,0,1,10.37,2.64,12.24,12.24,0,0,1,7.22,7.11,32.19,32.19,0,0,1,1.72,6c.7,4.13,1.17,8.29,1.69,12.15.17-1.53.39-3.36.55-5.2a46.25,46.25,0,0,1,2.53-12.59,12.72,12.72,0,0,1,6-6.84,29.94,29.94,0,0,1,8.4-2.67c1.43-.29,2.86-.53,4.29-.79a.9.9,0,0,0-.56-.33c-2.62-.56-5.27-1-7.88-1.69A14.94,14.94,0,0,1,628.25,435.56Z"/><path class="cls-3" d="M245.55,485.75c-13.61-7.75-28.35-18.08-32.76-34.23A41.83,41.83,0,0,1,216,422.14c4.36-8.41,11.64-14.6,23.73-17.18-23.29-13.24-33.59-36.93-28.74-63.27,5.46-29.72,30.88-47,56.65-54.34-3.51-19.08-9-43.6.79-60.13,11.87-20,36.5-23.39,54.58-22.26,0,0-1.76-9.83.34-18.42s7.34-18,16.16-22.59c14.11-7.37,32.24-3.51,43.65,5.24,17.18-27.85,51.88-46.6,84.6-45.93,33.67.69,62.39,17.64,79.76,45.38,15-14.23,39.91-19.72,57.54-9,22.73,13.87,31.49,32.92,29.59,53.49,30.78.31,60,13.57,77.54,38.89s14.7,58,4.15,86.91c15.37,4,31.39,13.73,30.4,33.79-.8,15.93-10,26-23.62,32.88,10.06,15.48,5.31,38.64-18.53,41.24"/><path class="cls-1" d="M189.57,267.33a13,13,0,0,1-5.88,2.62,8.22,8.22,0,0,1-5.84-1.22,11.46,11.46,0,0,1-4.69-5.66,15.44,15.44,0,0,1-.95-7.27,15.76,15.76,0,0,1,2-6.42q1.68-2.81,3.53-3.37a3.65,3.65,0,0,1,3.4.57,6.56,6.56,0,0,1,2,2.52,7.83,7.83,0,0,1,.79,3.41,6.16,6.16,0,0,1-.82,3.21,8.57,8.57,0,0,0-1.26-1.09,3.42,3.42,0,0,0-2.69-.77,3,3,0,0,0-2,1.56A10.82,10.82,0,0,0,176,259.3a13.12,13.12,0,0,0,.21,4.81,5.27,5.27,0,0,0,2.21,3.39,3.68,3.68,0,0,0,4.12,0,11.19,11.19,0,0,0,3.81-4.22,25.61,25.61,0,0,0,2.62-6.77,28.44,28.44,0,0,0,.76-7.88A53.93,53.93,0,0,0,187,234.88a103,103,0,0,0-6.25-15.1c-1.21-2.06-2.88-4.75-4.89-7.95a14.85,14.85,0,0,0-.84-1.43l-1.48-2.48c-1.06,1.46-1.58,2.2-2.62,3.67a21,21,0,0,0-3.84,9.16,17.64,17.64,0,0,0,.6,8.42,11,11,0,0,0,3.65,5.47,4.49,4.49,0,0,0,3.57,1,5,5,0,0,0,3.24-2.48,5.52,5.52,0,0,0,.9-3.54,4.13,4.13,0,0,0-1.62-3.09,1.84,1.84,0,0,0-1.85-.29,3.14,3.14,0,0,0-1.63,1.27,2.82,2.82,0,0,0-.47,1.21,1.53,1.53,0,0,0,.28,1.08,1.84,1.84,0,0,1-1.09.86,1.44,1.44,0,0,1-1.19-.28,2.88,2.88,0,0,1-1-2.33,6.43,6.43,0,0,1,1.28-3.64,7.06,7.06,0,0,1,3.76-3.15,3.85,3.85,0,0,1,3.59.72,6,6,0,0,1,1.9,3,9.42,9.42,0,0,1,.17,4.46,13.71,13.71,0,0,1-2.11,5c-2.17,3.35-4.26,5.55-6.31,6.58s-3.85,1-5.41-.11c-1.75-1.25-2.95-3.55-3.51-6.9a27.27,27.27,0,0,1,.89-11.57A40,40,0,0,1,171,209.62c4.66-6.55,7.06-9.73,12-15.91,11.17,3.88,17.33,7.19,28.73,12.76a6.61,6.61,0,0,0,3,.63,3.66,3.66,0,0,0,2.18-1.46l.57.55c-5.44,6.48-8.09,9.84-13.25,16.79l-.6-.52a3.61,3.61,0,0,0,.92-2.35,2.5,2.5,0,0,0-.87-1.7,3.46,3.46,0,0,0-.94-.6c-4.5-1.87-6.79-2.85-11.37-4.68-2.36,3.16-3.52,4.76-5.82,8A78.17,78.17,0,0,1,195,239.06c1.78,5.27,2.47,9.65,2.14,13.4a22.53,22.53,0,0,1-3,9.77A17.85,17.85,0,0,1,189.57,267.33Zm-.11-55c-5.12-2-7.69-3-12.68-4.54,2.88,4.45,4.43,6.81,7.6,11.54C186.39,216.48,187.4,215.08,189.46,212.32Z"/><path class="cls-1" d="M233.52,198.54a5.28,5.28,0,0,0,.09-3.39,8.05,8.05,0,0,0-1.71-2.71l-2.82-3a12.45,12.45,0,0,1-2.88,5.49,16.2,16.2,0,0,1-6.57,4.6,12,12,0,0,1-6.78.5,11.41,11.41,0,0,1-5.54-2.94,13.37,13.37,0,0,1-4-7.07,14.19,14.19,0,0,1,.54-7.54,18.17,18.17,0,0,1,3.89-6.44,13.45,13.45,0,0,1,5.57-3.75l-.83-.88c4.8-5,7.24-7.36,12.22-12l.44.51a4,4,0,0,0-1,2.1,3.89,3.89,0,0,0,.76,2.23,39.55,39.55,0,0,0,3.1,3.94c5.18,6.07,7.85,9.29,12.95,15.15a7.26,7.26,0,0,0,2.46,1.89,4.45,4.45,0,0,0,3.21,0l.43.49c-5.32,5.13-7.92,7.79-13,13.3Zm-5.11-9.85c-5.69-6.16-8.65-9.49-14.27-15.5a9.29,9.29,0,0,0-1.22,1.06,6.68,6.68,0,0,0-1.8,6.28,15.3,15.3,0,0,0,10.5,10.9,5.91,5.91,0,0,0,6-1.79C227.8,189.48,228.05,189.16,228.41,188.69Z"/><path class="cls-1" d="M249.49,172.62a8.61,8.61,0,0,1-4.64.34,6.94,6.94,0,0,1-4-2.56c-2.62-3.23-4-4.88-6.56-8.08a34.82,34.82,0,0,0-3.33-3.7,3.46,3.46,0,0,0-2-1.06,3.58,3.58,0,0,0-2.1.83l-.44-.52c5-4.62,7.55-6.86,12.72-11.2,4.33,5.59,6.59,8.66,11,14.55a4.77,4.77,0,0,0,2.78,2,3,3,0,0,0,2.7-.62,3.94,3.94,0,0,0,1.14-1.72,6.52,6.52,0,0,0,.34-2.58c-2.77-3.82-4.16-5.78-6.92-9.6a35.8,35.8,0,0,0-3.09-3.86,3.42,3.42,0,0,0-1.94-1.17,3.59,3.59,0,0,0-2.13.68l-.41-.53c5.22-4.26,7.88-6.32,13.26-10.3,4.45,6.51,6.79,10.11,11.33,16.93a9.45,9.45,0,0,0,2.69,2.83,2.48,2.48,0,0,0,2.76-.06l.37.56c-3.2,2.38-4.79,3.59-7.93,6.08a5.57,5.57,0,0,1-3.68,1.43,4.49,4.49,0,0,1-3.17-1.5,10.56,10.56,0,0,1-.95,5.59,13.49,13.49,0,0,1-3.43,4.7A13.05,13.05,0,0,1,249.49,172.62Z"/><path class="cls-1" d="M274.35,151.94a5.34,5.34,0,0,0,.67-3.36,8.42,8.42,0,0,0-1.19-3c-3.07-4.84-4.63-7.34-7.68-12.13a9,9,0,0,0-2.62-2.95,3,3,0,0,0-2.91.26l-.37-.56c5.44-3.89,8.19-5.76,13.78-9.37,4.05,6.77,6.16,10.5,10.29,17.57a7.62,7.62,0,0,0,2.09,2.4,4.58,4.58,0,0,0,3.15.69c.14.24.21.35.34.59-6.18,4-9.21,6.07-15.18,10.44C274.58,152.28,274.5,152.17,274.35,151.94Z"/><path class="cls-1" d="M302.41,133.6a5.2,5.2,0,0,0,1-3.24,8.24,8.24,0,0,0-.88-3.08c-3.51-7-5.29-10.63-8.75-17.35a30.1,30.1,0,0,0-2.38-4.06,3.18,3.18,0,0,0-1.7-1.34,3.81,3.81,0,0,0-2.22.38l-.32-.59C293,101,296,99.37,302,96.29c1.52,3.06,2.29,4.68,3.83,8a19.6,19.6,0,0,1,3.38-3.37,22.27,22.27,0,0,1,4-2.52,17.45,17.45,0,0,1,5.77-1.7,9.26,9.26,0,0,1,5,.71,5.93,5.93,0,0,1,3.05,3.35c1.85,4.69,2.78,7.11,4.63,11.82a7.46,7.46,0,0,0,1.69,2.67,4.62,4.62,0,0,0,3,1.17l.25.62c-6.76,3-10.09,4.51-16.66,7.82l-.27-.61a5.3,5.3,0,0,0,1.19-3.18,8,8,0,0,0-.71-3.11c-2-4.58-3-6.93-5-11.49a5.17,5.17,0,0,0-2.83-3,4.64,4.64,0,0,0-3.79.34,8,8,0,0,0-2.22,1.66c2.88,6.18,4.35,9.48,7.25,15.81a7.52,7.52,0,0,0,1.85,2.57,4.54,4.54,0,0,0,3.06,1c.11.25.17.37.28.61-6.55,3.33-9.78,5.09-16.12,8.78Z"/><path class="cls-1" d="M343.12,114.1a8.49,8.49,0,0,1-4.3-1.14,6.32,6.32,0,0,1-2.56-8,13,13,0,0,1,4-5,27.49,27.49,0,0,1,8-4.4c.92-.34,1.62-.58,2.11-.73-.75-2.32-1.12-3.48-1.87-5.76a4.29,4.29,0,0,0-1.81-2.56,2.67,2.67,0,0,0-2.4-.24,3,3,0,0,0-1.75,1.8,4.55,4.55,0,0,0,.09,3.16,5,5,0,0,0,3.29,3.19,19.76,19.76,0,0,1-4.85,3,6.61,6.61,0,0,1-4.22.5,3.22,3.22,0,0,1-2.32-2c-.7-1.9-.2-3.81,1.55-5.72a18.84,18.84,0,0,1,7.31-4.65A24.15,24.15,0,0,1,351.49,84a14.07,14.07,0,0,1,7.24,1.66,8.79,8.79,0,0,1,4.18,5.52c1,3.38,1.44,5.09,2.41,8.46a9,9,0,0,0,1.69,3.47,2.52,2.52,0,0,0,2.66.81l.19.64c-3.82,1.22-5.73,1.86-9.52,3.19a5.89,5.89,0,0,1-3.75.25,4.33,4.33,0,0,1-2.52-2.08,8.23,8.23,0,0,1-2.1,4.49,11.16,11.16,0,0,1-4.18,2.85A12.37,12.37,0,0,1,343.12,114.1ZM350.75,96a7.62,7.62,0,0,0-4.1,4,7.13,7.13,0,0,0-.23,5.19,3.73,3.73,0,0,0,1.83,2.31,2.94,2.94,0,0,0,2.47.14,3.7,3.7,0,0,0,1.68-1.3,5.23,5.23,0,0,0,.94-2.27C352.3,100.91,351.78,99.28,350.75,96Z"/><path class="cls-1" d="M375.83,107.66l.64-.39a6.06,6.06,0,0,0,2.58.38,13.78,13.78,0,0,0,3.27-.54,11.66,11.66,0,0,0,4.25-2.14,5,5,0,0,0,2-3.49c.11-1,.17-1.45.29-2.43-4,1-5.93,1.56-9.86,2.69-.07-.29-.11-.44-.19-.74a1,1,0,0,0,.67-.77,2.7,2.7,0,0,0-.62-2.45c-5.91-5.89-9-8.94-15.21-14.52A11.93,11.93,0,0,0,361,81.61a3.15,3.15,0,0,0-2.26-.26c-.09-.31-.13-.46-.23-.77,7.41-2.45,11.14-3.57,18.65-5.62l.2.78c-1.47.4-2.08,1.11-1.82,2.13a2.86,2.86,0,0,0,.78,1.31c5.37,5.09,8,7.84,13.05,13.21.13-1.6.2-2.4.34-4a29.58,29.58,0,0,0-.14-8.15A7.38,7.38,0,0,0,387.27,76a7.86,7.86,0,0,0-5-1.64l-.17-.74c5.42-1.39,8.14-2,13.6-3.23l.15.74a7.27,7.27,0,0,0-2.58,3.4,28.36,28.36,0,0,0-1.89,7c-.66,6.89-1,10.43-1.44,17.18-.33,3.46-.49,5.17-.77,8.47a6,6,0,0,1-2.87,4.39,19.94,19.94,0,0,1-5.53,2.65C378.83,111.72,377.84,110.39,375.83,107.66Z"/><path class="cls-1" d="M428.73,91.43c-.77-.05-1.88-.14-3.28-.3-.82-.09-1.64-.18-2.44-.24a8.82,8.82,0,0,0-2,0,2.09,2.09,0,0,0-1.2.51,1.3,1.3,0,0,0-.26,1.13l-1,.17c-1.47-9.94-2.16-15.36-3.64-25.18A32.24,32.24,0,0,0,414,63a3.31,3.31,0,0,0-1.18-1.83,3.84,3.84,0,0,0-2.22-.4c-.05-.24-.07-.37-.11-.61,6.66-1.15,10-1.65,16.72-2.5.43,3.41.65,5.19,1.06,8.82,2.29-.94,3.45-1.4,5.76-2.3a16.73,16.73,0,0,1,8.23.92,12,12,0,0,1,5.45,4.14,10.91,10.91,0,0,1,2.07,5.71A12.41,12.41,0,0,1,447.85,82a17.62,17.62,0,0,1-6.39,6,27.65,27.65,0,0,1-10.56,3.34A10.38,10.38,0,0,1,428.73,91.43Zm6-3.76a12.86,12.86,0,0,0,2.1-5,20.92,20.92,0,0,0,.33-5.92,13.7,13.7,0,0,0-2.29-6.86,5,5,0,0,0-4.9-2.31,5.55,5.55,0,0,0-1.52.38c1,8.86,1.48,13.63,2.49,22.52A7.06,7.06,0,0,0,434.69,87.67Z"/><path class="cls-1" d="M460.78,88a9,9,0,0,1-3.88-2.6A7,7,0,0,1,455.26,81c-.18-4-.26-6.07-.44-10.08a34.43,34.43,0,0,0-.45-4.83,3.44,3.44,0,0,0-1-2,3.53,3.53,0,0,0-2.13-.67c0-.26,0-.4,0-.66,6.62-.43,9.94-.58,16.57-.73.11,6.92.14,10.6.21,17.77a4.72,4.72,0,0,0,1.07,3.19,3.1,3.1,0,0,0,2.52,1.18,3.84,3.84,0,0,0,1.92-.6,5.92,5.92,0,0,0,1.79-1.75c0-4.6.06-6.93.1-11.52a37.52,37.52,0,0,0-.19-4.83,2.79,2.79,0,0,0-2.94-2.86c0-.26,0-.39,0-.66,6.64-.07,10,0,16.6.18-.3,7.74-.49,11.89-.82,19.88a9,9,0,0,0,.5,3.81,2.6,2.6,0,0,0,2.26,1.65c0,.26,0,.4,0,.66-4-.14-6-.19-10-.22a5.85,5.85,0,0,1-3.8-1.18,4.62,4.62,0,0,1-1.65-3.08,9.72,9.72,0,0,1-4.06,3.66,13.15,13.15,0,0,1-5.52,1.45A13.43,13.43,0,0,1,460.78,88Z"/><path class="cls-1" d="M501.5,87.91a14.24,14.24,0,0,1-5.9-4.72,11.68,11.68,0,0,1-2-7.71,13,13,0,0,1,2.24-6.6,13.17,13.17,0,0,1,6.11-4.75A20.66,20.66,0,0,1,511.76,63a22.9,22.9,0,0,1,9.42,2.71c2.56,1.45,3.65,3.46,3.31,6A6.66,6.66,0,0,1,520.38,77a16.21,16.21,0,0,1-8.51,1.22,27.3,27.3,0,0,1-5.2-1.08A12,12,0,0,0,508.53,82a10.92,10.92,0,0,0,3.3,3.24,9.2,9.2,0,0,0,3.89,1.37,5.9,5.9,0,0,0,4-.94,6.75,6.75,0,0,0,2.54-3.81l1.06.13a8.71,8.71,0,0,1-2.67,4.72,11.68,11.68,0,0,1-5,2.69,18,18,0,0,1-6.36.5A24.53,24.53,0,0,1,501.5,87.91Zm6.16-11.5a5.91,5.91,0,0,0,5.14-2.15,11.14,11.14,0,0,0,2.59-6.33,5.85,5.85,0,0,0-.28-2.83,1.89,1.89,0,0,0-1.64-1.24,4.91,4.91,0,0,0-4.71,2.43,14.16,14.16,0,0,0-2.22,6.89,17.26,17.26,0,0,0,0,3A10.21,10.21,0,0,0,507.66,76.41Z"/><path class="cls-1" d="M524.37,90.19a4.93,4.93,0,0,0,2.69-1.93,7.64,7.64,0,0,0,1.06-3c.68-4.57,1-6.9,1.71-11.46a36.47,36.47,0,0,0,.49-4.79,3.49,3.49,0,0,0-.56-2.16,3.58,3.58,0,0,0-2-1.07c0-.26.06-.39.09-.65,6.59.88,9.88,1.39,16.43,2.55-.27,1.44-.4,2.17-.67,3.64a12.22,12.22,0,0,1,5.19-2.15,15.81,15.81,0,0,1,5.78.1,14.37,14.37,0,0,1,5,2,8.93,8.93,0,0,1,3.21,3.45,6.35,6.35,0,0,1,.46,4.41c-1.16,4.82-1.75,7.29-2.9,12.13a7.44,7.44,0,0,0-.13,3.13,4.76,4.76,0,0,0,1.8,2.73c-.07.26-.1.39-.16.64-7.21-1.73-10.84-2.5-18.13-3.86,0-.26.08-.39.13-.65a4.91,4.91,0,0,0,2.79-1.78,7.6,7.6,0,0,0,1.21-2.88c.94-4.62,1.42-7,2.36-11.57a4.91,4.91,0,0,0-.39-3.64,3.51,3.51,0,0,0-2.48-1.7,5.38,5.38,0,0,0-3.94.87c-1.07,5.82-1.63,8.83-2.71,14.71a7.29,7.29,0,0,0,0,3.13,4.83,4.83,0,0,0,1.93,2.64c0,.26-.07.39-.12.65-7.29-1.33-11-1.91-18.29-2.86C524.31,90.59,524.33,90.46,524.37,90.19Z"/><path class="cls-1" d="M568.83,99.37A8.92,8.92,0,0,1,566,95.88a6.33,6.33,0,0,1-.36-4.27A5.92,5.92,0,0,1,568.38,88a12.58,12.58,0,0,1,6.09-1.58,27.69,27.69,0,0,1,9,1.31q1.41.42,2.13.69c.7-2.29,1-3.44,1.73-5.69a4.32,4.32,0,0,0,0-3.12A2.78,2.78,0,0,0,585.51,78a2.93,2.93,0,0,0-2.45.38,4.24,4.24,0,0,0-1.72,2.56,5,5,0,0,0,.87,4.5,19.67,19.67,0,0,1-5.66-.5,6.93,6.93,0,0,1-3.73-2.14,3.23,3.23,0,0,1-.74-3c.5-1.93,2-3.14,4.52-3.61a18.62,18.62,0,0,1,8.59.69,24.66,24.66,0,0,1,7.48,3.6,14.59,14.59,0,0,1,4.91,5.66,8.81,8.81,0,0,1,.29,6.88l-2.78,8.16a8.92,8.92,0,0,0-.59,3.77,2.65,2.65,0,0,0,1.71,2.24c-.09.25-.14.37-.22.62-3.79-1.32-5.7-2-9.52-3.17a6.19,6.19,0,0,1-3.18-2.06,4.45,4.45,0,0,1-.88-3.16,7.74,7.74,0,0,1-4.24,2.3,11.05,11.05,0,0,1-5-.25A12.92,12.92,0,0,1,568.83,99.37Zm16.4-9.74a7.35,7.35,0,0,0-5.59.73,6.65,6.65,0,0,0-3.1,4,3.82,3.82,0,0,0,.18,2.93,3.17,3.17,0,0,0,1.94,1.6,3.79,3.79,0,0,0,2.11,0,5,5,0,0,0,2-1.23Z"/><path class="cls-1" d="M618.39,115.9a14.76,14.76,0,0,1-4-6.46,11.69,11.69,0,0,1,.54-8A12.59,12.59,0,0,1,619.09,96a13,13,0,0,1,7.32-2.44,20.82,20.82,0,0,1,9.72,2.19,23.6,23.6,0,0,1,8.09,5.77c2,2.26,2.33,4.55,1.16,6.86a6.56,6.56,0,0,1-5.65,3.66,16.24,16.24,0,0,1-8.45-1.76,28,28,0,0,1-4.56-2.8,12.42,12.42,0,0,0,.2,5.21,11.31,11.31,0,0,0,2.06,4.2,9.29,9.29,0,0,0,3.2,2.65,5.77,5.77,0,0,0,4.12.51,6.63,6.63,0,0,0,3.65-2.75l1,.49a8.62,8.62,0,0,1-4.08,3.58,11.63,11.63,0,0,1-5.62.8,18.14,18.14,0,0,1-6.13-1.73A25.35,25.35,0,0,1,618.39,115.9Zm9.51-8.78a5.89,5.89,0,0,0,5.56-.29A10.93,10.93,0,0,0,638,101.7a5.7,5.7,0,0,0,.65-2.77,1.9,1.9,0,0,0-1.16-1.73,4.9,4.9,0,0,0-5.26.71,14,14,0,0,0-4.33,5.77,17.42,17.42,0,0,0-1,2.88A8.37,8.37,0,0,0,627.9,107.12Z"/><path class="cls-1" d="M639.11,126a4.76,4.76,0,0,0,3.17-.9,7.64,7.64,0,0,0,2-2.44c2.18-4.13,3.3-6.23,5.48-10.35a35.15,35.15,0,0,0,2.06-4.39,3.55,3.55,0,0,0,.19-2.26,3.72,3.72,0,0,0-1.51-1.69l.3-.58c6,3.1,9,4.72,14.82,8.12l-1.87,3.24a12.28,12.28,0,0,1,5.7-.23,15.86,15.86,0,0,1,5.49,2.13,14.84,14.84,0,0,1,4.1,3.66,9.08,9.08,0,0,1,1.86,4.47,6.45,6.45,0,0,1-1.14,4.41c-2.84,4.25-4.32,6.42-7.18,10.69a8,8,0,0,0-1.26,3,5.1,5.1,0,0,0,.7,3.3l-.38.56c-6.15-4.3-9.28-6.36-15.63-10.27l.34-.58a4.84,4.84,0,0,0,3.25-.71,7.83,7.83,0,0,0,2.15-2.34l6.32-10.3a5,5,0,0,0,.9-3.63,3.66,3.66,0,0,0-1.79-2.51,5.42,5.42,0,0,0-4.06-.54c-3,5.19-4.59,7.89-7.65,13.15a7.69,7.69,0,0,0-1.05,3,5,5,0,0,0,.9,3.22c-.14.23-.21.34-.34.58-6.37-3.89-9.6-5.74-16.16-9.22Z"/><path class="cls-1" d="M680.82,152.49a15,15,0,0,1-2.47-7.41,12.29,12.29,0,0,1,2.45-7.86,13.17,13.17,0,0,1,5.51-4.56,13.43,13.43,0,0,1,7.91-.83,21.31,21.31,0,0,1,9.26,4.35,23.79,23.79,0,0,1,6.81,7.59c1.44,2.7,1.27,5.08-.49,7.16a7,7,0,0,1-6.62,2.44,16.34,16.34,0,0,1-8.08-3.65,28,28,0,0,1-3.91-3.84,12.85,12.85,0,0,0-1.07,5.3,11.66,11.66,0,0,0,1,4.7,9.49,9.49,0,0,0,2.57,3.38,5.85,5.85,0,0,0,4,1.44,7.09,7.09,0,0,0,4.37-2l.84.71a9.31,9.31,0,0,1-5,2.71,12,12,0,0,1-5.85-.46,18.05,18.05,0,0,1-5.71-3.13A25.25,25.25,0,0,1,680.82,152.49Zm11.64-6.72a6,6,0,0,0,5.68.94,11.67,11.67,0,0,0,5.79-4.16,6,6,0,0,0,1.32-2.64,1.94,1.94,0,0,0-.76-2,5.08,5.08,0,0,0-5.47-.46,14.72,14.72,0,0,0-5.74,4.84,18.57,18.57,0,0,0-1.69,2.69C692,145.35,692.26,145.62,692.46,145.77Z"/><path class="cls-1" d="M699.11,167.33a5,5,0,0,0,3.43-.2,8.11,8.11,0,0,0,2.6-2l8.13-9.26a37.08,37.08,0,0,0,3.16-4,3.68,3.68,0,0,0,.74-2.23,3.8,3.8,0,0,0-1.14-2l.45-.52c5.33,4.45,7.95,6.75,13.12,11.48l-4.29,4.55a17,17,0,0,1,6.62-.26,9.91,9.91,0,0,1,5.59,2.57,5.65,5.65,0,0,1,2,3.87,4.38,4.38,0,0,1-1.4,3.34,3.93,3.93,0,0,1-3.43,1.14A6.15,6.15,0,0,1,731.2,172a6.24,6.24,0,0,1-1.87-3.54,4,4,0,0,1,1.21-3.56,3.39,3.39,0,0,1,.94-.64,14.26,14.26,0,0,0-3.49-.13,24.08,24.08,0,0,0-4.26.66L714.94,174a8.23,8.23,0,0,0-1.81,2.83,5.19,5.19,0,0,0,.12,3.48l-.48.51c-5.53-5.39-8.36-8-14.11-13Z"/><path class="cls-1" d="M718.92,208.47a20.36,20.36,0,0,1-2.51-5.67c-.44-1.77-.22-3.09.71-4a2.79,2.79,0,0,1,3.11-.35,9.29,9.29,0,0,1,3.65,2.57,8.17,8.17,0,0,1,1.48,2.3,3.93,3.93,0,0,1,.32,2.24,2.16,2.16,0,0,0-2.37.47,3.6,3.6,0,0,0-1,2.17,6.61,6.61,0,0,0,.34,3.15,10.83,10.83,0,0,0,2,3.52,20.85,20.85,0,0,0,5.26,4.65c1.82,1.08,3.24,1.21,4.28.35.84-.7.89-2,.1-4a66.43,66.43,0,0,0-4.4-8.4c-1.72-2.89-3.08-5.25-4-7a19.81,19.81,0,0,1-2-5,3.64,3.64,0,0,1,.8-3.66,6,6,0,0,1,3.64-1.63,19.56,19.56,0,0,1,5.31.25,15.48,15.48,0,0,1-1-6.48,7.91,7.91,0,0,1,2.49-5.13,8.07,8.07,0,0,1,7-2.33,18.32,18.32,0,0,1,7.88,3.26,39.54,39.54,0,0,1,7,6.21,39,39,0,0,1,5.22,7.55,18.94,18.94,0,0,1,2.36,8.4,7.89,7.89,0,0,1-3.31,6.78,8.33,8.33,0,0,1-7.24,1.5,21.42,21.42,0,0,1-7.87-3.65,36.33,36.33,0,0,1-6.42-5.76,37.45,37.45,0,0,1-3.28-4.47,30.51,30.51,0,0,1-2.57-5l-.46,0a1.85,1.85,0,0,0-1.08.45c-.68.61-.57,1.71.28,3.31s2.41,4,4.58,7.13a92.48,92.48,0,0,1,5.34,8.68,20,20,0,0,1,2.32,7A5.29,5.29,0,0,1,743,223a6.94,6.94,0,0,1-5.54,1.23,17.24,17.24,0,0,1-7.06-3.15,39.33,39.33,0,0,1-7.48-7A44.15,44.15,0,0,1,718.92,208.47Zm26.17-7.89a21.81,21.81,0,0,0,6.61-3.94,18.72,18.72,0,0,0,4.76-5.59c1-1.9.94-3.42-.07-4.55-1.19-1.35-2.88-1.75-5.08-1.17a16.34,16.34,0,0,0-6.49,3.72,17.66,17.66,0,0,0-4.6,6c-.93,2.11-.84,3.79.28,5.08C741.41,201.19,742.93,201.34,745.09,200.58Zm19.76-7.45a3.92,3.92,0,0,0-1-.9l-.64-1.13a6.72,6.72,0,0,1,2.3-.12,10.51,10.51,0,0,1,3.42.87,7.94,7.94,0,0,1,3.08,2.34,9.19,9.19,0,0,1,.67,1,5.52,5.52,0,0,1,1,3,2.53,2.53,0,0,1-1,2,2.8,2.8,0,0,1-2.33.51,4,4,0,0,1-2.4-1.53,6.93,6.93,0,0,1-1.11-2.07A12.88,12.88,0,0,0,764.85,193.13Z"/><path class="cls-1" d="M749.63,221.61a5.27,5.27,0,0,0,3.59.55,8.65,8.65,0,0,0,3.15-1.52l12.62-9.4a9.6,9.6,0,0,0,3-3.08,3.38,3.38,0,0,0-.44-3.18l.56-.43c4.48,5.71,6.67,8.64,10.92,14.62-7,4.89-11,7.64-18.48,12.8a8.78,8.78,0,0,0-2.49,2.53,5.5,5.5,0,0,0-.6,3.62l-.61.41c-4.59-6.76-7-10.06-11.8-16.47Z"/><path class="cls-1" d="M765.36,245a9.87,9.87,0,0,1,.3-5.05,7.35,7.35,0,0,1,3-3.86,6.91,6.91,0,0,1,5.06-1,13.91,13.91,0,0,1,6.3,3.14,30.38,30.38,0,0,1,6.55,7.79c.58.94,1,1.66,1.27,2.17l5.83-3.53a4.88,4.88,0,0,0,2.35-2.62,3.14,3.14,0,0,0-.31-2.72,3.26,3.26,0,0,0-2.33-1.5,4.79,4.79,0,0,0-3.38.86,5.78,5.78,0,0,0-2.71,4.45,21.55,21.55,0,0,1-4.37-4.63,7.53,7.53,0,0,1-1.48-4.55,3.76,3.76,0,0,1,1.66-3.07c1.89-1.24,4-1.15,6.5.33a20.77,20.77,0,0,1,6.67,6.95,28.09,28.09,0,0,1,3.6,8.61,16.4,16.4,0,0,1-.12,8.48,10.21,10.21,0,0,1-5.06,6.08l-8.73,4.88a10.55,10.55,0,0,0-3.41,2.77,3,3,0,0,0-.27,3.2l-.66.37c-2.19-4-3.31-6-5.59-9.91a7,7,0,0,1-1.1-4.14,5.09,5.09,0,0,1,1.7-3.33,8.64,8.64,0,0,1-5.3-1.24,12.08,12.08,0,0,1-4-4A14.32,14.32,0,0,1,765.36,245ZM786.57,249a8.15,8.15,0,0,0-5.28-3.55,7.84,7.84,0,0,0-5.68,1.08,4.42,4.42,0,0,0-2.11,2.62,3.47,3.47,0,0,0,.39,2.79,4,4,0,0,0,1.78,1.55,5.46,5.46,0,0,0,2.66.48Z"/><polygon class="cls-1" points="263.65 122.39 262.1 122.03 258.47 111.29 267.88 110.96 269.29 111.97 268.83 121.36 263.65 122.39"/><polygon class="cls-1" points="780.45 207.06 781.04 206.17 792.27 204.34 791.13 213.18 789.02 214.65 780.64 212.91 780.45 207.06"/><path class="cls-1" d="M349.1,728.73a9.76,9.76,0,0,0,4.59-4.85,17.27,17.27,0,0,0,1.16-6.46V688q0-5.65-1.11-8.18c-.74-1.68-2.28-2.73-4.64-3.13v-1.41h30v42.1a17.17,17.17,0,0,0,1.16,6.51,9.79,9.79,0,0,0,4.59,4.8v1.41H349.1Zm10.75-61.85a9.74,9.74,0,0,1,6.92-16.6,9.24,9.24,0,0,1,6.86,2.87,9.74,9.74,0,0,1,0,13.73,9.25,9.25,0,0,1-6.86,2.88A9.44,9.44,0,0,1,359.85,666.88Z"/><path class="cls-1" d="M390.9,710.45h1.41a16.69,16.69,0,0,0,4.49,8.68,30.13,30.13,0,0,0,8.69,6.62,19.49,19.49,0,0,0,8.53,2.47q4.55,0,4.54-3.84a9.23,9.23,0,0,0-1.31-4.39A14.3,14.3,0,0,0,413,715.5l-1.72-1.21q-6.87-5.16-11.25-8.74a51.33,51.33,0,0,1-7.78-7.82c-2.26-2.83-3.38-5.49-3.38-8a12,12,0,0,1,3.08-8.23,19.32,19.32,0,0,1,8.28-5.3,35.19,35.19,0,0,1,11.66-1.81,26.38,26.38,0,0,1,5.8.65q2.88.66,6.31,1.77a26.2,26.2,0,0,0,5.76,1.31,2.55,2.55,0,0,0,1.92-.65,3.18,3.18,0,0,0,.6-2.17h1.42v17.06h-1.42a12.51,12.51,0,0,0-2.77-7.83,20.38,20.38,0,0,0-6.77-5.65,16.24,16.24,0,0,0-7.42-2.07,6.13,6.13,0,0,0-3.89,1.16,4.2,4.2,0,0,0-1.46,3.48,10.29,10.29,0,0,0,1.87,6,20.26,20.26,0,0,0,4.54,4.75q2.67,2,7.42,5.15c3.37,2.15,6,4,8,5.5a22.38,22.38,0,0,1,5,5.4,12.54,12.54,0,0,1-.41,14.39,17.08,17.08,0,0,1-7.47,5.45,32.4,32.4,0,0,1-12.37,2.07c-1.34,0-2.35,0-3-.1-1.07-.07-2.44-.2-4.08-.41s-2.88-.33-3.69-.4a64.88,64.88,0,0,0-9.19-.91c-1.88,0-3.09.61-3.63,1.82h-2Z"/><path class="cls-1" d="M455.57,725.9q-8.24-4.24-8.23-15.75v-31.5h-5.45v-3.33a34.55,34.55,0,0,0,11.25-3.69,36.92,36.92,0,0,0,10.3-7.82,25.85,25.85,0,0,0,6.11-10.61h2v22.12h7.07v3.33h-7.07v36a51.49,51.49,0,0,0,.3,6.21,8.83,8.83,0,0,0,1.87,4.39,8.52,8.52,0,0,0,5,2.83v2Q463.79,730.14,455.57,725.9Z"/><path class="cls-1" d="M501.55,728.83a31.71,31.71,0,0,1-13.32-9.34q-5.46-6.42-5.46-16.31,0-10.6,5.41-17a29.18,29.18,0,0,1,13.17-9A48.62,48.62,0,0,1,517,674.51a48,48,0,0,1,15.3,2.62,30.55,30.55,0,0,1,13.43,9q5.6,6.41,5.6,17,0,9.8-5.6,16.26a32.59,32.59,0,0,1-13.58,9.39,41.54,41.54,0,0,1-30.6,0ZM523,721.71a74.84,74.84,0,0,0,2.12-18.93A72.43,72.43,0,0,0,523,684.3q-2.07-7.77-5.91-7.77-4.54,0-7.12,7.87a69.35,69.35,0,0,0,0,37.41q2.58,7.92,7.12,7.92Q520.84,729.73,523,721.71Z"/><path class="cls-1" d="M555.37,728.73a9.8,9.8,0,0,0,4.59-4.85,17.47,17.47,0,0,0,1.16-6.46V693.08a89.58,89.58,0,0,0-.4-10.19,8.3,8.3,0,0,0-1.57-4.44,6.09,6.09,0,0,0-3.78-1.72v-1.41h30v12.62a33.65,33.65,0,0,1,8-9.44q4.95-4.1,9.89-4.09,4.65,0,7.07,2.77a9.86,9.86,0,0,1,2.42,6.72,7.91,7.91,0,0,1-2.72,6.36,9.63,9.63,0,0,1-6.46,2.32,10,10,0,0,1-6.67-2.42,8.45,8.45,0,0,1-2.82-6.77,7.8,7.8,0,0,1,.4-2.22,25.94,25.94,0,0,0-4.49,4.6,50.12,50.12,0,0,0-4.6,6.71v24.94a17.36,17.36,0,0,0,1.16,6.51,9.86,9.86,0,0,0,4.6,4.8v1.41H555.37Z"/><path class="cls-1" d="M616.75,728.73a9.83,9.83,0,0,0,4.6-4.85,17.47,17.47,0,0,0,1.16-6.46V688q0-5.65-1.11-8.18c-.75-1.68-2.29-2.73-4.65-3.13v-1.41h30v42.1a17.17,17.17,0,0,0,1.16,6.51,9.79,9.79,0,0,0,4.59,4.8v1.41H616.75Zm10.75-61.85a9.74,9.74,0,0,1,6.92-16.6,9.27,9.27,0,0,1,6.87,2.87,9.77,9.77,0,0,1,0,13.73,9.28,9.28,0,0,1-6.87,2.88A9.44,9.44,0,0,1,627.5,666.88Z"/><path class="cls-1" d="M666.22,729.79a17.24,17.24,0,0,1-7-5.71,14.32,14.32,0,0,1-2.68-8.58,13.22,13.22,0,0,1,3.38-8.73q3.39-4,10.2-6.47a49.53,49.53,0,0,1,16.71-2.47c1.82,0,3.2,0,4.14.1V685.31a10.68,10.68,0,0,0-1.66-6.41,4.89,4.89,0,0,0-4-2.27,5,5,0,0,0-4,2.27,10.22,10.22,0,0,0-1.72,6.31,11.12,11.12,0,0,0,3.84,8.68,30.3,30.3,0,0,1-10.3,2.22q-5,0-7.67-2.32a7.25,7.25,0,0,1-2.73-5.75q0-6.36,6.26-9.95t15.25-3.58A40.4,40.4,0,0,1,699,677.28a27.94,27.94,0,0,1,11.66,8.33,20.84,20.84,0,0,1,4.54,13.63v18.18a21,21,0,0,0,1.26,8,5.1,5.1,0,0,0,4.5,3.34v1.41H701.66a10.76,10.76,0,0,1-7-2.17,9.61,9.61,0,0,1-3.39-5.91,15.44,15.44,0,0,1-6.51,7.27,18.82,18.82,0,0,1-9.44,2.42A21.83,21.83,0,0,1,666.22,729.79ZM691,700.56a13.25,13.25,0,0,0-9.59,4.79,15,15,0,0,0-3.53,9.85,8.56,8.56,0,0,0,1.86,5.85,5.67,5.67,0,0,0,4.39,2.12,6.41,6.41,0,0,0,3.84-1.31,10,10,0,0,0,3-3.74Z"/><path class="cls-1" d="M727,710.45h1.42a16.69,16.69,0,0,0,4.49,8.68,30.08,30.08,0,0,0,8.68,6.62,19.53,19.53,0,0,0,8.53,2.47q4.54,0,4.55-3.84a9.14,9.14,0,0,0-1.32-4.39,14.07,14.07,0,0,0-4.24-4.49l-1.71-1.21q-6.87-5.16-11.26-8.74a50.81,50.81,0,0,1-7.77-7.82q-3.39-4.25-3.39-8a12.06,12.06,0,0,1,3.08-8.23,19.38,19.38,0,0,1,8.28-5.3A35.27,35.27,0,0,1,748,674.41a26.47,26.47,0,0,1,5.81.65q2.88.66,6.31,1.77a26,26,0,0,0,5.75,1.31,2.52,2.52,0,0,0,1.92-.65,3.13,3.13,0,0,0,.61-2.17h1.41v17.06H768.4a12.52,12.52,0,0,0-2.78-7.83,20.35,20.35,0,0,0-6.76-5.65,16.27,16.27,0,0,0-7.42-2.07,6.09,6.09,0,0,0-3.89,1.16,4.17,4.17,0,0,0-1.46,3.48,10.35,10.35,0,0,0,1.86,6,20.3,20.3,0,0,0,4.55,4.75q2.67,2,7.42,5.15,5,3.23,8,5.5a22.38,22.38,0,0,1,5,5.4,12.56,12.56,0,0,1-.4,14.39,17.08,17.08,0,0,1-7.47,5.45,32.43,32.43,0,0,1-12.37,2.07c-1.35,0-2.36,0-3-.1-1.08-.07-2.44-.2-4.09-.41s-2.88-.33-3.69-.4a64.9,64.9,0,0,0-9.18-.91c-1.89,0-3.1.61-3.64,1.82h-2Z"/><path class="cls-1" d="M209.84,769.2q-11.19-6.06-16.68-14.92T187.68,737a20.82,20.82,0,0,1,2.45-10,18.17,18.17,0,0,1,7.11-7.23,21.62,21.62,0,0,1,11-2.68q7.33,0,11.77,4a12.54,12.54,0,0,1,4.43,9.62,13.83,13.83,0,0,1-2.85,8.4Q218.7,743,213,743a7.46,7.46,0,0,1-5.6-2.16,6.77,6.77,0,0,1-2.22-4.14,5.5,5.5,0,0,0,4.14-1.81,6,6,0,0,0,1.46-4,6.19,6.19,0,0,0-1.81-4.37,6.43,6.43,0,0,0-5-1.93,10.51,10.51,0,0,0-8.86,4.32,16.65,16.65,0,0,0-3.27,10.37,15.86,15.86,0,0,0,3.91,10.09,27.26,27.26,0,0,0,11,7.81,40.8,40.8,0,0,0,16,3,53.37,53.37,0,0,0,17.49-2.86,196.71,196.71,0,0,0,20.18-8.57q9.09-4.32,15.39-6.94a89.19,89.19,0,0,1,14-4.43,69.94,69.94,0,0,1,16.1-1.81l.11,2a33.55,33.55,0,0,0-10.14,3.33,58,58,0,0,0-9,5.65q-4.08,3.15-10.5,8.75-7.46,6.52-12.82,10.55a54.05,54.05,0,0,1-12.07,6.77,37.56,37.56,0,0,1-14.29,2.74Q221,775.27,209.84,769.2Zm107.75-14.05q-9.79-10-9.8-28v-78H284.24v66.38a19.88,19.88,0,0,0,1.34,7.52,11.36,11.36,0,0,0,5.3,5.54v1.63H249.6v-1.63a11.37,11.37,0,0,0,5.31-5.6,20.17,20.17,0,0,0,1.34-7.46V622.36a27.79,27.79,0,0,0-1.4-8.92q-1.4-4.14-5.13-4.14-10.26.47-17.14,5.42a29.87,29.87,0,0,0-10.15,12.48,38.41,38.41,0,0,0-3.26,15.45,28.28,28.28,0,0,0,3.55,14.64q3.56,6,9.51,6a7.54,7.54,0,0,0,5.13-1.63,5.21,5.21,0,0,0,1.86-4.08,7.33,7.33,0,0,0-1.22-4,5.24,5.24,0,0,0-4-2.28c0-1.47.81-2.93,2.45-4.37a8.2,8.2,0,0,1,5.59-2.16,9.56,9.56,0,0,1,6.77,2.28,7.4,7.4,0,0,1,2.45,5.65,9.74,9.74,0,0,1-1.81,5.48,13,13,0,0,1-5.42,4.38,20.69,20.69,0,0,1-8.75,1.69q-12.7,0-21.52-3.79t-13.23-10a22.59,22.59,0,0,1-4.43-13.35,24.14,24.14,0,0,1,4.84-14.41q4.83-6.69,15.1-10.84t25.77-4.14h49.09v1.63a11.36,11.36,0,0,0-5.3,5.54,19.84,19.84,0,0,0-1.34,7.52v23.91h23.55V622.36a20.17,20.17,0,0,0-1.34-7.46,11.3,11.3,0,0,0-5.3-5.6v-1.63h41.28v1.63a11.34,11.34,0,0,0-5.31,5.54,19.84,19.84,0,0,0-1.34,7.52V732.47a38.7,38.7,0,0,0,2.74,15.28,24.33,24.33,0,0,0,6.82,9.68,13.09,13.09,0,0,0,8.16,3.26,2.44,2.44,0,0,0,2.1-.93,4.41,4.41,0,0,0,.7-2.68,16.49,16.49,0,0,0-2.39-7.64,26.82,26.82,0,0,0-6.76-7.93,21,21,0,0,0-9.86-4.49V734.8a35.64,35.64,0,0,1,13.82,2.51,23.62,23.62,0,0,1,9.27,6.41,12.54,12.54,0,0,1,3.27,8.11q0,5.59-5,9.44t-14.17,3.85Q327.39,765.12,317.59,755.15Z"/><path class="cls-1" d="M613.82,611.33a4.36,4.36,0,0,0-4.34,2,9.4,9.4,0,0,0-1.36,5.35,10.2,10.2,0,0,0,1.23,4.89,3.49,3.49,0,0,0,3.11,2.07,4.47,4.47,0,0,0,1.63-.36,3.68,3.68,0,0,1-.23-1.35C613.91,619,613.91,616.67,613.82,611.33Z"/><path class="cls-1" d="M543.93,629.12a6.8,6.8,0,0,0-1.41,3.8,2.39,2.39,0,0,0,.59,1.92,1.54,1.54,0,0,0,1.53.37,3.09,3.09,0,0,0,1.4-.8,5.51,5.51,0,0,0,1.15-1.59c.14-2.49.2-3.72.31-6.22A6.91,6.91,0,0,0,543.93,629.12Z"/><path class="cls-1" d="M491.13,637.59c1,0,1.83-.76,2.42-2.24a14.89,14.89,0,0,0,.94-5.26,16.37,16.37,0,0,0-.65-5.27c-.48-1.5-1.19-2.29-2.18-2.3-1.17,0-2.14.77-2.9,2.32a13.54,13.54,0,0,0-1.31,5.4,11.22,11.22,0,0,0,.83,5.21A3.06,3.06,0,0,0,491.13,637.59Z"/><path class="cls-1" d="M727.48,614.5S626.77,582.79,554,604.29C471.4,628.67,386.2,594.14,386.2,594.14l10,26.56L375,633.51s99.44,44,184.73,14.5c66.31-23,164.08,8.81,164.08,8.81l-15-22.46Zm-229.71,4.8a8.54,8.54,0,0,1,1.86-1.78,4.26,4.26,0,0,1,2.38-.83,5.88,5.88,0,0,1,.72.06,3,3,0,0,1,1.82.9,2.27,2.27,0,0,1,.58,1.61,2.58,2.58,0,0,1-.69,1.74,2.41,2.41,0,0,1-1.73.81,3.62,3.62,0,0,1-1.47-.28,7.48,7.48,0,0,0-2.74-.71,2.19,2.19,0,0,0-.86.18l-.81-.19A6.09,6.09,0,0,1,497.77,619.3Zm-37.1,1.32a6.1,6.1,0,0,0-2.76,2.11,29.86,29.86,0,0,0-3.37,5c-2.45,5-3.58,7.16-6,11.7-1.29,2.3-1.94,3.44-3.3,5.81a4.75,4.75,0,0,1-3.79,2.22,13.29,13.29,0,0,1-5.16-.37c-.4-2.91-.63-4.28-1.12-7h.6a5.31,5.31,0,0,0,1.74,1.35,11,11,0,0,0,2.6,1,9,9,0,0,0,3.91.14,3.68,3.68,0,0,0,2.62-1.75l1-1.59c-3.29-.64-4.92-1-8.16-1.77,0-.23.07-.34.11-.56a.75.75,0,0,0,.74-.25,1.72,1.72,0,0,0,.41-.88,1.89,1.89,0,0,0-.08-1A144,144,0,0,1,435,618.86a12.79,12.79,0,0,0-1.1-2.46,2.37,2.37,0,0,0-1.37-1.22c.07-.29.1-.44.17-.74,5.84,1.32,8.71,1.94,14.37,3-.06.3-.1.45-.16.75-1.12-.22-1.79.16-2,1.1a3,3,0,0,0,.05,1.38,109.59,109.59,0,0,0,5,14.08l1.39-2.69a22.65,22.65,0,0,0,2.27-6,7.63,7.63,0,0,0-.27-4.07,6.32,6.32,0,0,0-2.74-3.12l.15-.7c4,.75,6,1.09,10,1.71C460.74,620.2,460.72,620.34,460.67,620.62Zm42.72,29.18a14,14,0,0,1-5.39,3.36,24.36,24.36,0,0,1-8.28,1.43,26.18,26.18,0,0,1-5.57-.53,13.81,13.81,0,0,1-4.72-1.79,3.05,3.05,0,0,1-1.73-2.77,2.42,2.42,0,0,1,1.71-2,8.4,8.4,0,0,1,3.52-.65,7,7,0,0,1,2.12.35,3,3,0,0,1,1.44,1,1.84,1.84,0,0,0-1.08,1.65,2.81,2.81,0,0,0,.61,1.85,4.89,4.89,0,0,0,2,1.55,7.41,7.41,0,0,0,3.22.59,14.45,14.45,0,0,0,5.62-1.16c1.6-.71,2.4-1.63,2.41-2.72,0-.89-.75-1.53-2.31-2s-3.94-.82-7.11-1.32c-2.56-.4-4.63-.84-6.15-1.21a13.84,13.84,0,0,1-3.88-1.52,2.49,2.49,0,0,1-1.49-2.28,4.42,4.42,0,0,1,1.17-2.63,16.28,16.28,0,0,1,3-2.5,9.77,9.77,0,0,1-3.76-2.77,5.35,5.35,0,0,1-1.12-3.93A6.78,6.78,0,0,1,480.2,625a13.17,13.17,0,0,1,5.38-2.52,25.78,25.78,0,0,1,6.08-.65,26.2,26.2,0,0,1,5.86.77,13.11,13.11,0,0,1,5.17,2.44,5.69,5.69,0,0,1,2.21,4.66,5.88,5.88,0,0,1-2.19,4.66,14.57,14.57,0,0,1-5.45,2.89,23.06,23.06,0,0,1-6.19,1,24,24,0,0,1-4-.32,18.28,18.28,0,0,1-3.92-1l-.22.25a1.33,1.33,0,0,0-.33.76c0,.63.59,1.12,1.89,1.45a45.4,45.4,0,0,0,6.2.9c3,.27,5.46.52,7.42.8a15.67,15.67,0,0,1,5,1.47,3.47,3.47,0,0,1,2.12,3.21A5.93,5.93,0,0,1,503.39,649.8Zm27.91-23.33a4.43,4.43,0,0,1-2.41,1.29,3.37,3.37,0,0,1-2.52-.43,2.57,2.57,0,0,1-1.09-2.29,3.11,3.11,0,0,1,.15-.84,12.22,12.22,0,0,0-1.69,2,22.52,22.52,0,0,0-1.72,2.72c.06,3.61.09,5.38.14,9a5.73,5.73,0,0,0,.46,2.29,2.92,2.92,0,0,0,1.73,1.46v.52c-5.29.92-8.05,1.26-13.74,1.86v-.52a4.19,4.19,0,0,0,1.8-2,6.19,6.19,0,0,0,.41-2.4c-.08-3.52-.12-5.26-.19-8.79a31.83,31.83,0,0,0-.23-3.7,2.71,2.71,0,0,0-.64-1.56,2.25,2.25,0,0,0-1.49-.47v-.53c4.7-.5,7.07-.78,11.68-1.47,0,1.88,0,2.81,0,4.64a16.32,16.32,0,0,1,3-3.94,7.44,7.44,0,0,1,3.75-2.18,2.71,2.71,0,0,1,3.57,2.85A3.47,3.47,0,0,1,531.3,626.47Zm26.49,8c-2.85.68-4.25,1-7,1.72a3.24,3.24,0,0,1-2.47-.15,2.37,2.37,0,0,1-1.08-1.81,8.86,8.86,0,0,1-5.85,4.88,6.77,6.77,0,0,1-3.19,0,4.28,4.28,0,0,1-2.44-1.48,4.24,4.24,0,0,1-.91-2.86,5.81,5.81,0,0,1,1.27-3.39,12.28,12.28,0,0,1,3.77-3.12A22.76,22.76,0,0,1,546,626c.67-.16,1.18-.27,1.52-.32.08-1.8.12-2.71.19-4.56a3.2,3.2,0,0,0-.52-2.22,1.39,1.39,0,0,0-1.46-.51,2.56,2.56,0,0,0-1.53,1.19,4.55,4.55,0,0,0-.71,2.47,3,3,0,0,0,1.31,2.83,13.94,13.94,0,0,1-3.81,1.66,3.73,3.73,0,0,1-2.8-.21,2,2,0,0,1-1-1.87,5.34,5.34,0,0,1,2.39-4.16,14.25,14.25,0,0,1,5.73-2.61,14.05,14.05,0,0,1,5.49-.22,7.28,7.28,0,0,1,4.2,2.08,5.65,5.65,0,0,1,1.41,4.5c-.16,2.58-.25,3.84-.44,6.39a6.51,6.51,0,0,0,.25,2.71,1.28,1.28,0,0,0,1.56.79C557.81,634.13,557.8,634.23,557.79,634.43Zm19.63-4,0-.5a5.25,5.25,0,0,0,2-2,5.75,5.75,0,0,0,.62-2.3c.2-3.41.28-5.08.41-8.6a3.38,3.38,0,0,0-.73-2.54,2.1,2.1,0,0,0-2-.63,4.78,4.78,0,0,0-2.73,1.67c-.23,4.58-.36,6.68-.68,11a4.64,4.64,0,0,0,.3,2.17,2.62,2.62,0,0,0,1.77,1.35c0,.2,0,.3,0,.5-6,1-8.74,1.59-14.14,2.82,0-.21,0-.31,0-.51a5.68,5.68,0,0,0,1.9-2.1,6.89,6.89,0,0,0,.63-2.35c.28-3.4.41-5.06.64-8.53a30.85,30.85,0,0,0,.08-3.66,2.4,2.4,0,0,0-.51-1.53,1.84,1.84,0,0,0-1.4-.33c0-.22,0-.33,0-.54,4.56-1,6.86-1.45,11.55-2.27,0,1.21-.07,1.81-.13,3a12.42,12.42,0,0,1,3.46-3,11.43,11.43,0,0,1,4.1-1.46,8.75,8.75,0,0,1,3.84.25,6.21,6.21,0,0,1,2.93,1.82,4.66,4.66,0,0,1,1.19,3.11c.07,3.72.08,5.46.07,9a4.13,4.13,0,0,0,.52,2.17,3.54,3.54,0,0,0,2.15,1.46v.49C586.57,629,583.42,629.41,577.42,630.4Zm48.48-2.47c-3.12-.19-4.68-.25-7.78-.33a5.36,5.36,0,0,1-2.49-.57,3.25,3.25,0,0,1-1.42-1.47c-1.64.77-2.46,1.17-4.08,2-.64.08-1.26.12-1.85.14a10.43,10.43,0,0,1-5.35-1.17,8.41,8.41,0,0,1-3.37-3.29,10,10,0,0,1-1.26-4.54,10.87,10.87,0,0,1,.91-4.77,9.14,9.14,0,0,1,3.15-3.89,8.89,8.89,0,0,1,5.34-1.53,11.92,11.92,0,0,1,6.1,2c0-.44,0-.66,0-1.11a30.24,30.24,0,0,0-.28-3.92,3.51,3.51,0,0,0-.73-1.82,2.87,2.87,0,0,0-1.66-.78c0-.24,0-.35,0-.59,5.17.19,7.82.4,13.16.92,0,9.58-.13,12.86-.47,20.41a5.73,5.73,0,0,0,.39,2.63,2.07,2.07,0,0,0,1.76,1.2C625.92,627.65,625.91,627.74,625.9,627.93Zm30-9.09c-.29,1.67-1.41,2.76-3.32,3.37a14.84,14.84,0,0,1-6.74.31,25.43,25.43,0,0,1-4.09-1,7.61,7.61,0,0,0,1.41,3.28,8.82,8.82,0,0,0,2.56,2.32,8.68,8.68,0,0,0,3,1.13,5.18,5.18,0,0,0,3.21-.4,4.2,4.2,0,0,0,2.07-2.36l.83.15a5.36,5.36,0,0,1-2.18,3,9.82,9.82,0,0,1-4,1.53,16.86,16.86,0,0,1-5,0,22.6,22.6,0,0,1-6.1-1.73A11.75,11.75,0,0,1,633,625a7.31,7.31,0,0,1-1.53-5.25,8,8,0,0,1,1.78-4.42,10,10,0,0,1,4.85-3.13,17,17,0,0,1,7.82-.37,20.66,20.66,0,0,1,7.48,2.53C655.41,615.56,656.25,617.09,655.94,618.84Zm23,2.59a7.93,7.93,0,0,0-2.31-2.53,7.44,7.44,0,0,0-2.91-1.32,2.87,2.87,0,0,0-1.7.1,1.4,1.4,0,0,0-.86,1.08,3.12,3.12,0,0,0,.34,2.16,7.53,7.53,0,0,0,1.51,2c.63.6,1.5,1.39,2.61,2.34s2.1,1.86,2.75,2.54a8.15,8.15,0,0,1,1.53,2.28,3.71,3.71,0,0,1,.24,2.51,3.62,3.62,0,0,1-1.57,2.19,6.53,6.53,0,0,1-3.37,1,16.66,16.66,0,0,1-5-.67l-1.2-.35-1.59-.55c-.64-.23-1.12-.39-1.44-.49a28.33,28.33,0,0,0-3.61-1.15c-.76-.17-1.28-.09-1.58.25l-.81-.17c.51-2.52.78-3.71,1.3-6.13l.58.11a5,5,0,0,0,1.24,3.07,13.88,13.88,0,0,0,3,2.88,10.31,10.31,0,0,0,3.22,1.64c1.2.31,1.9.05,2.09-.77a2.66,2.66,0,0,0-.18-1.55,5.26,5.26,0,0,0-1.36-1.84l-.6-.54-3.93-3.74a21.14,21.14,0,0,1-2.67-3.1,3.77,3.77,0,0,1-.9-2.81,3.66,3.66,0,0,1,1.83-2.46,9,9,0,0,1,3.85-1.16,17.93,17.93,0,0,1,5,.28,12.35,12.35,0,0,1,2.37.69c.76.3,1.59.69,2.46,1.13a12,12,0,0,0,2.25.92.91.91,0,0,0,1.24-.83l.57.11c-.53,2.51-.81,3.69-1.37,6l-.56-.12A3.89,3.89,0,0,0,678.92,621.43Z"/><path class="cls-1" d="M647.28,612.6a3.81,3.81,0,0,0-3.76,1.57,9,9,0,0,0-1.8,4.69,9.92,9.92,0,0,0,0,2c.39.1.69.16.89.19a4.94,4.94,0,0,0,4.09-1.15,6.47,6.47,0,0,0,2.11-4.23,3.89,3.89,0,0,0-.21-2.08A1.58,1.58,0,0,0,647.28,612.6Z"/><path class="cls-2" d="M716.29,45.78c-2.13-2.42-3-5.41-3.54-8.44-.52-2.72-.75-5.49-1.11-8.23-.1-.75-.22-1.5-.33-2.26l-.22,0c-.15,1.44-.26,2.88-.44,4.32a50,50,0,0,1-2.13,10.47,11.45,11.45,0,0,1-7,7.31,56,56,0,0,1-6.14,1.76c-1.33.34-2.7.53-4,.79v.19l.78.14a39,39,0,0,1,9.44,2.4,11.18,11.18,0,0,1,6.59,6.48,30.22,30.22,0,0,1,1.56,5.5c.64,3.76,1.07,7.55,1.54,11.06.15-1.39.36-3.06.5-4.73a42.35,42.35,0,0,1,2.31-11.47,11.57,11.57,0,0,1,5.49-6.23,26.78,26.78,0,0,1,7.65-2.43c1.3-.26,2.61-.49,3.91-.73a.89.89,0,0,0-.51-.29c-2.39-.51-4.8-.95-7.18-1.55A13.49,13.49,0,0,1,716.29,45.78Z"/><path class="cls-2" d="M47.28,353.24c-2.13-2.41-3-5.4-3.54-8.44-.52-2.71-.75-5.48-1.11-8.22-.1-.76-.22-1.51-.33-2.26h-.22c-.15,1.44-.26,2.89-.43,4.33a49.82,49.82,0,0,1-2.14,10.46,11.45,11.45,0,0,1-7,7.32,56.45,56.45,0,0,1-6.13,1.76c-1.34.34-2.71.53-4.06.79v.18c.26.05.52.11.78.14a39.9,39.9,0,0,1,9.44,2.4,11.21,11.21,0,0,1,6.59,6.48,31.43,31.43,0,0,1,1.57,5.51c.63,3.75,1.06,7.54,1.53,11.06.15-1.39.36-3.06.5-4.73a42.5,42.5,0,0,1,2.31-11.48,11.55,11.55,0,0,1,5.49-6.22,26.78,26.78,0,0,1,7.65-2.43c1.3-.27,2.61-.49,3.91-.73a.86.86,0,0,0-.51-.3c-2.39-.51-4.8-.95-7.18-1.54A13.51,13.51,0,0,1,47.28,353.24Z"/><path class="cls-4" d="M67.16,189.55c-2.12-2.42-3-5.41-3.54-8.45-.51-2.71-.74-5.48-1.1-8.22-.1-.76-.22-1.51-.33-2.26l-.23,0c-.14,1.44-.25,2.88-.43,4.32a50,50,0,0,1-2.13,10.47,11.45,11.45,0,0,1-7,7.31,56.62,56.62,0,0,1-6.14,1.76c-1.33.34-2.7.53-4,.79v.18c.26.05.52.11.78.15A39.52,39.52,0,0,1,52.47,198a11.24,11.24,0,0,1,6.59,6.48A30.55,30.55,0,0,1,60.62,210c.64,3.75,1.06,7.55,1.54,11.06.15-1.39.35-3.06.5-4.73A41.61,41.61,0,0,1,65,204.86a11.5,11.5,0,0,1,5.49-6.23,26.68,26.68,0,0,1,7.65-2.43c1.3-.27,2.61-.49,3.91-.73a.79.79,0,0,0-.51-.29c-2.4-.52-4.81-1-7.18-1.55A13.52,13.52,0,0,1,67.16,189.55Z"/><path class="cls-4" d="M863.57,163.11c-3-3.46-4.24-7.73-5.06-12.08-.74-3.89-1.07-7.85-1.59-11.78-.14-1.07-.31-2.15-.47-3.22h-.32c-.2,2.07-.36,4.14-.62,6.19a71.65,71.65,0,0,1-3,15,16.36,16.36,0,0,1-10,10.47,82.37,82.37,0,0,1-8.78,2.52c-1.9.49-3.86.76-5.8,1.13v.27l1.12.2a56.79,56.79,0,0,1,13.51,3.43c4.4,1.83,7.75,4.77,9.43,9.28a43.54,43.54,0,0,1,2.24,7.87c.91,5.38,1.52,10.81,2.2,15.84.21-2,.51-4.38.72-6.78a59.89,59.89,0,0,1,3.3-16.42,16.57,16.57,0,0,1,7.85-8.91,39.14,39.14,0,0,1,11-3.48c1.86-.38,3.73-.69,5.59-1a1.19,1.19,0,0,0-.72-.42c-3.43-.73-6.88-1.36-10.28-2.21A19.38,19.38,0,0,1,863.57,163.11Z"/><path class="cls-4" d="M464.62,818.52l-2.39.55,2.38.58c.89.22,1.52.35,2.28.51,3.86.82,5.63,2.7,6.3,6.72.17,1,.33,2.11.51,3.26l.88,5.77.54-4c.05-.38.08-.69.1-.9a.17.17,0,0,1,0-.07l0-.27c.16-1.18.32-2.09.51-3.13l.19-1c.59-3.36,2.2-5.22,5-5.86.82-.18,1.64-.38,2.47-.58l4-.95-2.92-.46c-.91-.14-4.84-1.1-6.37-2.37-1.69-1.39-2.13-3.4-2.47-5.51-.09-.57-.17-1-.26-1.53s-.21-1.17-.36-2.1l-.59-3.52-.68,4.23c-.27,1.7-.5,3.17-.83,4.69a6.33,6.33,0,0,1-4.57,5.09c-.85.25-1.74.44-2.6.63C465.43,818.34,465,818.42,464.62,818.52Zm4.14.22a7.54,7.54,0,0,0,5.38-6c.15-.68.28-1.35.4-2l0,.2c.36,2.25.88,4.58,2.87,6.23a14.28,14.28,0,0,0,4.55,2.05l-1.22.28c-3.33.73-5.27,3-5.95,6.79l-.18,1c0,.2-.07.39-.11.58-.06-.4-.13-.8-.19-1.19-.73-4.36-2.8-6.65-6.91-7.6C467.87,819,468.32,818.87,468.76,818.74Z"/><path class="cls-4" d="M115.83,623.25a6.29,6.29,0,0,1,1.31,3.11c.19,1,.27,2,.4,3,0,.27.09.55.13.83h.08c0-.53.09-1.06.16-1.59a18.14,18.14,0,0,1,.78-3.85,4.2,4.2,0,0,1,2.56-2.69,19.47,19.47,0,0,1,2.26-.65c.49-.12,1-.19,1.49-.29v-.07l-.28-.05a14.94,14.94,0,0,1-3.48-.88,4.11,4.11,0,0,1-2.42-2.39,10.85,10.85,0,0,1-.58-2c-.23-1.38-.39-2.78-.56-4.07-.06.51-.13,1.13-.19,1.74a15.59,15.59,0,0,1-.85,4.22,4.21,4.21,0,0,1-2,2.29,9.92,9.92,0,0,1-2.81.9l-1.44.26a.29.29,0,0,0,.19.11c.88.19,1.76.35,2.64.57A5,5,0,0,1,115.83,623.25Z"/><path class="cls-2" d="M112.66,90.25c2.12,2.42,3,5.41,3.53,8.44.52,2.72.75,5.49,1.11,8.23.1.75.22,1.5.33,2.26l.23,0c.14-1.44.25-2.88.43-4.32a50,50,0,0,1,2.13-10.47,11.45,11.45,0,0,1,7-7.31,56,56,0,0,1,6.14-1.76c1.33-.34,2.7-.53,4-.79v-.19l-.78-.14a39.41,39.41,0,0,1-9.44-2.39,11.22,11.22,0,0,1-6.59-6.49,30.22,30.22,0,0,1-1.56-5.5c-.64-3.76-1.07-7.55-1.54-11.06-.15,1.39-.36,3.06-.5,4.73a42,42,0,0,1-2.31,11.47,11.57,11.57,0,0,1-5.49,6.23,26.68,26.68,0,0,1-7.65,2.43c-1.3.26-2.61.49-3.91.73a.89.89,0,0,0,.51.29c2.39.51,4.81.95,7.18,1.55A13.56,13.56,0,0,1,112.66,90.25Z"/><path class="cls-2" d="M15.81,738.05c2.12,2.42,3,5.4,3.53,8.44.52,2.72.75,5.49,1.11,8.23.1.75.22,1.5.33,2.25H21c.14-1.44.25-2.89.43-4.32a50,50,0,0,1,2.13-10.47,11.45,11.45,0,0,1,7-7.31,56,56,0,0,1,6.14-1.76c1.33-.34,2.7-.53,4-.79v-.19l-.78-.14a39.42,39.42,0,0,1-9.44-2.4,11.18,11.18,0,0,1-6.59-6.48,30.22,30.22,0,0,1-1.56-5.5c-.64-3.76-1.07-7.55-1.54-11.07-.15,1.4-.36,3.07-.5,4.74A42,42,0,0,1,18,722.74,11.57,11.57,0,0,1,12.51,729a27.32,27.32,0,0,1-7.65,2.43c-1.3.26-2.61.48-3.91.73a.89.89,0,0,0,.51.29c2.39.51,4.81,1,7.18,1.54A13.57,13.57,0,0,1,15.81,738.05Z"/><path class="cls-4" d="M927.39,628.92a6.28,6.28,0,0,1,1.3,3.1c.19,1,.27,2,.41,3,0,.28.08.55.12.83h.08c.05-.53.09-1.06.16-1.59a18.79,18.79,0,0,1,.78-3.85,4.24,4.24,0,0,1,2.57-2.69c.73-.27,1.49-.45,2.25-.65.49-.12,1-.19,1.5-.29v-.06l-.28-.06a14,14,0,0,1-3.48-.88,4.09,4.09,0,0,1-2.42-2.38,12,12,0,0,1-.58-2c-.23-1.38-.39-2.77-.56-4.07-.06.51-.13,1.13-.19,1.74a15.21,15.21,0,0,1-.84,4.22,4.3,4.3,0,0,1-2,2.3,10.41,10.41,0,0,1-2.82.89l-1.44.27a.34.34,0,0,0,.19.11c.88.18,1.77.35,2.64.56A5,5,0,0,1,927.39,628.92Z"/><path class="cls-2" d="M889.69,418.42c2.12,2.42,3,5.41,3.54,8.44.51,2.72.74,5.49,1.11,8.23.1.75.22,1.5.33,2.26l.22,0c.14-1.44.25-2.88.43-4.32a50.67,50.67,0,0,1,2.13-10.47,11.47,11.47,0,0,1,7-7.31,55.81,55.81,0,0,1,6.13-1.76c1.33-.34,2.7-.53,4.06-.79v-.19l-.78-.14a39,39,0,0,1-9.45-2.4,11.14,11.14,0,0,1-6.58-6.48,30.25,30.25,0,0,1-1.57-5.5c-.63-3.76-1.06-7.55-1.54-11.06-.15,1.39-.35,3.06-.5,4.73a41.61,41.61,0,0,1-2.31,11.47,11.55,11.55,0,0,1-5.48,6.23,26.84,26.84,0,0,1-7.66,2.43c-1.3.26-2.6.49-3.91.73a1,1,0,0,0,.51.29c2.4.51,4.81.95,7.18,1.55A13.52,13.52,0,0,1,889.69,418.42Z"/><path class="cls-4" d="M40.68,488.33a5.31,5.31,0,0,1,1.1,2.62c.16.84.23,1.7.35,2.55,0,.24.07.47.1.7h.07c0-.45.08-.9.13-1.34a15.64,15.64,0,0,1,.67-3.25,3.54,3.54,0,0,1,2.16-2.27,15.33,15.33,0,0,1,1.9-.55c.42-.11.84-.17,1.26-.25v-.05l-.24-.05a12.35,12.35,0,0,1-2.93-.74,3.5,3.5,0,0,1-2-2,9.47,9.47,0,0,1-.48-1.71c-.2-1.17-.33-2.35-.48-3.44-.05.43-.11.95-.16,1.47a12.72,12.72,0,0,1-.71,3.56,3.61,3.61,0,0,1-1.71,1.94,8.25,8.25,0,0,1-2.38.75l-1.21.23a.24.24,0,0,0,.16.09c.74.16,1.49.29,2.23.48A4.16,4.16,0,0,1,40.68,488.33Z"/><path class="cls-2" d="M459.66,18l-2.39.56,2.38.57c.89.22,1.53.36,2.28.52,3.86.81,5.63,2.69,6.3,6.71.18,1.06.34,2.11.51,3.27l.88,5.77.54-4c0-.38.08-.68.1-.9,0,0,0-.05,0-.07l0-.27c.16-1.18.33-2.08.52-3.13l.18-1c.59-3.36,2.2-5.22,5.05-5.85.82-.18,1.64-.38,2.47-.58l4-.95-2.92-.46c-.91-.15-4.83-1.11-6.37-2.38s-2.13-3.4-2.47-5.51c-.09-.56-.17-1-.26-1.53s-.21-1.17-.36-2.09l-.59-3.53-.67,4.24c-.27,1.7-.51,3.16-.84,4.68a6.33,6.33,0,0,1-4.57,5.09c-.84.26-1.73.45-2.59.63Zm4.14.22a7.52,7.52,0,0,0,5.38-6c.15-.69.28-1.35.4-2l0,.21c.36,2.24.88,4.57,2.88,6.22a14.22,14.22,0,0,0,4.54,2l-1.22.28c-3.33.74-5.27,3-5.95,6.79l-.18,1c0,.2-.07.4-.11.59-.06-.4-.12-.8-.19-1.2-.73-4.36-2.8-6.65-6.91-7.6C462.92,18.49,463.36,18.37,463.8,18.24Z"/></g></g></svg>