<svg xmlns="http://www.w3.org/2000/svg" viewBox="0 0 433.91 489.06"><defs><style>.cls-1{fill:#fff;}.cls-2{fill:none;stroke:#fff;stroke-miterlimit:10;stroke-width:2.28px;}</style></defs><g id="Layer_2" data-name="Layer 2"><g id="Capa_1" data-name="Capa 1"><path class="cls-1" d="M414.54,342.28c-.47,0-.93-.09-1.54-.15.81-5.22-3.6-2.44-5.73-3.86.38-1,.72-2,1.18-3.06,1.24-2.73.65-3.68-2.42-3.74-1.55,0-3.11,0-5,0,.51-1,.67-1.32.86-1.65,1.7-2.92,1.44-3.55-1.78-4.29-1.49-.34-3-.63-4.86-1a32.28,32.28,0,0,1,2.08-3.3c1.36-1.69.8-2.81-.89-3.67a12.83,12.83,0,0,0-2.17-.8q-12.37-3.53-24.78-7-11.79-3.32-23.58-6.6a4.22,4.22,0,0,1,2.73-.79l40.9.35a13.28,13.28,0,0,0,2.89,0,14.23,14.23,0,0,0,2.69-1.13c-.66-.74-1.31-1.48-2-2.22-.06-.06-.18-.07-.26-.11l-26-13.33c-4.42-2.26-8.86-4.5-14-7.13,1.83-.47,2.8-.76,3.79-1,9.05-1.93,18.11-3.84,27.15-5.82.63-.14,1.16-.76,1.73-1.16a9.74,9.74,0,0,0-1.41-1.64,6.22,6.22,0,0,0-1.83-.83c-12.79-4.34-25.56-8.73-38.39-12.95a9.53,9.53,0,0,0-4.83,0c-4.89,1.13-9.73,2.45-14.56,3.77-3.14.86-6.28,1.76-9.51,2.7a1,1,0,0,1-.41.16l-.29,0a1.66,1.66,0,0,1-.41.15,47.33,47.33,0,0,0-5.26,1.81c-1.71.66-3.45,1.14-5.21,1.65-2.52.73-3.19.95-5.09,1.46-.78.21-1.56.45-2.58.74a21.91,21.91,0,0,0-2.62.79l-10,3.61-.13-.07-.56.2-.38.17a16.12,16.12,0,0,1-2.33.92.47.47,0,0,1-.15.13c-2.72,1.45-5.49,2.83-8.29,4.21.35-4.46,1.69-8.75,2.45-13.14a23.86,23.86,0,0,1,.74-2.55c.82,0,1.54.05,2.26.1a15.11,15.11,0,0,0,7.06-1.14,3,3,0,0,0,1.22-4.9c-.85-1.06-2-1-3.12-.83a10.54,10.54,0,0,0-5.67,2.35l-.31-.27q1.88-4.23,3.72-8.44l1.41.15c1.66.17,3.32.39,5,.48a6.47,6.47,0,0,0,5-1.69,2.25,2.25,0,0,0,.7-1.35,3.35,3.35,0,0,0-3.92-3.66c-1.8.29-3.56.86-5.56,1.37,1.79-3.46,4.06-6.53,6.19-9.83a12.8,12.8,0,0,0,7.85.77,11.36,11.36,0,0,0,3.71-1.38,2.19,2.19,0,0,0-.1-3.69c-1.49-1.05-3-1.63-4.88-.82a24.25,24.25,0,0,1-2.67.82,44.06,44.06,0,0,1,4.14-5c2.3-2.51,2.31-2.5,5.41-1.35.18.07.37.14.55.23,3.31,1.77,6.57,1,9.79-.26a2.81,2.81,0,0,0,.95-4.75,5.78,5.78,0,0,0-5-1.83c-1,.18-2.08.25-3.13.37l-.18-.32,7.28-6.54c1.06.25,2,.49,2.88.67a25.3,25.3,0,0,0,3.92.67,9.41,9.41,0,0,0,5.74-1.46,2.22,2.22,0,0,0,.81-3.27,4.81,4.81,0,0,0-4.41-1.59c-1.63.41-3.27.8-5.32,1.29l7.69-9.14a31.35,31.35,0,0,0,3.37.12c2.81-.17,5.6-.5,8-2.22.77-.55,1.48-1.21,1.29-2.28a2.58,2.58,0,0,0-1.93-2.32,5.43,5.43,0,0,0-4.45.43c-.92.58-1.88,1.09-3.21,1.84a7.44,7.44,0,0,1,.42-1.37,45.94,45.94,0,0,0,4-8.75,14.61,14.61,0,0,1,1.86-3.54c1.53-2.12,2.13-4.59,2.85-7a3.84,3.84,0,0,0-1.83-4.31,3.17,3.17,0,0,0-4,.62,6.94,6.94,0,0,0-1.6,3.09,14.44,14.44,0,0,0-.2,4,7.31,7.31,0,0,0,.58,3.11c1.52,2.8.13,5-.86,7.45-.32-.12-.43-.13-.44-.16a3.47,3.47,0,0,1-.14-.77,11.2,11.2,0,0,0-1.62-5.49,4.1,4.1,0,0,0-4.55-1.6,3.73,3.73,0,0,0-1.62,4c.61,2.32,1.27,4.65,3.17,6.34.89.78,1.76,1.59,2.71,2.45a32.27,32.27,0,0,1-5.84,7.93c-.19-1.12-.4-2-.49-2.91-.2-2.24-1.66-3.59-3.36-4.74a2,2,0,0,0-3.23,1c-.55,3.09-.32,6,2.24,8.3.63.57,1.21,1.2,1.85,1.84-2.33,2.6-4.36,5.27-7.23,7.39-.16-1.1-.22-2-.4-2.81-.35-1.55-.34-3.24-1.47-4.51-1.43-1.6-2.69-1.81-4.17-.6a3.92,3.92,0,0,0-1,4.37c.94,2.36,1.77,4.77,4.07,6.41l-9.54,9c.05-1,.06-1.5.09-2a36.69,36.69,0,0,0,.29-4.18,4.19,4.19,0,0,0-3.58-3.55c-1.28,0-2.78,1.52-3,3.28a9.62,9.62,0,0,0,1.31,6.17,33.37,33.37,0,0,1,1.64,3,1.68,1.68,0,0,1-.2,1.41c-2.4,3-4.85,5.86-7.3,8.78a8.34,8.34,0,0,1-.83.65c.06-1.37.1-2.41.15-3.45a5.83,5.83,0,0,0-2.41-5,4.28,4.28,0,0,0-4.36-.32,3.13,3.13,0,0,0-1.24,3.86,19.07,19.07,0,0,0,2.5,4.5,34.87,34.87,0,0,0,3.4,3.53c-1.87,3.47-3.66,6.77-5.65,10.44-.11-.86-.16-1.36-.24-1.85a5.76,5.76,0,0,0-3.23-4.48c-1.72-.92-2.82-.1-4,.61-1,.61-1.4,2.43-1,3.78a11.49,11.49,0,0,0,5,6c.43.27.84.58,1.21.84L271.69,264a8,8,0,0,1-.4-1,7.41,7.41,0,0,0-2.65-4.15,3.59,3.59,0,0,0-4.62-.25c-1.26.91-1.5,2-.77,3.74a3.4,3.4,0,0,0,.68,1,12.81,12.81,0,0,0,5.57,3.43l1,.34,0,.05,0,0,.45.15c-.39,1.7-.81,3.24-1.07,4.8-.38,2.29-.67,4.6-1,6.91l-2.36,1.16a1.25,1.25,0,0,1-.4.2l-.13.06h0a4.9,4.9,0,0,1-1,.44c-.23.14-.47.28-.7.4l-.93.59-.29.17a10.09,10.09,0,0,1-1.34.8l-.79.44-.49.33c-4.52,2.82-8.89,5.87-13.32,8.85a1.19,1.19,0,0,1-.39.31l-.93.77-.3.25c-.46.38-.93.75-1.38,1.13-.67.58-1.36,1.13-2,1.69a1.84,1.84,0,0,1-.22.17l-.66.56c-.53.45-1.06.91-1.62,1.33h0l-.69.62h0l0,0a86.38,86.38,0,0,0-17.51,21.09c-.34.67-.69,1.34-1.08,2a1.2,1.2,0,0,1-.26.29l-.08.13c-.26.63-.5,1.27-.77,1.94a28.12,28.12,0,0,1-1.52,3.36l-.21.64a41,41,0,0,1-1.68,4.83,1.28,1.28,0,0,1-.18.47c-.06.14-.12.29-.17.44l0-.21a1.24,1.24,0,0,1-1.2.3,2.61,2.61,0,0,1-1.31-.9l-.08-.06h0a2.1,2.1,0,0,1-.27-.24c0,.11,0,.23,0,.36-2-3.09-3.69-6-5.67-8.8a45.65,45.65,0,0,0-5.7-6.9,9.76,9.76,0,0,1-1.87-2.34c-.57-.6-1.14-1.21-1.72-1.8l-.93-.86c-.52-.39-1-.78-1.51-1.2a.58.58,0,0,1-.27-.1l-.78-.63c.66-2.52,1.4-5,1.94-7.57.47-2.17.72-4.39,1-6.6.36-2.47.81-2.88,3.38-3.47s5.29-1.26,7.91-2a9.24,9.24,0,0,0,5.47-3.94,5.33,5.33,0,0,0,0-6.07,2.89,2.89,0,0,0-2.62-1.42c-4.31-.13-7.66,1.84-10.49,4.84-1.18,1.25-2.17,2.67-3.47,4.29a31.69,31.69,0,0,0-.69-4.92c-.8-2.64.1-4.29,2.11-6.07a54.7,54.7,0,0,0,9.83-11.92c2.16-3.42,2.85-7.1,1.1-11a4.2,4.2,0,0,0-4.28-2.34,8.39,8.39,0,0,0-6.64,4.85,24.48,24.48,0,0,0-2.23,8.24c-.15,1.86-.68,3.69-1,5.55a16.46,16.46,0,0,1-.88,3.69c-.85-2.48-1.57-5-2.59-7.41s-2.36-4.73-3.5-7c1.2-2.67,2.35-5.34,3.59-8a38.57,38.57,0,0,0,3.09-11.25c.38-2.83.38-5.73-1.17-8.35a8.61,8.61,0,0,0-1.12-1.5c-2.3-2.39-5.91-1.9-7.21,1.16a20.51,20.51,0,0,0-1.57,6.25,54.52,54.52,0,0,0,1.43,16.19,16.85,16.85,0,0,1,.17,1.69l-9.22-8.43a18.13,18.13,0,0,1,.35-2.06,66.31,66.31,0,0,0,2.13-18.65,15.35,15.35,0,0,0-2.85-9.26c-1.15-1.51-2.46-2.62-4.57-2.13a5,5,0,0,0-3.92,4.13,6.53,6.53,0,0,0-.09,1.47,42.22,42.22,0,0,0,1.55,11.56c.57,2,1,4.07,1.48,6.09.31,1.21.73,2.39,1.09,3.59.17.57.33,1.15.52,1.82-3.4-1.94-6.65-3.78-9.88-5.65-1.86-1.08-1.85-1.11-1.42-3.31a59.29,59.29,0,0,0,.24-19.17,16.82,16.82,0,0,0-1.66-4.92,4,4,0,0,0-4.89-2.22,3.69,3.69,0,0,0-2.54,2.8,12.72,12.72,0,0,0,.11,6c.8,4,1.58,8.07,2.46,12.09.36,1.62.94,3.19,1.42,4.78l-.28.4c-3-1.68-6.12-3.29-9.09-5.07a3,3,0,0,1-1.45-3.81,58,58,0,0,0,1.85-16.59,13.9,13.9,0,0,0-2.17-7.76c-.8-1.18-1.8-2-3.31-1.7s-3,1-3.35,2.75A13.18,13.18,0,0,0,138,208c.57,4.63,1.26,9.25,2,13.85.24,1.41.91,2.75,1.19,4.24-2.32-1.8-4.59-3.52-5.57-6.54-1.14-3.51-2.6-6.91-3.93-10.36a7.8,7.8,0,0,1-.56-1.12c-.67-3.38-2.51-6.25-4.44-8.94a40.65,40.65,0,0,0-6.07-6.31,6.26,6.26,0,0,0-4.29-1.42,4.81,4.81,0,0,0-4.79,5.71,25.91,25.91,0,0,0,7.62,14.57c3,3,6,5.87,9.21,8.54a45,45,0,0,0,5.82,3.66h0l.53.33a23.74,23.74,0,0,1,2.59,1.72c1.67,1.36,3.29,2.79,4.92,4.21.29.25.53.56,1.07,1.14a43.66,43.66,0,0,1-4.88-.73,23.19,23.19,0,0,0-7.51-.45c-2.77.17-5.35,1-7.11,3.42a2.88,2.88,0,0,0,.12,4,7.4,7.4,0,0,0,5.1,2.59,31.46,31.46,0,0,0,10-.47c4-.87,8.05-1.67,12.06-2.57a4.39,4.39,0,0,1,3.37.59c2.35,1.35,4.76,2.57,7.11,4.21-.84,0-1.68,0-2.52,0a42.07,42.07,0,0,0-11.63.93,11.22,11.22,0,0,0-5.81,3.91c-1.21,1.42-1.1,2.5.21,3.87a6.35,6.35,0,0,0,4.3,1.9,20.47,20.47,0,0,0,7.41-1.16c4.16-1.18,8.29-2.47,12.45-3.66a25.12,25.12,0,0,1,3.46-.65,1.75,1.75,0,0,1,1.18.23c2.4,1.8,4.76,3.65,7.12,5.5a3.62,3.62,0,0,1,.55.74c-2.67-.75-5.17-1.56-7.73-2.13a19.54,19.54,0,0,0-13.09,1.16,15.63,15.63,0,0,0-4,3.23,2.5,2.5,0,0,0,.61,3.68,8.55,8.55,0,0,0,5.06,1.74,102.39,102.39,0,0,0,13.56-.92c3.46-.34,6.95-.52,10.43-.62a2.91,2.91,0,0,1,2.18.9,34,34,0,0,1,5.4,10.74c-2.27-1.18-4.32-2.29-6.41-3.33A46,46,0,0,0,170,263.37a9.57,9.57,0,0,0-5.7,1c-2.24,1.17-3.22,3.64-.74,5.72a13.53,13.53,0,0,0,7.21,3.09c2.76.33,5.56.41,8.35.61,4,.28,8.06.61,11.8,2.44,1.31.65,2.27,1.37,2.47,3,.36,2.88.94,5.74,1.5,9-1.68-1.45-3-2.56-4.28-3.69a40.5,40.5,0,0,0-12.08-7,24.74,24.74,0,0,0-5.68-1.26c-1.89-.26-3.33.9-4.62,2.09a2.12,2.12,0,0,0-.33,1.75,6.06,6.06,0,0,0,2.46,3.78,24,24,0,0,0,7,3.32c3.71,1,7.37,2.11,11.05,3.17,1.67.48,3.35,1,5,1.41a1.82,1.82,0,0,1,1.55,2.14c-.26,2.26-.46,4.55-.87,6.79-.55,2.93-1.22,5.83-1.88,8.73-7.88-5.91-16.73-10.12-25.7-14.15-.19-.09-.38-.18-.55-.28-1.4-.61-2.78-1.27-4.18-1.9l-1-.34c-1.61-.54-3.25-1-4.82-1.67-9.54-2.37-19.08-4.75-28.65-7.05l-1-.14-.44,0a1.36,1.36,0,0,1-.42-.09c-3.92-.55-7.83-1.1-11.74-1.68l-4-.59q-3-.36-5.91-.77l-.16,0c-3-.33-6.11-.64-9.15-1.09,0,0,0,0,0,.07-4.32-.41-8.15-.75-12-1.13s-7.53-.77-10.9,1.64c-6.2,4.44-12.61,8.62-18.61,13.3-6.7,5.23-13.06,10.89-19.52,16.43a8.05,8.05,0,0,0-1.3,2.37,9.73,9.73,0,0,0,2.52.81A61.55,61.55,0,0,0,41,313a498.34,498.34,0,0,1,60.86-.84,15,15,0,0,1,1.87.35,26.86,26.86,0,0,1-5.26,1c-12.51,1.81-25,3.61-37.53,5.49-6.87,1-13.72,2.2-20.57,3.38-3,.51-3.34,1.24-2.26,4.11.17.45.34.9.35.94-1.08,1.11-2.56,2-2.74,3-.21,1.23.73,2.65,1.26,4.28-2.81.32-5.78.47-4.29,4.23-1.15.61-2.68.94-2.86,1.62-.62,2.34-.85,4.71-3.75,5.49-.27.07-.27,1.23-.33,1.89-.08.83-.09,1.67-.11,2.1-1.6.78-3.22,1.07-4,2-1.57,2-.51,4.39,2.15,5.32A105.47,105.47,0,0,0,53.9,363c23.1,1.05,45.89-2,68.65-5.44,10.4-1.57,20.75-3.88,31.37-3,11,.86,22,1.78,32.9,2.91a18.41,18.41,0,0,1,7.92,2.35c13.64,8.85,27.41,8.09,41.6,1.55a48.48,48.48,0,0,1,12.27-4c18.11-3,36.23-1.69,54.28.76,21.46,2.91,42.92,5.7,64.66,4.87a190,190,0,0,0,45.93-7.26,4.85,4.85,0,0,0,2.68-2.84c.69-2.1.57-4.47,1.22-6.6C418.5,342.56,418.38,342.24,414.54,342.28ZM329.65,171.13c.2-.74,1.22-1.38,2-1.81a1.82,1.82,0,0,1,1.61.37,2.86,2.86,0,0,1,.93,2.91c-.55,1.85-1.22,3.67-1.95,5.46a8.35,8.35,0,0,1-1,1.59c.05-.59.1-1.21.15-1.84s.08-1.19.12-1.75.05-1.08.05-1.53c0-.89,0-1.48,0-1.48s-.1.58-.24,1.46c-.07.44-.15,1-.28,1.5l-.38,1.69-.47,2C328.6,176.78,328.89,173.94,329.65,171.13Zm-4.88,17-.71-1.42c-.2-.5-.4-1-.58-1.47-.09-.24-.19-.46-.27-.69s-.12-.44-.17-.64l-.35-1.32s.05.54.13,1.36c0,.2,0,.43.06.66s.1.48.15.73c.11.51.23,1.06.34,1.61s.33,1.06.48,1.56c0,.16.1.32.15.47a11.49,11.49,0,0,1-3.59-7,3.06,3.06,0,0,1,.8-2.11c.43-.52,2.1,0,2.74.63,1.58,1.64,2.24,6,1.34,8.6C325.12,188.82,324.93,188.5,324.77,188.14Zm6,4.19a2.12,2.12,0,0,1,.38-.13c1.4-.37,3,.11,3.37,1s-.23,1.68-1.93,2.38a15.26,15.26,0,0,1-7.09,1.17l.54-.21c.48-.19,1-.44,1.45-.66,1-.48,1.9-1,2.62-1.28a7.86,7.86,0,0,1,.9-.35l.35-.13-.36.06c-.23.06-.56.09-1,.2-.79.19-1.81.51-2.83.82-.5.14-1,.3-1.48.39-.24,0-.47.11-.68.14l-.39.05ZM316.19,199c-.22-.45-.46-.9-.64-1.34a12.12,12.12,0,0,1-.46-1.22,7.74,7.74,0,0,1-.25-.9c-.06-.22-.09-.35-.09-.35l0,.36a7.91,7.91,0,0,0,.08.93,11.32,11.32,0,0,0,.26,1.32c.09.48.26,1,.41,1.49s.33,1,.51,1.45l.12.31a7.61,7.61,0,0,1-2.92-7.23c.17-1.33.79-1.6,1.9-.86,2.23,1.49,3.25,5.18,2.25,8.08-.15-.23-.3-.47-.46-.74S316.45,199.47,316.19,199Zm3.09,9.82-.56,0c-.21,0-.42,0-.64,0h-1.4c-.66,0-1.33.06-1.91.11,2.45-1,4.83-2.25,7.71-1.84a2.49,2.49,0,0,1,2.1,1.35c-.11,1.21-1.09,1.55-2,1.85a11.26,11.26,0,0,1-6.7.21l-1.31-.38c.64-.19,1.43-.38,2.23-.58l1.34-.27c.21,0,.42-.1.62-.12l.56-.07,1.17-.16Zm-14.13,1.72a38.82,38.82,0,0,1-2.06-4.93,1.81,1.81,0,0,1,.2-1.49,2.93,2.93,0,0,1,1.61-1.27c.42-.06,1.2.64,1.41,1.17a13.06,13.06,0,0,1,1.15,7.1l-.75-1.54-2-3.43,1.34,3.73c.21.74.41,1.48.59,2.11A5.3,5.3,0,0,1,305.15,210.56Zm4,7.79A3.93,3.93,0,0,1,312.4,220a1.39,1.39,0,0,1-.55,2.41,10.87,10.87,0,0,1-7.55.9,24.17,24.17,0,0,1-3.15-1.14h0l.7-.22c.25-.08.52-.12.8-.19.55-.15,1.16-.23,1.77-.34,1.23-.18,2.48-.31,3.41-.44l1.55-.23h-1.57c-.93,0-2.18-.05-3.44-.05-.64,0-1.27,0-1.87.07-.3,0-.59,0-.87.09l-.53.08A14.38,14.38,0,0,1,309.16,218.35Zm-17.69-.77a3.44,3.44,0,0,1,1.9-4c1.84.47,2.4,1.85,2.33,3.5a24.16,24.16,0,0,1-.63,5l-.56-1.38c-.18-.46-.38-.93-.51-1.37a9.77,9.77,0,0,1-.35-1.22,5.9,5.9,0,0,1-.14-.9c0-.22,0-.35,0-.35s0,.13,0,.35a4.93,4.93,0,0,0,0,.91,11.13,11.13,0,0,0,.13,1.31c.06.48.17,1,.26,1.48.21,1,.43,2,.53,2.7,0,.12,0,.23.05.33A14,14,0,0,1,291.47,217.58Zm1.45,14.76-2.27,0c1.84-.76,3.68-1.51,5.56-2.15A3,3,0,0,1,299,231a1.12,1.12,0,0,1,.18,1.87,2,2,0,0,1-.81.55c-2.56.83-5.15,1.35-7.81.49a1.76,1.76,0,0,1-.44-.21l2.92-.61,3.65-1Zm-10.36,2c-.42-.93-.83-1.87-1.13-2.57s-.55-1.16-.55-1.16.14.49.33,1.24l.66,2.73c.14.5.26,1,.42,1.47,0,.17.11.32.16.48a12.53,12.53,0,0,1-4.11-6,2.21,2.21,0,0,1,.9-2.64,2.19,2.19,0,0,1,2.9.53,5,5,0,0,1,1.24,1.8c.7,2,.38,4,.22,6.18a7.38,7.38,0,0,1-.39-.69C283,235.22,282.77,234.76,282.56,234.3Zm5.86,10a1.89,1.89,0,0,1,1.94,1.63c.27,1.08-.56,1.53-1.22,1.78a16.2,16.2,0,0,1-3.28.69,10.9,10.9,0,0,1-3.79-.45l1.83-.59,1.33-.37c.42-.12.83-.2,1.18-.27l1.17-.23h-1.19a10.71,10.71,0,0,0-1.22,0l-1.42.11c-.83.1-1.67.19-2.34.29A9.91,9.91,0,0,1,288.42,244.3Zm-5.67,12.2c.84.06,1.47.31,1.63,1.15s.09,1.87-.93,2.18a33,33,0,0,1-5,1.17,8.65,8.65,0,0,1-2.14-.08l1.53-1a12.65,12.65,0,0,1,1.14-.61,3.13,3.13,0,0,1,.54-.23l.5-.17a5.19,5.19,0,0,1,.79-.18l.31-.05h-.31a5.77,5.77,0,0,0-.82,0l-.55.07a3.61,3.61,0,0,0-.62.13,11.73,11.73,0,0,0-1.29.39l-1.94.75A9.41,9.41,0,0,1,282.75,256.5Zm-12.51-9.34a2.45,2.45,0,0,1,.8-2.87,2.75,2.75,0,0,1,3.19.21,4.82,4.82,0,0,1,1.62,3.12,11.36,11.36,0,0,1,0,3.68c-.25-.45-.54-.94-.82-1.42l-.77-1.14a5.15,5.15,0,0,0-.37-.51l-.35-.42-.75-.87s.23.4.56,1l.27.49a5.87,5.87,0,0,1,.25.56l.51,1.21c.29.86.6,1.7.77,2.36a2.76,2.76,0,0,1,.08.27C272.71,251.44,271,249.75,270.24,247.16ZM269.06,264c-.59-.55-1.22-1.09-1.64-1.55l-.73-.74.55.88c.3.54.8,1.21,1.29,1.9.23.32.47.63.69.92a12.56,12.56,0,0,1-4-2.55,3.32,3.32,0,0,1-.77-1.15,1.86,1.86,0,0,1,.44-2.35,2.48,2.48,0,0,1,2,0,5.82,5.82,0,0,1,2,1.6,8.34,8.34,0,0,1,1.57,4.24C270.07,264.85,269.56,264.42,269.06,264Zm-63.55,19.09a17.3,17.3,0,0,1,4.1-1.42,2.59,2.59,0,0,1,3.23,1.18,3.24,3.24,0,0,1-.33,3.88,8.22,8.22,0,0,1-4.69,3.32c-2.79.65-5.57,1.37-8.62,2.15,3-2,5.84-4.25,8.82-6.26-3.3,1.75-6.46,3.8-9.76,5.46C200.07,287.85,202.26,285,205.51,283.08Zm-2.68-19.65c-1.62,3.77-4,7.08-5.9,10.67.27-1.63.52-3.2.74-4.77a46,46,0,0,1,2-9.78,7.18,7.18,0,0,1,4.8-4.85,3.26,3.26,0,0,1,4.49,2.66,8.1,8.1,0,0,1-.89,6.43,39.54,39.54,0,0,1-2,3.4c-2.46,3.12-5,6.17-7.56,9.21a16,16,0,0,1-1.94,1.71C198,273,201.15,268.45,202.83,263.43Zm-68.34-41.68C130,215.39,123.75,210.4,120.92,203c2.21,7,7.68,12.28,11.7,18.26a34.4,34.4,0,0,1-6.09-4.71c-4.27-3.7-8.48-7.42-11-12.66-1.07-2.21-2.21-4.34-2.42-6.84-.23-2.83,1.38-4.45,4.16-3.93a7.57,7.57,0,0,1,3,1.37,25.5,25.5,0,0,1,7.06,8.71c1,1.76,1.6,3.68,2.39,5.53,1.15,2.68,2.38,5.34,3.43,8.06a48.21,48.21,0,0,1,1.37,4.95Zm8.24,1.56c0,.51-.07,1-.09,1.54l-.09-.23c-1.71-4.69-2.25-9.61-2.64-14.55a38.38,38.38,0,0,1-.2-4.79c0-1.12.4-2.24,1.78-2.53,1.07-.22,2,.15,2.56,1.67a23.49,23.49,0,0,1,1.64,6.83,64.29,64.29,0,0,1-.76,9.57,20.25,20.25,0,0,1-1.09,5.08c-.15-2.54,0-5.18-.32-7.69-.36-3.38-1-6.73-.73-10.14C142.07,213.13,143.25,218.23,142.73,223.31Zm5.12,12.7c-3.73.85-7.45,1.81-11.21,2.47a27.83,27.83,0,0,1-6.45.27,9.39,9.39,0,0,1-3.73-1.23c-2.06-1.15-2.19-3.17-.15-4.23a14.84,14.84,0,0,1,5.72-1.66,37.59,37.59,0,0,1,7.46.63,31.64,31.64,0,0,1,8.15,2.21c-5.38.45-10.67,1.49-16.1,1.15,5.75.8,11.63,0,17.4,0A8.5,8.5,0,0,1,147.85,236ZM160,232.14a32.54,32.54,0,0,1-.81,4.21l-.23,0c-.4-2.75-.5-5.5-.87-8.26-.44-3.13-1.11-6.27-.64-9.44-1,4.71.29,9.5,0,14.26q0,.72.06,1.44a32.61,32.61,0,0,1-2.19-7.72c-.6-3.71-1.33-7.39-1.94-11.1a4.24,4.24,0,0,1,.69-3.38,1.63,1.63,0,0,1,2.32-.59c1.88.87,2.51,2.54,2.92,4.32C160.61,221.27,160.32,226.71,160,232.14Zm3.86,14.19c-3.3,1.07-6.55,2.34-9.88,3.31a34,34,0,0,1-6.75,1.31c-1.88.16-3.72-.34-4.68-2.33a8.36,8.36,0,0,1,6.2-4.65,32.08,32.08,0,0,1,13.86-.22c.76.15,1.52.34,2.27.53-.8,0-1.6.1-2.4.19-5.48.43-10.44,3.2-15.9,3.67,3.63,0,7.15-1.24,10.67-2a40.43,40.43,0,0,1,10.07-.65C166.16,245.78,165,246,163.86,246.33Zm10.27-1.28c-2-4.32-2.94-9-3.95-13.58-.52-2.37-.77-4.8-1.09-7.21a7.34,7.34,0,0,1,.49-4.31,3,3,0,0,1,5.13-.79,8.85,8.85,0,0,1,1.14,1.74c2,3.64,2,7.6,1.77,11.57-.11,1.8-.4,3.59-.65,5.38a35.14,35.14,0,0,1-1.57,7.81c-.37-6.85-2-13.53-1.51-20.4C173,231.81,174.11,238.48,174.13,245.05Zm5.5,12.84c-6,.58-12,1.3-18.07,1.73a15,15,0,0,1-5.48-.83c-1.68-.53-1.83-1.82-.58-3.06a10.19,10.19,0,0,1,2.14-1.67c3.71-2.13,7.81-2.26,11.79-1.51a79.77,79.77,0,0,1,10.75,3.31,3.38,3.38,0,0,1,.72.34c-6.42-1.55-13.22.38-19.78-.1,6.85,1,14.29-.85,20.81,1.78A19.61,19.61,0,0,0,179.63,257.89Zm7.76-1.75a52.68,52.68,0,0,1-1.65-16.38,22.27,22.27,0,0,1,1.5-6.26c.72-1.87,2.48-2.16,4.16-1a5.74,5.74,0,0,1,2.39,4.89,24,24,0,0,1-.93,8.91c-.81,2.38-1.52,4.79-2.43,7.12a15.85,15.85,0,0,1-1.62,3.39c1.16-5.59.66-11.33,1-17-.75,5.69-.63,11.68-2.29,17.18A6,6,0,0,0,187.39,256.14ZM191,274.48c-.4-.12-.8-.22-1.19-.37-3.35-1.29-6.9-1.57-10.42-1.89-2.06-.19-4.17.1-6.22-.13a25.65,25.65,0,0,1-5.67-1.31,9,9,0,0,1-3.08-2.07,1.44,1.44,0,0,1,.2-2.48,7.2,7.2,0,0,1,3.05-1.18,14.68,14.68,0,0,1,6.2.58c2.56.84,5.25,1.24,7.63,2.73,1.63,1,3.59,1.51,5.31,2.43a21.39,21.39,0,0,1,2.44,1.44c-.47-.15-.94-.28-1.41-.42a108.38,108.38,0,0,0-16-3.19,108.12,108.12,0,0,1,15.65,4.19,15.68,15.68,0,0,1,3.59,1.62A.33.33,0,0,1,191,274.48Zm1.2,15.37c-4.88-1.36-9.8-2.63-14.64-4.14a37.42,37.42,0,0,1-6-2.78,3.55,3.55,0,0,1-1.85-3.26,3.16,3.16,0,0,1,3.27-1.75,20.26,20.26,0,0,1,5.49,1.08,43,43,0,0,1,13.29,8.5,7.75,7.75,0,0,1,.8.89c-1.3-.54-2.68-.91-3.95-1.34-4-1.38-7.64-3.59-11.63-5,4.61,2.08,8.85,5.12,13.69,6.78a15.77,15.77,0,0,1,2.5,1.25C192.7,290,192.44,289.92,192.18,289.85Zm215.83,52a2.33,2.33,0,0,1,1.83.7,11.85,11.85,0,0,1-2.28.84c-20.83,3.17-41.64,5.87-62.84,3.86-19.7-1.87-39.45-3.38-59.22-4.14-10.73-.41-21.64-.34-32.26,2.31a10.4,10.4,0,0,1-1.68.17c-.05-.22-.11-.44-.16-.66,4.42-1.13,8.79-2.52,13.26-3.35a198.87,198.87,0,0,1,57.42-1.94A572.17,572.17,0,0,0,408,341.84Zm-2.83-7.39c-.66,4.89-.66,4.85-5.22,4.9-13.43.16-26.88.87-40.28.4-13.68-.48-27.31-2.24-41-3.18a228.71,228.71,0,0,0-39.34.18,176,176,0,0,0-27.77,5.45c-3.23.87-6.35,2.15-9.76,2.8,2.46-1.27,4.88-2.62,7.39-3.79,10.27-4.78,20.86-8.94,32.13-10.18a193,193,0,0,1,32-1.23c25.44,1.47,50.77,4.66,76.31,4.65Zm-47.1-25.33c11,3.76,22.39,6.54,33.59,9.77.89.25,1.75.59,2.62.88-1.46,4.66-1.66,4.81-5.81,4.21-16.43-2.39-32.84-4.86-49.27-7.16-17.3-2.41-34.63-3.21-51.88.43-20.33,4.28-38.21,13.68-54.44,26.43-1.36,1.07-2.56,2.34-3.84,3.51l-.66-.57c4.18-4.17,8.1-8.65,12.59-12.45,14.93-12.64,32.49-20.22,51.06-25.7C314.12,302,336.06,301.6,358.08,309.12Zm24.6-12.21c1.36.68,2.62,1.55,4.59,2.75-1.53.06-2.33.13-3.13.13-16.73,0-33.45-.22-50.17.1-33.35.66-64.28,9.29-91.17,29.68-5.86,4.43-10.58,10.36-15.79,15.64a31.1,31.1,0,0,0-2.27,2.82l-1-.64a69.85,69.85,0,0,1,3.37-6.2c7.21-10.61,17.14-18.28,27.81-25,21.54-13.59,44.78-23.33,69.25-30.22,6.68-1.88,13.38-3.73,20-5.66a8.5,8.5,0,0,1,6.65.61C361.45,286.31,372.09,291.57,382.68,296.91ZM217.2,343.73a52.47,52.47,0,0,1,8.93-26c8.92-13.43,21.19-23.14,34.81-31.34a178.4,178.4,0,0,1,30.69-14.37l.35-.14c1.06-.38,2.12-.74,3.17-1.15,2.1-.65,2.83-1,4.33-1.43s2.72-.9,4.08-1.31l0,0c4.79-1.5,9.62-2.89,14.47-4.21q10.74-2.94,21.53-5.7a7.61,7.61,0,0,1,3.93-.1c11.28,3.64,22.53,7.4,33.78,11.15a21.28,21.28,0,0,1,2.23,1.15c-4.2.86-7.68,1.48-11.11,2.28-16.32,3.84-32.87,6.94-48.89,11.79-24.54,7.42-48,17.5-69.47,31.88-8,5.35-15.46,11.32-21.49,18.86a74.3,74.3,0,0,0-6.42,9.94c-.85,1.49-1.5,2.6-3.42,2.19C216.53,346.77,217.11,345,217.2,343.73ZM56.47,309.59c-6.07,0-12.15,0-18.22,0a4.5,4.5,0,0,1,.85-1c11.27-8.63,22.45-17.38,33.95-25.69,2.08-1.51,5.55-1.87,8.26-1.6,13.45,1.3,26.88,2.9,40.29,4.57a157.3,157.3,0,0,1,43.74,11.73c12.62,5.51,24.85,11.67,34.27,22.17,6.19,6.91,11.38,14.39,13.65,23.56a16.46,16.46,0,0,1,.43,2,11.84,11.84,0,0,1-.09,1.81c-.6-.36-.93-.44-1-.64-6-10.74-16.18-16.37-26.55-21.61C171.78,317.62,156.57,314,140.65,313c-10.21-.64-20.36-2.58-30.56-2.92C92.23,309.52,74.35,309.71,56.47,309.59ZM40.73,325.06l8.08-1.26c14.78-2.33,29.52-5,44.36-6.89,18.44-2.41,36.93-3,55.49-.54a111.88,111.88,0,0,1,46.76,16.71c4.78,3.09,8.67,7.59,12.87,11.54a10.47,10.47,0,0,1,1.58,2.83l-.67.53a5.22,5.22,0,0,1-1.12-.75c-8.88-10.3-20.73-15.91-33.05-20.67-11.29-4.37-23.05-5.9-35.17-6.07C118,320.19,96.53,323,75,326.14c-10.29,1.49-20.79,1.58-31.21,2.1-1.09.05-2.25-1.32-3.37-2C40.51,325.83,40.62,325.44,40.73,325.06Zm5,6.09c14.32-.27,28.45-2.25,42.61-4.28,22.3-3.21,44.74-5.9,67.23-2.61,18.08,2.65,34.44,9.78,48.27,22.09a3.17,3.17,0,0,1,1.14,2.17,13.23,13.23,0,0,1-1.3-.85c-14-12.16-30.64-17.61-48.86-19.56-20.26-2.16-40,1.45-60,3.63-13.8,1.51-27.72,2.05-41.58,2.95-3.38.22-6.77.07-10.15.27-2.29.13-3.77-.44-3.85-3.5C41.53,331.35,43.63,331.19,45.73,331.15Zm-7.37,6.48q6.09-.11,12.18,0c17.94.22,35.67-2.07,53.39-4.4,16.38-2.16,32.76-4.32,49.36-2.68C168,332,181.93,335.7,194.5,343.75c.78.5,1.51,1.07,2.27,1.61l-.16.24c-3.76-1.37-7.46-3-11.3-4.07-15.31-4.37-31.07-5.13-46.82-4.68-16.31.46-32.62,1.57-48.9,2.74a344.52,344.52,0,0,1-50.39,0c-1-.08-2.06-.25-3.08-.38-.06-.31-.11-.61-.17-.92A10,10,0,0,1,38.36,337.63ZM169,352.39a146.21,146.21,0,0,0-39.25,1c-23.18,3.72-46.37,7.52-70,6.77-11.21-.36-22.37-1.37-33.12-4.92A5.45,5.45,0,0,1,24,353.6a7.29,7.29,0,0,1,1.87,0c15.25,4.24,30.91,4.65,46.56,4.68,17.16,0,34.08-2.32,50.88-5.66a137.13,137.13,0,0,1,45-1.58c6.78.89,13.55,1.86,20.33,2.82a10,10,0,0,1,1.78.69C182.89,353.81,175.93,353.15,169,352.39Zm13-2.2c-18.31-3-36.65-3.8-55.08-.79-12.65,2.07-25.3,4.46-38.06,5.52-10.92.9-22,.45-33-.05-8.07-.36-16.08-1.89-24.14-2.64-3-.27-3.64-1.54-2.8-4.69,3.72.4,7.33,1,11,1.15,11.67.58,23.36,1.65,35,1.36,13-.32,26-2,39-2.94s25.83-2.49,38.73-2.36a144.4,144.4,0,0,1,40.4,6.76,3.18,3.18,0,0,1,1.61,1.16C190.43,351.84,186.24,350.88,182,350.19Zm6-2.85c-19.86-5.13-40-6.11-60.38-4.32-20.2,1.78-40.43,3.44-60.69,4.22-10.85.43-21.78-1.11-32.67-1.74-1.88-.11-2.64-.94-1.87-3,2,0,4.14,0,6.24,0,14.68.07,29.38.58,44,.1,14.86-.48,29.67-2.16,44.53-2.9,15.74-.79,31.55-1,47.1,2,7,1.34,13.81,4.08,20.65,6.33a19,19,0,0,1,3.81,2.35l-.22.4C195,349.62,191.58,348.26,188,347.34Zm8.32,9.55c7.24-7.52,29.36-10.95,39,1.13C224.58,365.58,205.26,365,196.33,356.89ZM231,349c1.6-1.48,3.08-3.1,4.8-4.42,24.65-18.92,52.38-28.85,83.58-26.74,15.75,1.07,31.37,4,47.06,6l29,3.8c1.24.16,2.47.38,3.81.59-.38,2.29-1.37,3.31-3.8,3.34a521.41,521.41,0,0,1-60.16-3c-17.93-1.87-36.08-3.46-54-.25C263.07,331.51,246.08,337.86,231,349Zm172,6.27c-24.78,5.57-49.74,5.94-74.88,2.82-17.33-2.14-34.72-4-52.13-5.34-12.25-1-24.44.66-36.63,3,1.23-.46,2.44-1,3.69-1.38a31.21,31.21,0,0,1,3.89-1.09,134,134,0,0,1,38.65-1.39c13,1.39,25.89,3,38.85,4.33,14.31,1.51,28.63,2.92,43.07,2.24A198,198,0,0,0,412,351.65a7.73,7.73,0,0,1,1.09-.14c.08.31.17.62.26.92C409.88,353.37,406.44,354.45,402.94,355.24Zm8.49-6.41c-20,5.52-40.33,8.36-61,6.86-16.36-1.18-32.66-3.26-49-5.15-14.05-1.62-28.11-2.9-42.22-1.54-6.49.63-12.9,2.1-19.53,2.72,4.42-1.26,8.76-2.87,13.25-3.72,18.51-3.49,37.13-2.51,55.76-1,12.33,1,24.71,1.5,37,2.76,20.12,2.05,39.91-.52,59.72-3.38,2.75-.4,5.51-.68,8.27-1,.22.35.44.7.67,1.05C413.4,347.27,412.54,348.52,411.43,348.83Z"/><path class="cls-1" d="M206.4,287h0Z"/><path class="cls-1" d="M206.45,287l.1-.07Z"/><path class="cls-1" d="M206.55,286.92l0,0Z"/><path class="cls-1" d="M206.65,286.85l.12-.08Z"/><path class="cls-1" d="M206.9,286.69l.34-.23Z"/><path class="cls-1" d="M207.32,286.4l.23-.15Z"/><path class="cls-1" d="M198.47,225.63c5.23.71,10.47,1.34,15.68,2.16a5.67,5.67,0,0,1,3,1.53c4.75,4.82,9.4,9.75,14.09,14.63,2.64,2.74,5.31,5.47,8.08,8.32,3-3.58,5.85-6.84,8.58-10.19.94-1.15,1.6-1.36,2.84-.33,2.29,1.9,4.75,3.6,7.44,5.61L281.61,162c-.16-.09-.32-.18-.49-.26l-85.45,63.4C197,225.37,197.72,225.53,198.47,225.63Zm37.12,19.9L217.86,227l44.78-44.35.32.27c-1.32,1.6-2.63,3.21-4,4.8q-14.69,17.42-29.4,34.79a3.29,3.29,0,0,0-.59,3.82c2.42,6.3,4.73,12.63,7.09,19Zm4,3.21C237,241.65,234.47,235,232,228.32l.44-.37,15.07,11.4C244.92,242.41,242.47,245.33,239.59,248.74Zm37.72-78.84c-6.75,24.54-13.49,49.08-20.34,74l-26-19.71,45.92-54.53Zm-10.75,5.2.35.41L253.55,188.7q-18.13,17.94-36.31,35.84a4.33,4.33,0,0,1-3,1c-4.22-.42-8.41-1.07-13.34-1.74Z"/><path class="cls-1" d="M204,130.69c.23.16.47.46.68.45,1.35-.07,2.07.8,2.8,1.71a27.57,27.57,0,0,1,5.11,11.05c-1.49-1.17-3-2.36-4.49-3.51-4.74-3.63-9.82-6.56-15.78-7.65a21,21,0,0,0-8.43.06,3.1,3.1,0,0,0-2.67,2c.08.4.17.79.26,1.19l3.2,3a3.32,3.32,0,0,0,.7,3.7,13.85,13.85,0,0,0,3.19,2.44,2.37,2.37,0,0,1,1.32,2.16c.2,3.65,2.47,5.5,6.06,5,.75-.09,1.5-.21,2.4-.33-.42.48-.75.85-1.07,1.23a16.22,16.22,0,0,0-3.47,5.88c-.64,2.3-.32,3.25,1.56,4.58-.18,1.93.09,2.29,2.33,3.08.2,2.37.2,2.35,2.72,2.67.28,0,.57.39.76.66a1.82,1.82,0,0,0,2.43.8,1.23,1.23,0,0,1,.94.1c1.34.92,1.83.9,2.94-.25,2.45.69,3.77.26,4.8-2.14,1.19-2.74,2-5.63,3-8.46.3-.88.48-1.79.75-2.8a23.31,23.31,0,0,0,1.07,2.36,1.19,1.19,0,0,0,.91.55,1.16,1.16,0,0,0,.62-.87,25.55,25.55,0,0,0,0-2.6l1,1.2c2.23,2.66,4.36,5.42,7.19,7.5,2,1.51,3.29,1.44,5.21-.19,1.44.58,1.9.39,2.73-.93a1.51,1.51,0,0,1,1-.58c.87-.12,1.59-.51,1.62-1.38s.59-1.35,1.34-1.74a1.53,1.53,0,0,0,.8-2.4c-.11-.24-.21-.48-.32-.71,1.74-1.62,1.8-1.91.86-3.86,1-1.63,1.06-2.61-.09-4.16a8,8,0,0,0-1.92-1.93c-1.77-1.17-3.64-2.21-5.4-3.26l2.42-.72c2.63-.82,4.19-3.14,3.31-5.71a5.31,5.31,0,0,1,.93-5.35c1.58-2.22,1.38-3.87-.2-6a7.32,7.32,0,0,0,1.75-4c-.08-.33-.15-.66-.22-1-1.53-1.46-3.22-.79-4.83-.27-6,2-10.42,6-13.82,11.15-2,3-3.56,6.28-5.32,9.44-.22.4-.42.82-.63,1.23h-.28c-.14-2-.44-4-.38-6.07a64,64,0,0,1,.77-6.59,2.57,2.57,0,0,1,1.57-2.2c.24-.1.33-.55.49-.84-.34,0-.85-.16-1,0a7,7,0,0,0-1.44,2.12,25.92,25.92,0,0,0-1.17,9.47c0,1.34.14,2.69.21,4l-.93.2c-1.27-2.59-2.46-5.26-3.86-7.8a22.26,22.26,0,0,0-3-4,6.34,6.34,0,0,0-2.24-1.2C204.63,130.15,204.3,130.52,204,130.69Zm14.47,18.82-.09-.41a5,5,0,0,1,.92-.68c2-.94,4.09-1.9,6.18-2.73.54-.22,1.55-.25,1.83.07.55.64-.1,1.32-.6,1.8-1.61,1.55-3.71,1.82-5.8,2A18.12,18.12,0,0,1,218.51,149.51Zm.7,2,0-.48c1.35-.19,2.69-.4,4-.57.6-.08,1.21,0,1.81-.09,2.55-.23,4.11,1.22,5.28,3.19a2,2,0,0,1,.11,1.58c-.11.22-1,.23-1.43.14a12.27,12.27,0,0,1-1.89-.69l-6.21-2.38C220.36,152,219.79,151.74,219.21,151.51Zm9.72,13.89c-.14-.05-.32-.05-.42-.15-3-2.81-6.12-5.49-8.1-9.19a10.49,10.49,0,0,1-.56-1.58c2.83,3.08,5.63,6.09,8.39,9.13a9.73,9.73,0,0,1,1,1.59Zm2.69-1.26a5.58,5.58,0,0,1-1.45-.45,7.68,7.68,0,0,1-1.22-1.2l-4.8-5c-1-1-2-2.1-3-3.17a5.5,5.5,0,0,1-.55-.91l.21-.32c2.53,1.15,5.08,2.22,7.55,3.47a3.79,3.79,0,0,1,2.06,2.82,30.91,30.91,0,0,0,1.27,3.29A4.2,4.2,0,0,1,231.62,164.14Zm2.76-1.29c-.42-.06-1,0-1.23-.21a5.85,5.85,0,0,1-1.85-4l.24-.12c1,1,1.93,2,2.8,3.11C234.55,161.86,234.38,162.43,234.38,162.85Zm2.27-3.24c-.41.63-.9,1.36-1.76.92a5.25,5.25,0,0,1-2.73-3.32,3.63,3.63,0,0,1,.18-1.23c1.43.84,2.62,1.53,3.8,2.24C236.67,158.54,237.06,159,236.65,159.61Zm1.76-3.4c-.3.76-.94.86-1.67.77a5.63,5.63,0,0,1-4-2.41c-.48-.66-.24-1.19.57-1.37,1.57.07,3.2.1,4.53,1.23A1.5,1.5,0,0,1,238.41,156.21Zm.21-5.61c-.2.32-.32.8-.6,1a7.46,7.46,0,0,1-2.25.83,11.29,11.29,0,0,1-6.27-1.1c2.75-.37,5.41-.75,8.08-1.06C237.91,150.18,238.27,150.46,238.62,150.6Zm-3.85-3.84a4.33,4.33,0,0,1,.69.41c1,.73.92,1.57-.21,2a13.16,13.16,0,0,1-7.76.2c-.14,0-.25-.19-.37-.29C229.07,146.77,232.56,145.74,234.77,146.76Zm1.51-6.79a7,7,0,0,1-5.64,3.31,21.55,21.55,0,0,0-8.73,2.62,26.32,26.32,0,0,1-2.9,1.19l-.37-.46c.23-.24.48-.47.7-.72,3.91-4.45,8.52-7.72,14.52-8.66a7,7,0,0,1,.91-.07C236.71,137.24,237.3,138.3,236.28,140Zm1.57-9.63a7.31,7.31,0,0,1-1.34,2.67c-1.92,2.28-4.64,3.19-7.34,4.08l-.33-.39c1.86-2.17,3.67-4.38,5.59-6.49a4.76,4.76,0,0,1,1.95-1.19C237.48,128.62,238.16,129.2,237.85,130.34Zm-3-6.43a4,4,0,0,1,1.69-1c1.15-.3,1.95.61,1.34,1.65a19.63,19.63,0,0,1-2.67,3.32,9,9,0,0,1-1.67,1.14C233.39,127.05,233.44,125.27,234.86,123.91Zm-17.4,19.74a42.86,42.86,0,0,1,8.41-13.73,16.61,16.61,0,0,1,3.79-2.78c1.29-.74,2.26,0,2.16,1.5a8.35,8.35,0,0,1-2.53,5.17c-2.43,2.57-5,5-7.45,7.56-1.29,1.33-2.49,2.74-3.75,4.11a10.92,10.92,0,0,1-.88.76l-.34-.2A15.75,15.75,0,0,1,217.46,143.65Zm-32.88-8.78c.36-.71,1.66-.94,2.84-.48,1.86.72,2.72,2.26,3.34,4l-.17.34c-1.51-.51-3.05-.94-4.52-1.56C184.8,136.63,184.23,135.58,184.58,134.87Zm4.73,8.26a6.38,6.38,0,0,1-1.93-1.73c-.61-.81-.26-1.51.74-1.68a4.39,4.39,0,0,1,1.49,0c3.21.63,5.9,2.37,8.6,4.13C195.16,144.3,192.13,144.68,189.31,143.13Zm4,6.66a4.09,4.09,0,0,1-1.15-1,1.22,1.22,0,0,1,.32-2,6.21,6.21,0,0,1,1.63-.76c5.51-1.59,10.81-.77,16,1.4.56.24,1.08.56,1.61.84l-.07.37a21.24,21.24,0,0,1-2.63.17,23.12,23.12,0,0,0-9.63,1.36A6.87,6.87,0,0,1,193.32,149.79Zm18.41.29a8.75,8.75,0,0,1,1.25.18l.15.44a12,12,0,0,1-2.16,1.06,28.32,28.32,0,0,1-4.72.92A4.65,4.65,0,0,1,204,152a1.21,1.21,0,0,1-.49-1c0-.23.48-.56.78-.62a16.29,16.29,0,0,1,2.6-.29C208.5,150,210.12,150.06,211.73,150.08Zm-14.64,5.23a3.71,3.71,0,0,1,3.08-1.85c1.62,0,3.25.12,4.87.2,0,.13.05.25.07.38a8.28,8.28,0,0,1-3.5,2.36,13.34,13.34,0,0,1-3.28,1,4.76,4.76,0,0,1-1.73-.42A5.38,5.38,0,0,1,197.09,155.31Zm-.65,5.54a4,4,0,0,1-1.09-.7,3.62,3.62,0,0,1,.93-.79c.75-.29,1.56-.42,2.33-.67,1.74-.58,3.48-1.19,5.42-1.86a11.16,11.16,0,0,1-6.09,4A3.8,3.8,0,0,1,196.44,160.85Zm2.73,4.66a1.35,1.35,0,0,1-1.57-1.84,4.85,4.85,0,0,1,2.48-2.69c.63-.38,1.37-1.15,2.07-.53s.11,1.52-.19,2.23A5.2,5.2,0,0,1,199.17,165.51Zm4,1.8c-.36.88-1.19.9-2.13.29s-.53-1.09-.11-1.69l2.21-3.25.38-.12c.2.47.62,1,.55,1.41A13.91,13.91,0,0,1,203.18,167.31Zm2.16,1.65c-.12.27-.61.37-.94.55-.18-.35-.59-.75-.52-1,.34-1.38.8-2.74,1.22-4.1l.31,0A5.8,5.8,0,0,1,205.34,169Zm3.76-1.9a5.52,5.52,0,0,1-.73,1.76c-.18.3-.67.7-.88.63a1.54,1.54,0,0,1-.76-.92,5.84,5.84,0,0,1-.15-1.4,14.68,14.68,0,0,1-.23-3.08,9.93,9.93,0,0,1,1-3.12,9,9,0,0,1,1.63-2.17c1.2-1.26,2.47-2.46,3.72-3.68l.35.17c-.5,1.59-.88,3.23-1.53,4.75A34.35,34.35,0,0,0,209.1,167.06ZM214,156c.66,2.06-1.95,12.1-3.83,13.71a9.48,9.48,0,0,1,.05-1.66,34.39,34.39,0,0,1,2.38-7.58A32.06,32.06,0,0,0,214,156Zm-.62-3.07c-.69.67-1.4,1.32-2.06,2-1.46,1.53-2.9,3.08-4.35,4.62a12.38,12.38,0,0,1-1.16,1.13c-.83.67-1.65.39-1.67-.67-.05-2,.38-4,2.23-5a50.83,50.83,0,0,1,6.38-2.42c.14-.05.31,0,.47,0Zm-.45-5.69a8.08,8.08,0,0,1-.85-.2c-4.66-1.77-9.34-3.5-14-5.35a20.9,20.9,0,0,1-4.14-2.28,6.4,6.4,0,0,1-1.78-2.14c-.63-1.11-.06-2.13,1.21-2.07a14.34,14.34,0,0,1,4.33.78,30,30,0,0,1,5.78,2.88c2.64,1.74,5.13,3.71,7.62,5.67a17.49,17.49,0,0,1,2.07,2.37Z"/><path class="cls-1" d="M187.48,190.25a6.45,6.45,0,0,1-1.31-3.13c-.19-1-.27-2-.41-3,0-.28-.08-.56-.12-.83h-.08c-.05.53-.09,1.07-.16,1.6a18.21,18.21,0,0,1-.79,3.87,4.22,4.22,0,0,1-2.58,2.71,19.47,19.47,0,0,1-2.26.65c-.5.13-1,.2-1.5.29v.07l.28.05a14.51,14.51,0,0,1,3.5.89,4.11,4.11,0,0,1,2.43,2.4,10.43,10.43,0,0,1,.58,2c.24,1.39.4,2.8.57,4.1.06-.52.13-1.13.19-1.75a15.8,15.8,0,0,1,.85-4.25,4.28,4.28,0,0,1,2-2.3,10.15,10.15,0,0,1,2.83-.9c.48-.1,1-.18,1.45-.27a.29.29,0,0,0-.19-.11c-.88-.19-1.78-.35-2.66-.57A5,5,0,0,1,187.48,190.25Z"/><path class="cls-1" d="M212.05,75.17a10.63,10.63,0,0,1,2.48.63,3,3,0,0,1,1.73,1.7,8.24,8.24,0,0,1,.41,1.45c.17,1,.28,2,.4,2.9,0-.37.1-.8.13-1.24a11,11,0,0,1,.61-3A3.05,3.05,0,0,1,219.25,76a7.48,7.48,0,0,1,2-.64l1-.19a.19.19,0,0,0-.13-.07c-.63-.14-1.26-.25-1.88-.41a3.53,3.53,0,0,1-1.88-1.07,4.47,4.47,0,0,1-.93-2.22c-.14-.71-.2-1.43-.29-2.15l-.09-.6H217c0,.38-.06.75-.11,1.13a13.56,13.56,0,0,1-.56,2.75,3,3,0,0,1-1.83,1.92c-.52.19-1.07.32-1.61.46-.35.09-.71.14-1.06.21v0Z"/><path class="cls-1" d="M83.92,251.4c4,.84,5.86,2.8,6.56,7,.19,1.1.35,2.19.53,3.4l.92,6,.56-4.19c.05-.4.08-.72.11-.94v-.08l.05-.28c.17-1.23.34-2.17.53-3.26l.19-1.06c.62-3.5,2.29-5.43,5.26-6.09.86-.19,1.71-.4,2.57-.61l4.16-1-3-.48c-.95-.15-5-1.15-6.64-2.48s-2.21-3.54-2.56-5.73c-.1-.59-.18-1.06-.28-1.6s-.21-1.21-.37-2.18l-.61-3.67-.71,4.41c-.28,1.77-.52,3.3-.86,4.88a6.6,6.6,0,0,1-4.76,5.3c-.88.26-1.81.46-2.7.66l-1.27.28-2.48.57,2.47.6C82.48,251.09,83.14,251.23,83.92,251.4Zm2-1.49a7.81,7.81,0,0,0,5.6-6.21c.16-.71.29-1.4.42-2.11l0,.21c.38,2.34.92,4.76,3,6.48a14.55,14.55,0,0,0,4.73,2.13l-1.27.29c-3.46.77-5.48,3.08-6.19,7.07L92,258.83c0,.2-.07.41-.11.61-.06-.42-.13-.84-.2-1.25-.76-4.54-2.92-6.92-7.19-7.91C85,250.17,85.42,250.05,85.87,249.91Z"/><path class="cls-1" d="M261.08,116.86l-2.79.64,2.78.68c1,.25,1.78.41,2.66.6,4.52,1,6.58,3.15,7.37,7.84.2,1.24.39,2.47.59,3.82l1,6.74.63-4.71c.06-.45.09-.8.12-1.05a.28.28,0,0,1,0-.09l0-.31c.19-1.38.38-2.44.6-3.66l.21-1.19c.7-3.93,2.57-6.1,5.9-6.84,1-.21,1.92-.45,2.89-.68l4.67-1.11-3.41-.54c-1.07-.16-5.66-1.29-7.45-2.77-2-1.63-2.49-4-2.89-6.44-.1-.66-.19-1.18-.3-1.79s-.25-1.36-.43-2.45l-.68-4.12-.79,4.95c-.32,2-.59,3.7-1,5.47a7.42,7.42,0,0,1-5.35,6c-1,.29-2,.52-3,.73Zm4.84.25a8.79,8.79,0,0,0,6.29-7c.17-.79.32-1.58.46-2.37,0,.07,0,.15,0,.23.42,2.63,1,5.35,3.36,7.28a16.37,16.37,0,0,0,5.31,2.39L280,118c-3.88.86-6.16,3.46-6.95,7.93l-.21,1.19-.12.68c-.08-.47-.15-.93-.23-1.4-.85-5.09-3.27-7.77-8.08-8.88C264.89,117.4,265.41,117.27,265.92,117.11Z"/><path class="cls-1" d="M68.67,205.75,81.14,187H75.56c1.84-4.88,3.65-9.68,5.47-14.47l-.08,0c-4.14,6.23-8.29,12.45-12.5,18.77h5.68c-1.86,4.86-3.7,9.66-5.55,14.46Z"/><path class="cls-1" d="M311,172.38l.12.06c5.67-8.55,11.35-17.09,17.11-25.76h-7.65c2.53-6.69,5-13.28,7.5-19.86l-.1,0-17.15,25.76h7.79Z"/><path class="cls-1" d="M348,201.53a5.91,5.91,0,0,0,.67,6.06,7.11,7.11,0,0,1-1.23-.21,5.17,5.17,0,0,0-3.16,0,3,3,0,0,0-2.21,4.11,5,5,0,0,0,1.54,2,33.14,33.14,0,0,0,3.18,2,9.49,9.49,0,0,1-.56.77,5.59,5.59,0,0,0-1.1,4,3.5,3.5,0,0,0,2.75,3.24,3.62,3.62,0,0,0,3.65-.92c.54-.5,1.09-1,1.65-1.48.5.81.92,1.5,1.35,2.18a3.93,3.93,0,0,0,3.84,1.6,3.14,3.14,0,0,0,2.65-3.25c0-.9,0-1.81,0-2.75,1,.17,2,.41,3,.49a4.38,4.38,0,0,0,2-8.5c-1.16-.44-2.36-.74-3.55-1.1l-.27-.29c.24-.1.55-.14.71-.31a9.78,9.78,0,0,0,2.57-4.08c.65-2.34-.85-4.67-3.08-4.53a5.86,5.86,0,0,0-4.77,2.62c-.21.31-.46.58-.74.94-1.08-2.73-1-2.81-3.06-4.18C351,198.14,348.93,199.19,348,201.53Zm-4.83,9.76a2,2,0,0,1,1.57-2.87,8.38,8.38,0,0,1,6.09,1.36c.21.13.42.29.63.43a6.89,6.89,0,0,0-.7,2.72,4.85,4.85,0,0,0,0,.85l-.76.05a23.74,23.74,0,0,1-3,.15A4.62,4.62,0,0,1,343.12,211.29Zm10.19,6.8c-.29,1.71-1.51,2.74-2.69,3.78a2.65,2.65,0,0,1-3.26.27,2.75,2.75,0,0,1-1.11-2.81c.41-2.54,1.29-3.51,3.82-4.11a2.66,2.66,0,0,0,.92-.34,4.67,4.67,0,0,0,2.62,2.88C353.46,217.86,353.33,218,353.31,218.09Zm6.45,4.14a2.15,2.15,0,0,1-3.48,1.23,3.53,3.53,0,0,1-1.72-2.74c0-.81,0-1.63-.06-2.43a.75.75,0,0,0-.15-.36,3.2,3.2,0,0,0,.44,0,7,7,0,0,0,3.56-1.19c.32.66.72,1.29,1,1.94A4.64,4.64,0,0,1,359.76,222.23Zm6-10.3a3.37,3.37,0,0,1,1.76,4.69,3,3,0,0,1-3.17,1.66c-1.76-.19-3.59-.4-4.64-2.18a1.06,1.06,0,0,0-.22-.29,4.47,4.47,0,0,0,1.2-2.86,8.57,8.57,0,0,0-.17-2,5.24,5.24,0,0,0,1,0A10,10,0,0,1,365.72,211.93Zm-5-9.84a4.36,4.36,0,0,1,2.05-.32c1.13.11,1.71.94,1.58,2.21a6.78,6.78,0,0,1-3.32,5.21,4.59,4.59,0,0,0-.92.61,3.87,3.87,0,0,0-2.69-2.3,1.53,1.53,0,0,0,.13-.61A5.07,5.07,0,0,1,360.71,202.09ZM353,200.78a4.73,4.73,0,0,1,2.41,3c.25,1,.42,2.09.61,3.14a2.82,2.82,0,0,0,.12.52,5.41,5.41,0,0,0-4.06,1.72,9.18,9.18,0,0,1-2.46-2.27,5.19,5.19,0,0,1-.37-5.32A2.76,2.76,0,0,1,353,200.78Z"/><path class="cls-1" d="M164.45,98.28a2.44,2.44,0,0,0,.93.69c1,.35,2.1.62,3.2.94a8.58,8.58,0,0,0-.84,1.69,6.87,6.87,0,0,0,3,7.88,10.66,10.66,0,0,0,5.93,1.56,4.18,4.18,0,0,0,3.1-1.44,11.57,11.57,0,0,0,2.58-4.8c.2.4.3.58.39.78a5.68,5.68,0,0,0,5.9,3.39,8,8,0,0,0,7-5.4,5.73,5.73,0,0,0-1.4-6.42c-.22-.23-.41-.5-.69-.84l.6-.07c3.48-.47,4.47-2.09,4.58-4.94a13.83,13.83,0,0,0-1.66-6.77,5.23,5.23,0,0,0-7.26-2.33c-1,.54-1.93,1.15-3,1.77l-.06,0c0-.21,0-.37.07-.52.22-1,.5-2,.64-3a4.67,4.67,0,0,0-2.14-4.91,8.31,8.31,0,0,0-4.62-1.3,10.6,10.6,0,0,0-7.51,2.88,5.69,5.69,0,0,0-2,3.44,8.76,8.76,0,0,0,.88,5c.1.19.18.39.27.61l-.28.42a14.66,14.66,0,0,0-2.25-.51,11.07,11.07,0,0,0-3.35,0,4.72,4.72,0,0,0-3.15,2.77,9.28,9.28,0,0,0-.78,5A7.55,7.55,0,0,0,164.45,98.28ZM178.8,109a3.49,3.49,0,0,1-3,.89c-.89-.09-1.75-.4-2.64-.54-2.39-.36-5.17-3.41-4.53-6.57a5.21,5.21,0,0,1,1.21-2.34,14.28,14.28,0,0,1,1.74-1.65l.19.18a2.44,2.44,0,0,0,1.89.58,6.78,6.78,0,0,0,3-1.07c-.07.25-.1.37-.14.49a3.3,3.3,0,0,0,1.23,3.75,4.83,4.83,0,0,0,3.38,1A7.37,7.37,0,0,1,178.8,109ZM195,101.55a7,7,0,0,1-7.07,6.38,4.48,4.48,0,0,1-3.76-2.28,19.58,19.58,0,0,1-1.19-2.54,3.31,3.31,0,0,0,1.82-3.26,5.1,5.1,0,0,1,0-.64l.28.21c1.69,1.14,2.74.83,3.9-.36a7.58,7.58,0,0,0,1.68-2.83,7.89,7.89,0,0,1,2.37,1.4A4.47,4.47,0,0,1,195,101.55Zm-4-18.65a3.92,3.92,0,0,1,5.21,2.3,28.47,28.47,0,0,1,1.38,4.64,6.12,6.12,0,0,1-.6,3.81,2.41,2.41,0,0,1-1.67,1.27,8,8,0,0,1-4.29.23,3,3,0,0,0-2.29-3.47c-.64-.15-1.3-.26-2-.4l.26-.22c.48-.35,1-.67,1.45-1.06a2.7,2.7,0,0,0,1-2.94,4.84,4.84,0,0,0-1.41-2.29A7.43,7.43,0,0,1,190.9,82.9ZM174,77.72a9.06,9.06,0,0,1,5.86-2.45,7.68,7.68,0,0,1,4,.61c2.12,1,3,2.24,2.56,4.9a26.59,26.59,0,0,1-.52,2.66,5.61,5.61,0,0,0-2.33-.41,3.25,3.25,0,0,0-2.19.72,5.1,5.1,0,0,0-1.56,2.49,7.37,7.37,0,0,1-.24.7,12.13,12.13,0,0,0-.93-1.35,6.65,6.65,0,0,0-1.45-1.31,2.76,2.76,0,0,0-2.43,0,4.81,4.81,0,0,0-1.46,1,9.91,9.91,0,0,1-.93-3.53A4.86,4.86,0,0,1,174,77.72Zm-8.6,10.16a4.48,4.48,0,0,1,3.09-1.11,9.78,9.78,0,0,1,3.24.7,4.59,4.59,0,0,0-.22,1.29,1.35,1.35,0,0,0,.13.66c.31.56.66,1.09,1,1.65a5.74,5.74,0,0,0-1,.4A4,4,0,0,0,169.82,96a4.88,4.88,0,0,0,.85,1.76l-.54.3a4.29,4.29,0,0,1-5.56-1.42C163,94.48,163.36,89.46,165.36,87.88Z"/><path class="cls-1" d="M138.2,172.94c11.08,2.9,25.38-.49,31.14-6.9-20.23,6.58-36.68-3-44.25-15.21-8-12.81-9-31.5,6.34-47.36-14.14,6.35-22.6,21.34-21.25,36.9A37.26,37.26,0,0,0,138.2,172.94Z"/><path class="cls-1" d="M289.33,70.28a24.35,24.35,0,0,1,5.83,1.48,6.93,6.93,0,0,1,4.07,4,19.36,19.36,0,0,1,1,3.4c.39,2.32.65,4.66.95,6.83.09-.86.21-1.89.3-2.92A26.43,26.43,0,0,1,302.88,76a7.13,7.13,0,0,1,3.39-3.84,16.67,16.67,0,0,1,4.72-1.5c.8-.16,1.61-.3,2.41-.45a.53.53,0,0,0-.31-.18c-1.48-.32-3-.59-4.43-1a8.45,8.45,0,0,1-4.43-2.53,10.55,10.55,0,0,1-2.18-5.21c-.32-1.67-.46-3.38-.68-5.08l-.21-1.39H301c-.08.89-.15,1.78-.26,2.67A31,31,0,0,1,299.44,64a7.08,7.08,0,0,1-4.3,4.52,34.75,34.75,0,0,1-3.78,1.08c-.83.21-1.67.33-2.51.49v.11C289,70.22,289.17,70.26,289.33,70.28Z"/><path class="cls-1" d="M316.64,257.56a12.74,12.74,0,0,1-2.65-6.32c-.38-2-.55-4.1-.83-6.15-.07-.56-.16-1.13-.24-1.69h-.17c-.11,1.08-.19,2.16-.32,3.24a37.41,37.41,0,0,1-1.6,7.83,8.57,8.57,0,0,1-5.21,5.47,44,44,0,0,1-4.59,1.32c-1,.25-2,.39-3,.58V262l.58.11a29.71,29.71,0,0,1,7.07,1.79,8.4,8.4,0,0,1,4.93,4.85,23.85,23.85,0,0,1,1.17,4.12c.47,2.81.79,5.65,1.15,8.28.11-1.05.26-2.29.37-3.54A31.52,31.52,0,0,1,315,269a8.68,8.68,0,0,1,4.1-4.66,20.35,20.35,0,0,1,5.73-1.81c1-.2,1.95-.37,2.92-.55a.63.63,0,0,0-.38-.22c-1.79-.38-3.59-.71-5.37-1.15A10.23,10.23,0,0,1,316.64,257.56Z"/><path class="cls-2" d="M55.84,291.76c-9.28-5.28-19.33-12.32-22.33-23.33a28.43,28.43,0,0,1,2.16-20c3-5.73,7.93-9.94,16.17-11.7-15.87-9-22.9-25.17-19.59-43.13,3.73-20.25,21-32,38.61-37-2.4-13-6.15-29.72.54-41,8.08-13.63,24.87-15.94,37.19-15.17a35.13,35.13,0,0,1,.23-12.55c1.44-5.9,5-12.27,11-15.4,9.62-5,22-2.39,29.75,3.58,11.71-19,35.35-31.77,57.65-31.31a64.59,64.59,0,0,1,54.35,30.93c10.2-9.7,27.21-13.44,39.22-6.11C316.29,79,322.26,92,321,106c21,.22,40.91,9.25,52.85,26.5s10,39.53,2.82,59.24c10.48,2.7,21.4,9.35,20.72,23-.54,10.86-6.83,17.72-16.09,22.41,6.85,10.55,3.61,26.33-12.63,28.1"/><path class="cls-1" d="M17.69,142.91a8.81,8.81,0,0,1-4,1.79,5.61,5.61,0,0,1-4-.83A7.8,7.8,0,0,1,6.51,140a10.35,10.35,0,0,1-.65-4.95,10.7,10.7,0,0,1,1.37-4.38,4.79,4.79,0,0,1,2.4-2.3,2.48,2.48,0,0,1,2.32.4,4.36,4.36,0,0,1,1.36,1.71,5.17,5.17,0,0,1,.54,2.32,4.11,4.11,0,0,1-.56,2.19,5.58,5.58,0,0,0-.86-.74,2.29,2.29,0,0,0-1.83-.52,2,2,0,0,0-1.34,1.06,7.19,7.19,0,0,0-.79,2.64,8.79,8.79,0,0,0,.14,3.28A3.61,3.61,0,0,0,10.12,143a2.49,2.49,0,0,0,2.81,0,7.66,7.66,0,0,0,2.59-2.87,17,17,0,0,0,1.78-4.61,19,19,0,0,0,.52-5.37A36.25,36.25,0,0,0,16,120.8a69.49,69.49,0,0,0-4.26-10.29c-.82-1.4-2-3.24-3.33-5.42a7.6,7.6,0,0,0-.57-1l-1-1.69c-.72,1-1.08,1.49-1.79,2.5a14.53,14.53,0,0,0-2.61,6.24,11.9,11.9,0,0,0,.41,5.74,7.57,7.57,0,0,0,2.48,3.73,3.1,3.1,0,0,0,2.44.65,3.4,3.4,0,0,0,2.2-1.69,3.8,3.8,0,0,0,.62-2.41,2.83,2.83,0,0,0-1.1-2.11,1.29,1.29,0,0,0-1.27-.2,2.1,2.1,0,0,0-1.1.87,1.8,1.8,0,0,0-.32.82,1.06,1.06,0,0,0,.18.74,1.19,1.19,0,0,1-.74.58.94.94,0,0,1-.81-.19,1.91,1.91,0,0,1-.66-1.58,4.36,4.36,0,0,1,.87-2.48,4.79,4.79,0,0,1,2.57-2.15,2.63,2.63,0,0,1,2.44.49,4.07,4.07,0,0,1,1.3,2,6.53,6.53,0,0,1,.11,3,9.25,9.25,0,0,1-1.44,3.44A12.42,12.42,0,0,1,6.28,125a3.38,3.38,0,0,1-3.7-.08c-1.19-.85-2-2.41-2.39-4.69a18.53,18.53,0,0,1,.61-7.89A27.23,27.23,0,0,1,5,103.59C8.22,99.12,9.85,97,13.19,92.74c7.61,2.65,11.81,4.9,19.58,8.7a4.59,4.59,0,0,0,2.07.43,2.51,2.51,0,0,0,1.49-1l.39.38c-3.71,4.41-5.52,6.7-9,11.44l-.42-.35a2.48,2.48,0,0,0,.63-1.61,1.62,1.62,0,0,0-.59-1.15,2.16,2.16,0,0,0-.64-.41c-3.06-1.28-4.63-2-7.75-3.19-1.6,2.15-2.4,3.24-4,5.46a53.45,53.45,0,0,1,6.4,12.21,22.78,22.78,0,0,1,1.45,9.13,15.42,15.42,0,0,1-2,6.66A12.2,12.2,0,0,1,17.69,142.91Zm-.08-37.48c-3.48-1.38-5.24-2-8.64-3.1,2,3,3,4.64,5.18,7.86C15.52,108.26,16.21,107.31,17.61,105.43Z"/><path class="cls-1" d="M47.64,96a3.61,3.61,0,0,0,.06-2.31,5.38,5.38,0,0,0-1.17-1.85l-1.92-2.06a8.41,8.41,0,0,1-2,3.74,11.11,11.11,0,0,1-4.48,3.14,8.2,8.2,0,0,1-4.62.34,7.83,7.83,0,0,1-3.77-2A9.18,9.18,0,0,1,27,90.22a9.74,9.74,0,0,1,.37-5.14,12.3,12.3,0,0,1,2.65-4.39,9.06,9.06,0,0,1,3.79-2.56l-.56-.6c3.27-3.38,4.94-5,8.33-8.19l.3.35a2.63,2.63,0,0,0-.7,1.42,2.58,2.58,0,0,0,.52,1.52,24.78,24.78,0,0,0,2.1,2.69c3.54,4.13,5.36,6.33,8.83,10.32a5.05,5.05,0,0,0,1.68,1.29,3.06,3.06,0,0,0,2.18,0l.3.33c-3.63,3.5-5.4,5.31-8.87,9.07Zm-3.49-6.72c-3.87-4.19-5.89-6.47-9.72-10.56a6,6,0,0,0-.83.72,4.57,4.57,0,0,0-1.23,4.28A9.28,9.28,0,0,0,35,88.41a9.29,9.29,0,0,0,4.57,2.78A4,4,0,0,0,43.64,90C43.74,89.86,43.91,89.64,44.15,89.32Z"/><path class="cls-1" d="M58.52,78.37a5.92,5.92,0,0,1-3.16.24,4.69,4.69,0,0,1-2.72-1.76c-1.79-2.19-2.69-3.31-4.47-5.5a23.25,23.25,0,0,0-2.27-2.52,2.38,2.38,0,0,0-1.37-.72,2.44,2.44,0,0,0-1.44.56l-.29-.35c3.4-3.15,5.14-4.67,8.66-7.63C54.41,64.5,56,66.59,59,70.6a3.26,3.26,0,0,0,1.9,1.34,2,2,0,0,0,1.83-.43,2.8,2.8,0,0,0,.78-1.17,4.35,4.35,0,0,0,.23-1.75c-1.88-2.61-2.84-4-4.72-6.54a24.74,24.74,0,0,0-2.1-2.64,2.3,2.3,0,0,0-1.32-.79,2.38,2.38,0,0,0-1.46.46l-.27-.36c3.56-2.91,5.36-4.31,9-7,3,4.43,4.63,6.89,7.73,11.53a6.22,6.22,0,0,0,1.83,1.93,1.66,1.66,0,0,0,1.88,0l.25.39c-2.18,1.62-3.26,2.44-5.4,4.14a3.77,3.77,0,0,1-2.51,1,3.06,3.06,0,0,1-2.16-1,7.26,7.26,0,0,1-.65,3.81,9.12,9.12,0,0,1-2.34,3.2A9,9,0,0,1,58.52,78.37Z"/><path class="cls-1" d="M75.47,64.28A3.67,3.67,0,0,0,75.92,62a5.67,5.67,0,0,0-.81-2.05c-2.09-3.3-3.16-5-5.24-8.27a6.1,6.1,0,0,0-1.78-2,2.05,2.05,0,0,0-2,.18l-.25-.38c3.71-2.65,5.59-3.93,9.4-6.39,2.76,4.61,4.2,7.15,7,12a5.31,5.31,0,0,0,1.42,1.63,3.13,3.13,0,0,0,2.15.47l.23.4c-4.21,2.72-6.28,4.14-10.34,7.11Z"/><path class="cls-1" d="M94.59,51.78a3.59,3.59,0,0,0,.68-2.21,5.56,5.56,0,0,0-.6-2.1c-2.39-4.75-3.61-7.24-6-11.82a21.53,21.53,0,0,0-1.61-2.77A2.22,2.22,0,0,0,85.92,32a2.58,2.58,0,0,0-1.51.26l-.22-.4c4-2.28,6-3.38,10.14-5.47,1,2.08,1.55,3.18,2.61,5.43a13.12,13.12,0,0,1,2.3-2.29A14.49,14.49,0,0,1,102,27.78a11.79,11.79,0,0,1,3.93-1.16,6.27,6.27,0,0,1,3.4.48,4.06,4.06,0,0,1,2.08,2.29c1.26,3.19,1.89,4.84,3.15,8a5.13,5.13,0,0,0,1.16,1.82,3.17,3.17,0,0,0,2.05.8l.16.42c-4.6,2-6.87,3.08-11.34,5.33-.08-.17-.12-.25-.19-.42a3.55,3.55,0,0,0,.81-2.16,5.47,5.47,0,0,0-.48-2.12c-1.35-3.13-2-4.72-3.39-7.83a3.48,3.48,0,0,0-1.92-2.06,3.18,3.18,0,0,0-2.59.23,5.52,5.52,0,0,0-1.51,1.14c2,4.21,3,6.45,4.94,10.77a5.33,5.33,0,0,0,1.26,1.75,3.12,3.12,0,0,0,2.09.68c.07.17.11.25.19.42-4.47,2.27-6.66,3.46-11,6Z"/><path class="cls-1" d="M122.33,38.49a5.68,5.68,0,0,1-2.93-.78,4.29,4.29,0,0,1-1.87-2.26,4.35,4.35,0,0,1,.12-3.18,8.89,8.89,0,0,1,2.72-3.42,18.86,18.86,0,0,1,5.45-3c.63-.24,1.11-.4,1.44-.5-.51-1.58-.76-2.37-1.27-3.93a3,3,0,0,0-1.23-1.74,1.82,1.82,0,0,0-1.64-.16,2,2,0,0,0-1.19,1.22A3.08,3.08,0,0,0,122,22.9a3.37,3.37,0,0,0,2.24,2.18,13.3,13.3,0,0,1-3.31,2.06,4.53,4.53,0,0,1-2.87.35,2.21,2.21,0,0,1-1.58-1.39,3.65,3.65,0,0,1,1.06-3.9,12.64,12.64,0,0,1,5-3.16A16.33,16.33,0,0,1,128,18,9.55,9.55,0,0,1,133,19.08a6,6,0,0,1,2.84,3.76l1.65,5.77A6.23,6.23,0,0,0,138.61,31a1.72,1.72,0,0,0,1.81.54c.05.18.08.27.13.44-2.61.84-3.9,1.27-6.48,2.18a4,4,0,0,1-2.56.17,2.93,2.93,0,0,1-1.72-1.42A5.62,5.62,0,0,1,128.36,36a7.61,7.61,0,0,1-2.85,1.94A8.32,8.32,0,0,1,122.33,38.49Zm5.2-12.31a5.25,5.25,0,0,0-2.8,2.74,4.88,4.88,0,0,0-.15,3.54A2.56,2.56,0,0,0,125.82,34a2,2,0,0,0,1.69.09,2.45,2.45,0,0,0,1.14-.89,3.52,3.52,0,0,0,.64-1.54C128.59,29.5,128.23,28.39,127.53,26.18Z"/><path class="cls-1" d="M144.62,34.1l.44-.26a3.91,3.91,0,0,0,1.75.25,8.93,8.93,0,0,0,2.23-.36,7.85,7.85,0,0,0,2.9-1.46,3.43,3.43,0,0,0,1.36-2.38c.07-.66.11-1,.19-1.66-2.69.7-4,1.07-6.71,1.84-.06-.2-.08-.3-.14-.5a.67.67,0,0,0,.46-.53,1.72,1.72,0,0,0,0-.9,1.75,1.75,0,0,0-.42-.77c-4-4-6.1-6.1-10.37-9.89a8.19,8.19,0,0,0-1.8-1.13,2.17,2.17,0,0,0-1.54-.18c-.06-.21-.1-.31-.16-.52,5.05-1.67,7.59-2.43,12.71-3.83.06.21.08.32.13.53-1,.27-1.41.76-1.24,1.45a2,2,0,0,0,.54.9c3.65,3.47,5.43,5.34,8.89,9,.09-1.09.13-1.64.23-2.73a20,20,0,0,0-.09-5.56,5.06,5.06,0,0,0-1.56-2.87A5.46,5.46,0,0,0,149,11.42l-.12-.5c3.69-.95,5.55-1.39,9.27-2.2l.1.5a5,5,0,0,0-1.75,2.32,19.24,19.24,0,0,0-1.29,4.79c-.45,4.69-.65,7.11-1,11.71-.22,2.36-.33,3.52-.52,5.77a4,4,0,0,1-2,3A13.06,13.06,0,0,1,148,38.6C146.66,36.87,146,36,144.62,34.1Z"/><path class="cls-1" d="M180.67,23.05c-.52,0-1.28-.1-2.24-.21-.55-.06-1.11-.13-1.66-.16a5.81,5.81,0,0,0-1.35,0,1.42,1.42,0,0,0-.81.34.86.86,0,0,0-.18.77l-.7.12c-1-6.77-1.48-10.47-2.49-17.16a22.3,22.3,0,0,0-.63-3.14,2.22,2.22,0,0,0-.81-1.24,2.6,2.6,0,0,0-1.52-.28c0-.17,0-.25-.07-.42C172.75.92,175,.58,179.6,0c.3,2.32.45,3.54.73,6,1.56-.64,2.35-1,3.92-1.57a11.55,11.55,0,0,1,5.61.63,8.22,8.22,0,0,1,3.72,2.82,7.38,7.38,0,0,1,1.4,3.9,8.38,8.38,0,0,1-1.28,4.83,12,12,0,0,1-4.36,4.11A18.91,18.91,0,0,1,182.15,23,8,8,0,0,1,180.67,23.05Zm4.06-2.57a8.79,8.79,0,0,0,1.43-3.42,13.58,13.58,0,0,0,.22-4,9.35,9.35,0,0,0-1.55-4.67,3.37,3.37,0,0,0-3.34-1.58,4.17,4.17,0,0,0-1,.26c.69,6,1,9.29,1.7,15.35A4.85,4.85,0,0,0,184.73,20.48Z"/><path class="cls-1" d="M202.51,20.67a6.11,6.11,0,0,1-2.64-1.77,4.75,4.75,0,0,1-1.12-3L198.45,9a25.25,25.25,0,0,0-.3-3.29,2.47,2.47,0,0,0-.66-1.38A2.44,2.44,0,0,0,196,3.91c0-.18,0-.27,0-.44,4.52-.3,6.78-.4,11.3-.5.07,4.71.09,7.22.14,12.11a3.28,3.28,0,0,0,.73,2.17,2.09,2.09,0,0,0,1.72.8,2.54,2.54,0,0,0,1.31-.41,3.9,3.9,0,0,0,1.21-1.19c0-3.13.05-4.72.07-7.85a24.19,24.19,0,0,0-.13-3.29,2.38,2.38,0,0,0-.58-1.42,2.5,2.5,0,0,0-1.42-.53V2.91c4.52-.05,6.78,0,11.31.12-.2,5.28-.34,8.11-.56,13.55a6.17,6.17,0,0,0,.34,2.6A1.75,1.75,0,0,0,223,20.3c0,.18,0,.27,0,.45-2.72-.1-4.08-.13-6.8-.15a4,4,0,0,1-2.59-.8,3.14,3.14,0,0,1-1.13-2.1,6.57,6.57,0,0,1-2.76,2.49,8.74,8.74,0,0,1-3.76,1A9.22,9.22,0,0,1,202.51,20.67Z"/><path class="cls-1" d="M230.26,20.64a9.73,9.73,0,0,1-4-3.21,8,8,0,0,1-1.37-5.26,8.84,8.84,0,0,1,1.52-4.49,9,9,0,0,1,4.17-3.24,14,14,0,0,1,6.69-.8,15.89,15.89,0,0,1,6.43,1.84,3.88,3.88,0,0,1,2.24,4.11,4.53,4.53,0,0,1-2.79,3.63,11,11,0,0,1-5.8.83,19.19,19.19,0,0,1-3.55-.73,8.28,8.28,0,0,0,1.27,3.28,7.38,7.38,0,0,0,2.25,2.21,6.17,6.17,0,0,0,2.65.93,4,4,0,0,0,2.76-.64,4.56,4.56,0,0,0,1.73-2.6l.72.09a6,6,0,0,1-1.81,3.23,8.15,8.15,0,0,1-3.44,1.83,12.62,12.62,0,0,1-4.33.34A16.6,16.6,0,0,1,230.26,20.64Zm4.2-7.83a4,4,0,0,0,3.5-1.47A7.5,7.5,0,0,0,239.72,7a3.77,3.77,0,0,0-.19-1.93,1.26,1.26,0,0,0-1.11-.84,3.33,3.33,0,0,0-3.21,1.65,9.65,9.65,0,0,0-1.52,4.69,12,12,0,0,0,0,2.08C234,12.75,234.29,12.79,234.46,12.81Z"/><path class="cls-1" d="M245.85,22.2a3.38,3.38,0,0,0,1.83-1.32,5,5,0,0,0,.72-2c.46-3.11.7-4.7,1.17-7.81a25.65,25.65,0,0,0,.33-3.26,2.38,2.38,0,0,0-.38-1.48,2.48,2.48,0,0,0-1.33-.72c0-.18,0-.27.06-.44,4.49.59,6.73.94,11.19,1.73-.18,1-.27,1.48-.46,2.48a8.3,8.3,0,0,1,3.54-1.46,10.86,10.86,0,0,1,3.94.06,10.12,10.12,0,0,1,3.39,1.35A6.08,6.08,0,0,1,272,11.68a4.23,4.23,0,0,1,.31,3c-.78,3.29-1.18,5-2,8.26a5.06,5.06,0,0,0-.09,2.14,3.27,3.27,0,0,0,1.23,1.86c0,.18-.07.26-.11.44-4.92-1.18-7.39-1.71-12.35-2.64,0-.17.05-.26.08-.44a3.36,3.36,0,0,0,1.91-1.21,5.29,5.29,0,0,0,.82-2c.64-3.15,1-4.75,1.61-7.89a3.34,3.34,0,0,0-.27-2.48,2.42,2.42,0,0,0-1.69-1.16,3.68,3.68,0,0,0-2.69.6c-.73,4-1.11,6-1.84,10a5,5,0,0,0,0,2.14,3.27,3.27,0,0,0,1.32,1.79c0,.18-.05.27-.08.45-5-.91-7.46-1.3-12.47-2C245.81,22.47,245.82,22.38,245.85,22.2Z"/><path class="cls-1" d="M276.15,28.45a5.92,5.92,0,0,1-1.95-2.38,4.28,4.28,0,0,1-.25-2.91,4,4,0,0,1,1.89-2.44A8.55,8.55,0,0,1,280,19.64a18.88,18.88,0,0,1,6.13.9c.64.19,1.12.34,1.45.46.48-1.56.71-2.34,1.18-3.88a3,3,0,0,0,0-2.12,1.92,1.92,0,0,0-1.24-1.11,2,2,0,0,0-1.67.26,2.91,2.91,0,0,0-1.17,1.75,3.39,3.39,0,0,0,.59,3.06,13.36,13.36,0,0,1-3.86-.34,4.7,4.7,0,0,1-2.54-1.46,2.22,2.22,0,0,1-.5-2c.34-1.31,1.36-2.14,3.08-2.46a12.86,12.86,0,0,1,5.85.47,16.62,16.62,0,0,1,5.1,2.46,10.07,10.07,0,0,1,3.35,3.85,6,6,0,0,1,.2,4.69c-.76,2.22-1.15,3.35-1.9,5.56a6.14,6.14,0,0,0-.4,2.57,1.79,1.79,0,0,0,1.16,1.53l-.15.42c-2.58-.9-3.88-1.33-6.48-2.16a4.16,4.16,0,0,1-2.17-1.4,3,3,0,0,1-.6-2.16,5.27,5.27,0,0,1-2.89,1.57,7.56,7.56,0,0,1-3.43-.17A8.62,8.62,0,0,1,276.15,28.45Zm11.17-6.64a5.06,5.06,0,0,0-3.81.5A4.59,4.59,0,0,0,281.4,25a2.58,2.58,0,0,0,.12,2,2.18,2.18,0,0,0,1.32,1.09,2.53,2.53,0,0,0,1.44,0,3.23,3.23,0,0,0,1.39-.84Z"/><path class="cls-1" d="M309.92,39.72a10.06,10.06,0,0,1-2.76-4.41,8,8,0,0,1,.36-5.42,8.71,8.71,0,0,1,2.87-3.73,8.83,8.83,0,0,1,5-1.66A14.24,14.24,0,0,1,322,26a16,16,0,0,1,5.51,3.94,3.92,3.92,0,0,1,.79,4.67,4.49,4.49,0,0,1-3.85,2.5,11,11,0,0,1-5.76-1.21,19.88,19.88,0,0,1-3.11-1.9,8.59,8.59,0,0,0,.14,3.55,7.73,7.73,0,0,0,1.4,2.86,6.4,6.4,0,0,0,2.19,1.8,3.94,3.94,0,0,0,2.81.35,4.52,4.52,0,0,0,2.48-1.87l.65.33a5.77,5.77,0,0,1-2.78,2.44,7.82,7.82,0,0,1-3.83.55,12.36,12.36,0,0,1-4.17-1.18A17.08,17.08,0,0,1,309.92,39.72Zm6.48-6a4,4,0,0,0,3.79-.2,7.46,7.46,0,0,0,3.07-3.5,4,4,0,0,0,.45-1.89,1.32,1.32,0,0,0-.79-1.18,3.35,3.35,0,0,0-3.59.49,9.48,9.48,0,0,0-2.95,3.93,12.22,12.22,0,0,0-.67,2A7.58,7.58,0,0,0,316.4,33.74Z"/><path class="cls-1" d="M324,46.6A3.3,3.3,0,0,0,326.2,46a5.18,5.18,0,0,0,1.35-1.66l3.73-7.06a25,25,0,0,0,1.41-3,2.45,2.45,0,0,0,.13-1.54,2.64,2.64,0,0,0-1-1.15c.09-.16.13-.24.21-.4,4.08,2.12,6.1,3.22,10.1,5.54l-1.28,2.21a8.35,8.35,0,0,1,3.89-.16,10.87,10.87,0,0,1,3.74,1.45,9.94,9.94,0,0,1,2.79,2.5,6.12,6.12,0,0,1,1.27,3,4.41,4.41,0,0,1-.77,3l-4.89,7.28a5.31,5.31,0,0,0-.86,2,3.38,3.38,0,0,0,.47,2.25c-.1.16-.16.23-.26.39-4.19-2.94-6.32-4.34-10.65-7,.1-.15.14-.23.24-.39a3.3,3.3,0,0,0,2.21-.49,5.1,5.1,0,0,0,1.46-1.59l4.31-7a3.42,3.42,0,0,0,.61-2.47A2.46,2.46,0,0,0,343.15,40a3.68,3.68,0,0,0-2.76-.37c-2.05,3.54-3.13,5.38-5.22,9a5.18,5.18,0,0,0-.71,2.06,3.45,3.45,0,0,0,.61,2.2l-.23.39c-4.34-2.65-6.54-3.9-11-6.28Z"/><path class="cls-1" d="M352.46,64.65a10.23,10.23,0,0,1-1.68-5,8.39,8.39,0,0,1,1.67-5.37,9,9,0,0,1,3.75-3.1,9.15,9.15,0,0,1,5.39-.57,14.69,14.69,0,0,1,6.32,3,16.17,16.17,0,0,1,4.63,5.17,4,4,0,0,1-.33,4.88,4.79,4.79,0,0,1-4.51,1.67,11.21,11.21,0,0,1-5.51-2.5,19,19,0,0,1-2.66-2.61,8.89,8.89,0,0,0-.73,3.61,7.83,7.83,0,0,0,.7,3.2,6.55,6.55,0,0,0,1.75,2.31,4.06,4.06,0,0,0,2.74,1,4.85,4.85,0,0,0,3-1.34l.57.49a6.28,6.28,0,0,1-3.41,1.84,8,8,0,0,1-4-.31,12.62,12.62,0,0,1-3.89-2.13A17.36,17.36,0,0,1,352.46,64.65Zm7.94-4.57a4.15,4.15,0,0,0,3.86.64,7.92,7.92,0,0,0,3.95-2.84,4,4,0,0,0,.9-1.8,1.31,1.31,0,0,0-.52-1.36,3.44,3.44,0,0,0-3.72-.31,10,10,0,0,0-3.91,3.3,12.05,12.05,0,0,0-1.15,1.83A7.16,7.16,0,0,0,360.4,60.08Z"/><path class="cls-1" d="M364.93,74.77a3.42,3.42,0,0,0,2.33-.14A5.6,5.6,0,0,0,369,73.25c2.2-2.52,3.34-3.8,5.53-6.31a25,25,0,0,0,2.16-2.72,2.48,2.48,0,0,0,.5-1.51,2.55,2.55,0,0,0-.77-1.39l.3-.36c3.64,3,5.42,4.6,8.94,7.82l-2.92,3.11a11.31,11.31,0,0,1,4.51-.18,6.77,6.77,0,0,1,3.81,1.75,3.79,3.79,0,0,1,1.36,2.63,3,3,0,0,1-.95,2.28,2.68,2.68,0,0,1-2.34.78,4.13,4.13,0,0,1-2.37-1.22,4.23,4.23,0,0,1-1.28-2.41,2.76,2.76,0,0,1,.82-2.43,2.36,2.36,0,0,1,.65-.43,9.59,9.59,0,0,0-2.38-.09,17.63,17.63,0,0,0-2.91.45c-2.37,2.51-3.6,3.8-6,6.31a5.67,5.67,0,0,0-1.23,1.93,3.49,3.49,0,0,0,.09,2.37l-.34.35c-3.77-3.67-5.69-5.44-9.61-8.85C364.74,75,364.8,74.91,364.93,74.77Z"/><path class="cls-1" d="M378.43,102.8a14.19,14.19,0,0,1-1.72-3.86,2.68,2.68,0,0,1,.49-2.72,1.89,1.89,0,0,1,2.12-.23,6.35,6.35,0,0,1,2.49,1.75,5.84,5.84,0,0,1,1,1.56,2.83,2.83,0,0,1,.22,1.53,1.49,1.49,0,0,0-1.62.32,2.45,2.45,0,0,0-.72,1.48,4.63,4.63,0,0,0,.24,2.15,7.23,7.23,0,0,0,1.39,2.39,14.43,14.43,0,0,0,3.58,3.18c1.25.73,2.21.82,2.92.24s.61-1.4.07-2.75a45.94,45.94,0,0,0-3-5.73c-1.17-2-2.09-3.58-2.76-4.79a13.25,13.25,0,0,1-1.36-3.45,2.49,2.49,0,0,1,.54-2.49,4.21,4.21,0,0,1,2.48-1.11,13.31,13.31,0,0,1,3.63.17,10.3,10.3,0,0,1-.65-4.41,5.31,5.31,0,0,1,1.7-3.5,5.47,5.47,0,0,1,4.77-1.59,12.52,12.52,0,0,1,5.37,2.22,26.77,26.77,0,0,1,4.78,4.23A26.27,26.27,0,0,1,408,92.54a12.87,12.87,0,0,1,1.61,5.72,5.41,5.41,0,0,1-2.26,4.63,5.69,5.69,0,0,1-4.93,1,14.8,14.8,0,0,1-5.36-2.49,24.49,24.49,0,0,1-4.38-3.93,26.18,26.18,0,0,1-2.24-3,20.1,20.1,0,0,1-1.74-3.38l-.32,0a1.44,1.44,0,0,0-.74.31c-.45.42-.38,1.17.2,2.26s1.64,2.69,3.12,4.85a64.5,64.5,0,0,1,3.64,5.92,13.83,13.83,0,0,1,1.58,4.75,3.61,3.61,0,0,1-1.31,3.5,4.72,4.72,0,0,1-3.78.84,11.75,11.75,0,0,1-4.82-2.14,26.78,26.78,0,0,1-5.09-4.8A29.41,29.41,0,0,1,378.43,102.8Zm17.83-5.37a14.92,14.92,0,0,0,4.51-2.69A12.92,12.92,0,0,0,404,90.93c.67-1.29.64-2.33-.05-3.1a3.19,3.19,0,0,0-3.46-.8,11.12,11.12,0,0,0-4.42,2.54,11.93,11.93,0,0,0-3.14,4.09c-.63,1.43-.57,2.58.19,3.46C393.76,97.84,394.79,98,396.26,97.43Zm13.46-5.08a2.52,2.52,0,0,0-.69-.61L408.6,91a4.25,4.25,0,0,1,1.56-.09,7.33,7.33,0,0,1,2.33.59,5.58,5.58,0,0,1,2.56,2.26,3.71,3.71,0,0,1,.66,2,1.74,1.74,0,0,1-.65,1.37,1.9,1.9,0,0,1-1.59.34,2.72,2.72,0,0,1-1.64-1,4.45,4.45,0,0,1-.75-1.41A8.7,8.7,0,0,0,409.72,92.35Z"/><path class="cls-1" d="M399.36,111.76a3.59,3.59,0,0,0,2.44.37,5.86,5.86,0,0,0,2.15-1l8.6-6.4a6.55,6.55,0,0,0,2-2.1,2.26,2.26,0,0,0-.3-2.16l.39-.3c3.05,3.89,4.54,5.89,7.44,10-4.78,3.34-7.51,5.21-12.6,8.73a5.86,5.86,0,0,0-1.69,1.72,3.69,3.69,0,0,0-.41,2.47l-.42.28c-3.13-4.61-4.74-6.86-8-11.23Z"/><path class="cls-1" d="M410.08,127.7a6.68,6.68,0,0,1,.2-3.45,5,5,0,0,1,2-2.63,4.67,4.67,0,0,1,3.45-.67,9.5,9.5,0,0,1,4.3,2.14,20.64,20.64,0,0,1,4.46,5.31c.39.64.68,1.13.86,1.48l4-2.41a3.34,3.34,0,0,0,1.6-1.79,2.17,2.17,0,0,0-.21-1.85,2.21,2.21,0,0,0-1.59-1,3.2,3.2,0,0,0-2.3.59,3.9,3.9,0,0,0-1.85,3,14.67,14.67,0,0,1-3-3.15,5.18,5.18,0,0,1-1-3.11,2.55,2.55,0,0,1,1.14-2.09q1.92-1.27,4.42.22a14.33,14.33,0,0,1,4.55,4.74,19,19,0,0,1,2.45,5.87,11.16,11.16,0,0,1-.08,5.78,6.94,6.94,0,0,1-3.45,4.14l-6,3.33a7.12,7.12,0,0,0-2.32,1.89,2.06,2.06,0,0,0-.19,2.18l-.44.24c-1.5-2.73-2.26-4.08-3.81-6.75a4.6,4.6,0,0,1-.75-2.81,3.45,3.45,0,0,1,1.15-2.28,5.86,5.86,0,0,1-3.61-.84,8.26,8.26,0,0,1-2.71-2.71A9.48,9.48,0,0,1,410.08,127.7Zm14.45,2.69a5.56,5.56,0,0,0-3.6-2.42,5.26,5.26,0,0,0-3.87.74,3,3,0,0,0-1.44,1.78,2.4,2.4,0,0,0,.27,1.9,2.73,2.73,0,0,0,1.21,1.06,3.78,3.78,0,0,0,1.81.33Z"/><polygon class="cls-1" points="68.17 44.14 67.11 43.89 64.64 36.58 71.06 36.35 72.02 37.04 71.7 43.44 68.17 44.14"/><polygon class="cls-1" points="420.36 101.84 420.76 101.23 428.41 99.98 427.63 106.01 426.2 107.01 420.49 105.83 420.36 101.84"/><path class="cls-1" d="M126.4,457.34a6.61,6.61,0,0,0,3.13-3.3,11.8,11.8,0,0,0,.8-4.4v-20a15,15,0,0,0-.76-5.57,3.87,3.87,0,0,0-3.17-2.13v-1h20.44v28.69a11.66,11.66,0,0,0,.79,4.43,6.69,6.69,0,0,0,3.13,3.27v1H126.4Zm7.33-42.14a6.42,6.42,0,0,1-2-4.71,6.35,6.35,0,0,1,2-4.65,6.46,6.46,0,0,1,4.71-2,6.33,6.33,0,0,1,4.68,2,6.4,6.4,0,0,1,1.93,4.65,6.47,6.47,0,0,1-1.93,4.71,6.29,6.29,0,0,1-4.68,2A6.42,6.42,0,0,1,133.73,415.2Z"/><path class="cls-1" d="M154.89,444.89h1a11.38,11.38,0,0,0,3.06,5.92,20.34,20.34,0,0,0,5.92,4.5,13.21,13.21,0,0,0,5.81,1.69c2.07,0,3.1-.87,3.1-2.62a6.33,6.33,0,0,0-.89-3,9.7,9.7,0,0,0-2.89-3.06l-1.17-.83q-4.68-3.51-7.68-5.95a35,35,0,0,1-5.29-5.33,8.93,8.93,0,0,1-2.31-5.44,8.17,8.17,0,0,1,2.1-5.6,13.12,13.12,0,0,1,5.64-3.62,24.12,24.12,0,0,1,7.95-1.23,18.27,18.27,0,0,1,4,.44c1.3.3,2.74.7,4.3,1.21a17.88,17.88,0,0,0,3.92.89,1.72,1.72,0,0,0,1.31-.45,2.15,2.15,0,0,0,.41-1.47h1v11.62h-1a8.54,8.54,0,0,0-1.89-5.33,13.9,13.9,0,0,0-4.61-3.85,11.11,11.11,0,0,0-5.06-1.41,4.12,4.12,0,0,0-2.65.79,2.84,2.84,0,0,0-1,2.37,7.09,7.09,0,0,0,1.27,4.06,14,14,0,0,0,3.1,3.24c1.22.91,2.9,2.08,5.06,3.5s4.1,2.72,5.43,3.75a15.37,15.37,0,0,1,3.41,3.69,8.54,8.54,0,0,1-.28,9.8,11.56,11.56,0,0,1-5.09,3.72,22.1,22.1,0,0,1-8.43,1.41c-.91,0-1.6,0-2.06-.07-.73-.05-1.66-.14-2.79-.28s-2-.23-2.51-.27a43.5,43.5,0,0,0-6.26-.62,2.42,2.42,0,0,0-2.48,1.24h-1.37Z"/><path class="cls-1" d="M199,455.42q-5.61-2.9-5.61-10.74V423.22h-3.72V421a23.58,23.58,0,0,0,7.68-2.52,25.2,25.2,0,0,0,7-5.33,17.65,17.65,0,0,0,4.17-7.22h1.37V421h4.82v2.27h-4.82v24.56a34.22,34.22,0,0,0,.21,4.23,6.06,6.06,0,0,0,1.27,3,5.83,5.83,0,0,0,3.41,1.93v1.38Q204.57,458.31,199,455.42Z"/><path class="cls-1" d="M230.3,457.41a21.58,21.58,0,0,1-9.08-6.36,16.56,16.56,0,0,1-3.72-11.11q0-7.23,3.68-11.6a19.94,19.94,0,0,1,9-6.16,33.22,33.22,0,0,1,10.66-1.79,32.77,32.77,0,0,1,10.43,1.79,20.88,20.88,0,0,1,9.15,6.16q3.83,4.38,3.82,11.6A16.25,16.25,0,0,1,260.4,451a22.18,22.18,0,0,1-9.25,6.4,28.17,28.17,0,0,1-20.85,0Zm14.58-4.85a50.62,50.62,0,0,0,1.45-12.9,49.38,49.38,0,0,0-1.41-12.59q-1.41-5.29-4-5.3-3.09,0-4.85,5.37a47.28,47.28,0,0,0,0,25.49q1.76,5.4,4.85,5.4Q243.44,458,244.88,452.56Z"/><path class="cls-1" d="M267,457.34a6.66,6.66,0,0,0,3.13-3.3,11.8,11.8,0,0,0,.79-4.4V433.05a62.12,62.12,0,0,0-.27-6.94,5.74,5.74,0,0,0-1.07-3,4.16,4.16,0,0,0-2.58-1.17v-1H287.4v8.6a23.14,23.14,0,0,1,5.44-6.44,10.58,10.58,0,0,1,6.74-2.78,6.06,6.06,0,0,1,4.82,1.89,6.7,6.7,0,0,1,1.65,4.57,5.4,5.4,0,0,1-1.86,4.34,6.58,6.58,0,0,1-4.4,1.58,6.75,6.75,0,0,1-4.54-1.65,5.73,5.73,0,0,1-1.93-4.61,5.08,5.08,0,0,1,.28-1.51,17.21,17.21,0,0,0-3.06,3.13,33.67,33.67,0,0,0-3.14,4.57v17a11.86,11.86,0,0,0,.79,4.43,6.71,6.71,0,0,0,3.14,3.27v1H267Z"/><path class="cls-1" d="M308.8,457.34a6.66,6.66,0,0,0,3.13-3.3,11.8,11.8,0,0,0,.79-4.4v-20A15.05,15.05,0,0,0,312,424a3.87,3.87,0,0,0-3.17-2.13v-1h20.44v28.69a11.66,11.66,0,0,0,.79,4.43,6.64,6.64,0,0,0,3.13,3.27v1H308.8Zm7.33-42.14a6.42,6.42,0,0,1-2-4.71,6.35,6.35,0,0,1,2-4.65,6.46,6.46,0,0,1,4.71-2,6.33,6.33,0,0,1,4.68,2,6.44,6.44,0,0,1,1.93,4.65,6.51,6.51,0,0,1-1.93,4.71,6.29,6.29,0,0,1-4.68,2A6.42,6.42,0,0,1,316.13,415.2Z"/><path class="cls-1" d="M342.52,458.07a11.74,11.74,0,0,1-4.79-3.89,9.84,9.84,0,0,1-1.82-5.85,9,9,0,0,1,2.31-5.95,16.13,16.13,0,0,1,6.94-4.41,33.75,33.75,0,0,1,11.39-1.68c1.24,0,2.18,0,2.82.07v-8.6a7.33,7.33,0,0,0-1.13-4.37,3.32,3.32,0,0,0-2.72-1.55,3.39,3.39,0,0,0-2.75,1.55,7,7,0,0,0-1.17,4.3,7.62,7.62,0,0,0,2.61,5.92,20.77,20.77,0,0,1-7,1.51,7.82,7.82,0,0,1-5.22-1.58,5,5,0,0,1-1.86-3.93q0-4.32,4.26-6.77a20.61,20.61,0,0,1,10.39-2.45,27.51,27.51,0,0,1,10.08,1.9,18.89,18.89,0,0,1,8,5.67,14.23,14.23,0,0,1,3.1,9.29v12.39a14.19,14.19,0,0,0,.86,5.43,3.43,3.43,0,0,0,3.06,2.27v1H366.67a7.41,7.41,0,0,1-4.79-1.48,6.59,6.59,0,0,1-2.3-4,10.57,10.57,0,0,1-4.44,5,12.85,12.85,0,0,1-6.43,1.65A14.86,14.86,0,0,1,342.52,458.07Zm16.85-19.92a9,9,0,0,0-6.53,3.27,10.22,10.22,0,0,0-2.41,6.7,5.81,5.81,0,0,0,1.27,4,3.87,3.87,0,0,0,3,1.45,4.4,4.4,0,0,0,2.62-.9,6.7,6.7,0,0,0,2.06-2.54Z"/><path class="cls-1" d="M383.94,444.89h1a11.38,11.38,0,0,0,3.06,5.92,20.34,20.34,0,0,0,5.92,4.5,13.21,13.21,0,0,0,5.81,1.69c2.07,0,3.1-.87,3.1-2.62a6.24,6.24,0,0,0-.9-3,9.58,9.58,0,0,0-2.89-3.06l-1.17-.83q-4.68-3.51-7.67-5.95a35.59,35.59,0,0,1-5.3-5.33,9,9,0,0,1-2.3-5.44,8.17,8.17,0,0,1,2.1-5.6,13.12,13.12,0,0,1,5.64-3.62,24.12,24.12,0,0,1,7.95-1.23,18.12,18.12,0,0,1,3.95.44c1.31.3,2.74.7,4.3,1.21a17.8,17.8,0,0,0,3.93.89,1.68,1.68,0,0,0,1.3-.45,2.1,2.1,0,0,0,.42-1.47h1v11.62h-1a8.55,8.55,0,0,0-1.9-5.33,13.8,13.8,0,0,0-4.61-3.85,11,11,0,0,0-5.05-1.41,4.12,4.12,0,0,0-2.65.79,2.84,2.84,0,0,0-1,2.37,7,7,0,0,0,1.27,4.06,13.81,13.81,0,0,0,3.1,3.24q1.81,1.37,5.06,3.5,3.44,2.21,5.43,3.75a15.37,15.37,0,0,1,3.41,3.69,8.54,8.54,0,0,1-.28,9.8,11.56,11.56,0,0,1-5.09,3.72,22.1,22.1,0,0,1-8.43,1.41c-.92,0-1.6,0-2.06-.07-.74-.05-1.67-.14-2.79-.28s-2-.23-2.51-.27a43.63,43.63,0,0,0-6.26-.62,2.41,2.41,0,0,0-2.48,1.24h-1.37Z"/><path class="cls-1" d="M31.5,484.93a29.41,29.41,0,0,1-11.36-10.17A22.37,22.37,0,0,1,16.4,463a14.22,14.22,0,0,1,1.67-6.84,12.36,12.36,0,0,1,4.85-4.93,14.82,14.82,0,0,1,7.47-1.82,11.45,11.45,0,0,1,8,2.74,8.53,8.53,0,0,1,3,6.55,9.46,9.46,0,0,1-1.94,5.73,6.84,6.84,0,0,1-5.84,2.62,5.1,5.1,0,0,1-3.82-1.47,4.6,4.6,0,0,1-1.51-2.82,3.77,3.77,0,0,0,2.82-1.24,4.06,4.06,0,0,0,1-2.74,4.26,4.26,0,0,0-1.24-3,4.41,4.41,0,0,0-3.37-1.31,7.16,7.16,0,0,0-6,2.94,11.35,11.35,0,0,0-2.23,7.07,10.85,10.85,0,0,0,2.66,6.88,18.72,18.72,0,0,0,7.47,5.32,28,28,0,0,0,10.93,2,36.21,36.21,0,0,0,11.92-2A132.66,132.66,0,0,0,66,470.94q6.2-2.94,10.49-4.73a61.16,61.16,0,0,1,9.54-3A47.82,47.82,0,0,1,97,462l.08,1.35a22.71,22.71,0,0,0-6.91,2.27A39,39,0,0,0,84,469.43q-2.79,2.15-7.15,6-5.09,4.46-8.74,7.19a36.63,36.63,0,0,1-8.23,4.61,25.39,25.39,0,0,1-9.73,1.87Q39.13,489.06,31.5,484.93Zm73.43-9.58q-6.68-6.8-6.68-19.11V403.06h-16v45.23a13.6,13.6,0,0,0,.91,5.13,7.71,7.71,0,0,0,3.62,3.77v1.12H58.6v-1.12a7.64,7.64,0,0,0,3.61-3.81,13.68,13.68,0,0,0,.92-5.09V384.86a18.76,18.76,0,0,0-1-6.08c-.63-1.88-1.8-2.82-3.49-2.82A21.16,21.16,0,0,0,47,379.65a20.38,20.38,0,0,0-6.92,8.51,26.23,26.23,0,0,0-2.22,10.53,19.2,19.2,0,0,0,2.42,10q2.43,4.09,6.48,4.09a5.16,5.16,0,0,0,3.5-1.11,3.56,3.56,0,0,0,1.27-2.78,5,5,0,0,0-.84-2.74A3.54,3.54,0,0,0,48,404.57a4.1,4.1,0,0,1,1.67-3,5.59,5.59,0,0,1,3.81-1.47A6.48,6.48,0,0,1,58,401.67a5,5,0,0,1,1.67,3.85,6.64,6.64,0,0,1-1.23,3.74,8.77,8.77,0,0,1-3.7,3,14,14,0,0,1-6,1.15,37.1,37.1,0,0,1-14.66-2.58,20.85,20.85,0,0,1-9-6.84,15.44,15.44,0,0,1-3-9.1,16.46,16.46,0,0,1,3.3-9.81q3.3-4.57,10.29-7.39t17.56-2.82H86.73V376a7.75,7.75,0,0,0-3.62,3.77,13.6,13.6,0,0,0-.91,5.13v16.29h16V384.86a13.72,13.72,0,0,0-.91-5.09A7.74,7.74,0,0,0,93.72,376v-1.11h28.13V376a7.73,7.73,0,0,0-3.61,3.77,13.6,13.6,0,0,0-.91,5.13v75a26.53,26.53,0,0,0,1.86,10.41,16.65,16.65,0,0,0,4.65,6.59,9,9,0,0,0,5.56,2.23,1.67,1.67,0,0,0,1.43-.64,3,3,0,0,0,.48-1.83,11.15,11.15,0,0,0-1.63-5.2,18.21,18.21,0,0,0-4.61-5.41,14.23,14.23,0,0,0-6.71-3.05v-1.51a24.28,24.28,0,0,1,9.42,1.7,16.21,16.21,0,0,1,6.31,4.37,8.53,8.53,0,0,1,2.23,5.53,7.88,7.88,0,0,1-3.38,6.43q-3.37,2.63-9.65,2.63Q111.6,482.15,104.93,475.35Z"/><path class="cls-1" d="M306.8,377.34a3,3,0,0,0-2.95,1.35,6.39,6.39,0,0,0-.93,3.65,6.9,6.9,0,0,0,.84,3.33,2.37,2.37,0,0,0,2.11,1.41,2.93,2.93,0,0,0,1.12-.25,2.43,2.43,0,0,1-.16-.92C306.86,382.55,306.87,381,306.8,377.34Z"/><path class="cls-1" d="M259.18,389.47a4.66,4.66,0,0,0-1,2.58,1.68,1.68,0,0,0,.4,1.31,1.08,1.08,0,0,0,1.05.26,2.22,2.22,0,0,0,.95-.55,3.65,3.65,0,0,0,.79-1.09c.09-1.69.13-2.53.21-4.23A4.68,4.68,0,0,0,259.18,389.47Z"/><path class="cls-1" d="M223.19,395.23c.7,0,1.25-.51,1.65-1.52a10,10,0,0,0,.65-3.59,11.5,11.5,0,0,0-.45-3.58c-.33-1-.81-1.57-1.49-1.57s-1.45.52-2,1.58a9.11,9.11,0,0,0-.89,3.68,7.68,7.68,0,0,0,.56,3.55A2.09,2.09,0,0,0,223.19,395.23Z"/><path class="cls-1" d="M384.26,379.5s-68.63-21.61-118.24-7c-56.27,16.62-114.33-6.91-114.33-6.91l6.8,18.1-14.44,8.73s67.77,30,125.89,9.88c45.19-15.65,111.82,6,111.82,6L371.52,393Zm-156.54,3.27a5.87,5.87,0,0,1,1.27-1.21,2.8,2.8,0,0,1,1.61-.56,2.47,2.47,0,0,1,.5,0,2,2,0,0,1,1.24.61,1.61,1.61,0,0,1,.4,1.09,1.8,1.8,0,0,1-.47,1.19,1.67,1.67,0,0,1-1.18.55,2.45,2.45,0,0,1-1-.19,5,5,0,0,0-1.86-.48,1.67,1.67,0,0,0-.59.12l-.55-.13A4,4,0,0,1,227.72,382.77Zm-25.29.9a4.22,4.22,0,0,0-1.88,1.44,19.94,19.94,0,0,0-2.29,3.39c-1.67,3.39-2.44,4.88-4.08,8-.88,1.57-1.32,2.34-2.25,4a3.22,3.22,0,0,1-2.58,1.51,9,9,0,0,1-3.52-.25c-.27-2-.43-2.92-.76-4.75h.41a3.81,3.81,0,0,0,1.18.92,7.53,7.53,0,0,0,1.78.66,6.19,6.19,0,0,0,2.66.1,2.58,2.58,0,0,0,1.79-1.19c.27-.44.4-.65.66-1.09-2.23-.43-3.35-.67-5.55-1.2l.07-.39a.49.49,0,0,0,.5-.16,1.21,1.21,0,0,0,.29-.6,1.28,1.28,0,0,0-.06-.67,96.5,96.5,0,0,1-3.87-10.86,9,9,0,0,0-.75-1.67,1.59,1.59,0,0,0-.94-.83c0-.2.07-.31.12-.51,4,.9,5.94,1.32,9.8,2.08,0,.21-.07.31-.12.51-.76-.15-1.21.11-1.35.75a1.89,1.89,0,0,0,0,.94,75.19,75.19,0,0,0,3.43,9.6c.38-.73.57-1.09.95-1.84a15,15,0,0,0,1.54-4.09,5.13,5.13,0,0,0-.18-2.78,4.27,4.27,0,0,0-1.87-2.12c0-.19.07-.29.11-.48,2.75.51,4.11.75,6.82,1.16C202.49,383.38,202.47,383.48,202.43,383.67Zm29.12,19.89a9.44,9.44,0,0,1-3.68,2.28,16.53,16.53,0,0,1-5.64,1,17.74,17.74,0,0,1-3.79-.36,9.62,9.62,0,0,1-3.22-1.22,2.06,2.06,0,0,1-1.18-1.89A1.64,1.64,0,0,1,215.2,402a5.6,5.6,0,0,1,2.41-.45,4.62,4.62,0,0,1,1.44.24,2,2,0,0,1,1,.66,1.27,1.27,0,0,0-.74,1.13,2,2,0,0,0,.42,1.25,3.29,3.29,0,0,0,1.37,1.06,4.9,4.9,0,0,0,2.19.4,10,10,0,0,0,3.83-.78c1.09-.49,1.63-1.12,1.64-1.86s-.51-1-1.57-1.33-2.69-.56-4.85-.9c-1.75-.27-3.15-.57-4.19-.82a9.15,9.15,0,0,1-2.64-1,1.7,1.7,0,0,1-1-1.55,3,3,0,0,1,.8-1.79,11.21,11.21,0,0,1,2-1.71,6.72,6.72,0,0,1-2.56-1.88A3.64,3.64,0,0,1,214,390a4.63,4.63,0,0,1,1.77-3.35,9,9,0,0,1,3.67-1.72,17.81,17.81,0,0,1,4.15-.44,18.68,18.68,0,0,1,4,.52,9,9,0,0,1,3.52,1.66,3.88,3.88,0,0,1,1.51,3.18,4,4,0,0,1-1.49,3.18,10,10,0,0,1-3.72,2,15.91,15.91,0,0,1-4.22.68,15.62,15.62,0,0,1-2.74-.22,12.67,12.67,0,0,1-2.68-.71l-.15.17a.93.93,0,0,0-.22.52q0,.65,1.29,1a29.62,29.62,0,0,0,4.22.61c2,.19,3.72.36,5.06.54a10.9,10.9,0,0,1,3.43,1,2.37,2.37,0,0,1,1.44,2.19A4,4,0,0,1,231.55,403.56Zm19-15.9a3.07,3.07,0,0,1-1.65.88,2.26,2.26,0,0,1-1.71-.3,1.7,1.7,0,0,1-.74-1.55,2,2,0,0,1,.1-.58,8.62,8.62,0,0,0-1.16,1.34,15.1,15.1,0,0,0-1.17,1.85c0,2.46.07,3.67.1,6.12a3.74,3.74,0,0,0,.32,1.56,1.94,1.94,0,0,0,1.17,1v.35c-3.6.63-5.48.86-9.36,1.27v-.36a2.83,2.83,0,0,0,1.23-1.34,4.4,4.4,0,0,0,.28-1.63c-.05-2.41-.08-3.59-.13-6a22.31,22.31,0,0,0-.16-2.52,1.85,1.85,0,0,0-.43-1.07,1.55,1.55,0,0,0-1-.32V386c3.2-.34,4.82-.53,8-1,0,1.28,0,1.91,0,3.16a10.7,10.7,0,0,1,2-2.68,5.12,5.12,0,0,1,2.56-1.49,2,2,0,0,1,1.82.37,2.06,2.06,0,0,1,.62,1.57A2.44,2.44,0,0,1,250.57,387.66Zm18.05,5.42c-1.94.47-2.89.7-4.78,1.18a2.21,2.21,0,0,1-1.68-.11,1.6,1.6,0,0,1-.74-1.23,5.8,5.8,0,0,1-1.68,2.16,5.89,5.89,0,0,1-2.3,1.16,4.61,4.61,0,0,1-2.18,0,3,3,0,0,1-1.66-1,2.91,2.91,0,0,1-.62-1.95,4,4,0,0,1,.87-2.31,8.33,8.33,0,0,1,2.57-2.13,15.53,15.53,0,0,1,4.18-1.55c.46-.11.8-.18,1-.22.05-1.23.08-1.84.13-3.1a2.19,2.19,0,0,0-.36-1.52.94.94,0,0,0-1-.34,1.71,1.71,0,0,0-1.05.81,3.14,3.14,0,0,0-.48,1.68,2.08,2.08,0,0,0,.89,1.93,9.82,9.82,0,0,1-2.59,1.13,2.56,2.56,0,0,1-1.91-.15,1.39,1.39,0,0,1-.67-1.27,3.64,3.64,0,0,1,1.64-2.83,10.41,10.41,0,0,1,7.64-1.93,5,5,0,0,1,2.87,1.41,3.86,3.86,0,0,1,.95,3.08c-.11,1.75-.17,2.61-.29,4.35a4.34,4.34,0,0,0,.16,1.84.88.88,0,0,0,1.07.54C268.63,392.88,268.63,393,268.62,393.08ZM282,390.33l0-.33a3.66,3.66,0,0,0,1.4-1.36,4.13,4.13,0,0,0,.43-1.57c.13-2.33.18-3.47.27-5.87a2.32,2.32,0,0,0-.49-1.73,1.44,1.44,0,0,0-1.35-.42,3.22,3.22,0,0,0-1.87,1.13c-.15,3.13-.24,4.56-.46,7.52a3.18,3.18,0,0,0,.21,1.49,1.82,1.82,0,0,0,1.2.92c0,.13,0,.2,0,.33-4.06.69-6,1.09-9.64,1.92,0-.13,0-.2,0-.34a3.8,3.8,0,0,0,1.29-1.43,4.53,4.53,0,0,0,.43-1.61c.2-2.31.28-3.44.44-5.81a20.49,20.49,0,0,0,.05-2.49,1.62,1.62,0,0,0-.34-1,1.25,1.25,0,0,0-1-.23c0-.15,0-.22,0-.36,3.11-.67,4.68-1,7.87-1.55,0,.83,0,1.23-.09,2a8.4,8.4,0,0,1,2.36-2,7.83,7.83,0,0,1,2.79-1,6.15,6.15,0,0,1,2.62.17,4.26,4.26,0,0,1,2,1.24A3.16,3.16,0,0,1,291,380c.05,2.54.06,3.72.05,6.16a3,3,0,0,0,.35,1.48,2.48,2.48,0,0,0,1.47,1V389C288.24,389.37,286.09,389.66,282,390.33Zm33-1.68c-2.13-.12-3.19-.17-5.31-.22A3.76,3.76,0,0,1,308,388a2.23,2.23,0,0,1-1-1c-1.12.52-1.68.8-2.78,1.36q-.66.08-1.26.09a7.09,7.09,0,0,1-3.65-.8,5.77,5.77,0,0,1-2.3-2.24,6.8,6.8,0,0,1-.85-3.09,7.4,7.4,0,0,1,.62-3.26,6.1,6.1,0,0,1,2.15-2.64,6,6,0,0,1,3.63-1,8.12,8.12,0,0,1,4.16,1.38c0-.3,0-.45,0-.76a22.34,22.34,0,0,0-.19-2.67,2.39,2.39,0,0,0-.5-1.24,2,2,0,0,0-1.13-.53c0-.16,0-.24,0-.4,3.53.13,5.33.27,9,.63,0,6.53-.08,8.76-.32,13.9a4,4,0,0,0,.26,1.8,1.42,1.42,0,0,0,1.21.81C315.05,388.46,315.05,388.53,315,388.65Zm20.47-6.19a2.93,2.93,0,0,1-2.26,2.3,10.28,10.28,0,0,1-4.59.21,19.12,19.12,0,0,1-2.8-.68,5.26,5.26,0,0,0,1,2.23,5.93,5.93,0,0,0,1.74,1.58,5.74,5.74,0,0,0,2.07.77,3.5,3.5,0,0,0,2.18-.27,2.86,2.86,0,0,0,1.41-1.61l.57.1a3.67,3.67,0,0,1-1.49,2,6.65,6.65,0,0,1-2.74,1,11.18,11.18,0,0,1-3.42,0A15.45,15.45,0,0,1,323,389a8.13,8.13,0,0,1-3.12-2.36,5,5,0,0,1-1-3.57,5.39,5.39,0,0,1,1.22-3,6.66,6.66,0,0,1,3.3-2.14,11.54,11.54,0,0,1,5.33-.25,14.12,14.12,0,0,1,5.1,1.72C335.15,380.22,335.72,381.26,335.51,382.46Zm15.66,1.76a5.38,5.38,0,0,0-1.58-1.72,5,5,0,0,0-2-.9,1.93,1.93,0,0,0-1.16.07.94.94,0,0,0-.58.73,2.1,2.1,0,0,0,.23,1.48,5.35,5.35,0,0,0,1,1.33c.42.4,1,.94,1.78,1.59s1.42,1.27,1.87,1.73a5.62,5.62,0,0,1,1,1.55,2.57,2.57,0,0,1,.17,1.72,2.46,2.46,0,0,1-1.08,1.49,4.54,4.54,0,0,1-2.29.66,11.49,11.49,0,0,1-3.44-.46l-.81-.24c-.28-.09-.65-.21-1.09-.37l-1-.34a20,20,0,0,0-2.46-.78c-.51-.12-.87-.06-1.07.17l-.56-.12c.35-1.71.53-2.52.89-4.17l.4.08a3.39,3.39,0,0,0,.84,2.09,9.63,9.63,0,0,0,2.06,2,6.77,6.77,0,0,0,2.2,1.11c.82.22,1.29,0,1.43-.52a1.92,1.92,0,0,0-.13-1.05,3.46,3.46,0,0,0-.93-1.26l-.4-.37c-1.08-1-2-1.87-2.68-2.55a14.08,14.08,0,0,1-1.82-2.11,2.57,2.57,0,0,1-.62-1.91,2.48,2.48,0,0,1,1.25-1.68,6.13,6.13,0,0,1,2.63-.79,12.35,12.35,0,0,1,3.43.19,8.25,8.25,0,0,1,1.61.47c.52.21,1.09.47,1.68.77a8.06,8.06,0,0,0,1.53.63.8.8,0,0,0,.57-.06.83.83,0,0,0,.28-.51l.39.08c-.37,1.71-.56,2.51-.94,4.08l-.38-.08A2.66,2.66,0,0,0,351.17,384.22Z"/><path class="cls-1" d="M329.6,378.21a2.61,2.61,0,0,0-2.56,1.06,6.21,6.21,0,0,0-1.22,3.2,6.45,6.45,0,0,0,0,1.39,5.73,5.73,0,0,0,.6.13,3.38,3.38,0,0,0,2.79-.78,4.43,4.43,0,0,0,1.44-2.88,2.81,2.81,0,0,0-.14-1.42A1.08,1.08,0,0,0,329.6,378.21Z"/></g></g></svg>