<svg xmlns="http://www.w3.org/2000/svg" viewBox="0 0 275.64 86.56"><defs><style>.cls-1{fill:#fff;}</style></defs><g id="Layer_2" data-name="Layer 2"><g id="Capa_1" data-name="Capa 1"><path class="cls-1" d="M53.36,0,45,85.93c1.11-.05,2.22-.09,3.34-.19l28-71.94A43.84,43.84,0,0,0,53.36,0Z"/><path class="cls-1" d="M122.25,54.41c-6.89,0-11-4.92-11-11.5s4.12-11.72,10.8-11.74a13.64,13.64,0,0,1,7,1.72l.44-5.49a22,22,0,0,0-7.31-1.31c-11,0-17.72,6.26-17.71,17.31s7.32,16.12,17.79,16.11a31.46,31.46,0,0,0,7.32-1l-.28-5.42A17.45,17.45,0,0,1,122.25,54.41Z"/><path class="cls-1" d="M53.57,84.82A43.56,43.56,0,0,0,87.12,42.44a45.65,45.65,0,0,0-.38-5.51Z"/><path class="cls-1" d="M10.79,13.8l28,71.94c1.1.1,2.22.14,3.34.19L33.77,0A43.84,43.84,0,0,0,10.79,13.8Z"/><path class="cls-1" d="M0,42.44A43.56,43.56,0,0,0,33.55,84.82L.4,36.93A40.26,40.26,0,0,0,0,42.44Z"/><rect class="cls-1" x="229.53" y="26.14" width="6.43" height="33"/><path class="cls-1" d="M259.7,26.14h-.32l-15.93,33h6.14L253,51.51h12.37l3.4,7.66h6.89Zm-5,21.48,4.43-10,4.46,10Z"/><polygon class="cls-1" points="140.48 59.18 159.93 59.18 159.93 54.03 147.09 54.03 147.09 44.66 158.87 44.66 158.87 39.49 147.09 39.49 147.09 31.31 159.93 31.31 159.93 26.15 140.48 26.15 140.48 59.18"/><path class="cls-1" d="M211.07,39.8c-4.18-1.81-6.53-2.64-6.57-5.37,0-2.34,2-3.91,5.12-3.91a13.23,13.23,0,0,1,8.33,2.8V27.68a25.93,25.93,0,0,0-8.14-1.44c-7.05,0-11.68,3.48-11.6,9A7.84,7.84,0,0,0,201,41.36c1.23,1.12,2.69,1.91,6.2,3.43,4.91,2.13,6.87,3.41,6.88,6,0,2.92-2.55,4.86-6,4.86A22.06,22.06,0,0,1,198.58,53v5.82a34.19,34.19,0,0,0,8.84,1.26c7.92,0,12.83-3.77,12.76-10.13C220.14,45,217.44,42.58,211.07,39.8Z"/><polygon class="cls-1" points="177.79 26.09 171.34 26.09 171.34 59.18 190.36 59.18 190.36 54.13 177.79 54.13 177.79 26.09"/><path class="cls-1" d="M109.69,71.27h1.57V81.76h6.26v1.33h-7.83Z"/><path class="cls-1" d="M126.23,83.05a1.88,1.88,0,0,1-1,.24c-.72,0-1.19-.4-1.19-1.33a3.8,3.8,0,0,1-3,1.33c-1.55,0-2.83-.7-2.83-2.4,0-1.94,1.44-2.35,2.9-2.63S124,78.06,124,77c0-1.23-1-1.42-1.91-1.42-1.19,0-2.06.36-2.13,1.62h-1.41c.09-2.12,1.72-2.87,3.63-2.87,1.53,0,3.21.35,3.21,2.35v4.41c0,.66,0,1,.44,1a1.1,1.1,0,0,0,.43-.08ZM124,78.67a7.33,7.33,0,0,1-2.55.58c-.92.16-1.72.49-1.72,1.54s.8,1.25,1.66,1.25c1.85,0,2.61-1.15,2.61-1.93Z"/><path class="cls-1" d="M139.43,80.37a3.45,3.45,0,0,1-3.65,2.92c-2.73,0-4-1.89-4.11-4.5s1.69-4.46,4-4.46c3,0,4,2.83,3.87,4.9h-6.4A2.52,2.52,0,0,0,135.82,82,2.06,2.06,0,0,0,138,80.37ZM138.07,78a2.46,2.46,0,0,0-4.91,0Z"/><path class="cls-1" d="M141,74.53h1.32v1.36h0a3,3,0,0,1,2.78-1.56c2.25,0,2.95,1.3,2.95,3.13v5.63h-1.41V77.3A1.61,1.61,0,0,0,145,75.58a2.4,2.4,0,0,0-2.53,2.68v4.83H141Z"/><path class="cls-1" d="M157.51,80.37a3.45,3.45,0,0,1-3.66,2.92c-2.73,0-4-1.89-4.1-4.5s1.69-4.46,4-4.46c3,0,3.95,2.83,3.87,4.9h-6.4A2.51,2.51,0,0,0,153.9,82a2.06,2.06,0,0,0,2.22-1.67ZM156.15,78a2.46,2.46,0,0,0-4.91,0Z"/><path class="cls-1" d="M159.05,74.53h1.32v1.81h0a3.12,3.12,0,0,1,3.15-2v1.49c-2.27,0-3.1,1.29-3.1,3.46v3.81h-1.4Z"/><path class="cls-1" d="M171.52,82.36c0,2.78-1.28,4.2-4,4.2-1.61,0-3.46-.64-3.54-2.51h1.4c.07,1,1.29,1.39,2.22,1.39,1.84,0,2.56-1.33,2.56-3.25v-.56h0a2.86,2.86,0,0,1-2.66,1.56c-2.55,0-3.82-2-3.82-4.34,0-2,1-4.52,3.95-4.52a2.78,2.78,0,0,1,2.55,1.43h0V74.53h1.33Zm-1.39-3.72c0-1.51-.66-3.06-2.43-3.06s-2.53,1.47-2.53,3.11.56,3.26,2.41,3.26S170.13,80.24,170.13,78.64Z"/><path class="cls-1" d="M174.82,71h1.81l-2.17,2.37H173.4Zm-1.1,12.1V74.53h1.4v8.56Z"/><path class="cls-1" d="M184.88,83.05a1.88,1.88,0,0,1-1,.24c-.72,0-1.19-.4-1.19-1.33a3.8,3.8,0,0,1-3,1.33c-1.55,0-2.83-.7-2.83-2.4,0-1.94,1.44-2.35,2.9-2.63s2.88-.2,2.88-1.26c0-1.23-1-1.42-1.91-1.42-1.19,0-2.06.36-2.13,1.62h-1.41c.09-2.12,1.72-2.87,3.63-2.87,1.53,0,3.21.35,3.21,2.35v4.41c0,.66,0,1,.44,1a1.1,1.1,0,0,0,.43-.08Zm-2.28-4.38a7.33,7.33,0,0,1-2.55.58c-.92.16-1.72.49-1.72,1.54S179.13,82,180,82c1.85,0,2.61-1.15,2.61-1.93Z"/><path class="cls-1" d="M198.43,86.36H197V81.93h0a2.89,2.89,0,0,1-2.73,1.36c-2.63,0-3.94-2.09-3.94-4.5s1.29-4.46,3.91-4.46A3.29,3.29,0,0,1,197,75.68h0V74.53h1.41Zm-4-4.32c1.88,0,2.61-1.62,2.61-3.22s-.76-3.24-2.69-3.24-2.57,1.63-2.57,3.3S192.64,82,194.46,82Z"/><path class="cls-1" d="M207.67,83.09h-1.32V81.73h0a3,3,0,0,1-2.78,1.56c-2.25,0-2.95-1.29-2.95-3.13V74.53H202v5.79A1.61,1.61,0,0,0,203.74,82a2.4,2.4,0,0,0,2.53-2.68V74.53h1.4Z"/><path class="cls-1" d="M217.09,80.37a3.45,3.45,0,0,1-3.66,2.92c-2.73,0-4-1.89-4.1-4.5s1.68-4.46,4-4.46c3,0,4,2.83,3.87,4.9h-6.4A2.51,2.51,0,0,0,213.48,82a2.06,2.06,0,0,0,2.22-1.67ZM215.73,78a2.46,2.46,0,0,0-2.47-2.41A2.42,2.42,0,0,0,210.82,78Z"/><path class="cls-1" d="M230.91,86.36h-1.4V81.93h0a2.88,2.88,0,0,1-2.73,1.36c-2.63,0-3.93-2.09-3.93-4.5s1.29-4.46,3.9-4.46a3.26,3.26,0,0,1,2.76,1.35h0V74.53h1.4Zm-4-4.32c1.89,0,2.62-1.62,2.62-3.22s-.76-3.24-2.7-3.24-2.56,1.63-2.56,3.3S225.12,82,226.94,82Z"/><path class="cls-1" d="M240.16,83.09h-1.33V81.73h0A3,3,0,0,1,236,83.29c-2.25,0-2.94-1.29-2.94-3.13V74.53h1.4v5.79A1.61,1.61,0,0,0,236.22,82a2.4,2.4,0,0,0,2.53-2.68V74.53h1.41Z"/><path class="cls-1" d="M243.76,73h-1.4V71.27h1.4Zm-1.4,1.54h1.4v8.56h-1.4Z"/><path class="cls-1" d="M253.24,80.37a3.45,3.45,0,0,1-3.65,2.92c-2.73,0-4-1.89-4.11-4.5s1.69-4.46,4-4.46c3,0,4,2.83,3.87,4.9H247A2.52,2.52,0,0,0,249.63,82a2.06,2.06,0,0,0,2.22-1.67ZM251.88,78A2.46,2.46,0,0,0,247,78Z"/><path class="cls-1" d="M254.78,74.53h1.32v1.81h0a3.13,3.13,0,0,1,3.15-2v1.49c-2.27,0-3.1,1.29-3.1,3.46v3.81h-1.4Z"/><path class="cls-1" d="M267.33,80.37a3.44,3.44,0,0,1-3.65,2.92c-2.73,0-4-1.89-4.11-4.5s1.69-4.46,4-4.46c3,0,4,2.83,3.88,4.9h-6.41A2.52,2.52,0,0,0,263.73,82a2.05,2.05,0,0,0,2.21-1.67ZM266,78a2.46,2.46,0,0,0-2.47-2.41A2.43,2.43,0,0,0,261.06,78Z"/><path class="cls-1" d="M269.78,80.39c.05,1.26,1.14,1.65,2.3,1.65.88,0,2.07-.19,2.07-1.27s-1.39-1.27-2.8-1.59-2.79-.77-2.79-2.41,1.7-2.44,3.19-2.44c1.88,0,3.39.6,3.51,2.69h-1.41c-.1-1.1-1.06-1.44-2-1.44s-1.82.23-1.82,1.09c0,1,1.49,1.17,2.8,1.49s2.8.77,2.8,2.43c0,2-1.91,2.7-3.64,2.7-1.92,0-3.54-.78-3.63-2.9Z"/></g></g></svg>