<?xml version="1.0" encoding="UTF-8" standalone="no"?>
<!-- Created with Inkscape (http://www.inkscape.org/) -->

<svg
   version="1.1"
   id="svg2"
   width="1056"
   height="816"
   viewBox="0 0 1056 816"
   sodipodi:docname="LogoBrillaComplemento (5).ai"
   xmlns:inkscape="http://www.inkscape.org/namespaces/inkscape"
   xmlns:sodipodi="http://sodipodi.sourceforge.net/DTD/sodipodi-0.dtd"
   xmlns="http://www.w3.org/2000/svg"
   xmlns:svg="http://www.w3.org/2000/svg">
  <defs
     id="defs6">
    <clipPath
       clipPathUnits="userSpaceOnUse"
       id="clipPath16">
      <path
         d="M 0,612 H 792 V 0 H 0 Z"
         id="path14" />
    </clipPath>
  </defs>
  <sodipodi:namedview
     id="namedview4"
     pagecolor="#ffffff"
     bordercolor="#000000"
     borderopacity="0.25"
     inkscape:showpageshadow="2"
     inkscape:pageopacity="0.0"
     inkscape:pagecheckerboard="0"
     inkscape:deskcolor="#d1d1d1" />
  <g
     id="g8"
     inkscape:groupmode="layer"
     inkscape:label="LogoBrillaComplemento (5)"
     transform="matrix(1.3333333,0,0,-1.3333333,0,816)">
    <g
       id="g10">
      <g
         id="g12"
         clip-path="url(#clipPath16)">
        <g
           id="g18"
           transform="translate(420.8145,398.0742)">
          <path
             d="m 0,0 c 0,-17.981 -14.57,-32.549 -32.549,-32.549 -17.978,0 -32.549,14.568 -32.549,32.549 0,17.981 14.571,32.556 32.549,32.556 C -14.57,32.556 0,17.981 0,0"
             style="fill:#ffb700;fill-opacity:1;fill-rule:nonzero;stroke:none"
             id="path20" />
        </g>
        <g
           id="g22"
           transform="translate(195.7241,288.8184)">
          <path
             d="m 0,0 h -31.757 c 0,0 -0.786,-0.021 -1.032,0.209 -0.307,0.28 -0.259,0.862 -0.259,0.862 v 33.845 c 0,0 -0.022,0.764 0.27,1 0.292,0.237 1.082,0.2 1.082,0.2 h 27.445 c 17.232,0 25.017,-6.143 25.017,-18.891 C 20.766,6.6 13.218,0 0,0 m -32.741,100.385 c 0.292,0.191 1.006,0.17 1.006,0.17 h 27.721 c 12.513,0 19.591,-5.671 19.591,-15.347 0,-10.615 -7.078,-15.822 -22.424,-15.822 h -24.836 c 0,0 -0.877,-0.037 -1.154,0.252 -0.25,0.259 -0.211,1.02 -0.211,1.02 v 28.647 c 0,0 -0.048,0.842 0.307,1.08 M 34.936,51.446 c -3.541,1.429 -3.31,3.55 0.244,4.97 6.363,3.057 18.871,12.033 18.871,32.808 0,28.083 -21.719,44.844 -58.065,44.844 H -68.21 c -1.895,0 -3.075,-1.175 -3.075,-3.07 V -30.218 c 0,-1.886 1.18,-3.063 3.075,-3.063 H 0.479 c 37.057,0 58.764,17.458 58.764,46.969 0,24.074 -15.575,34.461 -24.307,37.758"
             style="fill:#ffffff;fill-opacity:1;fill-rule:nonzero;stroke:none"
             id="path24" />
        </g>
        <g
           id="g26"
           transform="translate(342.1685,374.0269)">
          <path
             d="m 0,0 c -16.557,-0.468 -26.012,-4.249 -36.168,-14.899 -2.845,-3.067 -3.79,-2.357 -5.928,0.707 l -6.152,9.458 c -0.843,1.417 -1.879,2.136 -3.532,2.136 h -16.796 c -1.888,0 -3.075,-1.191 -3.075,-3.073 v -109.96 c 0,-1.886 1.172,-3.073 3.075,-3.073 h 31.451 c 1.895,0 3.075,1.187 3.075,3.073 v 19.157 c 0,47.294 8.038,61.954 34.05,63.139 2.132,0 3.073,0.934 3.073,3.074 V -3.075 C 3.073,-1.172 1.893,0 0,0"
             style="fill:#ffffff;fill-opacity:1;fill-rule:nonzero;stroke:none"
             id="path28" />
        </g>
        <g
           id="g30"
           transform="translate(489.0703,284.1758)">
          <path
             d="m 0,0 c -0.701,1.652 -2.114,2.123 -4.012,1.652 h -1.42 c -2.127,0 -3.074,1.888 -3.074,4.493 v 134.078 c 0,1.89 -1.195,3.068 -3.075,3.068 h -31.454 c -1.888,0 -3.074,-1.178 -3.074,-3.068 V 6.145 c 0,-23.645 15.363,-37.599 40.677,-37.599 4.262,0 9.456,0.951 13.713,2.835 1.654,0.717 2.13,2.13 1.42,4.024 z"
             style="fill:#ffffff;fill-opacity:1;fill-rule:nonzero;stroke:none"
             id="path32" />
        </g>
        <g
           id="g34"
           transform="translate(553.7871,284.1758)">
          <path
             d="m 0,0 c -0.706,1.652 -2.123,2.123 -4.02,1.652 h -1.411 c -2.131,0 -3.071,1.888 -3.071,4.493 v 134.078 c 0,1.89 -1.19,3.068 -3.079,3.068 H -43.03 c -1.893,0 -3.067,-1.178 -3.067,-3.068 V 6.145 c 0,-23.645 15.36,-37.599 40.666,-37.599 4.248,0 9.468,0.951 13.708,2.835 1.658,0.717 2.13,2.13 1.424,4.024 z"
             style="fill:#ffffff;fill-opacity:1;fill-rule:nonzero;stroke:none"
             id="path36" />
        </g>
        <g
           id="g38"
           transform="translate(362.1279,367.3022)">
          <path
             d="m 0,0 c -0.185,-0.102 -0.307,-0.268 -0.307,-0.477 l -0.002,-25.199 c 0,-1.895 1.186,-3.062 3.081,-3.062 H 13.51 c 0.645,-0.011 1.126,0.013 1.376,-0.272 0.264,-0.294 0.179,-1.046 0.183,-1.551 v -78.345 c 0,-1.886 1.179,-3.073 3.073,-3.073 h 31.214 c 1.888,0 3.075,1.187 3.075,3.073 V -0.492 c 0,0.233 -0.196,0.559 -0.529,0.559 -0.339,0 -0.475,-0.187 -0.658,-0.35 C 45.885,-5.137 37.37,-9.875 26.286,-9.875 15.246,-9.875 7.839,-6.082 0.719,-0.144 0.573,-0.021 0.312,0.146 0,0"
             style="fill:#ffffff;fill-opacity:1;fill-rule:nonzero;stroke:none"
             id="path40" />
        </g>
        <g
           id="g42"
           transform="translate(636.9502,302.0391)">
          <path
             d="m 0,0 c -1.42,-13.001 -8.277,-18.913 -20.572,-18.913 -8.511,0 -13.476,3.782 -13.476,10.4 0,5.202 4.965,8.988 11.82,8.988 h 21.871 c 0,0 0.222,-0.002 0.302,-0.124 C 0.035,0.22 0,0 0,0 m -21.278,72.35 c -8.987,0 -17.264,-1.42 -26.01,-3.783 l -9.22,-2.602 c -2.132,-0.468 -2.838,-1.655 -2.132,-3.78 l 7.332,-24.593 c 0.712,-1.89 1.89,-2.602 3.783,-2.125 l 8.983,2.6 c 5.204,1.418 10.64,2.365 15.369,2.365 13.476,0 22.224,-5.91 23.173,-16.075 v -0.475 h -22.228 c -29.317,0 -46.814,-13.005 -46.814,-34.994 0,-23.881 16.787,-37.833 44.927,-37.833 9.929,0 19.385,3.551 25.53,8.987 4.021,3.314 6.152,2.838 7.567,0 l 2.132,-4.255 c 0.944,-1.418 1.889,-2.128 3.781,-2.128 h 17.73 c 1.891,0 3.077,1.185 3.077,3.075 V 26.48 c 0,28.847 -21.047,45.87 -56.98,45.87"
             style="fill:#ffffff;fill-opacity:1;fill-rule:nonzero;stroke:none"
             id="path44" />
        </g>
        <g
           id="g46"
           transform="translate(161.9106,183.4023)">
          <path
             d="m 0,0 c 0,-2.066 -0.885,-3.395 -3.172,-4.943 -1.77,-1.403 -6.418,-4.87 -14.608,-4.87 -10.992,0 -18.886,7.599 -18.886,21.468 0,21.322 10.107,31.65 23.092,31.65 8.188,0 11.139,-2.213 13.721,-4.943 1.254,-0.959 1.993,-2.139 1.993,-3.836 0,-2.287 -1.255,-3.837 -2.804,-4.501 -2.656,3.321 -7.008,5.534 -13.206,5.534 -7.82,0 -14.68,-7.23 -14.68,-23.092 0,-10.624 5.089,-14.828 11.878,-14.828 5.459,0 10.327,2.065 13.721,5.384 C -1.696,3.098 0,2.14 0,0"
             style="fill:#ffffff;fill-opacity:1;fill-rule:nonzero;stroke:none"
             id="path48" />
        </g>
        <g
           id="g50"
           transform="translate(178.4399,203.1738)">
          <path
             d="m 0,0 -0.148,-1.181 c 2.951,5.089 7.009,9.221 10.993,9.221 3.393,0 5.311,-1.991 5.311,-5.975 0,-5.385 -2.286,-7.303 -5.532,-7.303 -1.108,0 -2.214,0.516 -2.805,1.032 0.149,2.065 -0.295,3.32 -2.138,3.32 -2.288,0 -5.018,-3.836 -6.64,-9.221 l -1.55,-17.927 c -0.59,-0.518 -2.433,-0.812 -4.5,-0.812 -1.844,0 -3.615,0.442 -3.319,3.762 l 1.991,23.018 c 0.147,1.623 -0.443,2.287 -1.475,2.287 h -2.509 c -0.147,0.737 -0.294,1.624 -0.294,2.434 0,2.803 2.582,4.648 6.418,4.648 C -2.361,7.303 0.516,5.976 0,0"
             style="fill:#ffffff;fill-opacity:1;fill-rule:nonzero;stroke:none"
             id="path52" />
        </g>
        <g
           id="g54"
           transform="translate(204.4111,191.96)">
          <path
             d="m 0,0 c 10.993,1.845 14.386,5.017 14.386,8.337 0,2.064 -1.107,4.131 -5.017,4.131 C 5.386,12.468 0.442,8.114 0,0 m 0.369,-5.091 c 0.96,-4.057 3.614,-6.049 7.23,-6.049 4.574,0 9.075,1.548 11.067,2.877 0.662,-0.516 1.18,-1.403 1.18,-2.877 0,-1.698 -0.591,-2.951 -1.845,-3.91 -2.14,-1.624 -5.755,-3.32 -11.73,-3.32 -8.853,0 -13.869,6.787 -13.869,16.746 0,13.723 8.779,20.878 17.631,20.878 7.747,0 11.435,-4.648 11.435,-10.107 0,-7.451 -7.155,-12.172 -21.099,-14.238"
             style="fill:#ffffff;fill-opacity:1;fill-rule:nonzero;stroke:none"
             id="path56" />
        </g>
        <g
           id="g58"
           transform="translate(255.54,201.6982)">
          <path
             d="m 0,0 c -2.951,1.253 -4.28,1.991 -8.042,1.991 -4.278,0 -8.779,-3.32 -8.779,-12.689 0,-6.345 3.025,-9.812 7.378,-9.812 3.91,0 6.566,0.959 8.557,2.361 0.812,-0.369 1.328,-1.548 1.328,-3.098 0,-1.992 -1.032,-3.541 -2.803,-4.722 -1.255,-0.811 -4.205,-2.139 -8.337,-2.139 -8.704,0 -13.721,6.418 -13.721,16.451 0,15.788 9.294,21.173 16.895,21.173 4.647,0 6.565,-0.884 8.335,-2.213 C 1.696,6.639 2.36,5.458 2.212,3.762 2.212,2.729 1.328,1.253 0,0"
             style="fill:#ffffff;fill-opacity:1;fill-rule:nonzero;stroke:none"
             id="path60" />
        </g>
        <g
           id="g62"
           transform="translate(272.5825,225.0107)">
          <path
             d="m 0,0 c 2.804,0 4.28,-1.329 4.28,-4.058 0,-3.541 -1.697,-5.311 -5.091,-5.311 -2.803,0 -4.204,1.474 -4.204,4.132 C -5.015,-1.845 -3.467,0 0,0 m 2.878,-21.616 -1.77,-20.952 c -0.149,-1.402 0.369,-2.066 1.401,-2.066 h 2.14 c 0.221,-0.369 0.369,-1.033 0.369,-1.77 0,-2.731 -1.845,-4.279 -6.492,-4.279 -3.91,0 -5.902,1.548 -5.386,6.493 l 1.771,20.36 c 0.147,1.697 -0.591,2.214 -1.55,2.214 h -2.066 c -0.148,0.443 -0.295,1.18 -0.295,1.991 0,3.764 2.508,5.091 6.271,5.091 3.468,0 6.124,-1.181 5.607,-7.082"
             style="fill:#ffffff;fill-opacity:1;fill-rule:nonzero;stroke:none"
             id="path64" />
        </g>
        <g
           id="g66"
           transform="translate(291.3975,191.96)">
          <path
             d="m 0,0 c 10.993,1.845 14.386,5.017 14.386,8.337 0,2.064 -1.107,4.131 -5.017,4.131 C 5.386,12.468 0.443,8.114 0,0 m 0.369,-5.091 c 0.958,-4.057 3.615,-6.049 7.229,-6.049 4.575,0 9.074,1.548 11.067,2.877 0.665,-0.516 1.181,-1.403 1.181,-2.877 0,-1.698 -0.591,-2.951 -1.845,-3.91 -2.14,-1.624 -5.754,-3.32 -11.73,-3.32 -8.853,0 -13.87,6.787 -13.87,16.746 0,13.723 8.779,20.878 17.632,20.878 7.747,0 11.435,-4.648 11.435,-10.107 0,-7.451 -7.156,-12.172 -21.099,-14.238"
             style="fill:#ffffff;fill-opacity:1;fill-rule:nonzero;stroke:none"
             id="path68" />
        </g>
        <g
           id="g70"
           transform="translate(331.6074,203.3203)">
          <path
             d="M 0,0 -0.221,-2.36 C 3.32,4.205 7.894,7.894 13.132,7.894 c 4.279,0 7.525,-2.434 7.525,-8.484 0,-0.96 -0.074,-2.287 -0.148,-3.393 L 18.96,-21.542 c -0.148,-1.255 0.368,-1.991 1.181,-1.991 h 2.582 c 0.073,-0.296 0.22,-0.591 0.22,-1.255 0,-2.731 -2.434,-4.204 -6.86,-4.204 -3.91,0 -5.534,2.064 -5.239,6.123 l 1.476,16.746 c 0.074,0.738 0.148,1.696 0.148,2.287 0,2.655 -1.55,3.541 -3.763,3.541 -3.688,0 -7.083,-3.763 -9.737,-11.36 l -1.403,-16.526 c -1.032,-0.59 -2.508,-0.811 -4.648,-0.811 -1.991,0 -3.689,0.811 -3.466,4.057 l 2.065,22.795 c 0.147,1.55 -0.517,2.214 -1.698,2.214 h -2.286 c -0.295,0.738 -0.516,1.55 -0.516,2.508 0,2.73 2.655,4.574 6.934,4.574 C -2.287,7.156 0.442,4.574 0,0"
             style="fill:#ffffff;fill-opacity:1;fill-rule:nonzero;stroke:none"
             id="path72" />
        </g>
        <g
           id="g74"
           transform="translate(381.7764,190.6309)">
          <path
             d="m 0,0 0.812,9.297 c -1.18,2.655 -3.173,3.91 -6.196,3.91 -4.059,0 -8.484,-4.87 -8.484,-14.092 0,-5.828 2.064,-8.853 5.827,-8.853 3.763,0 6.05,4.058 8.041,9.738 m -0.811,-9.147 c -2.582,-4.87 -5.975,-7.894 -10.549,-7.894 -5.091,0 -10.255,4.573 -10.255,15.27 0,15.05 8.115,22.354 15.64,22.354 3.321,0 5.682,-1.327 7.525,-3.467 l 1.328,15.345 c 0.147,1.845 1.328,2.877 3.393,2.877 2.214,0 3.469,-0.516 4.206,-1.032 L 6.789,-7.968 c -0.223,-1.843 0.516,-2.433 1.696,-2.433 h 2.287 c 0.221,-0.59 0.369,-1.108 0.369,-1.993 0,-2.212 -1.55,-3.909 -5.607,-3.909 -3.836,0 -6.566,2.655 -6.345,7.156"
             style="fill:#ffffff;fill-opacity:1;fill-rule:nonzero;stroke:none"
             id="path76" />
        </g>
        <g
           id="g78"
           transform="translate(413.0596,180.377)">
          <path
             d="m 0,0 c 5.017,0 8.189,4.058 8.189,14.238 0,6.418 -2.583,9.591 -6.344,9.591 -4.575,0 -8.263,-4.722 -8.263,-14.46 C -6.418,2.804 -3.614,0 0,0 m 2.729,30.764 c 7.822,0 13.501,-5.164 13.501,-15.863 0,-14.606 -7.598,-21.688 -16.893,-21.688 -7.895,0 -13.649,5.386 -13.649,15.419 0,14.46 7.672,22.132 17.041,22.132"
             style="fill:#ffffff;fill-opacity:1;fill-rule:nonzero;stroke:none"
             id="path80" />
        </g>
        <g
           id="g82"
           transform="translate(471.0508,200.3691)">
          <path
             d="m 0,0 c -3.098,0.886 -4.427,1.476 -7.524,1.476 -3.247,0 -6.936,-2.582 -6.936,-10.254 0,-5.239 2.509,-7.894 5.755,-7.894 3.688,0 5.754,0.516 8.114,2.066 0.96,-0.444 1.697,-1.992 1.697,-4.206 0,-2.507 -1.18,-4.5 -3.245,-5.828 -1.255,-0.811 -4.279,-2.139 -8.262,-2.139 -9.076,0 -14.092,6.713 -14.092,16.674 0,16.302 9.96,21.688 17.633,21.688 4.278,0 6.269,-0.738 8.041,-2.14 C 2.214,8.706 3.025,7.23 2.804,4.942 2.729,3.541 1.624,1.698 0,0"
             style="fill:#ffffff;fill-opacity:1;fill-rule:nonzero;stroke:none"
             id="path84" />
        </g>
        <g
           id="g86"
           transform="translate(491.7842,182.5166)">
          <path
             d="m 0,0 c 3.541,0 5.681,3.246 5.681,12.395 0,5.385 -1.919,7.819 -4.5,7.819 -3.099,0 -5.682,-3.614 -5.682,-12.615 C -4.501,2.213 -2.508,0 0,0 m 2.36,29.361 c 8.117,0 14.019,-5.016 14.019,-16.156 0,-14.607 -7.821,-22.132 -17.338,-22.132 -8.189,0 -14.091,5.46 -14.091,15.493 0,15.123 7.895,22.795 17.41,22.795"
             style="fill:#ffffff;fill-opacity:1;fill-rule:nonzero;stroke:none"
             id="path88" />
        </g>
        <g
           id="g90"
           transform="translate(528.6738,203.3203)">
          <path
             d="m 0,0 c 3.32,5.533 7.599,8.632 12.395,8.632 4.13,0 7.451,-2.509 7.451,-8.484 0,-0.96 0,-1.992 -0.075,-3.171 l -1.549,-17.043 c -0.073,-1.253 0.443,-1.918 1.329,-1.918 h 2.36 c 0.149,-0.37 0.295,-0.739 0.295,-1.549 0,-3.542 -3.172,-5.459 -8.409,-5.459 -4.87,0 -6.788,2.582 -6.419,7.155 l 1.401,15.862 c 0.074,0.442 0.074,0.884 0.074,1.253 0,1.624 -1.254,2.362 -2.876,2.362 -2.51,0 -4.944,-2.287 -6.862,-8.19 L -2.36,-27.96 c -1.255,-0.738 -3.32,-1.032 -6.198,-1.032 -2.656,0 -5.016,1.106 -4.647,5.459 l 1.77,19.845 c 0.147,1.548 -0.443,2.287 -1.77,2.287 h -2.14 c -0.368,1.032 -0.664,2.065 -0.664,3.32 0,3.541 3.468,5.975 8.632,5.975 C -3.318,7.894 0.148,4.87 0,0"
             style="fill:#ffffff;fill-opacity:1;fill-rule:nonzero;stroke:none"
             id="path92" />
        </g>
        <g
           id="g94"
           transform="translate(570.2861,202.583)">
          <path
             d="m 0,0 -1.18,-14.607 c -0.222,-2.952 0.516,-3.837 2.435,-3.837 h 5.974 c 0.149,-1.18 0.295,-2.508 0.295,-3.616 0,-3.466 -2.507,-6.195 -11.065,-6.195 -5.017,0 -8.853,2.508 -8.115,10.696 L -10.181,0 h -4.647 c -0.443,0.886 -0.665,1.918 -0.665,3.098 0,3.025 0.516,5.533 3.984,5.533 h 2.067 l 0.736,7.82 c 1.181,0.591 3.32,1.107 5.607,1.107 2.657,0 4.5,-1.107 4.205,-4.205 L 0.665,8.631 H 8.559 C 9.148,8.041 9.443,7.009 9.443,5.902 9.443,4.058 8.705,0 4.869,0 Z"
             style="fill:#ffffff;fill-opacity:1;fill-rule:nonzero;stroke:none"
             id="path96" />
        </g>
        <g
           id="g98"
           transform="translate(592.7891,226.6328)">
          <path
             d="m 0,0 c 3.541,0 5.386,-1.771 5.386,-5.163 0,-4.427 -2.14,-6.641 -6.419,-6.641 -3.614,0 -5.385,1.771 -5.385,5.165 C -6.418,-2.36 -4.426,0 0,0 m 4.206,-24.05 -1.55,-18.221 c -0.148,-1.55 0.295,-2.214 1.327,-2.214 h 2.362 c 0.221,-0.59 0.369,-1.328 0.369,-2.287 0,-3.541 -2.287,-5.533 -8.116,-5.533 -4.869,0 -7.23,1.843 -6.639,8.263 l 1.475,17.041 c 0.148,1.772 -0.59,2.287 -1.475,2.287 h -2.066 c -0.221,0.59 -0.295,1.402 -0.295,2.435 0,5.09 2.951,6.86 7.673,6.86 3.984,0 7.598,-1.253 6.935,-8.631"
             style="fill:#ffffff;fill-opacity:1;fill-rule:nonzero;stroke:none"
             id="path100" />
        </g>
        <g
           id="g102"
           transform="translate(624.8809,200)">
          <path
             d="m 0,0 c -1.181,1.845 -2.582,2.657 -4.647,2.657 -3.321,0 -6.272,-5.017 -6.272,-12.026 0,-4.722 1.255,-6.27 4.501,-6.196 2.509,0 4.131,1.697 5.46,5.164 0,0.147 0.072,0.368 0.072,0.516 z m -1.032,-17.999 c -2.286,-4.944 -5.46,-7.673 -10.108,-7.673 -5.09,0 -10.181,3.909 -10.181,15.196 0,15.051 7.821,22.428 16.084,22.428 2.581,0 4.5,-1.254 6.049,-3.098 0.369,1.992 1.918,3.098 4.425,3.098 2.951,0 4.722,-0.664 5.609,-1.401 L 9.443,-5.68 C 9.001,-10.845 9.222,-15.936 8.706,-21.614 7.525,-34.157 -1.032,-38.953 -10.328,-38.953 c -8.484,0 -13.279,3.174 -13.279,7.231 0,2.361 0.812,3.983 1.918,5.017 2.507,-1.624 6.049,-3.763 10.18,-3.763 6.272,0 9.738,2.582 10.328,7.673 0.149,1.622 0.149,3.172 0.149,4.796"
             style="fill:#ffffff;fill-opacity:1;fill-rule:nonzero;stroke:none"
             id="path104" />
        </g>
        <g
           id="g106"
           transform="translate(654.7627,182.5166)">
          <path
             d="m 0,0 c 3.541,0 5.681,3.246 5.681,12.395 0,5.385 -1.917,7.819 -4.501,7.819 C -1.918,20.214 -4.5,16.6 -4.5,7.599 -4.5,2.213 -2.508,0 0,0 m 2.36,29.361 c 8.117,0 14.018,-5.016 14.018,-16.156 0,-14.607 -7.82,-22.132 -17.336,-22.132 -8.19,0 -14.092,5.46 -14.092,15.493 0,15.123 7.894,22.795 17.41,22.795"
             style="fill:#ffffff;fill-opacity:1;fill-rule:nonzero;stroke:none"
             id="path108" />
        </g>
      </g>
    </g>
  </g>
</svg>
