<svg xmlns="http://www.w3.org/2000/svg" viewBox="0 0 1920 1920"><defs><style>.cls-1{fill:#d9762d;}.cls-2{fill:#fff;}</style></defs><g id="Layer_2" data-name="Layer 2"><g id="Capa_1" data-name="Capa 1"><rect class="cls-1" width="1920" height="1920"/><path class="cls-2" d="M553.92,1564.71l4.75-.62-4.74-.65c-1.77-.25-3-.4-4.53-.58-7.69-.91-11.21-3-12.55-7.52-.35-1.18-.66-2.36-1-3.65l-1.76-6.47-1.06,4.52c-.1.43-.17.77-.21,1,0,0,0,0,0,.08l-.09.3c-.32,1.33-.65,2.34-1,3.51l-.37,1.14c-1.18,3.76-4.38,5.85-10.06,6.56-1.63.2-3.27.42-4.91.65l-8,1.06,5.81.52c1.82.16,9.63,1.23,12.69,2.66,3.35,1.56,4.24,3.81,4.91,6.17.18.63.34,1.13.53,1.71s.41,1.31.72,2.35l1.16,4,1.35-4.75c.54-1.9,1-3.55,1.66-5.24,1.14-3,4.2-4.88,9.11-5.71,1.67-.28,3.44-.49,5.16-.7Zm-8.25-.25c-5.7,1-9.4,3.27-10.71,6.68-.3.77-.55,1.51-.79,2.28,0-.08,0-.15-.07-.23a9.66,9.66,0,0,0-5.72-7,40.44,40.44,0,0,0-9-2.29l2.44-.32c6.61-.83,10.49-3.31,11.84-7.6l.36-1.14.21-.65c.12.45.25.89.38,1.34,1.45,4.88,5.58,7.44,13.76,8.51C547.44,1564.19,546.55,1564.31,545.67,1564.46Z"/><path class="cls-2" d="M622.67,1797.46l4.75-.62-4.74-.65c-1.77-.24-3-.4-4.53-.57-7.7-.92-11.21-3-12.55-7.53-.35-1.18-.67-2.36-1-3.65l-1.76-6.46-1.06,4.51c-.11.43-.17.77-.21,1,0,0,0,.06,0,.08l-.08.3c-.32,1.33-.65,2.34-1,3.51l-.37,1.14c-1.18,3.77-4.38,5.85-10.06,6.56-1.64.2-3.27.42-4.92.65l-8,1.06,5.82.52c1.82.16,9.63,1.23,12.69,2.66,3.35,1.56,4.24,3.81,4.91,6.17.18.63.34,1.13.52,1.71s.42,1.31.73,2.35l1.16,4,1.35-4.75c.54-1.9,1-3.54,1.65-5.24,1.14-3,4.21-4.88,9.11-5.71,1.68-.28,3.45-.49,5.16-.7Zm-8.25-.25c-5.7,1-9.4,3.28-10.71,6.68-.3.77-.55,1.52-.79,2.28,0-.07,0-.15-.07-.23a9.66,9.66,0,0,0-5.72-7,41.14,41.14,0,0,0-9-2.29l2.44-.32c6.61-.82,10.49-3.31,11.83-7.6l.37-1.14.21-.65c.12.45.25.89.38,1.34,1.45,4.88,5.58,7.44,13.76,8.51C616.18,1796.94,615.29,1797.07,614.42,1797.21Z"/><path class="cls-2" d="M1733.73,216.15a14.74,14.74,0,0,1-6.28-8.44c-.92-2.72-1.33-5.49-2-8.23-.17-.75-.39-1.51-.58-2.26l-.4,0c-.25,1.44-.45,2.88-.77,4.32a32.06,32.06,0,0,1-3.79,10.47c-2.17,3.49-6.24,6-12.38,7.31-3.52.75-7.24,1.24-10.9,1.76-2.37.34-4.8.53-7.21.79v.19l1.39.14a117,117,0,0,1,16.79,2.39c5.45,1.28,9.61,3.34,11.7,6.49a21.46,21.46,0,0,1,2.79,5.5c1.13,3.76,1.88,7.55,2.73,11.06.27-1.39.63-3.06.89-4.73a26.88,26.88,0,0,1,4.1-11.47q2.82-4.14,9.76-6.23a76.62,76.62,0,0,1,13.6-2.43c2.31-.26,4.64-.49,7-.73a1.91,1.91,0,0,0-.91-.29c-4.26-.51-8.55-.95-12.77-1.55C1741.58,219.55,1737.15,218.33,1733.73,216.15Z"/><path class="cls-2" d="M238.2,524.54a5.33,5.33,0,0,1-2.31-3.1c-.34-1-.49-2-.73-3-.06-.28-.14-.55-.21-.83h-.15c-.09.53-.17,1.06-.28,1.59a11.8,11.8,0,0,1-1.4,3.85,6.69,6.69,0,0,1-4.55,2.69c-1.3.28-2.66.46-4,.65-.87.12-1.77.19-2.66.29v.07l.51,0a43.79,43.79,0,0,1,6.18.88c2,.47,3.54,1.23,4.31,2.38a7.89,7.89,0,0,1,1,2c.42,1.38.7,2.78,1,4.07.1-.51.23-1.13.33-1.74a9.75,9.75,0,0,1,1.51-4.22,6.34,6.34,0,0,1,3.58-2.29,28.64,28.64,0,0,1,5-.9l2.56-.27a.84.84,0,0,0-.33-.1c-1.57-.19-3.15-.35-4.7-.57A11.68,11.68,0,0,1,238.2,524.54Z"/><path class="cls-2" d="M974.58,80.51a5.48,5.48,0,0,1-2.31-3.1,29.59,29.59,0,0,1-.72-3c-.07-.28-.15-.55-.22-.83h-.15c-.09.53-.16,1.07-.28,1.59A11.84,11.84,0,0,1,969.51,79c-.8,1.29-2.3,2.22-4.56,2.7-1.3.27-2.66.45-4,.64-.87.13-1.77.2-2.65.29v.07l.51,0a42.44,42.44,0,0,1,6.17.89c2,.47,3.54,1.22,4.31,2.38a7.93,7.93,0,0,1,1,2c.41,1.38.69,2.77,1,4.07.1-.52.23-1.13.33-1.75a9.8,9.8,0,0,1,1.51-4.22,6.44,6.44,0,0,1,3.59-2.29,29.48,29.48,0,0,1,5-.89c.85-.1,1.71-.18,2.56-.27a.81.81,0,0,0-.33-.11c-1.57-.19-3.15-.35-4.7-.57A11.68,11.68,0,0,1,974.58,80.51Z"/><path class="cls-2" d="M1752,568.79a9,9,0,0,1-3.87-5.19c-.56-1.67-.82-3.37-1.21-5.06-.11-.46-.24-.92-.36-1.39h-.25c-.15.89-.28,1.78-.47,2.66a19.87,19.87,0,0,1-2.33,6.44c-1.34,2.15-3.84,3.7-7.62,4.5-2.17.46-4.45.76-6.7,1.08-1.46.21-3,.33-4.44.49v.11l.86.09A73.06,73.06,0,0,1,1736,574c3.36.79,5.92,2,7.2,4a13,13,0,0,1,1.71,3.38c.7,2.31,1.17,4.65,1.69,6.81.16-.86.38-1.89.54-2.91a16.53,16.53,0,0,1,2.53-7.06c1.15-1.7,3.16-3,6-3.83a47.37,47.37,0,0,1,8.36-1.5c1.43-.16,2.86-.29,4.28-.44a1.16,1.16,0,0,0-.56-.18c-2.61-.32-5.25-.59-7.85-1A19.49,19.49,0,0,1,1752,568.79Z"/><path class="cls-2" d="M1553.46,246.42l-4.23.55,4.22.58c1.59.22,2.71.36,4,.51,6.87.82,10,2.7,11.21,6.72.31,1.05.59,2.11.9,3.26l1.57,5.78,1-4q.13-.57.18-.9s0-.05,0-.07l.07-.27c.29-1.18.58-2.08.92-3.13l.32-1c1.06-3.36,3.91-5.22,9-5.85l4.4-.58,7.09-1-5.19-.46c-1.62-.15-8.6-1.11-11.33-2.38-3-1.39-3.78-3.4-4.38-5.51-.17-.57-.31-1-.47-1.53s-.37-1.17-.64-2.09l-1-3.53-1.2,4.24c-.48,1.7-.89,3.16-1.48,4.68-1,2.64-3.75,4.35-8.13,5.09-1.5.26-3.08.45-4.61.63Zm7.38.22c5.08-.86,8.38-2.92,9.56-6,.26-.68.49-1.35.7-2l.06.2a8.62,8.62,0,0,0,5.11,6.23,37,37,0,0,0,8.08,2.05l-2.17.28c-5.91.74-9.37,3-10.58,6.79l-.32,1c-.06.2-.13.39-.19.59-.11-.41-.22-.8-.34-1.2-1.3-4.36-5-6.65-12.29-7.6C1559.26,246.89,1560.05,246.77,1560.84,246.64Z"/><path class="cls-2" d="M1686.64,901.88l-4.75.62,4.74.65c1.77.24,3,.39,4.53.57,7.69.91,11.21,3,12.55,7.52.35,1.18.66,2.36,1,3.66l1.76,6.46,1.06-4.52c.11-.43.17-.77.21-1a.25.25,0,0,0,0-.08l.09-.31c.32-1.32.65-2.33,1-3.5l.37-1.15c1.18-3.76,4.38-5.84,10.06-6.55l4.91-.65,8-1.07-5.81-.51c-1.82-.16-9.63-1.24-12.69-2.66-3.35-1.56-4.24-3.81-4.91-6.18-.18-.63-.34-1.13-.53-1.71s-.41-1.31-.72-2.34l-1.16-4-1.35,4.74c-.54,1.91-1,3.55-1.66,5.25-1.13,3-4.2,4.87-9.11,5.7-1.67.28-3.44.5-5.16.71C1688.25,901.67,1687.44,901.77,1686.64,901.88Zm8.25.24c5.7-1,9.4-3.27,10.71-6.68.3-.76.55-1.51.79-2.27,0,.07,0,.14.07.22a9.62,9.62,0,0,0,5.72,7,41.11,41.11,0,0,0,9,2.3l-2.44.31c-6.61.83-10.49,3.32-11.84,7.61l-.36,1.13-.21.66c-.12-.45-.25-.9-.38-1.34-1.45-4.89-5.58-7.45-13.76-8.51C1693.12,902.4,1694,902.27,1694.89,902.12Z"/><path class="cls-2" d="M1818.88,1296.8l-4.74.62,4.73.65c1.77.24,3,.39,4.54.57,7.69.91,11.21,3,12.55,7.52.35,1.18.66,2.36,1,3.66l1.75,6.46,1.07-4.52c.1-.43.16-.76.21-1,0,0,0-.06,0-.08l.09-.31c.32-1.32.64-2.33,1-3.5l.36-1.15c1.19-3.76,4.38-5.84,10.06-6.55l4.92-.65,8-1.07-5.81-.51c-1.82-.16-9.63-1.24-12.7-2.66-3.34-1.56-4.23-3.81-4.91-6.18-.18-.63-.33-1.13-.52-1.71s-.41-1.3-.72-2.34l-1.17-4-1.34,4.74c-.54,1.91-1,3.55-1.66,5.25-1.14,3-4.2,4.87-9.11,5.7-1.68.29-3.45.5-5.16.71Zm8.26.24c5.69-1,9.4-3.27,10.71-6.68.29-.76.55-1.51.79-2.27l.06.22a9.64,9.64,0,0,0,5.73,7,40.42,40.42,0,0,0,9,2.3l-2.44.31c-6.62.83-10.49,3.32-11.84,7.61l-.36,1.13-.21.66-.39-1.34c-1.45-4.89-5.58-7.45-13.76-8.51C1825.37,1297.32,1826.26,1297.19,1827.14,1297Z"/><path class="cls-2" d="M1613.64,1713.44c5.4,3.46,7.53,7.73,9,12.08,1.31,3.88,1.9,7.85,2.82,11.77.25,1.08.56,2.15.84,3.23l.57,0c.36-2.06.64-4.13,1.1-6.18,1.12-5.08,2.4-10.13,5.42-15s8.93-8.6,17.72-10.47c5.05-1.07,10.36-1.77,15.61-2.52,3.39-.48,6.87-.75,10.32-1.12V1705c-.67-.07-1.32-.15-2-.2a169.77,169.77,0,0,1-24-3.43c-7.81-1.83-13.76-4.77-16.75-9.28a30.64,30.64,0,0,1-4-7.88c-1.62-5.37-2.7-10.8-3.91-15.83-.38,2-.9,4.38-1.28,6.77-.87,5.6-2.27,11.13-5.87,16.42-2.68,4-7.35,6.91-14,8.92-6.1,1.85-12.76,2.71-19.47,3.48-3.31.37-6.64.69-10,1a3.07,3.07,0,0,0,1.29.42c6.1.73,12.23,1.36,18.28,2.21C1602.41,1708.57,1608.76,1710.31,1613.64,1713.44Z"/><path class="cls-2" d="M1848.11,1484.16a5.44,5.44,0,0,1,2.32,3.11c.33,1,.49,2,.72,3,.07.28.15.56.22.83h.14c.1-.53.17-1.06.29-1.59a11.77,11.77,0,0,1,1.39-3.85c.8-1.29,2.3-2.21,4.56-2.69,1.29-.28,2.66-.46,4-.65.87-.13,1.77-.2,2.65-.29V1482l-.51,0a44.21,44.21,0,0,1-6.18-.88c-2-.47-3.53-1.23-4.3-2.39a7.72,7.72,0,0,1-1-2c-.41-1.39-.69-2.78-1-4.07-.1.51-.24,1.12-.33,1.74a9.88,9.88,0,0,1-1.51,4.22,6.44,6.44,0,0,1-3.59,2.29,27.58,27.58,0,0,1-5,.89l-2.55.27a.65.65,0,0,0,.33.11c1.57.19,3.14.35,4.7.57A11.74,11.74,0,0,1,1848.11,1484.16Z"/><path class="cls-2" d="M1765,1099.18a5.38,5.38,0,0,1,2.31,3.11c.34,1,.49,2,.73,3,.07.28.14.56.22.83h.14c.09-.53.17-1.06.28-1.59a11.8,11.8,0,0,1,1.4-3.85c.8-1.29,2.29-2.21,4.55-2.69,1.3-.28,2.67-.46,4-.65.88-.13,1.77-.2,2.66-.29V1097l-.51,0a44,44,0,0,1-6.18-.88c-2-.47-3.54-1.23-4.31-2.39a8,8,0,0,1-1-2c-.42-1.39-.7-2.78-1-4.07-.1.51-.23,1.12-.32,1.74a10,10,0,0,1-1.51,4.22,6.44,6.44,0,0,1-3.59,2.29,27.58,27.58,0,0,1-5,.89c-.85.1-1.7.18-2.56.27a.72.72,0,0,0,.34.11c1.56.19,3.14.35,4.69.57A11.79,11.79,0,0,1,1765,1099.18Z"/><path class="cls-2" d="M844.21,1670.65a5.39,5.39,0,0,1,2.32,3.1c.33,1,.49,2,.72,3,.07.27.15.55.22.83h.15c.09-.53.16-1.06.28-1.59a12,12,0,0,1,1.39-3.85,6.71,6.71,0,0,1,4.56-2.69c1.29-.28,2.66-.46,4-.65.87-.12,1.77-.19,2.65-.29v-.07l-.51,0a44.21,44.21,0,0,1-6.18-.88c-2-.47-3.53-1.23-4.3-2.38a7.93,7.93,0,0,1-1-2c-.41-1.38-.69-2.78-1-4.07-.1.51-.24,1.13-.33,1.74a9.88,9.88,0,0,1-1.51,4.22,6.33,6.33,0,0,1-3.59,2.29,28.47,28.47,0,0,1-5,.9l-2.55.27a.75.75,0,0,0,.33.1c1.57.19,3.14.35,4.7.57A11.58,11.58,0,0,1,844.21,1670.65Z"/><path class="cls-2" d="M1709.51,1769.31l4.75-.62-4.73-.65c-1.77-.24-3-.39-4.54-.57-7.69-.91-11.21-3-12.55-7.52-.35-1.18-.66-2.37-1-3.66l-1.75-6.46-1.07,4.52c-.1.43-.16.76-.21,1,0,0,0,.06,0,.08l-.09.3c-.32,1.33-.64,2.34-1,3.51l-.37,1.15c-1.18,3.76-4.38,5.84-10.05,6.55l-4.92.65-8,1.06,5.81.52c1.82.16,9.63,1.24,12.7,2.66,3.34,1.56,4.23,3.81,4.9,6.17.19.64.34,1.14.53,1.72s.41,1.3.72,2.34l1.16,4,1.35-4.74c.54-1.91,1-3.55,1.66-5.25,1.14-3,4.2-4.87,9.11-5.7,1.68-.29,3.45-.5,5.16-.71C1707.9,1769.51,1708.71,1769.42,1709.51,1769.31Zm-8.25-.24c-5.69,1-9.4,3.27-10.71,6.68-.29.76-.55,1.51-.79,2.27a1.87,1.87,0,0,0-.07-.22,9.6,9.6,0,0,0-5.72-7,40.42,40.42,0,0,0-9-2.3l2.44-.31c6.62-.83,10.49-3.32,11.84-7.61l.36-1.13.21-.66c.13.45.25.9.39,1.34,1.45,4.89,5.57,7.45,13.76,8.51C1703,1768.79,1702.14,1768.92,1701.26,1769.07Z"/><path class="cls-2" d="M1499,1564.71l4.75-.62-4.74-.65c-1.77-.25-3-.4-4.53-.58-7.7-.91-11.21-3-12.55-7.52-.35-1.18-.67-2.36-1-3.65l-1.76-6.47-1.06,4.52c-.11.43-.17.77-.21,1l0,.08-.08.3c-.32,1.33-.65,2.34-1,3.51l-.37,1.14c-1.18,3.76-4.38,5.85-10.06,6.56-1.64.2-3.27.42-4.91.65l-8,1.06,5.81.52c1.82.16,9.63,1.23,12.69,2.66,3.35,1.56,4.24,3.81,4.91,6.17.18.63.34,1.13.53,1.71s.41,1.31.72,2.35l1.16,4,1.35-4.75c.54-1.9,1-3.55,1.65-5.24,1.14-3,4.21-4.88,9.11-5.71,1.68-.28,3.45-.49,5.17-.7Zm-8.25-.25c-5.7,1-9.4,3.27-10.71,6.68-.3.77-.55,1.51-.79,2.28,0-.08,0-.15-.07-.23a9.66,9.66,0,0,0-5.72-7,40.58,40.58,0,0,0-9-2.29l2.44-.32c6.61-.83,10.49-3.31,11.83-7.6l.37-1.14.21-.65c.12.45.25.89.38,1.34,1.45,4.88,5.58,7.44,13.76,8.51C1492.52,1564.19,1491.63,1564.31,1490.76,1564.46Z"/><path class="cls-2" d="M1804.09,335.74l-4.74.62,4.73.65c1.77.24,3,.39,4.54.57,7.69.91,11.21,3,12.54,7.52.35,1.18.67,2.37,1,3.66l1.76,6.46,1.07-4.51c.1-.43.16-.77.2-1,0,0,0-.06,0-.08l.08-.3c.33-1.33.65-2.34,1-3.51l.36-1.14c1.19-3.77,4.38-5.85,10.06-6.56l4.92-.65,7.95-1.06-5.81-.52c-1.83-.16-9.64-1.24-12.7-2.66-3.35-1.56-4.23-3.81-4.91-6.17-.18-.64-.34-1.14-.52-1.72s-.41-1.3-.72-2.34l-1.17-3.95-1.34,4.75c-.54,1.9-1,3.54-1.66,5.24-1.14,3-4.21,4.87-9.11,5.7-1.68.29-3.45.5-5.16.71Zm8.26.24c5.69-1,9.39-3.27,10.71-6.68.29-.76.55-1.51.79-2.27l.06.22a9.65,9.65,0,0,0,5.72,7,40.65,40.65,0,0,0,9.06,2.3l-2.44.32c-6.62.82-10.49,3.31-11.84,7.6l-.36,1.14c-.08.22-.15.43-.21.65l-.39-1.34c-1.45-4.88-5.58-7.45-13.76-8.51C1810.58,336.26,1811.47,336.13,1812.35,336Z"/><path class="cls-2" d="M609.44,56.22l-4.75.62,4.74.65c1.77.24,3,.39,4.53.57,7.7.91,11.21,3,12.55,7.52.35,1.18.67,2.36,1,3.66l1.76,6.46,1.07-4.52c.1-.43.16-.77.2-1,0,0,0-.06,0-.09l.08-.3c.32-1.32.65-2.33,1-3.5l.36-1.15c1.19-3.76,4.38-5.84,10.06-6.55l4.92-.65,8-1.07-5.82-.51c-1.82-.16-9.63-1.24-12.69-2.66-3.35-1.56-4.23-3.81-4.91-6.18-.18-.63-.34-1.13-.52-1.71s-.42-1.31-.72-2.34l-1.17-3.95-1.35,4.74c-.54,1.91-1,3.55-1.65,5.25-1.14,3-4.21,4.87-9.11,5.7-1.68.28-3.45.5-5.16.71Q610.66,56.05,609.44,56.22Zm8.26.24c5.69-1,9.39-3.27,10.7-6.68.3-.76.55-1.51.79-2.27a1.42,1.42,0,0,1,.07.22,9.62,9.62,0,0,0,5.72,7,41.11,41.11,0,0,0,9,2.3l-2.43.31c-6.62.83-10.49,3.32-11.84,7.61l-.37,1.13c-.07.23-.14.44-.21.66-.12-.45-.25-.9-.38-1.34-1.45-4.89-5.58-7.45-13.76-8.51C615.93,56.74,616.82,56.61,617.7,56.46Z"/><path class="cls-2" d="M1590.36,89.12a14.75,14.75,0,0,1,6.29,8.45c.92,2.71,1.33,5.48,2,8.22.18.76.39,1.51.59,2.26l.4,0c.25-1.44.45-2.88.76-4.32a32.32,32.32,0,0,1,3.8-10.47c2.17-3.49,6.23-6,12.38-7.31,3.52-.75,7.23-1.24,10.9-1.76,2.37-.34,4.8-.53,7.21-.79V83.2c-.46,0-.92-.11-1.39-.15a116.84,116.84,0,0,1-16.79-2.39c-5.45-1.28-9.62-3.34-11.7-6.49a21.14,21.14,0,0,1-2.79-5.5c-1.13-3.76-1.89-7.55-2.73-11.06-.27,1.39-.63,3.06-.89,4.73a26.88,26.88,0,0,1-4.1,11.47c-1.88,2.77-5.14,4.83-9.76,6.23a76.57,76.57,0,0,1-13.61,2.43c-2.31.27-4.63.49-7,.73a1.91,1.91,0,0,0,.91.29c4.25.52,8.54,1,12.77,1.55C1582.52,85.72,1587,86.94,1590.36,89.12Z"/><path class="cls-2" d="M1759.34,692c-5.4-3.46-7.54-7.73-9-12.08-1.31-3.89-1.9-7.85-2.82-11.78-.25-1.08-.56-2.15-.84-3.22h-.57c-.36,2.07-.64,4.13-1.09,6.19-1.12,5.07-2.41,10.12-5.43,15s-8.93,8.61-17.72,10.47c-5,1.07-10.36,1.77-15.6,2.52-3.39.49-6.88.76-10.32,1.13v.27l2,.2a166.73,166.73,0,0,1,24,3.43c7.81,1.83,13.77,4.77,16.76,9.28a30.7,30.7,0,0,1,4,7.87c1.62,5.38,2.7,10.81,3.92,15.84.38-2,.9-4.38,1.27-6.78.87-5.59,2.27-11.13,5.87-16.42,2.69-4,7.35-6.9,14-8.91,6.1-1.86,12.77-2.71,19.48-3.48,3.3-.38,6.63-.69,10-1a2.89,2.89,0,0,0-1.3-.42c-6.09-.73-12.23-1.36-18.27-2.21C1770.56,696.91,1764.22,695.17,1759.34,692Z"/><path class="cls-2" d="M1160.32,1573.69c5.4,3.46,7.53,7.73,9,12.08,1.31,3.88,1.9,7.85,2.82,11.77.25,1.08.56,2.16.84,3.23l.57,0c.36-2.06.64-4.13,1.09-6.18,1.13-5.07,2.41-10.13,5.43-15s8.93-8.6,17.72-10.47c5-1.07,10.36-1.77,15.61-2.52,3.39-.48,6.87-.75,10.32-1.12,0-.09,0-.18,0-.27-.66-.07-1.31-.15-2-.2a169.77,169.77,0,0,1-24-3.43c-7.81-1.83-13.76-4.77-16.75-9.28a30.64,30.64,0,0,1-4-7.88c-1.62-5.37-2.7-10.8-3.92-15.83-.37,2-.9,4.38-1.27,6.77-.87,5.6-2.27,11.14-5.87,16.43-2.68,4-7.35,6.9-14,8.91-6.1,1.85-12.76,2.71-19.47,3.48-3.31.37-6.64.69-10,1a3.07,3.07,0,0,0,1.29.42c6.09.73,12.23,1.36,18.28,2.21C1149.09,1568.82,1155.44,1570.56,1160.32,1573.69Z"/><path class="cls-2" d="M1072.85,1842.74a14.73,14.73,0,0,1,6.29,8.44c.92,2.72,1.33,5.48,2,8.23.18.75.39,1.5.59,2.25h.4c.25-1.44.45-2.89.76-4.32a32.53,32.53,0,0,1,3.79-10.47c2.18-3.49,6.24-6,12.38-7.31,3.53-.75,7.24-1.24,10.91-1.77,2.37-.33,4.8-.52,7.21-.78v-.19l-1.39-.14a116.84,116.84,0,0,1-16.79-2.4c-5.46-1.27-9.62-3.33-11.71-6.48a21.41,21.41,0,0,1-2.78-5.5c-1.13-3.76-1.89-7.55-2.74-11.07-.26,1.4-.62,3.06-.88,4.74a26.89,26.89,0,0,1-4.11,11.47c-1.87,2.76-5.13,4.83-9.75,6.23a78.41,78.41,0,0,1-13.61,2.43c-2.31.26-4.63.48-7,.73a2.16,2.16,0,0,0,.91.29c4.25.51,8.54,1,12.76,1.54C1065,1839.34,1069.44,1840.55,1072.85,1842.74Z"/><path class="cls-2" d="M99.17,973.21a14.75,14.75,0,0,1-6.29-8.44c-.91-2.71-1.32-5.48-2-8.23-.17-.75-.39-1.5-.58-2.25h-.4c-.25,1.44-.45,2.89-.77,4.32a31.9,31.9,0,0,1-3.79,10.47c-2.17,3.5-6.24,6-12.38,7.32-3.53.75-7.24,1.23-10.9,1.76-2.37.34-4.81.53-7.21.79v.18l1.39.14a118.33,118.33,0,0,1,16.78,2.4c5.46,1.28,9.62,3.33,11.71,6.48a22,22,0,0,1,2.79,5.51c1.12,3.75,1.88,7.54,2.73,11.06.27-1.39.63-3.06.89-4.73a26.91,26.91,0,0,1,4.1-11.48c1.88-2.76,5.14-4.82,9.76-6.23a77.37,77.37,0,0,1,13.6-2.42c2.31-.27,4.64-.49,7-.73a2,2,0,0,0-.9-.3c-4.26-.51-8.55-1-12.77-1.54C107,976.61,102.58,975.4,99.17,973.21Z"/><path class="cls-2" d="M97.16,253.32a14.72,14.72,0,0,1-6.29-8.44c-.92-2.72-1.33-5.49-2-8.23-.17-.75-.38-1.5-.58-2.25h-.4c-.25,1.44-.45,2.88-.76,4.32a32.32,32.32,0,0,1-3.8,10.47c-2.17,3.49-6.24,6-12.38,7.31-3.52.75-7.23,1.24-10.9,1.76-2.37.34-4.8.53-7.21.79v.19l1.39.14A116.84,116.84,0,0,1,71,261.79c5.45,1.27,9.61,3.33,11.7,6.48a21.14,21.14,0,0,1,2.79,5.5c1.13,3.76,1.89,7.55,2.73,11.06.27-1.39.63-3.06.89-4.73a26.88,26.88,0,0,1,4.1-11.47q2.82-4.14,9.76-6.23A76.57,76.57,0,0,1,116.62,260c2.31-.26,4.63-.49,6.95-.73a2.16,2.16,0,0,0-.91-.29c-4.26-.51-8.54-.95-12.77-1.54C105,256.72,100.57,255.5,97.16,253.32Z"/><path class="cls-2" d="M150,943.59l-4.24.55,4.23.58c1.58.22,2.7.35,4.05.51,6.86.82,10,2.7,11.2,6.72.31,1,.59,2.11.9,3.26l1.57,5.77,1-4c.09-.38.15-.68.19-.9,0,0,0,0,0-.07l.07-.27c.29-1.18.58-2.09.92-3.13l.33-1c1.05-3.36,3.91-5.22,9-5.85l4.39-.58,7.1-1-5.19-.46c-1.63-.15-8.6-1.11-11.34-2.38-3-1.39-3.78-3.4-4.38-5.51-.16-.57-.3-1-.47-1.53s-.37-1.17-.64-2.1l-1-3.52-1.21,4.24c-.48,1.69-.89,3.16-1.48,4.68-1,2.64-3.75,4.35-8.13,5.09-1.5.25-3.08.44-4.61.63Zm7.37.22c5.08-.86,8.39-2.92,9.56-6,.26-.68.49-1.35.7-2l.06.2a8.62,8.62,0,0,0,5.11,6.23,37.27,37.27,0,0,0,8.08,2l-2.17.28c-5.91.74-9.37,3-10.57,6.79l-.33,1-.18.59c-.12-.41-.23-.81-.35-1.2-1.29-4.36-5-6.65-12.29-7.6C155.81,944.05,156.6,943.94,157.39,943.81Z"/><path class="cls-2" d="M261.31,404.68l-4.24.56,4.23.58c1.58.21,2.71.35,4.05.51,6.87.81,10,2.69,11.2,6.71.31,1.06.59,2.11.9,3.27l1.57,5.77,1-4c.09-.39.15-.69.19-.9,0,0,0,0,0-.08l.08-.27c.28-1.18.57-2.08.91-3.13l.33-1c1.05-3.36,3.91-5.22,9-5.85,1.46-.18,2.92-.38,4.39-.58l7.1-1-5.19-.46c-1.63-.15-8.6-1.11-11.34-2.38-3-1.39-3.78-3.4-4.38-5.51-.16-.56-.3-1-.47-1.53s-.37-1.17-.64-2.09l-1-3.53L277.69,394c-.48,1.7-.89,3.17-1.47,4.68-1,2.64-3.76,4.35-8.14,5.09-1.5.26-3.08.45-4.61.63Zm7.37.22c5.08-.86,8.39-2.92,9.56-6,.26-.68.49-1.35.71-2a1.6,1.6,0,0,0,.05.21,8.65,8.65,0,0,0,5.11,6.22,36.71,36.71,0,0,0,8.08,2.05l-2.17.28c-5.91.74-9.37,3-10.57,6.79l-.33,1-.18.59c-.12-.4-.23-.8-.35-1.2-1.29-4.36-5-6.65-12.28-7.6C267.1,405.15,267.89,405,268.68,404.9Z"/><path class="cls-2" d="M125.71,1213.19a5.39,5.39,0,0,1,2.31,3.1c.34,1,.49,2,.73,3,.06.28.14.55.21.83h.15c.09-.53.17-1.06.28-1.59a11.8,11.8,0,0,1,1.4-3.85,6.69,6.69,0,0,1,4.55-2.69c1.3-.27,2.67-.45,4-.65.88-.12,1.77-.19,2.66-.29V1211l-.51-.06a41.25,41.25,0,0,1-6.18-.88c-2-.47-3.54-1.22-4.31-2.38a8.23,8.23,0,0,1-1-2c-.42-1.38-.7-2.77-1-4.07-.1.51-.23,1.13-.33,1.74a9.86,9.86,0,0,1-1.5,4.22,6.39,6.39,0,0,1-3.59,2.3,29.42,29.42,0,0,1-5,.89c-.85.1-1.7.18-2.56.27a.85.85,0,0,0,.34.11c1.56.18,3.14.35,4.69.56A11.79,11.79,0,0,1,125.71,1213.19Z"/><path class="cls-2" d="M138.72,483.05a5.4,5.4,0,0,1,2.31,3.1c.34,1,.49,2,.73,3,.06.28.14.55.21.83h.15c.09-.53.16-1.06.28-1.59a11.8,11.8,0,0,1,1.4-3.85,6.69,6.69,0,0,1,4.55-2.69c1.3-.27,2.66-.45,4-.65.87-.12,1.77-.19,2.65-.29v-.07l-.51-.05a43.86,43.86,0,0,1-6.17-.88c-2-.47-3.54-1.23-4.31-2.38a7.59,7.59,0,0,1-1-2c-.42-1.38-.7-2.78-1-4.07-.1.51-.23,1.13-.33,1.74a9.75,9.75,0,0,1-1.51,4.22,6.33,6.33,0,0,1-3.59,2.29,28.36,28.36,0,0,1-5,.9c-.85.1-1.71.18-2.56.27a.7.7,0,0,0,.33.1c1.57.19,3.15.35,4.7.57A11.84,11.84,0,0,1,138.72,483.05Z"/><path class="cls-2" d="M151.72,116a5.44,5.44,0,0,1,2.32,3.11,28.8,28.8,0,0,1,.72,3c.07.28.15.56.22.83h.15c.09-.53.16-1.06.28-1.59a11.84,11.84,0,0,1,1.39-3.85c.8-1.29,2.3-2.22,4.56-2.7,1.3-.27,2.66-.45,4-.64.87-.13,1.77-.2,2.65-.29v-.07l-.51,0a42.78,42.78,0,0,1-6.18-.89c-2-.46-3.53-1.22-4.3-2.38a7.93,7.93,0,0,1-1-2c-.41-1.38-.69-2.77-1-4.07-.1.52-.23,1.13-.33,1.75a9.88,9.88,0,0,1-1.51,4.22,6.44,6.44,0,0,1-3.59,2.29,27.63,27.63,0,0,1-5,.89c-.85.1-1.71.18-2.56.27a.76.76,0,0,0,.33.11c1.57.19,3.14.35,4.7.57A11.74,11.74,0,0,1,151.72,116Z"/><path class="cls-2" d="M150.75,635.54l-4,.53,4,.54c1.49.21,2.56.34,3.83.49,6.49.77,9.46,2.55,10.59,6.35.29,1,.56,2,.85,3.08l1.48,5.46.9-3.81c.09-.37.14-.65.18-.85,0,0,0-.05,0-.07l.07-.26c.27-1.12.55-2,.87-3l.3-1c1-3.18,3.7-4.94,8.5-5.54l4.15-.54,6.71-.9-4.91-.44c-1.54-.13-8.13-1-10.72-2.24a7.13,7.13,0,0,1-4.14-5.21c-.15-.54-.29-1-.44-1.45s-.35-1.1-.61-2l-1-3.33-1.14,4c-.45,1.61-.85,3-1.4,4.43-1,2.49-3.55,4.11-7.69,4.81-1.41.24-2.91.42-4.35.6Zm7,.21c4.8-.81,7.93-2.76,9-5.64q.36-1,.66-1.92l.06.19a8.11,8.11,0,0,0,4.83,5.88A34.27,34.27,0,0,0,180,636.2l-2.06.27c-5.59.7-8.85,2.8-10,6.42l-.31,1-.18.55c-.1-.38-.21-.76-.32-1.13-1.23-4.13-4.71-6.29-11.62-7.19Z"/><path class="cls-2" d="M283.53,1798.4a14.66,14.66,0,0,1,6.29,8.44c.92,2.71,1.33,5.48,2,8.23.18.75.39,1.5.59,2.25h.4c.25-1.44.45-2.89.76-4.33a32.18,32.18,0,0,1,3.8-10.46c2.17-3.5,6.23-6,12.38-7.32,3.52-.75,7.23-1.24,10.9-1.76,2.37-.34,4.8-.53,7.21-.79v-.18l-1.39-.14a118.26,118.26,0,0,1-16.79-2.4c-5.45-1.28-9.61-3.33-11.7-6.48a21.35,21.35,0,0,1-2.79-5.51c-1.13-3.75-1.89-7.54-2.73-11.06-.27,1.39-.63,3.06-.89,4.73a27,27,0,0,1-4.1,11.48c-1.88,2.76-5.14,4.82-9.76,6.22a76.57,76.57,0,0,1-13.61,2.43c-2.31.27-4.63.49-6.95.73a2,2,0,0,0,.91.3c4.26.51,8.54,1,12.77,1.54C275.69,1795,280.12,1796.21,283.53,1798.4Z"/><path class="cls-2" d="M168.5,1330.34a4.6,4.6,0,0,1,2,2.63c.28.84.41,1.7.61,2.55.05.23.12.47.18.7h.12c.08-.45.14-.9.24-1.35a9.83,9.83,0,0,1,1.18-3.25,5.67,5.67,0,0,1,3.84-2.27c1.1-.23,2.25-.38,3.39-.55.74-.1,1.49-.16,2.24-.24v-.06l-.43,0a35.47,35.47,0,0,1-5.22-.75,5.75,5.75,0,0,1-3.63-2,6.74,6.74,0,0,1-.87-1.71c-.35-1.16-.58-2.34-.85-3.43-.08.43-.19,1-.27,1.47a8.26,8.26,0,0,1-1.28,3.56,5.32,5.32,0,0,1-3,1.93,23.52,23.52,0,0,1-4.22.76l-2.16.22a.73.73,0,0,0,.28.1c1.32.15,2.66.29,4,.47A10,10,0,0,1,168.5,1330.34Z"/><path class="cls-2" d="M230.67,1108.13l4.24-.56-4.23-.58c-1.58-.21-2.7-.35-4.05-.51-6.87-.81-10-2.7-11.2-6.71-.31-1.06-.59-2.11-.9-3.27l-1.57-5.77-1,4c-.09.39-.15.69-.19.9,0,0,0,0,0,.07l-.08.27c-.28,1.19-.57,2.09-.91,3.14l-.33,1c-1.05,3.36-3.91,5.22-9,5.85-1.46.18-2.92.38-4.39.58l-7.1,1,5.19.46c1.63.14,8.6,1.1,11.34,2.38,3,1.39,3.78,3.4,4.38,5.51.16.56.3,1,.47,1.53s.37,1.16.64,2.09l1,3.53,1.21-4.24c.48-1.7.89-3.17,1.47-4.68,1-2.64,3.76-4.36,8.14-5.1,1.5-.25,3.08-.44,4.61-.63Zm-7.37-.22c-5.08.86-8.39,2.92-9.56,6-.26.68-.49,1.35-.7,2l-.06-.2a8.65,8.65,0,0,0-5.11-6.22,36.16,36.16,0,0,0-8.08-2l2.17-.28c5.91-.74,9.37-3,10.57-6.79l.33-1,.18-.58c.12.4.23.8.35,1.2,1.29,4.36,5,6.64,12.28,7.59Z"/><path class="cls-2" d="M119.38,1647l4.24-.55-4.23-.58c-1.58-.22-2.71-.35-4-.51-6.87-.82-10-2.7-11.2-6.72-.31-1.05-.59-2.11-.9-3.26l-1.57-5.77-1,4c-.1.38-.15.69-.19.9,0,0,0,0,0,.07l-.08.27c-.28,1.18-.58,2.09-.91,3.13l-.33,1c-1.06,3.36-3.91,5.22-9,5.86-1.46.18-2.92.38-4.39.58l-7.1,1,5.19.46c1.63.14,8.6,1.1,11.34,2.37,3,1.39,3.78,3.4,4.38,5.51.16.57.3,1,.47,1.53s.37,1.17.64,2.1l1,3.52,1.21-4.24c.48-1.69.89-3.16,1.47-4.68,1-2.64,3.76-4.35,8.14-5.09,1.5-.25,3.08-.44,4.61-.63C117.94,1647.21,118.66,1647.13,119.38,1647Zm-7.37-.22c-5.08.86-8.39,2.93-9.56,6-.26.68-.49,1.35-.71,2a1.46,1.46,0,0,1,0-.2,8.65,8.65,0,0,0-5.11-6.23,37.22,37.22,0,0,0-8.09-2.05l2.18-.28c5.91-.73,9.37-3,10.57-6.79l.33-1,.18-.58c.12.4.23.8.35,1.19,1.29,4.36,5,6.65,12.28,7.6C113.59,1646.57,112.79,1646.68,112,1646.81Z"/><path class="cls-2" d="M229.94,1416.17l4-.52-4-.55c-1.49-.2-2.56-.33-3.83-.48-6.49-.77-9.46-2.55-10.59-6.35-.29-1-.56-2-.85-3.09l-1.48-5.45-.91,3.81c-.08.36-.13.65-.17.85,0,0,0,0,0,.07l-.07.25c-.27,1.12-.55,2-.87,3l-.31,1c-1,3.17-3.69,4.93-8.49,5.53-1.38.17-2.76.36-4.15.55l-6.71.9,4.91.43c1.54.14,8.13,1,10.71,2.25a7.08,7.08,0,0,1,4.15,5.21c.15.53.28,1,.44,1.45s.35,1.1.61,2l1,3.34,1.14-4c.45-1.6.85-3,1.4-4.42,1-2.5,3.55-4.12,7.69-4.82,1.41-.24,2.91-.42,4.35-.59Zm-7-.2c-4.8.81-7.93,2.76-9,5.63-.24.65-.46,1.28-.66,1.92l-.06-.19a8.15,8.15,0,0,0-4.83-5.88,34.27,34.27,0,0,0-7.64-1.94l2.06-.26c5.58-.7,8.85-2.8,10-6.42l.31-1,.18-.55c.1.38.21.75.32,1.13,1.22,4.12,4.71,6.28,11.62,7.18C224.47,1415.73,223.71,1415.84,223,1416Z"/><path class="cls-2" d="M681,300.53a14.81,14.81,0,0,1-6.29-8.44c-.91-2.72-1.32-5.49-2-8.23-.17-.75-.39-1.5-.58-2.26l-.4,0c-.25,1.44-.45,2.88-.77,4.32a32.06,32.06,0,0,1-3.79,10.47c-2.17,3.49-6.24,6-12.38,7.31-3.53.75-7.24,1.24-10.9,1.76-2.37.34-4.81.53-7.21.79v.19l1.39.14A116.9,116.9,0,0,1,654.89,309c5.46,1.28,9.62,3.34,11.71,6.49a21.78,21.78,0,0,1,2.79,5.5c1.12,3.76,1.88,7.55,2.73,11.06.27-1.39.63-3.06.89-4.73a26.88,26.88,0,0,1,4.1-11.47q2.82-4.14,9.76-6.23a76.46,76.46,0,0,1,13.6-2.43c2.31-.26,4.64-.49,6.95-.73a2.12,2.12,0,0,0-.9-.29c-4.26-.51-8.55-1-12.77-1.55C688.86,303.93,684.42,302.71,681,300.53Z"/><path class="cls-2" d="M731.86,270.9l-4.24.56,4.23.58c1.58.21,2.7.35,4,.51,6.86.81,10,2.7,11.2,6.71.31,1.06.59,2.11.9,3.27l1.57,5.77.95-4c.09-.39.15-.69.19-.9,0,0,0-.05,0-.08l.07-.26c.29-1.19.58-2.09.92-3.14l.33-1c1.05-3.36,3.91-5.22,9-5.85,1.46-.18,2.92-.38,4.39-.58l7.1-.95-5.19-.46c-1.63-.14-8.6-1.11-11.34-2.38-3-1.39-3.78-3.4-4.38-5.51-.16-.56-.3-1-.47-1.53s-.37-1.16-.64-2.09l-1-3.53-1.21,4.24c-.48,1.7-.89,3.17-1.48,4.68-1,2.64-3.75,4.36-8.13,5.1-1.5.25-3.08.44-4.61.62Zm7.37.22c5.08-.86,8.39-2.92,9.56-6,.26-.68.49-1.35.7-2l.06.2a8.65,8.65,0,0,0,5.11,6.22,36.16,36.16,0,0,0,8.08,2.05l-2.17.28c-5.91.74-9.37,3-10.57,6.79l-.33,1-.18.58c-.12-.4-.23-.8-.35-1.2-1.29-4.36-5-6.65-12.29-7.6C737.65,271.37,738.44,271.25,739.23,271.12Z"/><path class="cls-2" d="M276,740.2a5.38,5.38,0,0,1,2.31,3.11c.34,1,.49,2,.73,3,.06.28.14.56.21.83h.15c.09-.53.17-1.06.28-1.59a11.72,11.72,0,0,1,1.4-3.85,6.66,6.66,0,0,1,4.55-2.7c1.3-.27,2.67-.45,4-.64.88-.13,1.77-.2,2.66-.29V738l-.51,0a42.58,42.58,0,0,1-6.18-.89c-2-.46-3.54-1.22-4.31-2.38a8.34,8.34,0,0,1-1-2c-.42-1.39-.7-2.78-1-4.08-.1.52-.23,1.13-.33,1.75a9.86,9.86,0,0,1-1.5,4.22,6.44,6.44,0,0,1-3.59,2.29,27.58,27.58,0,0,1-5,.89c-.85.1-1.7.18-2.56.27a.85.85,0,0,0,.34.11c1.56.19,3.14.35,4.69.57A11.79,11.79,0,0,1,276,740.2Z"/><path class="cls-2" d="M1118.46,90.42a14.74,14.74,0,0,1,6.28,8.44c.92,2.72,1.33,5.49,2,8.23.17.75.39,1.5.58,2.26l.4,0c.25-1.44.45-2.88.77-4.32a32.06,32.06,0,0,1,3.79-10.47c2.17-3.49,6.24-6,12.38-7.31,3.52-.75,7.24-1.24,10.9-1.76,2.37-.34,4.81-.53,7.21-.79v-.19l-1.39-.14A116.7,116.7,0,0,1,1144.58,82c-5.46-1.28-9.62-3.34-11.71-6.49a21.78,21.78,0,0,1-2.79-5.5c-1.13-3.76-1.88-7.55-2.73-11.06-.27,1.39-.63,3.06-.89,4.73a26.88,26.88,0,0,1-4.1,11.47q-2.82,4.14-9.76,6.23a76.62,76.62,0,0,1-13.6,2.43c-2.31.26-4.64.49-7,.73a1.91,1.91,0,0,0,.91.29c4.26.51,8.55.95,12.77,1.55C1110.61,87,1115,88.24,1118.46,90.42Z"/><path class="cls-2" d="M1126.64,342.27a4.56,4.56,0,0,1,1.95,2.62,25.52,25.52,0,0,1,.61,2.55c.06.24.12.47.19.7h.12c.08-.45.14-.9.24-1.34a10,10,0,0,1,1.17-3.25,5.66,5.66,0,0,1,3.85-2.28c1.09-.23,2.25-.38,3.39-.54.73-.11,1.49-.17,2.23-.25v-.06l-.43,0a36.52,36.52,0,0,1-5.21-.74,5.83,5.83,0,0,1-3.64-2,6.7,6.7,0,0,1-.86-1.71c-.35-1.16-.59-2.34-.85-3.43-.08.43-.2.95-.28,1.47a8.37,8.37,0,0,1-1.27,3.56,5.41,5.41,0,0,1-3,1.94,24.56,24.56,0,0,1-4.23.75l-2.15.23a.71.71,0,0,0,.28.09c1.32.16,2.65.29,4,.48A9.89,9.89,0,0,1,1126.64,342.27Z"/><path class="cls-2" d="M1067.61,120.05l4.24-.56-4.23-.58c-1.58-.21-2.7-.35-4-.51-6.87-.81-10-2.69-11.2-6.71-.31-1.06-.59-2.11-.9-3.27l-1.57-5.77-1,4c-.09.39-.15.69-.19.9,0,0,0,0,0,.08l-.08.26c-.28,1.19-.57,2.09-.91,3.14l-.33,1c-1,3.36-3.91,5.22-9,5.85-1.46.18-2.92.38-4.39.58l-7.1.95,5.19.46c1.63.14,8.6,1.11,11.34,2.38,3,1.39,3.78,3.4,4.38,5.51.16.56.3,1,.47,1.53s.37,1.16.64,2.09l1,3.53,1.21-4.24c.48-1.7.89-3.17,1.47-4.68,1-2.64,3.76-4.35,8.14-5.09,1.5-.26,3.08-.45,4.61-.63Zm-7.37-.22c-5.08.86-8.39,2.92-9.56,6-.26.68-.49,1.35-.71,2a1.6,1.6,0,0,0,0-.21,8.65,8.65,0,0,0-5.11-6.22,36.16,36.16,0,0,0-8.08-2.05l2.17-.28c5.91-.74,9.37-3,10.57-6.79l.33-1,.18-.59c.12.4.23.8.35,1.2,1.29,4.36,5,6.65,12.28,7.6C1061.82,119.58,1061,119.7,1060.24,119.83Z"/><path class="cls-2" d="M336.37,74.79l4.24-.55-4.23-.58c-1.58-.22-2.71-.35-4.05-.51-6.87-.82-10-2.7-11.2-6.72-.32-1.05-.6-2.11-.91-3.26l-1.56-5.77-1,4c-.09.38-.14.68-.18.9a.17.17,0,0,0,0,.07l-.08.27c-.29,1.18-.58,2.09-.91,3.13l-.33,1c-1.06,3.36-3.91,5.22-9,5.85l-4.39.58-7.1,1,5.19.46c1.63.15,8.6,1.11,11.33,2.38,3,1.39,3.78,3.4,4.39,5.51.16.57.3,1,.47,1.53s.36,1.17.64,2.1l1,3.52,1.2-4.24c.48-1.7.9-3.16,1.48-4.68,1-2.64,3.76-4.35,8.13-5.09,1.5-.25,3.08-.45,4.61-.63C334.93,75,335.65,74.89,336.37,74.79ZM329,74.57c-5.08.86-8.39,2.92-9.56,6-.27.68-.49,1.35-.71,2l-.06-.2a8.6,8.6,0,0,0-5.11-6.23,37,37,0,0,0-8.08-2l2.18-.28c5.91-.74,9.36-3,10.57-6.79l.32-1c.07-.2.13-.39.19-.59.11.41.23.8.34,1.2,1.3,4.36,5,6.65,12.29,7.6C330.58,74.33,329.78,74.44,329,74.57Z"/></g></g></svg>